G04 #@! TF.GenerationSoftware,KiCad,Pcbnew,(5.0.0-3-g5ebb6b6)*
G04 #@! TF.CreationDate,2018-09-25T22:11:26+10:00*
G04 #@! TF.ProjectId,arduinouno,61726475696E6F756E6F2E6B69636164,rev?*
G04 #@! TF.SameCoordinates,Original*
G04 #@! TF.FileFunction,Paste,Top*
G04 #@! TF.FilePolarity,Positive*
%FSLAX46Y46*%
G04 Gerber Fmt 4.6, Leading zero omitted, Abs format (unit mm)*
G04 Created by KiCad (PCBNEW (5.0.0-3-g5ebb6b6)) date Tuesday, 25 September 2018 at 10:11:26 PM*
%MOMM*%
%LPD*%
G01*
G04 APERTURE LIST*
%ADD10R,1.300000X0.700000*%
%ADD11R,2.600000X2.500000*%
%ADD12R,1.600000X3.000000*%
%ADD13R,0.700000X1.300000*%
%ADD14R,0.800000X0.800000*%
%ADD15R,0.830000X0.630000*%
%ADD16R,0.630000X0.830000*%
%ADD17R,1.900000X1.900000*%
%ADD18R,1.400000X1.600000*%
%ADD19R,1.350000X0.400000*%
%ADD20R,2.700000X2.000000*%
%ADD21R,0.550000X1.500000*%
%ADD22R,1.500000X0.550000*%
%ADD23R,3.500000X2.200000*%
%ADD24R,0.600000X2.200000*%
%ADD25R,1.100000X0.600000*%
%ADD26R,0.600000X1.100000*%
%ADD27R,2.500000X2.600000*%
%ADD28R,0.900000X0.600000*%
G04 APERTURE END LIST*
D10*
G04 #@! TO.C,C16*
X137200000Y-97650000D03*
X137200000Y-99550000D03*
G04 #@! TD*
D11*
G04 #@! TO.C,Y2*
X126700000Y-77100000D03*
X126700000Y-72200000D03*
G04 #@! TD*
D12*
G04 #@! TO.C,C1*
X108800000Y-89950000D03*
X108800000Y-94050000D03*
G04 #@! TD*
G04 #@! TO.C,C2*
X108800000Y-98050000D03*
X108800000Y-102150000D03*
G04 #@! TD*
D10*
G04 #@! TO.C,C3*
X124000000Y-80150000D03*
X124000000Y-82050000D03*
G04 #@! TD*
G04 #@! TO.C,C4*
X121800000Y-82050000D03*
X121800000Y-80150000D03*
G04 #@! TD*
G04 #@! TO.C,C5*
X123625000Y-71550000D03*
X123625000Y-73450000D03*
G04 #@! TD*
G04 #@! TO.C,C6*
X119250000Y-82050000D03*
X119250000Y-80150000D03*
G04 #@! TD*
D13*
G04 #@! TO.C,C7*
X113650000Y-81000000D03*
X115550000Y-81000000D03*
G04 #@! TD*
D10*
G04 #@! TO.C,C8*
X103800000Y-58950000D03*
X103800000Y-60850000D03*
G04 #@! TD*
D13*
G04 #@! TO.C,C9*
X125775000Y-69475000D03*
X127675000Y-69475000D03*
G04 #@! TD*
G04 #@! TO.C,C10*
X125675000Y-79800000D03*
X127575000Y-79800000D03*
G04 #@! TD*
D10*
G04 #@! TO.C,C11*
X165300000Y-56650000D03*
X165300000Y-58550000D03*
G04 #@! TD*
G04 #@! TO.C,C12*
X113100000Y-90950000D03*
X113100000Y-92850000D03*
G04 #@! TD*
G04 #@! TO.C,C13*
X122300000Y-91450000D03*
X122300000Y-93350000D03*
G04 #@! TD*
D13*
G04 #@! TO.C,C14*
X141950000Y-99300000D03*
X140050000Y-99300000D03*
G04 #@! TD*
D10*
G04 #@! TO.C,C15*
X131900000Y-97650000D03*
X131900000Y-99550000D03*
G04 #@! TD*
D13*
G04 #@! TO.C,C17*
X105450000Y-52000000D03*
X103550000Y-52000000D03*
G04 #@! TD*
G04 #@! TO.C,C19*
X147950000Y-96225000D03*
X149850000Y-96225000D03*
G04 #@! TD*
G04 #@! TO.C,C20*
X146250000Y-81400000D03*
X148150000Y-81400000D03*
G04 #@! TD*
G04 #@! TO.C,C21*
X127650000Y-55600000D03*
X125750000Y-55600000D03*
G04 #@! TD*
G04 #@! TO.C,C22*
X142450000Y-96200000D03*
X144350000Y-96200000D03*
G04 #@! TD*
G04 #@! TO.C,C23*
X142450000Y-94100000D03*
X144350000Y-94100000D03*
G04 #@! TD*
G04 #@! TO.C,C24*
X147750000Y-94100000D03*
X145850000Y-94100000D03*
G04 #@! TD*
G04 #@! TO.C,C25*
X146250000Y-79300000D03*
X148150000Y-79300000D03*
G04 #@! TD*
D10*
G04 #@! TO.C,C26*
X123000000Y-61650000D03*
X123000000Y-59750000D03*
G04 #@! TD*
D13*
G04 #@! TO.C,C27*
X144750000Y-79300000D03*
X142850000Y-79300000D03*
G04 #@! TD*
G04 #@! TO.C,C28*
X168750000Y-91400000D03*
X166850000Y-91400000D03*
G04 #@! TD*
D10*
G04 #@! TO.C,C29*
X124300000Y-83750000D03*
X124300000Y-85650000D03*
G04 #@! TD*
D13*
G04 #@! TO.C,C30*
X109050000Y-74750000D03*
X107150000Y-74750000D03*
G04 #@! TD*
G04 #@! TO.C,C31*
X111850000Y-81000000D03*
X109950000Y-81000000D03*
G04 #@! TD*
D10*
G04 #@! TO.C,C32*
X165900000Y-85200000D03*
X165900000Y-83300000D03*
G04 #@! TD*
G04 #@! TO.C,C33*
X124400000Y-91450000D03*
X124400000Y-93350000D03*
G04 #@! TD*
D13*
G04 #@! TO.C,C34*
X162250000Y-71200000D03*
X160350000Y-71200000D03*
G04 #@! TD*
D14*
G04 #@! TO.C,D1*
X160700000Y-67400000D03*
X162300000Y-67400000D03*
G04 #@! TD*
G04 #@! TO.C,D2*
X125200000Y-61700000D03*
X126800000Y-61700000D03*
G04 #@! TD*
G04 #@! TO.C,D3*
X125100000Y-64300000D03*
X126700000Y-64300000D03*
G04 #@! TD*
G04 #@! TO.C,D4*
X125100000Y-66000000D03*
X126700000Y-66000000D03*
G04 #@! TD*
D15*
G04 #@! TO.C,D5*
X103200000Y-77115000D03*
X103200000Y-74885000D03*
G04 #@! TD*
D16*
G04 #@! TO.C,D6*
X164515000Y-79900000D03*
X162285000Y-79900000D03*
G04 #@! TD*
D10*
G04 #@! TO.C,FB1*
X121800000Y-83750000D03*
X121800000Y-85650000D03*
G04 #@! TD*
D13*
G04 #@! TO.C,FB2*
X149850000Y-98325000D03*
X147950000Y-98325000D03*
G04 #@! TD*
D10*
G04 #@! TO.C,FB3*
X146150000Y-95900000D03*
X146150000Y-97800000D03*
G04 #@! TD*
D17*
G04 #@! TO.C,J7*
X103600000Y-85290000D03*
X103600000Y-82790000D03*
D18*
X106050000Y-87240000D03*
X106050000Y-80840000D03*
D19*
X106275000Y-85340000D03*
X106275000Y-84690000D03*
X106275000Y-82740000D03*
X106275000Y-83390000D03*
X106275000Y-84040000D03*
G04 #@! TD*
D20*
G04 #@! TO.C,L1*
X103700000Y-97900000D03*
X103700000Y-94700000D03*
G04 #@! TD*
D10*
G04 #@! TO.C,R1*
X118700000Y-65750000D03*
X118700000Y-63850000D03*
G04 #@! TD*
D13*
G04 #@! TO.C,R2*
X128650000Y-59900000D03*
X130550000Y-59900000D03*
G04 #@! TD*
G04 #@! TO.C,R3*
X128650000Y-62000000D03*
X130550000Y-62000000D03*
G04 #@! TD*
D10*
G04 #@! TO.C,R4*
X110800000Y-75850000D03*
X110800000Y-77750000D03*
G04 #@! TD*
D13*
G04 #@! TO.C,R5*
X109450000Y-69100000D03*
X111350000Y-69100000D03*
G04 #@! TD*
G04 #@! TO.C,R6*
X111850000Y-82900000D03*
X109950000Y-82900000D03*
G04 #@! TD*
G04 #@! TO.C,R7*
X111850000Y-84900000D03*
X109950000Y-84900000D03*
G04 #@! TD*
G04 #@! TO.C,R8*
X111850000Y-87000000D03*
X109950000Y-87000000D03*
G04 #@! TD*
D10*
G04 #@! TO.C,R9*
X123625000Y-77075000D03*
X123625000Y-75175000D03*
G04 #@! TD*
G04 #@! TO.C,R10*
X162600000Y-56650000D03*
X162600000Y-58550000D03*
G04 #@! TD*
G04 #@! TO.C,R11*
X159900000Y-56650000D03*
X159900000Y-58550000D03*
G04 #@! TD*
G04 #@! TO.C,R12*
X165300000Y-61050000D03*
X165300000Y-62950000D03*
G04 #@! TD*
D13*
G04 #@! TO.C,R13*
X139000000Y-94125000D03*
X140900000Y-94125000D03*
G04 #@! TD*
G04 #@! TO.C,R14*
X162550000Y-81600000D03*
X164450000Y-81600000D03*
G04 #@! TD*
G04 #@! TO.C,R15*
X126950000Y-59900000D03*
X125050000Y-59900000D03*
G04 #@! TD*
G04 #@! TO.C,R16*
X142800000Y-81400000D03*
X144700000Y-81400000D03*
G04 #@! TD*
G04 #@! TO.C,R17*
X162250000Y-69200000D03*
X160350000Y-69200000D03*
G04 #@! TD*
D10*
G04 #@! TO.C,R18*
X168000000Y-85200000D03*
X168000000Y-83300000D03*
G04 #@! TD*
G04 #@! TO.C,R19*
X105000000Y-76950000D03*
X105000000Y-75050000D03*
G04 #@! TD*
G04 #@! TO.C,R20*
X168000000Y-79950000D03*
X168000000Y-81850000D03*
G04 #@! TD*
G04 #@! TO.C,R21*
X128600000Y-97350000D03*
X128600000Y-99250000D03*
G04 #@! TD*
G04 #@! TO.C,R22*
X126700000Y-87650000D03*
X126700000Y-89550000D03*
G04 #@! TD*
D13*
G04 #@! TO.C,R23*
X105150000Y-78800000D03*
X103250000Y-78800000D03*
G04 #@! TD*
D10*
G04 #@! TO.C,R24*
X166100000Y-81850000D03*
X166100000Y-79950000D03*
G04 #@! TD*
D13*
G04 #@! TO.C,R25*
X128500000Y-95400000D03*
X130400000Y-95400000D03*
G04 #@! TD*
G04 #@! TO.C,R26*
X113650000Y-82900000D03*
X115550000Y-82900000D03*
G04 #@! TD*
D10*
G04 #@! TO.C,R27*
X135100000Y-97650000D03*
X135100000Y-95750000D03*
G04 #@! TD*
G04 #@! TO.C,R28*
X135100000Y-99550000D03*
X135100000Y-97650000D03*
G04 #@! TD*
D21*
G04 #@! TO.C,U2*
X119800000Y-78340000D03*
X119000000Y-78340000D03*
X118200000Y-78340000D03*
X117400000Y-78340000D03*
X116600000Y-78340000D03*
X115800000Y-78340000D03*
X115000000Y-78340000D03*
X114200000Y-78340000D03*
D22*
X112800000Y-76940000D03*
X112800000Y-76140000D03*
X112800000Y-75340000D03*
X112800000Y-74540000D03*
X112800000Y-73740000D03*
X112800000Y-72940000D03*
X112800000Y-72140000D03*
X112800000Y-71340000D03*
D21*
X114200000Y-69940000D03*
X115000000Y-69940000D03*
X115800000Y-69940000D03*
X116600000Y-69940000D03*
X117400000Y-69940000D03*
X118200000Y-69940000D03*
X119000000Y-69940000D03*
X119800000Y-69940000D03*
D22*
X121200000Y-71340000D03*
X121200000Y-72140000D03*
X121200000Y-72940000D03*
X121200000Y-73740000D03*
X121200000Y-74540000D03*
X121200000Y-75340000D03*
X121200000Y-76140000D03*
X121200000Y-76940000D03*
G04 #@! TD*
D23*
G04 #@! TO.C,U3*
X117800000Y-86550000D03*
D24*
X120340000Y-92750000D03*
X119070000Y-92750000D03*
X115260000Y-92750000D03*
X116530000Y-92750000D03*
X117800000Y-92750000D03*
G04 #@! TD*
D25*
G04 #@! TO.C,U4*
X118450000Y-61850000D03*
X121150000Y-61850000D03*
X118450000Y-60900000D03*
X118450000Y-59950000D03*
X121150000Y-59950000D03*
G04 #@! TD*
D26*
G04 #@! TO.C,U5*
X108650000Y-79250000D03*
X108650000Y-76550000D03*
X107700000Y-79250000D03*
X106750000Y-79250000D03*
X106750000Y-76550000D03*
G04 #@! TD*
G04 #@! TO.C,U6*
X166350000Y-86800000D03*
X166350000Y-89500000D03*
X167300000Y-86800000D03*
X168250000Y-86800000D03*
X168250000Y-89500000D03*
G04 #@! TD*
D25*
G04 #@! TO.C,U7*
X122250000Y-89550000D03*
X124950000Y-89550000D03*
X122250000Y-88600000D03*
X122250000Y-87650000D03*
X124950000Y-87650000D03*
G04 #@! TD*
D27*
G04 #@! TO.C,Y1*
X142975000Y-76225000D03*
X147875000Y-76225000D03*
G04 #@! TD*
D28*
G04 #@! TO.C,Z1*
X108350000Y-83050000D03*
X108350000Y-81550000D03*
G04 #@! TD*
G04 #@! TO.C,Z2*
X108350000Y-84500000D03*
X108350000Y-86000000D03*
G04 #@! TD*
M02*
