G04 #@! TF.GenerationSoftware,KiCad,Pcbnew,(5.0.0-3-g5ebb6b6)*
G04 #@! TF.CreationDate,2018-09-25T22:11:26+10:00*
G04 #@! TF.ProjectId,arduinouno,61726475696E6F756E6F2E6B69636164,rev?*
G04 #@! TF.SameCoordinates,Original*
G04 #@! TF.FileFunction,Soldermask,Top*
G04 #@! TF.FilePolarity,Negative*
%FSLAX46Y46*%
G04 Gerber Fmt 4.6, Leading zero omitted, Abs format (unit mm)*
G04 Created by KiCad (PCBNEW (5.0.0-3-g5ebb6b6)) date Tuesday, 25 September 2018 at 10:11:26 PM*
%MOMM*%
%LPD*%
G01*
G04 APERTURE LIST*
%ADD10C,0.100000*%
G04 APERTURE END LIST*
D10*
G36*
X116707588Y-97849875D02*
X116707590Y-97849876D01*
X116707591Y-97849876D01*
X116828601Y-97900000D01*
X117417343Y-98143865D01*
X117725845Y-98350000D01*
X118056103Y-98570671D01*
X118599329Y-99113897D01*
X118812005Y-99432189D01*
X119026135Y-99752657D01*
X119163286Y-100083769D01*
X119302558Y-100420000D01*
X119320125Y-100462412D01*
X119470000Y-101215884D01*
X119470000Y-101984116D01*
X119321963Y-102728349D01*
X119320124Y-102737591D01*
X119275827Y-102844534D01*
X119026135Y-103447343D01*
X118824163Y-103749615D01*
X118599329Y-104086103D01*
X118056103Y-104629329D01*
X117737811Y-104842005D01*
X117417343Y-105056135D01*
X116969771Y-105241525D01*
X116707591Y-105350124D01*
X116707590Y-105350124D01*
X116707588Y-105350125D01*
X115954116Y-105500000D01*
X115185884Y-105500000D01*
X114432412Y-105350125D01*
X114432410Y-105350124D01*
X114432409Y-105350124D01*
X114170229Y-105241525D01*
X113722657Y-105056135D01*
X113402189Y-104842005D01*
X113083897Y-104629329D01*
X112540671Y-104086103D01*
X112315837Y-103749615D01*
X112113865Y-103447343D01*
X111864173Y-102844534D01*
X111819876Y-102737591D01*
X111818038Y-102728349D01*
X111670000Y-101984116D01*
X111670000Y-101215884D01*
X111819875Y-100462412D01*
X111837443Y-100420000D01*
X111976714Y-100083769D01*
X112113865Y-99752657D01*
X112327995Y-99432189D01*
X112540671Y-99113897D01*
X113083897Y-98570671D01*
X113414155Y-98350000D01*
X113722657Y-98143865D01*
X114311399Y-97900000D01*
X114432409Y-97849876D01*
X114432410Y-97849876D01*
X114432412Y-97849875D01*
X115185884Y-97700000D01*
X115954116Y-97700000D01*
X116707588Y-97849875D01*
X116707588Y-97849875D01*
G37*
G36*
X104186695Y-99633818D02*
X104441719Y-99684545D01*
X104842091Y-99850385D01*
X105202417Y-100091147D01*
X105508853Y-100397583D01*
X105749615Y-100757909D01*
X105915455Y-101158281D01*
X106000000Y-101583321D01*
X106000000Y-102016679D01*
X105915455Y-102441719D01*
X105749615Y-102842091D01*
X105508853Y-103202417D01*
X105202417Y-103508853D01*
X104842091Y-103749615D01*
X104441719Y-103915455D01*
X104186695Y-103966182D01*
X104016681Y-104000000D01*
X103583319Y-104000000D01*
X103413305Y-103966182D01*
X103158281Y-103915455D01*
X102757909Y-103749615D01*
X102397583Y-103508853D01*
X102091147Y-103202417D01*
X101850385Y-102842091D01*
X101684545Y-102441719D01*
X101600000Y-102016679D01*
X101600000Y-101583321D01*
X101684545Y-101158281D01*
X101850385Y-100757909D01*
X102091147Y-100397583D01*
X102397583Y-100091147D01*
X102757909Y-99850385D01*
X103158281Y-99684545D01*
X103413305Y-99633818D01*
X103583319Y-99600000D01*
X104016681Y-99600000D01*
X104186695Y-99633818D01*
X104186695Y-99633818D01*
G37*
G36*
X168844534Y-100934566D02*
X168844536Y-100934567D01*
X168844537Y-100934567D01*
X169121885Y-101049449D01*
X169371492Y-101216231D01*
X169583769Y-101428508D01*
X169750551Y-101678115D01*
X169821384Y-101849119D01*
X169865434Y-101955466D01*
X169924000Y-102249899D01*
X169924000Y-102550101D01*
X169873330Y-102804839D01*
X169865433Y-102844537D01*
X169750551Y-103121885D01*
X169583769Y-103371492D01*
X169371492Y-103583769D01*
X169121885Y-103750551D01*
X168844537Y-103865433D01*
X168844536Y-103865433D01*
X168844534Y-103865434D01*
X168550101Y-103924000D01*
X168249899Y-103924000D01*
X167955466Y-103865434D01*
X167955464Y-103865433D01*
X167955463Y-103865433D01*
X167678115Y-103750551D01*
X167428508Y-103583769D01*
X167216231Y-103371492D01*
X167049449Y-103121885D01*
X166934567Y-102844537D01*
X166926671Y-102804839D01*
X166876000Y-102550101D01*
X166876000Y-102249899D01*
X166934566Y-101955466D01*
X166978617Y-101849119D01*
X167049449Y-101678115D01*
X167216231Y-101428508D01*
X167428508Y-101216231D01*
X167678115Y-101049449D01*
X167955463Y-100934567D01*
X167955464Y-100934567D01*
X167955466Y-100934566D01*
X168249899Y-100876000D01*
X168550101Y-100876000D01*
X168844534Y-100934566D01*
X168844534Y-100934566D01*
G37*
G36*
X109800000Y-103850000D02*
X107800000Y-103850000D01*
X107800000Y-100450000D01*
X109800000Y-100450000D01*
X109800000Y-103850000D01*
X109800000Y-103850000D01*
G37*
G36*
X126385443Y-101144194D02*
X126594729Y-101230884D01*
X126783082Y-101356737D01*
X126943263Y-101516918D01*
X127069116Y-101705271D01*
X127155806Y-101914557D01*
X127200000Y-102136735D01*
X127200000Y-102363265D01*
X127155806Y-102585443D01*
X127069116Y-102794729D01*
X126943263Y-102983082D01*
X126783082Y-103143263D01*
X126594729Y-103269116D01*
X126385443Y-103355806D01*
X126163265Y-103400000D01*
X125936735Y-103400000D01*
X125714557Y-103355806D01*
X125505271Y-103269116D01*
X125316918Y-103143263D01*
X125156737Y-102983082D01*
X125030884Y-102794729D01*
X124944194Y-102585443D01*
X124900000Y-102363265D01*
X124900000Y-102136735D01*
X124944194Y-101914557D01*
X125030884Y-101705271D01*
X125156737Y-101516918D01*
X125316918Y-101356737D01*
X125505271Y-101230884D01*
X125714557Y-101144194D01*
X125936735Y-101100000D01*
X126163265Y-101100000D01*
X126385443Y-101144194D01*
X126385443Y-101144194D01*
G37*
G36*
X121885443Y-101144194D02*
X122094729Y-101230884D01*
X122283082Y-101356737D01*
X122443263Y-101516918D01*
X122569116Y-101705271D01*
X122655806Y-101914557D01*
X122700000Y-102136735D01*
X122700000Y-102363265D01*
X122655806Y-102585443D01*
X122569116Y-102794729D01*
X122443263Y-102983082D01*
X122283082Y-103143263D01*
X122094729Y-103269116D01*
X121885443Y-103355806D01*
X121663265Y-103400000D01*
X121436735Y-103400000D01*
X121214557Y-103355806D01*
X121005271Y-103269116D01*
X120816918Y-103143263D01*
X120656737Y-102983082D01*
X120530884Y-102794729D01*
X120444194Y-102585443D01*
X120400000Y-102363265D01*
X120400000Y-102136735D01*
X120444194Y-101914557D01*
X120530884Y-101705271D01*
X120656737Y-101516918D01*
X120816918Y-101356737D01*
X121005271Y-101230884D01*
X121214557Y-101144194D01*
X121436735Y-101100000D01*
X121663265Y-101100000D01*
X121885443Y-101144194D01*
X121885443Y-101144194D01*
G37*
G36*
X147516031Y-100414468D02*
X147663038Y-100459063D01*
X147704534Y-100471651D01*
X147704536Y-100471652D01*
X147878258Y-100564507D01*
X148030528Y-100689472D01*
X148155493Y-100841742D01*
X148248348Y-101015463D01*
X148305532Y-101203969D01*
X148320000Y-101350871D01*
X148320000Y-101849128D01*
X148305532Y-101996030D01*
X148299267Y-102016681D01*
X148248349Y-102184535D01*
X148248348Y-102184536D01*
X148155493Y-102358258D01*
X148030528Y-102510528D01*
X147878258Y-102635493D01*
X147704537Y-102728348D01*
X147704535Y-102728349D01*
X147674078Y-102737588D01*
X147516031Y-102785532D01*
X147320001Y-102804839D01*
X147123969Y-102785532D01*
X146965923Y-102737588D01*
X146935466Y-102728349D01*
X146935464Y-102728348D01*
X146761743Y-102635493D01*
X146609473Y-102510528D01*
X146484509Y-102358259D01*
X146391651Y-102184535D01*
X146334468Y-101996031D01*
X146320000Y-101849129D01*
X146320000Y-101350872D01*
X146334468Y-101203970D01*
X146376489Y-101065449D01*
X146391651Y-101015466D01*
X146434892Y-100934567D01*
X146484507Y-100841742D01*
X146609472Y-100689472D01*
X146761742Y-100564507D01*
X146935463Y-100471652D01*
X146935465Y-100471651D01*
X146985448Y-100456489D01*
X147123969Y-100414468D01*
X147319999Y-100395161D01*
X147516031Y-100414468D01*
X147516031Y-100414468D01*
G37*
G36*
X155136031Y-100414468D02*
X155283038Y-100459063D01*
X155324534Y-100471651D01*
X155324536Y-100471652D01*
X155498258Y-100564507D01*
X155650528Y-100689472D01*
X155775493Y-100841742D01*
X155868348Y-101015463D01*
X155925532Y-101203969D01*
X155940000Y-101350871D01*
X155940000Y-101849128D01*
X155925532Y-101996030D01*
X155919267Y-102016681D01*
X155868349Y-102184535D01*
X155868348Y-102184536D01*
X155775493Y-102358258D01*
X155650528Y-102510528D01*
X155498258Y-102635493D01*
X155324537Y-102728348D01*
X155324535Y-102728349D01*
X155294078Y-102737588D01*
X155136031Y-102785532D01*
X154940001Y-102804839D01*
X154743969Y-102785532D01*
X154585923Y-102737588D01*
X154555466Y-102728349D01*
X154555464Y-102728348D01*
X154381743Y-102635493D01*
X154229473Y-102510528D01*
X154104509Y-102358259D01*
X154011651Y-102184535D01*
X153954468Y-101996031D01*
X153940000Y-101849129D01*
X153940000Y-101350872D01*
X153954468Y-101203970D01*
X153996489Y-101065449D01*
X154011651Y-101015466D01*
X154054892Y-100934567D01*
X154104507Y-100841742D01*
X154229472Y-100689472D01*
X154381742Y-100564507D01*
X154555463Y-100471652D01*
X154555465Y-100471651D01*
X154605448Y-100456489D01*
X154743969Y-100414468D01*
X154939999Y-100395161D01*
X155136031Y-100414468D01*
X155136031Y-100414468D01*
G37*
G36*
X157676031Y-100414468D02*
X157823038Y-100459063D01*
X157864534Y-100471651D01*
X157864536Y-100471652D01*
X158038258Y-100564507D01*
X158190528Y-100689472D01*
X158315493Y-100841742D01*
X158408348Y-101015463D01*
X158465532Y-101203969D01*
X158480000Y-101350871D01*
X158480000Y-101849128D01*
X158465532Y-101996030D01*
X158459267Y-102016681D01*
X158408349Y-102184535D01*
X158408348Y-102184536D01*
X158315493Y-102358258D01*
X158190528Y-102510528D01*
X158038258Y-102635493D01*
X157864537Y-102728348D01*
X157864535Y-102728349D01*
X157834078Y-102737588D01*
X157676031Y-102785532D01*
X157480001Y-102804839D01*
X157283969Y-102785532D01*
X157125923Y-102737588D01*
X157095466Y-102728349D01*
X157095464Y-102728348D01*
X156921743Y-102635493D01*
X156769473Y-102510528D01*
X156644509Y-102358259D01*
X156551651Y-102184535D01*
X156494468Y-101996031D01*
X156480000Y-101849129D01*
X156480000Y-101350872D01*
X156494468Y-101203970D01*
X156536489Y-101065449D01*
X156551651Y-101015466D01*
X156594892Y-100934567D01*
X156644507Y-100841742D01*
X156769472Y-100689472D01*
X156921742Y-100564507D01*
X157095463Y-100471652D01*
X157095465Y-100471651D01*
X157145448Y-100456489D01*
X157283969Y-100414468D01*
X157479999Y-100395161D01*
X157676031Y-100414468D01*
X157676031Y-100414468D01*
G37*
G36*
X160216031Y-100414468D02*
X160363038Y-100459063D01*
X160404534Y-100471651D01*
X160404536Y-100471652D01*
X160578258Y-100564507D01*
X160730528Y-100689472D01*
X160855493Y-100841742D01*
X160948348Y-101015463D01*
X161005532Y-101203969D01*
X161020000Y-101350871D01*
X161020000Y-101849128D01*
X161005532Y-101996030D01*
X160999267Y-102016681D01*
X160948349Y-102184535D01*
X160948348Y-102184536D01*
X160855493Y-102358258D01*
X160730528Y-102510528D01*
X160578258Y-102635493D01*
X160404537Y-102728348D01*
X160404535Y-102728349D01*
X160374078Y-102737588D01*
X160216031Y-102785532D01*
X160020001Y-102804839D01*
X159823969Y-102785532D01*
X159665923Y-102737588D01*
X159635466Y-102728349D01*
X159635464Y-102728348D01*
X159461743Y-102635493D01*
X159309473Y-102510528D01*
X159184509Y-102358259D01*
X159091651Y-102184535D01*
X159034468Y-101996031D01*
X159020000Y-101849129D01*
X159020000Y-101350872D01*
X159034468Y-101203970D01*
X159076489Y-101065449D01*
X159091651Y-101015466D01*
X159134892Y-100934567D01*
X159184507Y-100841742D01*
X159309472Y-100689472D01*
X159461742Y-100564507D01*
X159635463Y-100471652D01*
X159635465Y-100471651D01*
X159685448Y-100456489D01*
X159823969Y-100414468D01*
X160019999Y-100395161D01*
X160216031Y-100414468D01*
X160216031Y-100414468D01*
G37*
G36*
X162756031Y-100414468D02*
X162903038Y-100459063D01*
X162944534Y-100471651D01*
X162944536Y-100471652D01*
X163118258Y-100564507D01*
X163270528Y-100689472D01*
X163395493Y-100841742D01*
X163488348Y-101015463D01*
X163545532Y-101203969D01*
X163560000Y-101350871D01*
X163560000Y-101849128D01*
X163545532Y-101996030D01*
X163539267Y-102016681D01*
X163488349Y-102184535D01*
X163488348Y-102184536D01*
X163395493Y-102358258D01*
X163270528Y-102510528D01*
X163118258Y-102635493D01*
X162944537Y-102728348D01*
X162944535Y-102728349D01*
X162914078Y-102737588D01*
X162756031Y-102785532D01*
X162560001Y-102804839D01*
X162363969Y-102785532D01*
X162205923Y-102737588D01*
X162175466Y-102728349D01*
X162175464Y-102728348D01*
X162001743Y-102635493D01*
X161849473Y-102510528D01*
X161724509Y-102358259D01*
X161631651Y-102184535D01*
X161574468Y-101996031D01*
X161560000Y-101849129D01*
X161560000Y-101350872D01*
X161574468Y-101203970D01*
X161616489Y-101065449D01*
X161631651Y-101015466D01*
X161674892Y-100934567D01*
X161724507Y-100841742D01*
X161849472Y-100689472D01*
X162001742Y-100564507D01*
X162175463Y-100471652D01*
X162175465Y-100471651D01*
X162225448Y-100456489D01*
X162363969Y-100414468D01*
X162559999Y-100395161D01*
X162756031Y-100414468D01*
X162756031Y-100414468D01*
G37*
G36*
X165296031Y-100414468D02*
X165443038Y-100459063D01*
X165484534Y-100471651D01*
X165484536Y-100471652D01*
X165658258Y-100564507D01*
X165810528Y-100689472D01*
X165935493Y-100841742D01*
X166028348Y-101015463D01*
X166085532Y-101203969D01*
X166100000Y-101350871D01*
X166100000Y-101849128D01*
X166085532Y-101996030D01*
X166079267Y-102016681D01*
X166028349Y-102184535D01*
X166028348Y-102184536D01*
X165935493Y-102358258D01*
X165810528Y-102510528D01*
X165658258Y-102635493D01*
X165484537Y-102728348D01*
X165484535Y-102728349D01*
X165454078Y-102737588D01*
X165296031Y-102785532D01*
X165100001Y-102804839D01*
X164903969Y-102785532D01*
X164745923Y-102737588D01*
X164715466Y-102728349D01*
X164715464Y-102728348D01*
X164541743Y-102635493D01*
X164389473Y-102510528D01*
X164264509Y-102358259D01*
X164171651Y-102184535D01*
X164114468Y-101996031D01*
X164100000Y-101849129D01*
X164100000Y-101350872D01*
X164114468Y-101203970D01*
X164156489Y-101065449D01*
X164171651Y-101015466D01*
X164214892Y-100934567D01*
X164264507Y-100841742D01*
X164389472Y-100689472D01*
X164541742Y-100564507D01*
X164715463Y-100471652D01*
X164715465Y-100471651D01*
X164765448Y-100456489D01*
X164903969Y-100414468D01*
X165099999Y-100395161D01*
X165296031Y-100414468D01*
X165296031Y-100414468D01*
G37*
G36*
X144976031Y-100414468D02*
X145123038Y-100459063D01*
X145164534Y-100471651D01*
X145164536Y-100471652D01*
X145338258Y-100564507D01*
X145490528Y-100689472D01*
X145615493Y-100841742D01*
X145708348Y-101015463D01*
X145765532Y-101203969D01*
X145780000Y-101350871D01*
X145780000Y-101849128D01*
X145765532Y-101996030D01*
X145759267Y-102016681D01*
X145708349Y-102184535D01*
X145708348Y-102184536D01*
X145615493Y-102358258D01*
X145490528Y-102510528D01*
X145338258Y-102635493D01*
X145164537Y-102728348D01*
X145164535Y-102728349D01*
X145134078Y-102737588D01*
X144976031Y-102785532D01*
X144780001Y-102804839D01*
X144583969Y-102785532D01*
X144425923Y-102737588D01*
X144395466Y-102728349D01*
X144395464Y-102728348D01*
X144221743Y-102635493D01*
X144069473Y-102510528D01*
X143944509Y-102358259D01*
X143851651Y-102184535D01*
X143794468Y-101996031D01*
X143780000Y-101849129D01*
X143780000Y-101350872D01*
X143794468Y-101203970D01*
X143836489Y-101065449D01*
X143851651Y-101015466D01*
X143894892Y-100934567D01*
X143944507Y-100841742D01*
X144069472Y-100689472D01*
X144221742Y-100564507D01*
X144395463Y-100471652D01*
X144395465Y-100471651D01*
X144445448Y-100456489D01*
X144583969Y-100414468D01*
X144779999Y-100395161D01*
X144976031Y-100414468D01*
X144976031Y-100414468D01*
G37*
G36*
X137356031Y-100414468D02*
X137503038Y-100459063D01*
X137544534Y-100471651D01*
X137544536Y-100471652D01*
X137718258Y-100564507D01*
X137870528Y-100689472D01*
X137995493Y-100841742D01*
X138088348Y-101015463D01*
X138145532Y-101203969D01*
X138160000Y-101350871D01*
X138160000Y-101849128D01*
X138145532Y-101996030D01*
X138139267Y-102016681D01*
X138088349Y-102184535D01*
X138088348Y-102184536D01*
X137995493Y-102358258D01*
X137870528Y-102510528D01*
X137718258Y-102635493D01*
X137544537Y-102728348D01*
X137544535Y-102728349D01*
X137514078Y-102737588D01*
X137356031Y-102785532D01*
X137160001Y-102804839D01*
X136963969Y-102785532D01*
X136805923Y-102737588D01*
X136775466Y-102728349D01*
X136775464Y-102728348D01*
X136601743Y-102635493D01*
X136449473Y-102510528D01*
X136324509Y-102358259D01*
X136231651Y-102184535D01*
X136174468Y-101996031D01*
X136160000Y-101849129D01*
X136160000Y-101350872D01*
X136174468Y-101203970D01*
X136216489Y-101065449D01*
X136231651Y-101015466D01*
X136274892Y-100934567D01*
X136324507Y-100841742D01*
X136449472Y-100689472D01*
X136601742Y-100564507D01*
X136775463Y-100471652D01*
X136775465Y-100471651D01*
X136825448Y-100456489D01*
X136963969Y-100414468D01*
X137159999Y-100395161D01*
X137356031Y-100414468D01*
X137356031Y-100414468D01*
G37*
G36*
X132276031Y-100414468D02*
X132423038Y-100459063D01*
X132464534Y-100471651D01*
X132464536Y-100471652D01*
X132638258Y-100564507D01*
X132790528Y-100689472D01*
X132915493Y-100841742D01*
X133008348Y-101015463D01*
X133065532Y-101203969D01*
X133080000Y-101350871D01*
X133080000Y-101849128D01*
X133065532Y-101996030D01*
X133059267Y-102016681D01*
X133008349Y-102184535D01*
X133008348Y-102184536D01*
X132915493Y-102358258D01*
X132790528Y-102510528D01*
X132638258Y-102635493D01*
X132464537Y-102728348D01*
X132464535Y-102728349D01*
X132434078Y-102737588D01*
X132276031Y-102785532D01*
X132080001Y-102804839D01*
X131883969Y-102785532D01*
X131725923Y-102737588D01*
X131695466Y-102728349D01*
X131695464Y-102728348D01*
X131521743Y-102635493D01*
X131369473Y-102510528D01*
X131244509Y-102358259D01*
X131151651Y-102184535D01*
X131094468Y-101996031D01*
X131080000Y-101849129D01*
X131080000Y-101350872D01*
X131094468Y-101203970D01*
X131136489Y-101065449D01*
X131151651Y-101015466D01*
X131194892Y-100934567D01*
X131244507Y-100841742D01*
X131369472Y-100689472D01*
X131521742Y-100564507D01*
X131695463Y-100471652D01*
X131695465Y-100471651D01*
X131745448Y-100456489D01*
X131883969Y-100414468D01*
X132079999Y-100395161D01*
X132276031Y-100414468D01*
X132276031Y-100414468D01*
G37*
G36*
X134816031Y-100414468D02*
X134963038Y-100459063D01*
X135004534Y-100471651D01*
X135004536Y-100471652D01*
X135178258Y-100564507D01*
X135330528Y-100689472D01*
X135455493Y-100841742D01*
X135548348Y-101015463D01*
X135605532Y-101203969D01*
X135620000Y-101350871D01*
X135620000Y-101849128D01*
X135605532Y-101996030D01*
X135599267Y-102016681D01*
X135548349Y-102184535D01*
X135548348Y-102184536D01*
X135455493Y-102358258D01*
X135330528Y-102510528D01*
X135178258Y-102635493D01*
X135004537Y-102728348D01*
X135004535Y-102728349D01*
X134974078Y-102737588D01*
X134816031Y-102785532D01*
X134620001Y-102804839D01*
X134423969Y-102785532D01*
X134265923Y-102737588D01*
X134235466Y-102728349D01*
X134235464Y-102728348D01*
X134061743Y-102635493D01*
X133909473Y-102510528D01*
X133784509Y-102358259D01*
X133691651Y-102184535D01*
X133634468Y-101996031D01*
X133620000Y-101849129D01*
X133620000Y-101350872D01*
X133634468Y-101203970D01*
X133676489Y-101065449D01*
X133691651Y-101015466D01*
X133734892Y-100934567D01*
X133784507Y-100841742D01*
X133909472Y-100689472D01*
X134061742Y-100564507D01*
X134235463Y-100471652D01*
X134235465Y-100471651D01*
X134285448Y-100456489D01*
X134423969Y-100414468D01*
X134619999Y-100395161D01*
X134816031Y-100414468D01*
X134816031Y-100414468D01*
G37*
G36*
X142436031Y-100414468D02*
X142583038Y-100459063D01*
X142624534Y-100471651D01*
X142624536Y-100471652D01*
X142798258Y-100564507D01*
X142950528Y-100689472D01*
X143075493Y-100841742D01*
X143168348Y-101015463D01*
X143225532Y-101203969D01*
X143240000Y-101350871D01*
X143240000Y-101849128D01*
X143225532Y-101996030D01*
X143219267Y-102016681D01*
X143168349Y-102184535D01*
X143168348Y-102184536D01*
X143075493Y-102358258D01*
X142950528Y-102510528D01*
X142798258Y-102635493D01*
X142624537Y-102728348D01*
X142624535Y-102728349D01*
X142594078Y-102737588D01*
X142436031Y-102785532D01*
X142240001Y-102804839D01*
X142043969Y-102785532D01*
X141885923Y-102737588D01*
X141855466Y-102728349D01*
X141855464Y-102728348D01*
X141681743Y-102635493D01*
X141529473Y-102510528D01*
X141404509Y-102358259D01*
X141311651Y-102184535D01*
X141254468Y-101996031D01*
X141240000Y-101849129D01*
X141240000Y-101350872D01*
X141254468Y-101203970D01*
X141296489Y-101065449D01*
X141311651Y-101015466D01*
X141354892Y-100934567D01*
X141404507Y-100841742D01*
X141529472Y-100689472D01*
X141681742Y-100564507D01*
X141855463Y-100471652D01*
X141855465Y-100471651D01*
X141905448Y-100456489D01*
X142043969Y-100414468D01*
X142239999Y-100395161D01*
X142436031Y-100414468D01*
X142436031Y-100414468D01*
G37*
G36*
X139896031Y-100414468D02*
X140043038Y-100459063D01*
X140084534Y-100471651D01*
X140084536Y-100471652D01*
X140258258Y-100564507D01*
X140410528Y-100689472D01*
X140535493Y-100841742D01*
X140628348Y-101015463D01*
X140685532Y-101203969D01*
X140700000Y-101350871D01*
X140700000Y-101849128D01*
X140685532Y-101996030D01*
X140679267Y-102016681D01*
X140628349Y-102184535D01*
X140628348Y-102184536D01*
X140535493Y-102358258D01*
X140410528Y-102510528D01*
X140258258Y-102635493D01*
X140084537Y-102728348D01*
X140084535Y-102728349D01*
X140054078Y-102737588D01*
X139896031Y-102785532D01*
X139700001Y-102804839D01*
X139503969Y-102785532D01*
X139345923Y-102737588D01*
X139315466Y-102728349D01*
X139315464Y-102728348D01*
X139141743Y-102635493D01*
X138989473Y-102510528D01*
X138864509Y-102358259D01*
X138771651Y-102184535D01*
X138714468Y-101996031D01*
X138700000Y-101849129D01*
X138700000Y-101350872D01*
X138714468Y-101203970D01*
X138756489Y-101065449D01*
X138771651Y-101015466D01*
X138814892Y-100934567D01*
X138864507Y-100841742D01*
X138989472Y-100689472D01*
X139141742Y-100564507D01*
X139315463Y-100471652D01*
X139315465Y-100471651D01*
X139365448Y-100456489D01*
X139503969Y-100414468D01*
X139699999Y-100395161D01*
X139896031Y-100414468D01*
X139896031Y-100414468D01*
G37*
G36*
X153400000Y-102800000D02*
X151400000Y-102800000D01*
X151400000Y-100400000D01*
X153400000Y-100400000D01*
X153400000Y-102800000D01*
X153400000Y-102800000D01*
G37*
G36*
X130540000Y-102800000D02*
X128540000Y-102800000D01*
X128540000Y-100400000D01*
X130540000Y-100400000D01*
X130540000Y-102800000D01*
X130540000Y-102800000D01*
G37*
G36*
X124244534Y-97434566D02*
X124244536Y-97434567D01*
X124244537Y-97434567D01*
X124521885Y-97549449D01*
X124771492Y-97716231D01*
X124983769Y-97928508D01*
X125150551Y-98178115D01*
X125221749Y-98350000D01*
X125265434Y-98455466D01*
X125324000Y-98749899D01*
X125324000Y-99050101D01*
X125311311Y-99113895D01*
X125265433Y-99344537D01*
X125150551Y-99621885D01*
X124983769Y-99871492D01*
X124771492Y-100083769D01*
X124521885Y-100250551D01*
X124244537Y-100365433D01*
X124244536Y-100365433D01*
X124244534Y-100365434D01*
X123950101Y-100424000D01*
X123649899Y-100424000D01*
X123355466Y-100365434D01*
X123355464Y-100365433D01*
X123355463Y-100365433D01*
X123078115Y-100250551D01*
X122828508Y-100083769D01*
X122616231Y-99871492D01*
X122449449Y-99621885D01*
X122334567Y-99344537D01*
X122288690Y-99113895D01*
X122276000Y-99050101D01*
X122276000Y-98749899D01*
X122334566Y-98455466D01*
X122378252Y-98350000D01*
X122449449Y-98178115D01*
X122616231Y-97928508D01*
X122828508Y-97716231D01*
X123078115Y-97549449D01*
X123355463Y-97434567D01*
X123355464Y-97434567D01*
X123355466Y-97434566D01*
X123649899Y-97376000D01*
X123950101Y-97376000D01*
X124244534Y-97434566D01*
X124244534Y-97434566D01*
G37*
G36*
X168777588Y-92769875D02*
X168777590Y-92769876D01*
X168777591Y-92769876D01*
X169039771Y-92878475D01*
X169487343Y-93063865D01*
X169765913Y-93250000D01*
X170126103Y-93490671D01*
X170669329Y-94033897D01*
X170794154Y-94220711D01*
X171096135Y-94672657D01*
X171390125Y-95382412D01*
X171540000Y-96135884D01*
X171540000Y-96904116D01*
X171434487Y-97434567D01*
X171390124Y-97657591D01*
X171365834Y-97716231D01*
X171096135Y-98367343D01*
X170960275Y-98570671D01*
X170669329Y-99006103D01*
X170126103Y-99549329D01*
X169825777Y-99750000D01*
X169487343Y-99976135D01*
X169039771Y-100161525D01*
X168777591Y-100270124D01*
X168777590Y-100270124D01*
X168777588Y-100270125D01*
X168024116Y-100420000D01*
X167255884Y-100420000D01*
X166502412Y-100270125D01*
X166502410Y-100270124D01*
X166502409Y-100270124D01*
X166240229Y-100161525D01*
X165792657Y-99976135D01*
X165454223Y-99750000D01*
X165153897Y-99549329D01*
X164610671Y-99006103D01*
X164319725Y-98570671D01*
X164183865Y-98367343D01*
X163914166Y-97716231D01*
X163889876Y-97657591D01*
X163845514Y-97434567D01*
X163740000Y-96904116D01*
X163740000Y-96135884D01*
X163889875Y-95382412D01*
X164183865Y-94672657D01*
X164485846Y-94220711D01*
X164610671Y-94033897D01*
X165153897Y-93490671D01*
X165514087Y-93250000D01*
X165792657Y-93063865D01*
X166240229Y-92878475D01*
X166502409Y-92769876D01*
X166502410Y-92769876D01*
X166502412Y-92769875D01*
X167255884Y-92620000D01*
X168024116Y-92620000D01*
X168777588Y-92769875D01*
X168777588Y-92769875D01*
G37*
G36*
X140600000Y-100150000D02*
X139500000Y-100150000D01*
X139500000Y-98450000D01*
X140600000Y-98450000D01*
X140600000Y-100150000D01*
X140600000Y-100150000D01*
G37*
G36*
X142500000Y-100150000D02*
X141400000Y-100150000D01*
X141400000Y-98450000D01*
X142500000Y-98450000D01*
X142500000Y-100150000D01*
X142500000Y-100150000D01*
G37*
G36*
X135950000Y-100100000D02*
X134250000Y-100100000D01*
X134250000Y-99000000D01*
X135950000Y-99000000D01*
X135950000Y-100100000D01*
X135950000Y-100100000D01*
G37*
G36*
X138050000Y-100100000D02*
X136350000Y-100100000D01*
X136350000Y-99000000D01*
X138050000Y-99000000D01*
X138050000Y-100100000D01*
X138050000Y-100100000D01*
G37*
G36*
X132750000Y-100100000D02*
X131050000Y-100100000D01*
X131050000Y-99000000D01*
X132750000Y-99000000D01*
X132750000Y-100100000D01*
X132750000Y-100100000D01*
G37*
G36*
X129450000Y-99800000D02*
X127750000Y-99800000D01*
X127750000Y-98700000D01*
X129450000Y-98700000D01*
X129450000Y-99800000D01*
X129450000Y-99800000D01*
G37*
G36*
X109800000Y-99750000D02*
X107800000Y-99750000D01*
X107800000Y-96350000D01*
X109800000Y-96350000D01*
X109800000Y-99750000D01*
X109800000Y-99750000D01*
G37*
G36*
X150400000Y-99175000D02*
X149300000Y-99175000D01*
X149300000Y-97475000D01*
X150400000Y-97475000D01*
X150400000Y-99175000D01*
X150400000Y-99175000D01*
G37*
G36*
X148500000Y-99175000D02*
X147400000Y-99175000D01*
X147400000Y-97475000D01*
X148500000Y-97475000D01*
X148500000Y-99175000D01*
X148500000Y-99175000D01*
G37*
G36*
X105250000Y-99100000D02*
X102150000Y-99100000D01*
X102150000Y-96700000D01*
X105250000Y-96700000D01*
X105250000Y-99100000D01*
X105250000Y-99100000D01*
G37*
G36*
X147000000Y-98350000D02*
X145300000Y-98350000D01*
X145300000Y-97250000D01*
X147000000Y-97250000D01*
X147000000Y-98350000D01*
X147000000Y-98350000D01*
G37*
G36*
X138050000Y-98200000D02*
X136350000Y-98200000D01*
X136350000Y-97100000D01*
X138050000Y-97100000D01*
X138050000Y-98200000D01*
X138050000Y-98200000D01*
G37*
G36*
X135950000Y-98200000D02*
X134250000Y-98200000D01*
X134250000Y-97100000D01*
X135950000Y-97100000D01*
X135950000Y-98200000D01*
X135950000Y-98200000D01*
G37*
G36*
X132750000Y-98200000D02*
X131050000Y-98200000D01*
X131050000Y-97100000D01*
X132750000Y-97100000D01*
X132750000Y-98200000D01*
X132750000Y-98200000D01*
G37*
G36*
X129450000Y-97900000D02*
X127750000Y-97900000D01*
X127750000Y-96800000D01*
X129450000Y-96800000D01*
X129450000Y-97900000D01*
X129450000Y-97900000D01*
G37*
G36*
X150400000Y-97075000D02*
X149300000Y-97075000D01*
X149300000Y-95375000D01*
X150400000Y-95375000D01*
X150400000Y-97075000D01*
X150400000Y-97075000D01*
G37*
G36*
X148500000Y-97075000D02*
X147400000Y-97075000D01*
X147400000Y-95375000D01*
X148500000Y-95375000D01*
X148500000Y-97075000D01*
X148500000Y-97075000D01*
G37*
G36*
X144900000Y-97050000D02*
X143800000Y-97050000D01*
X143800000Y-95350000D01*
X144900000Y-95350000D01*
X144900000Y-97050000D01*
X144900000Y-97050000D01*
G37*
G36*
X143000000Y-97050000D02*
X141900000Y-97050000D01*
X141900000Y-95350000D01*
X143000000Y-95350000D01*
X143000000Y-97050000D01*
X143000000Y-97050000D01*
G37*
G36*
X121885443Y-94644194D02*
X122094729Y-94730884D01*
X122283082Y-94856737D01*
X122443263Y-95016918D01*
X122569116Y-95205271D01*
X122655806Y-95414557D01*
X122700000Y-95636735D01*
X122700000Y-95863265D01*
X122655806Y-96085443D01*
X122569116Y-96294729D01*
X122443263Y-96483082D01*
X122283082Y-96643263D01*
X122094729Y-96769116D01*
X121885443Y-96855806D01*
X121663265Y-96900000D01*
X121436735Y-96900000D01*
X121214557Y-96855806D01*
X121005271Y-96769116D01*
X120816918Y-96643263D01*
X120656737Y-96483082D01*
X120530884Y-96294729D01*
X120444194Y-96085443D01*
X120400000Y-95863265D01*
X120400000Y-95636735D01*
X120444194Y-95414557D01*
X120530884Y-95205271D01*
X120656737Y-95016918D01*
X120816918Y-94856737D01*
X121005271Y-94730884D01*
X121214557Y-94644194D01*
X121436735Y-94600000D01*
X121663265Y-94600000D01*
X121885443Y-94644194D01*
X121885443Y-94644194D01*
G37*
G36*
X127200000Y-96900000D02*
X124900000Y-96900000D01*
X124900000Y-94600000D01*
X127200000Y-94600000D01*
X127200000Y-96900000D01*
X127200000Y-96900000D01*
G37*
G36*
X115760000Y-94044527D02*
X115761921Y-94064036D01*
X115767612Y-94082795D01*
X115776853Y-94100084D01*
X115789289Y-94115238D01*
X115804443Y-94127674D01*
X115821732Y-94136915D01*
X115840491Y-94142606D01*
X115850199Y-94144046D01*
X115920199Y-94150940D01*
X115939802Y-94150939D01*
X115959029Y-94147115D01*
X115977140Y-94139613D01*
X115993440Y-94128722D01*
X116007301Y-94114860D01*
X116018192Y-94098560D01*
X116025694Y-94080449D01*
X116030000Y-94051421D01*
X116030000Y-91450000D01*
X117030000Y-91450000D01*
X117030000Y-94050000D01*
X116241329Y-94050000D01*
X116221820Y-94051921D01*
X116203061Y-94057612D01*
X116185772Y-94066853D01*
X116170618Y-94079289D01*
X116158182Y-94094443D01*
X116148941Y-94111732D01*
X116143250Y-94130491D01*
X116141329Y-94150000D01*
X116143250Y-94169509D01*
X116148941Y-94188268D01*
X116158182Y-94205557D01*
X116170618Y-94220711D01*
X116185772Y-94233147D01*
X116194190Y-94238192D01*
X116318258Y-94304507D01*
X116470528Y-94429472D01*
X116595493Y-94581742D01*
X116688348Y-94755463D01*
X116745532Y-94943969D01*
X116760000Y-95090871D01*
X116760000Y-95589128D01*
X116745532Y-95736030D01*
X116710646Y-95851032D01*
X116688349Y-95924535D01*
X116688348Y-95924536D01*
X116595493Y-96098258D01*
X116470528Y-96250528D01*
X116318258Y-96375493D01*
X116178864Y-96450000D01*
X116144535Y-96468349D01*
X116095973Y-96483080D01*
X115956031Y-96525532D01*
X115760001Y-96544839D01*
X115563969Y-96525532D01*
X115416962Y-96480937D01*
X115375466Y-96468349D01*
X115341137Y-96450000D01*
X115201743Y-96375493D01*
X115049473Y-96250528D01*
X114924509Y-96098259D01*
X114831651Y-95924535D01*
X114774468Y-95736031D01*
X114760000Y-95589129D01*
X114760000Y-95090872D01*
X114774468Y-94943970D01*
X114831652Y-94755464D01*
X114924507Y-94581742D01*
X115049472Y-94429472D01*
X115201742Y-94304507D01*
X115325809Y-94238192D01*
X115342109Y-94227301D01*
X115355971Y-94213440D01*
X115366862Y-94197140D01*
X115374364Y-94179029D01*
X115378188Y-94159802D01*
X115378189Y-94140199D01*
X115374364Y-94120972D01*
X115366862Y-94102861D01*
X115355971Y-94086561D01*
X115342110Y-94072699D01*
X115325810Y-94061808D01*
X115307699Y-94054306D01*
X115288472Y-94050482D01*
X115278670Y-94050000D01*
X114760000Y-94050000D01*
X114760000Y-91450000D01*
X115760000Y-91450000D01*
X115760000Y-94044527D01*
X115760000Y-94044527D01*
G37*
G36*
X118300000Y-94044527D02*
X118301921Y-94064036D01*
X118307612Y-94082795D01*
X118316853Y-94100084D01*
X118329289Y-94115238D01*
X118344443Y-94127674D01*
X118361732Y-94136915D01*
X118380491Y-94142606D01*
X118390199Y-94144046D01*
X118460199Y-94150940D01*
X118479802Y-94150939D01*
X118499029Y-94147115D01*
X118517140Y-94139613D01*
X118533440Y-94128722D01*
X118547301Y-94114860D01*
X118558192Y-94098560D01*
X118565694Y-94080449D01*
X118570000Y-94051421D01*
X118570000Y-91450000D01*
X119570000Y-91450000D01*
X119570000Y-94050000D01*
X118781329Y-94050000D01*
X118761820Y-94051921D01*
X118743061Y-94057612D01*
X118725772Y-94066853D01*
X118710618Y-94079289D01*
X118698182Y-94094443D01*
X118688941Y-94111732D01*
X118683250Y-94130491D01*
X118681329Y-94150000D01*
X118683250Y-94169509D01*
X118688941Y-94188268D01*
X118698182Y-94205557D01*
X118710618Y-94220711D01*
X118725772Y-94233147D01*
X118734190Y-94238192D01*
X118858258Y-94304507D01*
X119010528Y-94429472D01*
X119135493Y-94581742D01*
X119228348Y-94755463D01*
X119285532Y-94943969D01*
X119300000Y-95090871D01*
X119300000Y-95589128D01*
X119285532Y-95736030D01*
X119250646Y-95851032D01*
X119228349Y-95924535D01*
X119228348Y-95924536D01*
X119135493Y-96098258D01*
X119010528Y-96250528D01*
X118858258Y-96375493D01*
X118718864Y-96450000D01*
X118684535Y-96468349D01*
X118635973Y-96483080D01*
X118496031Y-96525532D01*
X118300001Y-96544839D01*
X118103969Y-96525532D01*
X117956962Y-96480937D01*
X117915466Y-96468349D01*
X117881137Y-96450000D01*
X117741743Y-96375493D01*
X117589473Y-96250528D01*
X117464509Y-96098259D01*
X117371651Y-95924535D01*
X117314468Y-95736031D01*
X117300000Y-95589129D01*
X117300000Y-95090872D01*
X117314468Y-94943970D01*
X117371652Y-94755464D01*
X117464507Y-94581742D01*
X117589472Y-94429472D01*
X117741742Y-94304507D01*
X117865809Y-94238192D01*
X117882109Y-94227301D01*
X117895971Y-94213440D01*
X117906862Y-94197140D01*
X117914364Y-94179029D01*
X117918188Y-94159802D01*
X117918189Y-94140199D01*
X117914364Y-94120972D01*
X117906862Y-94102861D01*
X117895971Y-94086561D01*
X117882110Y-94072699D01*
X117865810Y-94061808D01*
X117847699Y-94054306D01*
X117828472Y-94050482D01*
X117818670Y-94050000D01*
X117300000Y-94050000D01*
X117300000Y-91450000D01*
X118300000Y-91450000D01*
X118300000Y-94044527D01*
X118300000Y-94044527D01*
G37*
G36*
X114220000Y-96540000D02*
X112220000Y-96540000D01*
X112220000Y-94140000D01*
X114220000Y-94140000D01*
X114220000Y-96540000D01*
X114220000Y-96540000D01*
G37*
G36*
X147000000Y-96450000D02*
X145300000Y-96450000D01*
X145300000Y-95350000D01*
X147000000Y-95350000D01*
X147000000Y-96450000D01*
X147000000Y-96450000D01*
G37*
G36*
X135950000Y-96300000D02*
X134250000Y-96300000D01*
X134250000Y-95200000D01*
X135950000Y-95200000D01*
X135950000Y-96300000D01*
X135950000Y-96300000D01*
G37*
G36*
X130950000Y-96250000D02*
X129850000Y-96250000D01*
X129850000Y-94550000D01*
X130950000Y-94550000D01*
X130950000Y-96250000D01*
X130950000Y-96250000D01*
G37*
G36*
X129050000Y-96250000D02*
X127950000Y-96250000D01*
X127950000Y-94550000D01*
X129050000Y-94550000D01*
X129050000Y-96250000D01*
X129050000Y-96250000D01*
G37*
G36*
X105250000Y-95900000D02*
X102150000Y-95900000D01*
X102150000Y-93500000D01*
X105250000Y-93500000D01*
X105250000Y-95900000D01*
X105250000Y-95900000D01*
G37*
G36*
X109800000Y-95750000D02*
X107800000Y-95750000D01*
X107800000Y-92350000D01*
X109800000Y-92350000D01*
X109800000Y-95750000D01*
X109800000Y-95750000D01*
G37*
G36*
X141450000Y-94975000D02*
X140350000Y-94975000D01*
X140350000Y-93275000D01*
X141450000Y-93275000D01*
X141450000Y-94975000D01*
X141450000Y-94975000D01*
G37*
G36*
X139550000Y-94975000D02*
X138450000Y-94975000D01*
X138450000Y-93275000D01*
X139550000Y-93275000D01*
X139550000Y-94975000D01*
X139550000Y-94975000D01*
G37*
G36*
X144900000Y-94950000D02*
X143800000Y-94950000D01*
X143800000Y-93250000D01*
X144900000Y-93250000D01*
X144900000Y-94950000D01*
X144900000Y-94950000D01*
G37*
G36*
X146400000Y-94950000D02*
X145300000Y-94950000D01*
X145300000Y-93250000D01*
X146400000Y-93250000D01*
X146400000Y-94950000D01*
X146400000Y-94950000D01*
G37*
G36*
X148300000Y-94950000D02*
X147200000Y-94950000D01*
X147200000Y-93250000D01*
X148300000Y-93250000D01*
X148300000Y-94950000D01*
X148300000Y-94950000D01*
G37*
G36*
X143000000Y-94950000D02*
X141900000Y-94950000D01*
X141900000Y-93250000D01*
X143000000Y-93250000D01*
X143000000Y-94950000D01*
X143000000Y-94950000D01*
G37*
G36*
X120840000Y-94050000D02*
X119840000Y-94050000D01*
X119840000Y-91450000D01*
X120840000Y-91450000D01*
X120840000Y-94050000D01*
X120840000Y-94050000D01*
G37*
G36*
X125250000Y-93900000D02*
X123550000Y-93900000D01*
X123550000Y-92800000D01*
X125250000Y-92800000D01*
X125250000Y-93900000D01*
X125250000Y-93900000D01*
G37*
G36*
X123150000Y-93900000D02*
X121450000Y-93900000D01*
X121450000Y-92800000D01*
X123150000Y-92800000D01*
X123150000Y-93900000D01*
X123150000Y-93900000D01*
G37*
G36*
X113950000Y-93400000D02*
X112250000Y-93400000D01*
X112250000Y-92300000D01*
X113950000Y-92300000D01*
X113950000Y-93400000D01*
X113950000Y-93400000D01*
G37*
G36*
X104186695Y-88633818D02*
X104441719Y-88684545D01*
X104842091Y-88850385D01*
X105202417Y-89091147D01*
X105508853Y-89397583D01*
X105749615Y-89757909D01*
X105915455Y-90158281D01*
X105933699Y-90250000D01*
X106000000Y-90583319D01*
X106000000Y-91016681D01*
X105969310Y-91170969D01*
X105915455Y-91441719D01*
X105749615Y-91842091D01*
X105508853Y-92202417D01*
X105202417Y-92508853D01*
X104842091Y-92749615D01*
X104441719Y-92915455D01*
X104186695Y-92966182D01*
X104016681Y-93000000D01*
X103583319Y-93000000D01*
X103413305Y-92966182D01*
X103158281Y-92915455D01*
X102757909Y-92749615D01*
X102397583Y-92508853D01*
X102091147Y-92202417D01*
X101850385Y-91842091D01*
X101684545Y-91441719D01*
X101630690Y-91170969D01*
X101600000Y-91016681D01*
X101600000Y-90583319D01*
X101666301Y-90250000D01*
X101684545Y-90158281D01*
X101850385Y-89757909D01*
X102091147Y-89397583D01*
X102397583Y-89091147D01*
X102757909Y-88850385D01*
X103158281Y-88684545D01*
X103413305Y-88633818D01*
X103583319Y-88600000D01*
X104016681Y-88600000D01*
X104186695Y-88633818D01*
X104186695Y-88633818D01*
G37*
G36*
X130841031Y-90381468D02*
X130979552Y-90423489D01*
X131029535Y-90438651D01*
X131029537Y-90438652D01*
X131203258Y-90531507D01*
X131355528Y-90656472D01*
X131480493Y-90808742D01*
X131543854Y-90927284D01*
X131573349Y-90982465D01*
X131583728Y-91016681D01*
X131630532Y-91170970D01*
X131645000Y-91317872D01*
X131645000Y-91816129D01*
X131630532Y-91963031D01*
X131573348Y-92151537D01*
X131480493Y-92325258D01*
X131355528Y-92477528D01*
X131203258Y-92602493D01*
X131029536Y-92695348D01*
X131029534Y-92695349D01*
X130988038Y-92707937D01*
X130841031Y-92752532D01*
X130644999Y-92771839D01*
X130448969Y-92752532D01*
X130310448Y-92710511D01*
X130260465Y-92695349D01*
X130260463Y-92695348D01*
X130086742Y-92602493D01*
X129934472Y-92477528D01*
X129809507Y-92325258D01*
X129716652Y-92151536D01*
X129659468Y-91963030D01*
X129645000Y-91816128D01*
X129645000Y-91317871D01*
X129659468Y-91170969D01*
X129716651Y-90982465D01*
X129809509Y-90808741D01*
X129934473Y-90656472D01*
X130086743Y-90531507D01*
X130260464Y-90438652D01*
X130260466Y-90438651D01*
X130301962Y-90426063D01*
X130448969Y-90381468D01*
X130645001Y-90362161D01*
X130841031Y-90381468D01*
X130841031Y-90381468D01*
G37*
G36*
X133381031Y-90381468D02*
X133519552Y-90423489D01*
X133569535Y-90438651D01*
X133569537Y-90438652D01*
X133743258Y-90531507D01*
X133895528Y-90656472D01*
X134020493Y-90808742D01*
X134083854Y-90927284D01*
X134113349Y-90982465D01*
X134123728Y-91016681D01*
X134170532Y-91170970D01*
X134185000Y-91317872D01*
X134185000Y-91816129D01*
X134170532Y-91963031D01*
X134113348Y-92151537D01*
X134020493Y-92325258D01*
X133895528Y-92477528D01*
X133743258Y-92602493D01*
X133569536Y-92695348D01*
X133569534Y-92695349D01*
X133528038Y-92707937D01*
X133381031Y-92752532D01*
X133184999Y-92771839D01*
X132988969Y-92752532D01*
X132850448Y-92710511D01*
X132800465Y-92695349D01*
X132800463Y-92695348D01*
X132626742Y-92602493D01*
X132474472Y-92477528D01*
X132349507Y-92325258D01*
X132256652Y-92151536D01*
X132199468Y-91963030D01*
X132185000Y-91816128D01*
X132185000Y-91317871D01*
X132199468Y-91170969D01*
X132256651Y-90982465D01*
X132349509Y-90808741D01*
X132474473Y-90656472D01*
X132626743Y-90531507D01*
X132800464Y-90438652D01*
X132800466Y-90438651D01*
X132841962Y-90426063D01*
X132988969Y-90381468D01*
X133185001Y-90362161D01*
X133381031Y-90381468D01*
X133381031Y-90381468D01*
G37*
G36*
X135921031Y-90381468D02*
X136059552Y-90423489D01*
X136109535Y-90438651D01*
X136109537Y-90438652D01*
X136283258Y-90531507D01*
X136435528Y-90656472D01*
X136560493Y-90808742D01*
X136623854Y-90927284D01*
X136653349Y-90982465D01*
X136663728Y-91016681D01*
X136710532Y-91170970D01*
X136725000Y-91317872D01*
X136725000Y-91816129D01*
X136710532Y-91963031D01*
X136653348Y-92151537D01*
X136560493Y-92325258D01*
X136435528Y-92477528D01*
X136283258Y-92602493D01*
X136109536Y-92695348D01*
X136109534Y-92695349D01*
X136068038Y-92707937D01*
X135921031Y-92752532D01*
X135724999Y-92771839D01*
X135528969Y-92752532D01*
X135390448Y-92710511D01*
X135340465Y-92695349D01*
X135340463Y-92695348D01*
X135166742Y-92602493D01*
X135014472Y-92477528D01*
X134889507Y-92325258D01*
X134796652Y-92151536D01*
X134739468Y-91963030D01*
X134725000Y-91816128D01*
X134725000Y-91317871D01*
X134739468Y-91170969D01*
X134796651Y-90982465D01*
X134889509Y-90808741D01*
X135014473Y-90656472D01*
X135166743Y-90531507D01*
X135340464Y-90438652D01*
X135340466Y-90438651D01*
X135381962Y-90426063D01*
X135528969Y-90381468D01*
X135725001Y-90362161D01*
X135921031Y-90381468D01*
X135921031Y-90381468D01*
G37*
G36*
X138461031Y-90381468D02*
X138599552Y-90423489D01*
X138649535Y-90438651D01*
X138649537Y-90438652D01*
X138823258Y-90531507D01*
X138975528Y-90656472D01*
X139100493Y-90808742D01*
X139163854Y-90927284D01*
X139193349Y-90982465D01*
X139203728Y-91016681D01*
X139250532Y-91170970D01*
X139265000Y-91317872D01*
X139265000Y-91816129D01*
X139250532Y-91963031D01*
X139193348Y-92151537D01*
X139100493Y-92325258D01*
X138975528Y-92477528D01*
X138823258Y-92602493D01*
X138649536Y-92695348D01*
X138649534Y-92695349D01*
X138608038Y-92707937D01*
X138461031Y-92752532D01*
X138264999Y-92771839D01*
X138068969Y-92752532D01*
X137930448Y-92710511D01*
X137880465Y-92695349D01*
X137880463Y-92695348D01*
X137706742Y-92602493D01*
X137554472Y-92477528D01*
X137429507Y-92325258D01*
X137336652Y-92151536D01*
X137279468Y-91963030D01*
X137265000Y-91816128D01*
X137265000Y-91317871D01*
X137279468Y-91170969D01*
X137336651Y-90982465D01*
X137429509Y-90808741D01*
X137554473Y-90656472D01*
X137706743Y-90531507D01*
X137880464Y-90438652D01*
X137880466Y-90438651D01*
X137921962Y-90426063D01*
X138068969Y-90381468D01*
X138265001Y-90362161D01*
X138461031Y-90381468D01*
X138461031Y-90381468D01*
G37*
G36*
X141001031Y-90381468D02*
X141139552Y-90423489D01*
X141189535Y-90438651D01*
X141189537Y-90438652D01*
X141363258Y-90531507D01*
X141515528Y-90656472D01*
X141640493Y-90808742D01*
X141703854Y-90927284D01*
X141733349Y-90982465D01*
X141743728Y-91016681D01*
X141790532Y-91170970D01*
X141805000Y-91317872D01*
X141805000Y-91816129D01*
X141790532Y-91963031D01*
X141733348Y-92151537D01*
X141640493Y-92325258D01*
X141515528Y-92477528D01*
X141363258Y-92602493D01*
X141189536Y-92695348D01*
X141189534Y-92695349D01*
X141148038Y-92707937D01*
X141001031Y-92752532D01*
X140804999Y-92771839D01*
X140608969Y-92752532D01*
X140470448Y-92710511D01*
X140420465Y-92695349D01*
X140420463Y-92695348D01*
X140246742Y-92602493D01*
X140094472Y-92477528D01*
X139969507Y-92325258D01*
X139876652Y-92151536D01*
X139819468Y-91963030D01*
X139805000Y-91816128D01*
X139805000Y-91317871D01*
X139819468Y-91170969D01*
X139876651Y-90982465D01*
X139969509Y-90808741D01*
X140094473Y-90656472D01*
X140246743Y-90531507D01*
X140420464Y-90438652D01*
X140420466Y-90438651D01*
X140461962Y-90426063D01*
X140608969Y-90381468D01*
X140805001Y-90362161D01*
X141001031Y-90381468D01*
X141001031Y-90381468D01*
G37*
G36*
X143541031Y-90381468D02*
X143679552Y-90423489D01*
X143729535Y-90438651D01*
X143729537Y-90438652D01*
X143903258Y-90531507D01*
X144055528Y-90656472D01*
X144180493Y-90808742D01*
X144243854Y-90927284D01*
X144273349Y-90982465D01*
X144283728Y-91016681D01*
X144330532Y-91170970D01*
X144345000Y-91317872D01*
X144345000Y-91816129D01*
X144330532Y-91963031D01*
X144273348Y-92151537D01*
X144180493Y-92325258D01*
X144055528Y-92477528D01*
X143903258Y-92602493D01*
X143729536Y-92695348D01*
X143729534Y-92695349D01*
X143688038Y-92707937D01*
X143541031Y-92752532D01*
X143344999Y-92771839D01*
X143148969Y-92752532D01*
X143010448Y-92710511D01*
X142960465Y-92695349D01*
X142960463Y-92695348D01*
X142786742Y-92602493D01*
X142634472Y-92477528D01*
X142509507Y-92325258D01*
X142416652Y-92151536D01*
X142359468Y-91963030D01*
X142345000Y-91816128D01*
X142345000Y-91317871D01*
X142359468Y-91170969D01*
X142416651Y-90982465D01*
X142509509Y-90808741D01*
X142634473Y-90656472D01*
X142786743Y-90531507D01*
X142960464Y-90438652D01*
X142960466Y-90438651D01*
X143001962Y-90426063D01*
X143148969Y-90381468D01*
X143345001Y-90362161D01*
X143541031Y-90381468D01*
X143541031Y-90381468D01*
G37*
G36*
X146081031Y-90381468D02*
X146219552Y-90423489D01*
X146269535Y-90438651D01*
X146269537Y-90438652D01*
X146443258Y-90531507D01*
X146595528Y-90656472D01*
X146720493Y-90808742D01*
X146783854Y-90927284D01*
X146813349Y-90982465D01*
X146823728Y-91016681D01*
X146870532Y-91170970D01*
X146885000Y-91317872D01*
X146885000Y-91816129D01*
X146870532Y-91963031D01*
X146813348Y-92151537D01*
X146720493Y-92325258D01*
X146595528Y-92477528D01*
X146443258Y-92602493D01*
X146269536Y-92695348D01*
X146269534Y-92695349D01*
X146228038Y-92707937D01*
X146081031Y-92752532D01*
X145884999Y-92771839D01*
X145688969Y-92752532D01*
X145550448Y-92710511D01*
X145500465Y-92695349D01*
X145500463Y-92695348D01*
X145326742Y-92602493D01*
X145174472Y-92477528D01*
X145049507Y-92325258D01*
X144956652Y-92151536D01*
X144899468Y-91963030D01*
X144885000Y-91816128D01*
X144885000Y-91317871D01*
X144899468Y-91170969D01*
X144956651Y-90982465D01*
X145049509Y-90808741D01*
X145174473Y-90656472D01*
X145326743Y-90531507D01*
X145500464Y-90438652D01*
X145500466Y-90438651D01*
X145541962Y-90426063D01*
X145688969Y-90381468D01*
X145885001Y-90362161D01*
X146081031Y-90381468D01*
X146081031Y-90381468D01*
G37*
G36*
X148621031Y-90381468D02*
X148759552Y-90423489D01*
X148809535Y-90438651D01*
X148809537Y-90438652D01*
X148983258Y-90531507D01*
X149135528Y-90656472D01*
X149260493Y-90808742D01*
X149323854Y-90927284D01*
X149353349Y-90982465D01*
X149363728Y-91016681D01*
X149410532Y-91170970D01*
X149425000Y-91317872D01*
X149425000Y-91816129D01*
X149410532Y-91963031D01*
X149353348Y-92151537D01*
X149260493Y-92325258D01*
X149135528Y-92477528D01*
X148983258Y-92602493D01*
X148809536Y-92695348D01*
X148809534Y-92695349D01*
X148768038Y-92707937D01*
X148621031Y-92752532D01*
X148424999Y-92771839D01*
X148228969Y-92752532D01*
X148090448Y-92710511D01*
X148040465Y-92695349D01*
X148040463Y-92695348D01*
X147866742Y-92602493D01*
X147714472Y-92477528D01*
X147589507Y-92325258D01*
X147496652Y-92151536D01*
X147439468Y-91963030D01*
X147425000Y-91816128D01*
X147425000Y-91317871D01*
X147439468Y-91170969D01*
X147496651Y-90982465D01*
X147589509Y-90808741D01*
X147714473Y-90656472D01*
X147866743Y-90531507D01*
X148040464Y-90438652D01*
X148040466Y-90438651D01*
X148081962Y-90426063D01*
X148228969Y-90381468D01*
X148425001Y-90362161D01*
X148621031Y-90381468D01*
X148621031Y-90381468D01*
G37*
G36*
X153701031Y-90381468D02*
X153839552Y-90423489D01*
X153889535Y-90438651D01*
X153889537Y-90438652D01*
X154063258Y-90531507D01*
X154215528Y-90656472D01*
X154340493Y-90808742D01*
X154403854Y-90927284D01*
X154433349Y-90982465D01*
X154443728Y-91016681D01*
X154490532Y-91170970D01*
X154505000Y-91317872D01*
X154505000Y-91816129D01*
X154490532Y-91963031D01*
X154433348Y-92151537D01*
X154340493Y-92325258D01*
X154215528Y-92477528D01*
X154063258Y-92602493D01*
X153889536Y-92695348D01*
X153889534Y-92695349D01*
X153848038Y-92707937D01*
X153701031Y-92752532D01*
X153504999Y-92771839D01*
X153308969Y-92752532D01*
X153170448Y-92710511D01*
X153120465Y-92695349D01*
X153120463Y-92695348D01*
X152946742Y-92602493D01*
X152794472Y-92477528D01*
X152669507Y-92325258D01*
X152576652Y-92151536D01*
X152519468Y-91963030D01*
X152505000Y-91816128D01*
X152505000Y-91317871D01*
X152519468Y-91170969D01*
X152576651Y-90982465D01*
X152669509Y-90808741D01*
X152794473Y-90656472D01*
X152946743Y-90531507D01*
X153120464Y-90438652D01*
X153120466Y-90438651D01*
X153161962Y-90426063D01*
X153308969Y-90381468D01*
X153505001Y-90362161D01*
X153701031Y-90381468D01*
X153701031Y-90381468D01*
G37*
G36*
X156241031Y-90381468D02*
X156379552Y-90423489D01*
X156429535Y-90438651D01*
X156429537Y-90438652D01*
X156603258Y-90531507D01*
X156755528Y-90656472D01*
X156880493Y-90808742D01*
X156943854Y-90927284D01*
X156973349Y-90982465D01*
X156983728Y-91016681D01*
X157030532Y-91170970D01*
X157045000Y-91317872D01*
X157045000Y-91816129D01*
X157030532Y-91963031D01*
X156973348Y-92151537D01*
X156880493Y-92325258D01*
X156755528Y-92477528D01*
X156603258Y-92602493D01*
X156429536Y-92695348D01*
X156429534Y-92695349D01*
X156388038Y-92707937D01*
X156241031Y-92752532D01*
X156044999Y-92771839D01*
X155848969Y-92752532D01*
X155710448Y-92710511D01*
X155660465Y-92695349D01*
X155660463Y-92695348D01*
X155486742Y-92602493D01*
X155334472Y-92477528D01*
X155209507Y-92325258D01*
X155116652Y-92151536D01*
X155059468Y-91963030D01*
X155045000Y-91816128D01*
X155045000Y-91317871D01*
X155059468Y-91170969D01*
X155116651Y-90982465D01*
X155209509Y-90808741D01*
X155334473Y-90656472D01*
X155486743Y-90531507D01*
X155660464Y-90438652D01*
X155660466Y-90438651D01*
X155701962Y-90426063D01*
X155848969Y-90381468D01*
X156045001Y-90362161D01*
X156241031Y-90381468D01*
X156241031Y-90381468D01*
G37*
G36*
X158781031Y-90381468D02*
X158919552Y-90423489D01*
X158969535Y-90438651D01*
X158969537Y-90438652D01*
X159143258Y-90531507D01*
X159295528Y-90656472D01*
X159420493Y-90808742D01*
X159483854Y-90927284D01*
X159513349Y-90982465D01*
X159523728Y-91016681D01*
X159570532Y-91170970D01*
X159585000Y-91317872D01*
X159585000Y-91816129D01*
X159570532Y-91963031D01*
X159513348Y-92151537D01*
X159420493Y-92325258D01*
X159295528Y-92477528D01*
X159143258Y-92602493D01*
X158969536Y-92695348D01*
X158969534Y-92695349D01*
X158928038Y-92707937D01*
X158781031Y-92752532D01*
X158584999Y-92771839D01*
X158388969Y-92752532D01*
X158250448Y-92710511D01*
X158200465Y-92695349D01*
X158200463Y-92695348D01*
X158026742Y-92602493D01*
X157874472Y-92477528D01*
X157749507Y-92325258D01*
X157656652Y-92151536D01*
X157599468Y-91963030D01*
X157585000Y-91816128D01*
X157585000Y-91317871D01*
X157599468Y-91170969D01*
X157656651Y-90982465D01*
X157749509Y-90808741D01*
X157874473Y-90656472D01*
X158026743Y-90531507D01*
X158200464Y-90438652D01*
X158200466Y-90438651D01*
X158241962Y-90426063D01*
X158388969Y-90381468D01*
X158585001Y-90362161D01*
X158781031Y-90381468D01*
X158781031Y-90381468D01*
G37*
G36*
X161321031Y-90381468D02*
X161459552Y-90423489D01*
X161509535Y-90438651D01*
X161509537Y-90438652D01*
X161683258Y-90531507D01*
X161835528Y-90656472D01*
X161960493Y-90808742D01*
X162023854Y-90927284D01*
X162053349Y-90982465D01*
X162063728Y-91016681D01*
X162110532Y-91170970D01*
X162125000Y-91317872D01*
X162125000Y-91816129D01*
X162110532Y-91963031D01*
X162053348Y-92151537D01*
X161960493Y-92325258D01*
X161835528Y-92477528D01*
X161683258Y-92602493D01*
X161509536Y-92695348D01*
X161509534Y-92695349D01*
X161468038Y-92707937D01*
X161321031Y-92752532D01*
X161124999Y-92771839D01*
X160928969Y-92752532D01*
X160790448Y-92710511D01*
X160740465Y-92695349D01*
X160740463Y-92695348D01*
X160566742Y-92602493D01*
X160414472Y-92477528D01*
X160289507Y-92325258D01*
X160196652Y-92151536D01*
X160139468Y-91963030D01*
X160125000Y-91816128D01*
X160125000Y-91317871D01*
X160139468Y-91170969D01*
X160196651Y-90982465D01*
X160289509Y-90808741D01*
X160414473Y-90656472D01*
X160566743Y-90531507D01*
X160740464Y-90438652D01*
X160740466Y-90438651D01*
X160781962Y-90426063D01*
X160928969Y-90381468D01*
X161125001Y-90362161D01*
X161321031Y-90381468D01*
X161321031Y-90381468D01*
G37*
G36*
X163861031Y-90381468D02*
X163999552Y-90423489D01*
X164049535Y-90438651D01*
X164049537Y-90438652D01*
X164223258Y-90531507D01*
X164375528Y-90656472D01*
X164500493Y-90808742D01*
X164563854Y-90927284D01*
X164593349Y-90982465D01*
X164603728Y-91016681D01*
X164650532Y-91170970D01*
X164665000Y-91317872D01*
X164665000Y-91816129D01*
X164650532Y-91963031D01*
X164593348Y-92151537D01*
X164500493Y-92325258D01*
X164375528Y-92477528D01*
X164223258Y-92602493D01*
X164049536Y-92695348D01*
X164049534Y-92695349D01*
X164008038Y-92707937D01*
X163861031Y-92752532D01*
X163664999Y-92771839D01*
X163468969Y-92752532D01*
X163330448Y-92710511D01*
X163280465Y-92695349D01*
X163280463Y-92695348D01*
X163106742Y-92602493D01*
X162954472Y-92477528D01*
X162829507Y-92325258D01*
X162736652Y-92151536D01*
X162679468Y-91963030D01*
X162665000Y-91816128D01*
X162665000Y-91317871D01*
X162679468Y-91170969D01*
X162736651Y-90982465D01*
X162829509Y-90808741D01*
X162954473Y-90656472D01*
X163106743Y-90531507D01*
X163280464Y-90438652D01*
X163280466Y-90438651D01*
X163321962Y-90426063D01*
X163468969Y-90381468D01*
X163665001Y-90362161D01*
X163861031Y-90381468D01*
X163861031Y-90381468D01*
G37*
G36*
X151161031Y-90381468D02*
X151299552Y-90423489D01*
X151349535Y-90438651D01*
X151349537Y-90438652D01*
X151523258Y-90531507D01*
X151675528Y-90656472D01*
X151800493Y-90808742D01*
X151863854Y-90927284D01*
X151893349Y-90982465D01*
X151903728Y-91016681D01*
X151950532Y-91170970D01*
X151965000Y-91317872D01*
X151965000Y-91816129D01*
X151950532Y-91963031D01*
X151893348Y-92151537D01*
X151800493Y-92325258D01*
X151675528Y-92477528D01*
X151523258Y-92602493D01*
X151349536Y-92695348D01*
X151349534Y-92695349D01*
X151308038Y-92707937D01*
X151161031Y-92752532D01*
X150964999Y-92771839D01*
X150768969Y-92752532D01*
X150630448Y-92710511D01*
X150580465Y-92695349D01*
X150580463Y-92695348D01*
X150406742Y-92602493D01*
X150254472Y-92477528D01*
X150129507Y-92325258D01*
X150036652Y-92151536D01*
X149979468Y-91963030D01*
X149965000Y-91816128D01*
X149965000Y-91317871D01*
X149979468Y-91170969D01*
X150036651Y-90982465D01*
X150129509Y-90808741D01*
X150254473Y-90656472D01*
X150406743Y-90531507D01*
X150580464Y-90438652D01*
X150580466Y-90438651D01*
X150621962Y-90426063D01*
X150768969Y-90381468D01*
X150965001Y-90362161D01*
X151161031Y-90381468D01*
X151161031Y-90381468D01*
G37*
G36*
X169300000Y-92250000D02*
X168200000Y-92250000D01*
X168200000Y-90550000D01*
X169300000Y-90550000D01*
X169300000Y-92250000D01*
X169300000Y-92250000D01*
G37*
G36*
X167400000Y-92250000D02*
X166300000Y-92250000D01*
X166300000Y-90550000D01*
X167400000Y-90550000D01*
X167400000Y-92250000D01*
X167400000Y-92250000D01*
G37*
G36*
X123150000Y-92000000D02*
X121450000Y-92000000D01*
X121450000Y-90900000D01*
X123150000Y-90900000D01*
X123150000Y-92000000D01*
X123150000Y-92000000D01*
G37*
G36*
X125250000Y-92000000D02*
X123550000Y-92000000D01*
X123550000Y-90900000D01*
X125250000Y-90900000D01*
X125250000Y-92000000D01*
X125250000Y-92000000D01*
G37*
G36*
X109800000Y-91650000D02*
X107800000Y-91650000D01*
X107800000Y-88250000D01*
X109800000Y-88250000D01*
X109800000Y-91650000D01*
X109800000Y-91650000D01*
G37*
G36*
X113950000Y-91500000D02*
X112250000Y-91500000D01*
X112250000Y-90400000D01*
X113950000Y-90400000D01*
X113950000Y-91500000D01*
X113950000Y-91500000D01*
G37*
G36*
X166850000Y-90250000D02*
X165850000Y-90250000D01*
X165850000Y-88750000D01*
X166850000Y-88750000D01*
X166850000Y-90250000D01*
X166850000Y-90250000D01*
G37*
G36*
X168750000Y-90250000D02*
X167750000Y-90250000D01*
X167750000Y-88750000D01*
X168750000Y-88750000D01*
X168750000Y-90250000D01*
X168750000Y-90250000D01*
G37*
G36*
X127550000Y-90100000D02*
X125836117Y-90100000D01*
X125833147Y-90094443D01*
X125820711Y-90079289D01*
X125805557Y-90066853D01*
X125788268Y-90057612D01*
X125769509Y-90051921D01*
X125750000Y-90050000D01*
X124200000Y-90050000D01*
X124200000Y-89050000D01*
X125750000Y-89050000D01*
X125769509Y-89048079D01*
X125788268Y-89042388D01*
X125805557Y-89033147D01*
X125820711Y-89020711D01*
X125833147Y-89005557D01*
X125836117Y-89000000D01*
X127550000Y-89000000D01*
X127550000Y-90100000D01*
X127550000Y-90100000D01*
G37*
G36*
X123000000Y-90050000D02*
X121500000Y-90050000D01*
X121500000Y-87150000D01*
X123000000Y-87150000D01*
X123000000Y-90050000D01*
X123000000Y-90050000D01*
G37*
G36*
X106950000Y-88240000D02*
X105150000Y-88240000D01*
X105150000Y-86240000D01*
X106950000Y-86240000D01*
X106950000Y-88240000D01*
X106950000Y-88240000D01*
G37*
G36*
X127550000Y-88200000D02*
X125836117Y-88200000D01*
X125833147Y-88194443D01*
X125820711Y-88179289D01*
X125805557Y-88166853D01*
X125788268Y-88157612D01*
X125769509Y-88151921D01*
X125750000Y-88150000D01*
X124200000Y-88150000D01*
X124200000Y-87150000D01*
X125750000Y-87150000D01*
X125769509Y-87148079D01*
X125788268Y-87142388D01*
X125805557Y-87133147D01*
X125820711Y-87120711D01*
X125833147Y-87105557D01*
X125836117Y-87100000D01*
X127550000Y-87100000D01*
X127550000Y-88200000D01*
X127550000Y-88200000D01*
G37*
G36*
X104156825Y-79951575D02*
X104307628Y-79997321D01*
X104446608Y-80071607D01*
X104568422Y-80171578D01*
X104668393Y-80293392D01*
X104742679Y-80432372D01*
X104788425Y-80583175D01*
X104803871Y-80740000D01*
X104788425Y-80896825D01*
X104742679Y-81047628D01*
X104668393Y-81186608D01*
X104568422Y-81308422D01*
X104446606Y-81408394D01*
X104365384Y-81451808D01*
X104349084Y-81462699D01*
X104335222Y-81476560D01*
X104324331Y-81492860D01*
X104316829Y-81510971D01*
X104313005Y-81530198D01*
X104313004Y-81549801D01*
X104316829Y-81569028D01*
X104324331Y-81587139D01*
X104335222Y-81603439D01*
X104349083Y-81617301D01*
X104365383Y-81628192D01*
X104383494Y-81635694D01*
X104402721Y-81639518D01*
X104412523Y-81640000D01*
X104750000Y-81640000D01*
X104750000Y-86440000D01*
X104412523Y-86440000D01*
X104393014Y-86441921D01*
X104374255Y-86447612D01*
X104356966Y-86456853D01*
X104341812Y-86469289D01*
X104329376Y-86484443D01*
X104320135Y-86501732D01*
X104314444Y-86520491D01*
X104312523Y-86540000D01*
X104314444Y-86559509D01*
X104320135Y-86578268D01*
X104329376Y-86595557D01*
X104341812Y-86610711D01*
X104356966Y-86623147D01*
X104365384Y-86628192D01*
X104446606Y-86671606D01*
X104568422Y-86771578D01*
X104668393Y-86893392D01*
X104742679Y-87032372D01*
X104788425Y-87183175D01*
X104803871Y-87340000D01*
X104788425Y-87496825D01*
X104742679Y-87647628D01*
X104668393Y-87786608D01*
X104568422Y-87908422D01*
X104446608Y-88008393D01*
X104307628Y-88082679D01*
X104156825Y-88128425D01*
X104039299Y-88140000D01*
X103160701Y-88140000D01*
X103043175Y-88128425D01*
X102892372Y-88082679D01*
X102753392Y-88008393D01*
X102631578Y-87908422D01*
X102531607Y-87786608D01*
X102457321Y-87647628D01*
X102411575Y-87496825D01*
X102396129Y-87340000D01*
X102411575Y-87183175D01*
X102457321Y-87032372D01*
X102531607Y-86893392D01*
X102631578Y-86771578D01*
X102753394Y-86671606D01*
X102834616Y-86628192D01*
X102850916Y-86617301D01*
X102864778Y-86603440D01*
X102875669Y-86587140D01*
X102883171Y-86569029D01*
X102886995Y-86549802D01*
X102886996Y-86530199D01*
X102883171Y-86510972D01*
X102875669Y-86492861D01*
X102864778Y-86476561D01*
X102850917Y-86462699D01*
X102834617Y-86451808D01*
X102816506Y-86444306D01*
X102797279Y-86440482D01*
X102787477Y-86440000D01*
X102450000Y-86440000D01*
X102450000Y-81640000D01*
X102787477Y-81640000D01*
X102806986Y-81638079D01*
X102825745Y-81632388D01*
X102843034Y-81623147D01*
X102858188Y-81610711D01*
X102870624Y-81595557D01*
X102879865Y-81578268D01*
X102885556Y-81559509D01*
X102887477Y-81540000D01*
X102885556Y-81520491D01*
X102879865Y-81501732D01*
X102870624Y-81484443D01*
X102858188Y-81469289D01*
X102843034Y-81456853D01*
X102834616Y-81451808D01*
X102753394Y-81408394D01*
X102631578Y-81308422D01*
X102531607Y-81186608D01*
X102457321Y-81047628D01*
X102411575Y-80896825D01*
X102396129Y-80740000D01*
X102411575Y-80583175D01*
X102457321Y-80432372D01*
X102531607Y-80293392D01*
X102631578Y-80171578D01*
X102753392Y-80071607D01*
X102892372Y-79997321D01*
X103043175Y-79951575D01*
X103160701Y-79940000D01*
X104039299Y-79940000D01*
X104156825Y-79951575D01*
X104156825Y-79951575D01*
G37*
G36*
X112400000Y-87850000D02*
X111300000Y-87850000D01*
X111300000Y-86150000D01*
X112400000Y-86150000D01*
X112400000Y-87850000D01*
X112400000Y-87850000D01*
G37*
G36*
X110500000Y-87850000D02*
X109400000Y-87850000D01*
X109400000Y-86150000D01*
X110500000Y-86150000D01*
X110500000Y-87850000D01*
X110500000Y-87850000D01*
G37*
G36*
X119750000Y-87850000D02*
X115850000Y-87850000D01*
X115850000Y-85250000D01*
X119750000Y-85250000D01*
X119750000Y-87850000D01*
X119750000Y-87850000D01*
G37*
G36*
X168750000Y-87550000D02*
X165850000Y-87550000D01*
X165850000Y-86050000D01*
X168750000Y-86050000D01*
X168750000Y-87550000D01*
X168750000Y-87550000D01*
G37*
G36*
X109000000Y-86500000D02*
X107700000Y-86500000D01*
X107700000Y-85500000D01*
X109000000Y-85500000D01*
X109000000Y-86500000D01*
X109000000Y-86500000D01*
G37*
G36*
X125150000Y-86200000D02*
X123450000Y-86200000D01*
X123450000Y-85100000D01*
X125150000Y-85100000D01*
X125150000Y-86200000D01*
X125150000Y-86200000D01*
G37*
G36*
X122650000Y-86200000D02*
X120950000Y-86200000D01*
X120950000Y-85100000D01*
X122650000Y-85100000D01*
X122650000Y-86200000D01*
X122650000Y-86200000D01*
G37*
G36*
X112400000Y-85750000D02*
X111300000Y-85750000D01*
X111300000Y-84050000D01*
X112400000Y-84050000D01*
X112400000Y-85750000D01*
X112400000Y-85750000D01*
G37*
G36*
X166750000Y-85750000D02*
X165050000Y-85750000D01*
X165050000Y-84650000D01*
X166750000Y-84650000D01*
X166750000Y-85750000D01*
X166750000Y-85750000D01*
G37*
G36*
X110500000Y-85750000D02*
X109400000Y-85750000D01*
X109400000Y-84050000D01*
X110500000Y-84050000D01*
X110500000Y-85750000D01*
X110500000Y-85750000D01*
G37*
G36*
X168850000Y-85750000D02*
X167150000Y-85750000D01*
X167150000Y-84650000D01*
X168850000Y-84650000D01*
X168850000Y-85750000D01*
X168850000Y-85750000D01*
G37*
G36*
X107000000Y-85590000D02*
X105550000Y-85590000D01*
X105550000Y-82490000D01*
X107000000Y-82490000D01*
X107000000Y-85590000D01*
X107000000Y-85590000D01*
G37*
G36*
X156241031Y-82761468D02*
X156379552Y-82803489D01*
X156429535Y-82818651D01*
X156429537Y-82818652D01*
X156603258Y-82911507D01*
X156755528Y-83036472D01*
X156880493Y-83188742D01*
X156886510Y-83200000D01*
X156973349Y-83362465D01*
X156995646Y-83435968D01*
X157030532Y-83550970D01*
X157045000Y-83697872D01*
X157045000Y-84196129D01*
X157030532Y-84343031D01*
X156973348Y-84531537D01*
X156880493Y-84705258D01*
X156755528Y-84857528D01*
X156603258Y-84982493D01*
X156429536Y-85075348D01*
X156429534Y-85075349D01*
X156388038Y-85087937D01*
X156241031Y-85132532D01*
X156044999Y-85151839D01*
X155848969Y-85132532D01*
X155708763Y-85090000D01*
X155660465Y-85075349D01*
X155660463Y-85075348D01*
X155486742Y-84982493D01*
X155334472Y-84857528D01*
X155209507Y-84705258D01*
X155116652Y-84531536D01*
X155059468Y-84343030D01*
X155045000Y-84196128D01*
X155045000Y-83697871D01*
X155059468Y-83550969D01*
X155116651Y-83362465D01*
X155209509Y-83188741D01*
X155334473Y-83036472D01*
X155486743Y-82911507D01*
X155660464Y-82818652D01*
X155660466Y-82818651D01*
X155701962Y-82806063D01*
X155848969Y-82761468D01*
X156045001Y-82742161D01*
X156241031Y-82761468D01*
X156241031Y-82761468D01*
G37*
G36*
X161321031Y-82761468D02*
X161459552Y-82803489D01*
X161509535Y-82818651D01*
X161509537Y-82818652D01*
X161683258Y-82911507D01*
X161835528Y-83036472D01*
X161960493Y-83188742D01*
X161966510Y-83200000D01*
X162053349Y-83362465D01*
X162075646Y-83435968D01*
X162110532Y-83550970D01*
X162125000Y-83697872D01*
X162125000Y-84196129D01*
X162110532Y-84343031D01*
X162053348Y-84531537D01*
X161960493Y-84705258D01*
X161835528Y-84857528D01*
X161683258Y-84982493D01*
X161509536Y-85075348D01*
X161509534Y-85075349D01*
X161468038Y-85087937D01*
X161321031Y-85132532D01*
X161124999Y-85151839D01*
X160928969Y-85132532D01*
X160788763Y-85090000D01*
X160740465Y-85075349D01*
X160740463Y-85075348D01*
X160566742Y-84982493D01*
X160414472Y-84857528D01*
X160289507Y-84705258D01*
X160196652Y-84531536D01*
X160139468Y-84343030D01*
X160125000Y-84196128D01*
X160125000Y-83697871D01*
X160139468Y-83550969D01*
X160196651Y-83362465D01*
X160289509Y-83188741D01*
X160414473Y-83036472D01*
X160566743Y-82911507D01*
X160740464Y-82818652D01*
X160740466Y-82818651D01*
X160781962Y-82806063D01*
X160928969Y-82761468D01*
X161125001Y-82742161D01*
X161321031Y-82761468D01*
X161321031Y-82761468D01*
G37*
G36*
X158781031Y-82761468D02*
X158919552Y-82803489D01*
X158969535Y-82818651D01*
X158969537Y-82818652D01*
X159143258Y-82911507D01*
X159295528Y-83036472D01*
X159420493Y-83188742D01*
X159426510Y-83200000D01*
X159513349Y-83362465D01*
X159535646Y-83435968D01*
X159570532Y-83550970D01*
X159585000Y-83697872D01*
X159585000Y-84196129D01*
X159570532Y-84343031D01*
X159513348Y-84531537D01*
X159420493Y-84705258D01*
X159295528Y-84857528D01*
X159143258Y-84982493D01*
X158969536Y-85075348D01*
X158969534Y-85075349D01*
X158928038Y-85087937D01*
X158781031Y-85132532D01*
X158584999Y-85151839D01*
X158388969Y-85132532D01*
X158248763Y-85090000D01*
X158200465Y-85075349D01*
X158200463Y-85075348D01*
X158026742Y-84982493D01*
X157874472Y-84857528D01*
X157749507Y-84705258D01*
X157656652Y-84531536D01*
X157599468Y-84343030D01*
X157585000Y-84196128D01*
X157585000Y-83697871D01*
X157599468Y-83550969D01*
X157656651Y-83362465D01*
X157749509Y-83188741D01*
X157874473Y-83036472D01*
X158026743Y-82911507D01*
X158200464Y-82818652D01*
X158200466Y-82818651D01*
X158241962Y-82806063D01*
X158388969Y-82761468D01*
X158585001Y-82742161D01*
X158781031Y-82761468D01*
X158781031Y-82761468D01*
G37*
G36*
X130841031Y-82761468D02*
X130979552Y-82803489D01*
X131029535Y-82818651D01*
X131029537Y-82818652D01*
X131203258Y-82911507D01*
X131355528Y-83036472D01*
X131480493Y-83188742D01*
X131486510Y-83200000D01*
X131573349Y-83362465D01*
X131595646Y-83435968D01*
X131630532Y-83550970D01*
X131645000Y-83697872D01*
X131645000Y-84196129D01*
X131630532Y-84343031D01*
X131573348Y-84531537D01*
X131480493Y-84705258D01*
X131355528Y-84857528D01*
X131203258Y-84982493D01*
X131029536Y-85075348D01*
X131029534Y-85075349D01*
X130988038Y-85087937D01*
X130841031Y-85132532D01*
X130644999Y-85151839D01*
X130448969Y-85132532D01*
X130308763Y-85090000D01*
X130260465Y-85075349D01*
X130260463Y-85075348D01*
X130086742Y-84982493D01*
X129934472Y-84857528D01*
X129809507Y-84705258D01*
X129716652Y-84531536D01*
X129659468Y-84343030D01*
X129645000Y-84196128D01*
X129645000Y-83697871D01*
X129659468Y-83550969D01*
X129716651Y-83362465D01*
X129809509Y-83188741D01*
X129934473Y-83036472D01*
X130086743Y-82911507D01*
X130260464Y-82818652D01*
X130260466Y-82818651D01*
X130301962Y-82806063D01*
X130448969Y-82761468D01*
X130645001Y-82742161D01*
X130841031Y-82761468D01*
X130841031Y-82761468D01*
G37*
G36*
X133381031Y-82761468D02*
X133519552Y-82803489D01*
X133569535Y-82818651D01*
X133569537Y-82818652D01*
X133743258Y-82911507D01*
X133895528Y-83036472D01*
X134020493Y-83188742D01*
X134026510Y-83200000D01*
X134113349Y-83362465D01*
X134135646Y-83435968D01*
X134170532Y-83550970D01*
X134185000Y-83697872D01*
X134185000Y-84196129D01*
X134170532Y-84343031D01*
X134113348Y-84531537D01*
X134020493Y-84705258D01*
X133895528Y-84857528D01*
X133743258Y-84982493D01*
X133569536Y-85075348D01*
X133569534Y-85075349D01*
X133528038Y-85087937D01*
X133381031Y-85132532D01*
X133184999Y-85151839D01*
X132988969Y-85132532D01*
X132848763Y-85090000D01*
X132800465Y-85075349D01*
X132800463Y-85075348D01*
X132626742Y-84982493D01*
X132474472Y-84857528D01*
X132349507Y-84705258D01*
X132256652Y-84531536D01*
X132199468Y-84343030D01*
X132185000Y-84196128D01*
X132185000Y-83697871D01*
X132199468Y-83550969D01*
X132256651Y-83362465D01*
X132349509Y-83188741D01*
X132474473Y-83036472D01*
X132626743Y-82911507D01*
X132800464Y-82818652D01*
X132800466Y-82818651D01*
X132841962Y-82806063D01*
X132988969Y-82761468D01*
X133185001Y-82742161D01*
X133381031Y-82761468D01*
X133381031Y-82761468D01*
G37*
G36*
X135921031Y-82761468D02*
X136059552Y-82803489D01*
X136109535Y-82818651D01*
X136109537Y-82818652D01*
X136283258Y-82911507D01*
X136435528Y-83036472D01*
X136560493Y-83188742D01*
X136566510Y-83200000D01*
X136653349Y-83362465D01*
X136675646Y-83435968D01*
X136710532Y-83550970D01*
X136725000Y-83697872D01*
X136725000Y-84196129D01*
X136710532Y-84343031D01*
X136653348Y-84531537D01*
X136560493Y-84705258D01*
X136435528Y-84857528D01*
X136283258Y-84982493D01*
X136109536Y-85075348D01*
X136109534Y-85075349D01*
X136068038Y-85087937D01*
X135921031Y-85132532D01*
X135724999Y-85151839D01*
X135528969Y-85132532D01*
X135388763Y-85090000D01*
X135340465Y-85075349D01*
X135340463Y-85075348D01*
X135166742Y-84982493D01*
X135014472Y-84857528D01*
X134889507Y-84705258D01*
X134796652Y-84531536D01*
X134739468Y-84343030D01*
X134725000Y-84196128D01*
X134725000Y-83697871D01*
X134739468Y-83550969D01*
X134796651Y-83362465D01*
X134889509Y-83188741D01*
X135014473Y-83036472D01*
X135166743Y-82911507D01*
X135340464Y-82818652D01*
X135340466Y-82818651D01*
X135381962Y-82806063D01*
X135528969Y-82761468D01*
X135725001Y-82742161D01*
X135921031Y-82761468D01*
X135921031Y-82761468D01*
G37*
G36*
X138461031Y-82761468D02*
X138599552Y-82803489D01*
X138649535Y-82818651D01*
X138649537Y-82818652D01*
X138823258Y-82911507D01*
X138975528Y-83036472D01*
X139100493Y-83188742D01*
X139106510Y-83200000D01*
X139193349Y-83362465D01*
X139215646Y-83435968D01*
X139250532Y-83550970D01*
X139265000Y-83697872D01*
X139265000Y-84196129D01*
X139250532Y-84343031D01*
X139193348Y-84531537D01*
X139100493Y-84705258D01*
X138975528Y-84857528D01*
X138823258Y-84982493D01*
X138649536Y-85075348D01*
X138649534Y-85075349D01*
X138608038Y-85087937D01*
X138461031Y-85132532D01*
X138264999Y-85151839D01*
X138068969Y-85132532D01*
X137928763Y-85090000D01*
X137880465Y-85075349D01*
X137880463Y-85075348D01*
X137706742Y-84982493D01*
X137554472Y-84857528D01*
X137429507Y-84705258D01*
X137336652Y-84531536D01*
X137279468Y-84343030D01*
X137265000Y-84196128D01*
X137265000Y-83697871D01*
X137279468Y-83550969D01*
X137336651Y-83362465D01*
X137429509Y-83188741D01*
X137554473Y-83036472D01*
X137706743Y-82911507D01*
X137880464Y-82818652D01*
X137880466Y-82818651D01*
X137921962Y-82806063D01*
X138068969Y-82761468D01*
X138265001Y-82742161D01*
X138461031Y-82761468D01*
X138461031Y-82761468D01*
G37*
G36*
X141001031Y-82761468D02*
X141139552Y-82803489D01*
X141189535Y-82818651D01*
X141189537Y-82818652D01*
X141363258Y-82911507D01*
X141515528Y-83036472D01*
X141640493Y-83188742D01*
X141646510Y-83200000D01*
X141733349Y-83362465D01*
X141755646Y-83435968D01*
X141790532Y-83550970D01*
X141805000Y-83697872D01*
X141805000Y-84196129D01*
X141790532Y-84343031D01*
X141733348Y-84531537D01*
X141640493Y-84705258D01*
X141515528Y-84857528D01*
X141363258Y-84982493D01*
X141189536Y-85075348D01*
X141189534Y-85075349D01*
X141148038Y-85087937D01*
X141001031Y-85132532D01*
X140804999Y-85151839D01*
X140608969Y-85132532D01*
X140468763Y-85090000D01*
X140420465Y-85075349D01*
X140420463Y-85075348D01*
X140246742Y-84982493D01*
X140094472Y-84857528D01*
X139969507Y-84705258D01*
X139876652Y-84531536D01*
X139819468Y-84343030D01*
X139805000Y-84196128D01*
X139805000Y-83697871D01*
X139819468Y-83550969D01*
X139876651Y-83362465D01*
X139969509Y-83188741D01*
X140094473Y-83036472D01*
X140246743Y-82911507D01*
X140420464Y-82818652D01*
X140420466Y-82818651D01*
X140461962Y-82806063D01*
X140608969Y-82761468D01*
X140805001Y-82742161D01*
X141001031Y-82761468D01*
X141001031Y-82761468D01*
G37*
G36*
X143541031Y-82761468D02*
X143679552Y-82803489D01*
X143729535Y-82818651D01*
X143729537Y-82818652D01*
X143903258Y-82911507D01*
X144055528Y-83036472D01*
X144180493Y-83188742D01*
X144186510Y-83200000D01*
X144273349Y-83362465D01*
X144295646Y-83435968D01*
X144330532Y-83550970D01*
X144345000Y-83697872D01*
X144345000Y-84196129D01*
X144330532Y-84343031D01*
X144273348Y-84531537D01*
X144180493Y-84705258D01*
X144055528Y-84857528D01*
X143903258Y-84982493D01*
X143729536Y-85075348D01*
X143729534Y-85075349D01*
X143688038Y-85087937D01*
X143541031Y-85132532D01*
X143344999Y-85151839D01*
X143148969Y-85132532D01*
X143008763Y-85090000D01*
X142960465Y-85075349D01*
X142960463Y-85075348D01*
X142786742Y-84982493D01*
X142634472Y-84857528D01*
X142509507Y-84705258D01*
X142416652Y-84531536D01*
X142359468Y-84343030D01*
X142345000Y-84196128D01*
X142345000Y-83697871D01*
X142359468Y-83550969D01*
X142416651Y-83362465D01*
X142509509Y-83188741D01*
X142634473Y-83036472D01*
X142786743Y-82911507D01*
X142960464Y-82818652D01*
X142960466Y-82818651D01*
X143001962Y-82806063D01*
X143148969Y-82761468D01*
X143345001Y-82742161D01*
X143541031Y-82761468D01*
X143541031Y-82761468D01*
G37*
G36*
X146081031Y-82761468D02*
X146219552Y-82803489D01*
X146269535Y-82818651D01*
X146269537Y-82818652D01*
X146443258Y-82911507D01*
X146595528Y-83036472D01*
X146720493Y-83188742D01*
X146726510Y-83200000D01*
X146813349Y-83362465D01*
X146835646Y-83435968D01*
X146870532Y-83550970D01*
X146885000Y-83697872D01*
X146885000Y-84196129D01*
X146870532Y-84343031D01*
X146813348Y-84531537D01*
X146720493Y-84705258D01*
X146595528Y-84857528D01*
X146443258Y-84982493D01*
X146269536Y-85075348D01*
X146269534Y-85075349D01*
X146228038Y-85087937D01*
X146081031Y-85132532D01*
X145884999Y-85151839D01*
X145688969Y-85132532D01*
X145548763Y-85090000D01*
X145500465Y-85075349D01*
X145500463Y-85075348D01*
X145326742Y-84982493D01*
X145174472Y-84857528D01*
X145049507Y-84705258D01*
X144956652Y-84531536D01*
X144899468Y-84343030D01*
X144885000Y-84196128D01*
X144885000Y-83697871D01*
X144899468Y-83550969D01*
X144956651Y-83362465D01*
X145049509Y-83188741D01*
X145174473Y-83036472D01*
X145326743Y-82911507D01*
X145500464Y-82818652D01*
X145500466Y-82818651D01*
X145541962Y-82806063D01*
X145688969Y-82761468D01*
X145885001Y-82742161D01*
X146081031Y-82761468D01*
X146081031Y-82761468D01*
G37*
G36*
X148621031Y-82761468D02*
X148759552Y-82803489D01*
X148809535Y-82818651D01*
X148809537Y-82818652D01*
X148983258Y-82911507D01*
X149135528Y-83036472D01*
X149260493Y-83188742D01*
X149266510Y-83200000D01*
X149353349Y-83362465D01*
X149375646Y-83435968D01*
X149410532Y-83550970D01*
X149425000Y-83697872D01*
X149425000Y-84196129D01*
X149410532Y-84343031D01*
X149353348Y-84531537D01*
X149260493Y-84705258D01*
X149135528Y-84857528D01*
X148983258Y-84982493D01*
X148809536Y-85075348D01*
X148809534Y-85075349D01*
X148768038Y-85087937D01*
X148621031Y-85132532D01*
X148424999Y-85151839D01*
X148228969Y-85132532D01*
X148088763Y-85090000D01*
X148040465Y-85075349D01*
X148040463Y-85075348D01*
X147866742Y-84982493D01*
X147714472Y-84857528D01*
X147589507Y-84705258D01*
X147496652Y-84531536D01*
X147439468Y-84343030D01*
X147425000Y-84196128D01*
X147425000Y-83697871D01*
X147439468Y-83550969D01*
X147496651Y-83362465D01*
X147589509Y-83188741D01*
X147714473Y-83036472D01*
X147866743Y-82911507D01*
X148040464Y-82818652D01*
X148040466Y-82818651D01*
X148081962Y-82806063D01*
X148228969Y-82761468D01*
X148425001Y-82742161D01*
X148621031Y-82761468D01*
X148621031Y-82761468D01*
G37*
G36*
X151161031Y-82761468D02*
X151299552Y-82803489D01*
X151349535Y-82818651D01*
X151349537Y-82818652D01*
X151523258Y-82911507D01*
X151675528Y-83036472D01*
X151800493Y-83188742D01*
X151806510Y-83200000D01*
X151893349Y-83362465D01*
X151915646Y-83435968D01*
X151950532Y-83550970D01*
X151965000Y-83697872D01*
X151965000Y-84196129D01*
X151950532Y-84343031D01*
X151893348Y-84531537D01*
X151800493Y-84705258D01*
X151675528Y-84857528D01*
X151523258Y-84982493D01*
X151349536Y-85075348D01*
X151349534Y-85075349D01*
X151308038Y-85087937D01*
X151161031Y-85132532D01*
X150964999Y-85151839D01*
X150768969Y-85132532D01*
X150628763Y-85090000D01*
X150580465Y-85075349D01*
X150580463Y-85075348D01*
X150406742Y-84982493D01*
X150254472Y-84857528D01*
X150129507Y-84705258D01*
X150036652Y-84531536D01*
X149979468Y-84343030D01*
X149965000Y-84196128D01*
X149965000Y-83697871D01*
X149979468Y-83550969D01*
X150036651Y-83362465D01*
X150129509Y-83188741D01*
X150254473Y-83036472D01*
X150406743Y-82911507D01*
X150580464Y-82818652D01*
X150580466Y-82818651D01*
X150621962Y-82806063D01*
X150768969Y-82761468D01*
X150965001Y-82742161D01*
X151161031Y-82761468D01*
X151161031Y-82761468D01*
G37*
G36*
X153701031Y-82761468D02*
X153839552Y-82803489D01*
X153889535Y-82818651D01*
X153889537Y-82818652D01*
X154063258Y-82911507D01*
X154215528Y-83036472D01*
X154340493Y-83188742D01*
X154346510Y-83200000D01*
X154433349Y-83362465D01*
X154455646Y-83435968D01*
X154490532Y-83550970D01*
X154505000Y-83697872D01*
X154505000Y-84196129D01*
X154490532Y-84343031D01*
X154433348Y-84531537D01*
X154340493Y-84705258D01*
X154215528Y-84857528D01*
X154063258Y-84982493D01*
X153889536Y-85075348D01*
X153889534Y-85075349D01*
X153848038Y-85087937D01*
X153701031Y-85132532D01*
X153504999Y-85151839D01*
X153308969Y-85132532D01*
X153168763Y-85090000D01*
X153120465Y-85075349D01*
X153120463Y-85075348D01*
X152946742Y-84982493D01*
X152794472Y-84857528D01*
X152669507Y-84705258D01*
X152576652Y-84531536D01*
X152519468Y-84343030D01*
X152505000Y-84196128D01*
X152505000Y-83697871D01*
X152519468Y-83550969D01*
X152576651Y-83362465D01*
X152669509Y-83188741D01*
X152794473Y-83036472D01*
X152946743Y-82911507D01*
X153120464Y-82818652D01*
X153120466Y-82818651D01*
X153161962Y-82806063D01*
X153308969Y-82761468D01*
X153505001Y-82742161D01*
X153701031Y-82761468D01*
X153701031Y-82761468D01*
G37*
G36*
X164665000Y-85147000D02*
X162665000Y-85147000D01*
X162665000Y-82747000D01*
X164665000Y-82747000D01*
X164665000Y-85147000D01*
X164665000Y-85147000D01*
G37*
G36*
X109000000Y-85000000D02*
X107700000Y-85000000D01*
X107700000Y-84000000D01*
X109000000Y-84000000D01*
X109000000Y-85000000D01*
X109000000Y-85000000D01*
G37*
G36*
X125150000Y-84300000D02*
X123450000Y-84300000D01*
X123450000Y-83200000D01*
X125150000Y-83200000D01*
X125150000Y-84300000D01*
X125150000Y-84300000D01*
G37*
G36*
X122650000Y-84300000D02*
X120950000Y-84300000D01*
X120950000Y-83200000D01*
X122650000Y-83200000D01*
X122650000Y-84300000D01*
X122650000Y-84300000D01*
G37*
G36*
X168850000Y-83850000D02*
X167150000Y-83850000D01*
X167150000Y-82750000D01*
X168850000Y-82750000D01*
X168850000Y-83850000D01*
X168850000Y-83850000D01*
G37*
G36*
X166750000Y-83850000D02*
X165050000Y-83850000D01*
X165050000Y-82750000D01*
X166750000Y-82750000D01*
X166750000Y-83850000D01*
X166750000Y-83850000D01*
G37*
G36*
X116100000Y-83750000D02*
X115000000Y-83750000D01*
X115000000Y-80150000D01*
X116100000Y-80150000D01*
X116100000Y-83750000D01*
X116100000Y-83750000D01*
G37*
G36*
X114200000Y-83750000D02*
X113100000Y-83750000D01*
X113100000Y-80150000D01*
X114200000Y-80150000D01*
X114200000Y-83750000D01*
X114200000Y-83750000D01*
G37*
G36*
X112400000Y-83750000D02*
X111300000Y-83750000D01*
X111300000Y-80150000D01*
X112400000Y-80150000D01*
X112400000Y-83750000D01*
X112400000Y-83750000D01*
G37*
G36*
X110500000Y-83750000D02*
X109400000Y-83750000D01*
X109400000Y-80150000D01*
X110500000Y-80150000D01*
X110500000Y-83750000D01*
X110500000Y-83750000D01*
G37*
G36*
X109000000Y-83550000D02*
X107700000Y-83550000D01*
X107700000Y-82550000D01*
X109000000Y-82550000D01*
X109000000Y-83550000D01*
X109000000Y-83550000D01*
G37*
G36*
X124850000Y-82600000D02*
X123150000Y-82600000D01*
X123150000Y-81500000D01*
X124850000Y-81500000D01*
X124850000Y-82600000D01*
X124850000Y-82600000D01*
G37*
G36*
X122650000Y-82600000D02*
X120950000Y-82600000D01*
X120950000Y-81500000D01*
X122650000Y-81500000D01*
X122650000Y-82600000D01*
X122650000Y-82600000D01*
G37*
G36*
X120100000Y-82600000D02*
X118400000Y-82600000D01*
X118400000Y-81500000D01*
X120100000Y-81500000D01*
X120100000Y-82600000D01*
X120100000Y-82600000D01*
G37*
G36*
X163100000Y-82450000D02*
X162000000Y-82450000D01*
X162000000Y-80750000D01*
X163100000Y-80750000D01*
X163100000Y-82450000D01*
X163100000Y-82450000D01*
G37*
G36*
X165000000Y-82450000D02*
X163900000Y-82450000D01*
X163900000Y-80750000D01*
X165000000Y-80750000D01*
X165000000Y-82450000D01*
X165000000Y-82450000D01*
G37*
G36*
X168850000Y-82400000D02*
X165250000Y-82400000D01*
X165250000Y-81300000D01*
X168850000Y-81300000D01*
X168850000Y-82400000D01*
X168850000Y-82400000D01*
G37*
G36*
X148700000Y-82250000D02*
X147600000Y-82250000D01*
X147600000Y-80550000D01*
X148700000Y-80550000D01*
X148700000Y-82250000D01*
X148700000Y-82250000D01*
G37*
G36*
X146800000Y-82250000D02*
X145700000Y-82250000D01*
X145700000Y-80550000D01*
X146800000Y-80550000D01*
X146800000Y-82250000D01*
X146800000Y-82250000D01*
G37*
G36*
X145250000Y-82250000D02*
X144150000Y-82250000D01*
X144150000Y-80550000D01*
X145250000Y-80550000D01*
X145250000Y-82250000D01*
X145250000Y-82250000D01*
G37*
G36*
X143350000Y-82250000D02*
X142250000Y-82250000D01*
X142250000Y-80550000D01*
X143350000Y-80550000D01*
X143350000Y-82250000D01*
X143350000Y-82250000D01*
G37*
G36*
X109000000Y-82050000D02*
X107700000Y-82050000D01*
X107700000Y-81050000D01*
X109000000Y-81050000D01*
X109000000Y-82050000D01*
X109000000Y-82050000D01*
G37*
G36*
X105700000Y-79740000D02*
X105701921Y-79759509D01*
X105707612Y-79778268D01*
X105716853Y-79795557D01*
X105729289Y-79810711D01*
X105744443Y-79823147D01*
X105761732Y-79832388D01*
X105780491Y-79838079D01*
X105800000Y-79840000D01*
X106150000Y-79840000D01*
X106169509Y-79838079D01*
X106188268Y-79832388D01*
X106205557Y-79823147D01*
X106220711Y-79810711D01*
X106233147Y-79795557D01*
X106242388Y-79778268D01*
X106248079Y-79759509D01*
X106250000Y-79740000D01*
X106250000Y-78500000D01*
X109150000Y-78500000D01*
X109150000Y-80000000D01*
X107050000Y-80000000D01*
X107030491Y-80001921D01*
X107011732Y-80007612D01*
X106994443Y-80016853D01*
X106979289Y-80029289D01*
X106966853Y-80044443D01*
X106957612Y-80061732D01*
X106951921Y-80080491D01*
X106950000Y-80100000D01*
X106950000Y-81840000D01*
X105150000Y-81840000D01*
X105150000Y-79750000D01*
X105148079Y-79730491D01*
X105142388Y-79711732D01*
X105133147Y-79694443D01*
X105120711Y-79679289D01*
X105105557Y-79666853D01*
X105088268Y-79657612D01*
X105069509Y-79651921D01*
X105050000Y-79650000D01*
X104600000Y-79650000D01*
X104600000Y-77950000D01*
X105700000Y-77950000D01*
X105700000Y-79740000D01*
X105700000Y-79740000D01*
G37*
G36*
X120100000Y-80700000D02*
X118400000Y-80700000D01*
X118400000Y-79600000D01*
X120100000Y-79600000D01*
X120100000Y-80700000D01*
X120100000Y-80700000D01*
G37*
G36*
X122650000Y-80700000D02*
X120950000Y-80700000D01*
X120950000Y-79600000D01*
X122650000Y-79600000D01*
X122650000Y-80700000D01*
X122650000Y-80700000D01*
G37*
G36*
X124850000Y-80700000D02*
X123150000Y-80700000D01*
X123150000Y-79600000D01*
X124850000Y-79600000D01*
X124850000Y-80700000D01*
X124850000Y-80700000D01*
G37*
G36*
X128125000Y-80650000D02*
X127025000Y-80650000D01*
X127025000Y-78950000D01*
X128125000Y-78950000D01*
X128125000Y-80650000D01*
X128125000Y-80650000D01*
G37*
G36*
X126225000Y-80650000D02*
X125125000Y-80650000D01*
X125125000Y-78950000D01*
X126225000Y-78950000D01*
X126225000Y-80650000D01*
X126225000Y-80650000D01*
G37*
G36*
X165030000Y-80515000D02*
X164000000Y-80515000D01*
X164000000Y-79285000D01*
X165030000Y-79285000D01*
X165030000Y-80515000D01*
X165030000Y-80515000D01*
G37*
G36*
X161776274Y-79285000D02*
X162800000Y-79285000D01*
X162800000Y-80515000D01*
X161770000Y-80515000D01*
X161770000Y-79284382D01*
X161776274Y-79285000D01*
X161776274Y-79285000D01*
G37*
G36*
X168900000Y-79213883D02*
X168894443Y-79216853D01*
X168879289Y-79229289D01*
X168866853Y-79244443D01*
X168857612Y-79261732D01*
X168851921Y-79280491D01*
X168850000Y-79300000D01*
X168850000Y-80500000D01*
X165250000Y-80500000D01*
X165250000Y-79400000D01*
X166500000Y-79400000D01*
X166519509Y-79398079D01*
X166538268Y-79392388D01*
X166555557Y-79383147D01*
X166570711Y-79370711D01*
X166583147Y-79355557D01*
X166592388Y-79338268D01*
X166598079Y-79319509D01*
X166600000Y-79300000D01*
X166600000Y-76900000D01*
X168900000Y-76900000D01*
X168900000Y-79213883D01*
X168900000Y-79213883D01*
G37*
G36*
X148700000Y-80150000D02*
X147600000Y-80150000D01*
X147600000Y-78450000D01*
X148700000Y-78450000D01*
X148700000Y-80150000D01*
X148700000Y-80150000D01*
G37*
G36*
X143400000Y-80150000D02*
X142300000Y-80150000D01*
X142300000Y-78450000D01*
X143400000Y-78450000D01*
X143400000Y-80150000D01*
X143400000Y-80150000D01*
G37*
G36*
X146800000Y-80150000D02*
X145700000Y-80150000D01*
X145700000Y-78450000D01*
X146800000Y-78450000D01*
X146800000Y-80150000D01*
X146800000Y-80150000D01*
G37*
G36*
X145300000Y-80150000D02*
X144200000Y-80150000D01*
X144200000Y-78450000D01*
X145300000Y-78450000D01*
X145300000Y-80150000D01*
X145300000Y-80150000D01*
G37*
G36*
X103800000Y-79650000D02*
X102700000Y-79650000D01*
X102700000Y-77950000D01*
X103800000Y-77950000D01*
X103800000Y-79650000D01*
X103800000Y-79650000D01*
G37*
G36*
X161585443Y-76944194D02*
X161794729Y-77030884D01*
X161983082Y-77156737D01*
X162143263Y-77316918D01*
X162269116Y-77505271D01*
X162355806Y-77714557D01*
X162400000Y-77936735D01*
X162400000Y-78163265D01*
X162355806Y-78385443D01*
X162269116Y-78594729D01*
X162143263Y-78783082D01*
X161983082Y-78943263D01*
X161794729Y-79069116D01*
X161738005Y-79092612D01*
X161720717Y-79101853D01*
X161705563Y-79114290D01*
X161693127Y-79129443D01*
X161691933Y-79131676D01*
X161689509Y-79130941D01*
X161670000Y-79129020D01*
X161650491Y-79130941D01*
X161631737Y-79136630D01*
X161585443Y-79155806D01*
X161363265Y-79200000D01*
X161136735Y-79200000D01*
X160914557Y-79155806D01*
X160705271Y-79069116D01*
X160516918Y-78943263D01*
X160356737Y-78783082D01*
X160230884Y-78594729D01*
X160144194Y-78385443D01*
X160100000Y-78163265D01*
X160100000Y-77936735D01*
X160144194Y-77714557D01*
X160230884Y-77505271D01*
X160356737Y-77316918D01*
X160516918Y-77156737D01*
X160705271Y-77030884D01*
X160914557Y-76944194D01*
X161136735Y-76900000D01*
X161363265Y-76900000D01*
X161585443Y-76944194D01*
X161585443Y-76944194D01*
G37*
G36*
X120125000Y-79140000D02*
X113875000Y-79140000D01*
X113875000Y-77540000D01*
X120125000Y-77540000D01*
X120125000Y-79140000D01*
X120125000Y-79140000D01*
G37*
G36*
X128200000Y-78550000D02*
X125200000Y-78550000D01*
X125200000Y-75650000D01*
X128200000Y-75650000D01*
X128200000Y-78550000D01*
X128200000Y-78550000D01*
G37*
G36*
X111650000Y-78300000D02*
X109950000Y-78300000D01*
X109950000Y-77200000D01*
X111650000Y-77200000D01*
X111650000Y-78300000D01*
X111650000Y-78300000D01*
G37*
G36*
X149325000Y-77725000D02*
X146425000Y-77725000D01*
X146425000Y-74725000D01*
X149325000Y-74725000D01*
X149325000Y-77725000D01*
X149325000Y-77725000D01*
G37*
G36*
X144425000Y-77725000D02*
X141525000Y-77725000D01*
X141525000Y-74725000D01*
X144425000Y-74725000D01*
X144425000Y-77725000D01*
X144425000Y-77725000D01*
G37*
G36*
X103815000Y-77630000D02*
X102585000Y-77630000D01*
X102585000Y-76600000D01*
X103815000Y-76600000D01*
X103815000Y-77630000D01*
X103815000Y-77630000D01*
G37*
G36*
X124475000Y-77625000D02*
X122775000Y-77625000D01*
X122775000Y-76525000D01*
X124475000Y-76525000D01*
X124475000Y-77625000D01*
X124475000Y-77625000D01*
G37*
G36*
X105850000Y-77500000D02*
X104150000Y-77500000D01*
X104150000Y-76400000D01*
X105850000Y-76400000D01*
X105850000Y-77500000D01*
X105850000Y-77500000D01*
G37*
G36*
X109600000Y-75600000D02*
X109250000Y-75600000D01*
X109230491Y-75601921D01*
X109211732Y-75607612D01*
X109194443Y-75616853D01*
X109179289Y-75629289D01*
X109166853Y-75644443D01*
X109157612Y-75661732D01*
X109151921Y-75680491D01*
X109150000Y-75700000D01*
X109150000Y-77300000D01*
X108150000Y-77300000D01*
X108150000Y-75800000D01*
X108400000Y-75800000D01*
X108419509Y-75798079D01*
X108438268Y-75792388D01*
X108455557Y-75783147D01*
X108470711Y-75770711D01*
X108483147Y-75755557D01*
X108492388Y-75738268D01*
X108498079Y-75719509D01*
X108500000Y-75700000D01*
X108500000Y-73900000D01*
X109600000Y-73900000D01*
X109600000Y-75600000D01*
X109600000Y-75600000D01*
G37*
G36*
X107700000Y-75600000D02*
X107350000Y-75600000D01*
X107330491Y-75601921D01*
X107311732Y-75607612D01*
X107294443Y-75616853D01*
X107279289Y-75629289D01*
X107266853Y-75644443D01*
X107257612Y-75661732D01*
X107251921Y-75680491D01*
X107250000Y-75700000D01*
X107250000Y-77300000D01*
X106250000Y-77300000D01*
X106250000Y-75800000D01*
X106500000Y-75800000D01*
X106519509Y-75798079D01*
X106538268Y-75792388D01*
X106555557Y-75783147D01*
X106570711Y-75770711D01*
X106583147Y-75755557D01*
X106592388Y-75738268D01*
X106598079Y-75719509D01*
X106600000Y-75700000D01*
X106600000Y-73900000D01*
X107700000Y-73900000D01*
X107700000Y-75600000D01*
X107700000Y-75600000D01*
G37*
G36*
X122000000Y-77265000D02*
X120400000Y-77265000D01*
X120400000Y-71015000D01*
X122000000Y-71015000D01*
X122000000Y-77265000D01*
X122000000Y-77265000D01*
G37*
G36*
X113600000Y-77265000D02*
X112000000Y-77265000D01*
X112000000Y-71015000D01*
X113600000Y-71015000D01*
X113600000Y-77265000D01*
X113600000Y-77265000D01*
G37*
G36*
X111650000Y-76400000D02*
X109950000Y-76400000D01*
X109950000Y-75300000D01*
X111650000Y-75300000D01*
X111650000Y-76400000D01*
X111650000Y-76400000D01*
G37*
G36*
X124475000Y-75725000D02*
X122775000Y-75725000D01*
X122775000Y-74625000D01*
X124475000Y-74625000D01*
X124475000Y-75725000D01*
X124475000Y-75725000D01*
G37*
G36*
X105850000Y-75600000D02*
X104150000Y-75600000D01*
X104150000Y-74500000D01*
X105850000Y-74500000D01*
X105850000Y-75600000D01*
X105850000Y-75600000D01*
G37*
G36*
X103815000Y-75400000D02*
X102585000Y-75400000D01*
X102585000Y-74370000D01*
X103815000Y-74370000D01*
X103815000Y-75400000D01*
X103815000Y-75400000D01*
G37*
G36*
X168777588Y-64829875D02*
X168777590Y-64829876D01*
X168777591Y-64829876D01*
X168856748Y-64862664D01*
X169487343Y-65123865D01*
X169639788Y-65225726D01*
X170126103Y-65550671D01*
X170669329Y-66093897D01*
X170823418Y-66324508D01*
X171096135Y-66732657D01*
X171390125Y-67442412D01*
X171540000Y-68195884D01*
X171540000Y-68964116D01*
X171390125Y-69717588D01*
X171096135Y-70427343D01*
X170974588Y-70609250D01*
X170669329Y-71066103D01*
X170126103Y-71609329D01*
X170042785Y-71665000D01*
X169487343Y-72036135D01*
X169039771Y-72221525D01*
X168777591Y-72330124D01*
X168777590Y-72330124D01*
X168777588Y-72330125D01*
X168410741Y-72403096D01*
X168391990Y-72408784D01*
X168374701Y-72418025D01*
X168359547Y-72430461D01*
X168347111Y-72445615D01*
X168337870Y-72462904D01*
X168332179Y-72481663D01*
X168330258Y-72501172D01*
X168332179Y-72520681D01*
X168337870Y-72539440D01*
X168347111Y-72556729D01*
X168359547Y-72571883D01*
X168374701Y-72584319D01*
X168406556Y-72605604D01*
X168483082Y-72656737D01*
X168643263Y-72816918D01*
X168769116Y-73005271D01*
X168855806Y-73214557D01*
X168900000Y-73436735D01*
X168900000Y-73663265D01*
X168855806Y-73885443D01*
X168769116Y-74094729D01*
X168643263Y-74283082D01*
X168483082Y-74443263D01*
X168294729Y-74569116D01*
X168085443Y-74655806D01*
X167863265Y-74700000D01*
X167636735Y-74700000D01*
X167414557Y-74655806D01*
X167205271Y-74569116D01*
X167016918Y-74443263D01*
X166856737Y-74283082D01*
X166730884Y-74094729D01*
X166644194Y-73885443D01*
X166600000Y-73663265D01*
X166600000Y-73436735D01*
X166644194Y-73214557D01*
X166730884Y-73005271D01*
X166856737Y-72816918D01*
X167016918Y-72656737D01*
X167074832Y-72618041D01*
X167089984Y-72605604D01*
X167102420Y-72590450D01*
X167111661Y-72573162D01*
X167117352Y-72554402D01*
X167119273Y-72534893D01*
X167117351Y-72515384D01*
X167111661Y-72496625D01*
X167102420Y-72479336D01*
X167089983Y-72464183D01*
X167074829Y-72451747D01*
X167057541Y-72442506D01*
X167038789Y-72436817D01*
X166502412Y-72330125D01*
X166502410Y-72330124D01*
X166502409Y-72330124D01*
X166240229Y-72221525D01*
X165792657Y-72036135D01*
X165237215Y-71665000D01*
X165153897Y-71609329D01*
X164610671Y-71066103D01*
X164305412Y-70609250D01*
X164183865Y-70427343D01*
X163889875Y-69717588D01*
X163740000Y-68964116D01*
X163740000Y-68195884D01*
X163889875Y-67442412D01*
X164183865Y-66732657D01*
X164456582Y-66324508D01*
X164610671Y-66093897D01*
X165153897Y-65550671D01*
X165640212Y-65225726D01*
X165792657Y-65123865D01*
X166423252Y-64862664D01*
X166502409Y-64829876D01*
X166502410Y-64829876D01*
X166502412Y-64829875D01*
X167255884Y-64680000D01*
X168024116Y-64680000D01*
X168777588Y-64829875D01*
X168777588Y-64829875D01*
G37*
G36*
X161585443Y-72444194D02*
X161794729Y-72530884D01*
X161983082Y-72656737D01*
X162143263Y-72816918D01*
X162269116Y-73005271D01*
X162355806Y-73214557D01*
X162400000Y-73436735D01*
X162400000Y-73663265D01*
X162355806Y-73885443D01*
X162269116Y-74094729D01*
X162143263Y-74283082D01*
X161983082Y-74443263D01*
X161794729Y-74569116D01*
X161585443Y-74655806D01*
X161363265Y-74700000D01*
X161136735Y-74700000D01*
X160914557Y-74655806D01*
X160705271Y-74569116D01*
X160516918Y-74443263D01*
X160356737Y-74283082D01*
X160230884Y-74094729D01*
X160144194Y-73885443D01*
X160100000Y-73663265D01*
X160100000Y-73436735D01*
X160144194Y-73214557D01*
X160230884Y-73005271D01*
X160356737Y-72816918D01*
X160516918Y-72656737D01*
X160705271Y-72530884D01*
X160914557Y-72444194D01*
X161136735Y-72400000D01*
X161363265Y-72400000D01*
X161585443Y-72444194D01*
X161585443Y-72444194D01*
G37*
G36*
X124475000Y-74000000D02*
X122775000Y-74000000D01*
X122775000Y-72900000D01*
X124475000Y-72900000D01*
X124475000Y-74000000D01*
X124475000Y-74000000D01*
G37*
G36*
X128200000Y-73650000D02*
X125200000Y-73650000D01*
X125200000Y-70750000D01*
X128200000Y-70750000D01*
X128200000Y-73650000D01*
X128200000Y-73650000D01*
G37*
G36*
X106986274Y-71470266D02*
X107177362Y-71549418D01*
X107349336Y-71664327D01*
X107495589Y-71810580D01*
X107610498Y-71982554D01*
X107689650Y-72173642D01*
X107730000Y-72376500D01*
X107730000Y-72583332D01*
X107689650Y-72786190D01*
X107610498Y-72977278D01*
X107495589Y-73149252D01*
X107349336Y-73295505D01*
X107177362Y-73410414D01*
X106986274Y-73489566D01*
X106783416Y-73529916D01*
X106576584Y-73529916D01*
X106373726Y-73489566D01*
X106182638Y-73410414D01*
X106010664Y-73295505D01*
X105864411Y-73149252D01*
X105749502Y-72977278D01*
X105670350Y-72786190D01*
X105630000Y-72583332D01*
X105630000Y-72376500D01*
X105670350Y-72173642D01*
X105749502Y-71982554D01*
X105864411Y-71810580D01*
X106010664Y-71664327D01*
X106182638Y-71549418D01*
X106373726Y-71470266D01*
X106576584Y-71429916D01*
X106783416Y-71429916D01*
X106986274Y-71470266D01*
X106986274Y-71470266D01*
G37*
G36*
X104446274Y-71470266D02*
X104637362Y-71549418D01*
X104809336Y-71664327D01*
X104955589Y-71810580D01*
X105070498Y-71982554D01*
X105149650Y-72173642D01*
X105190000Y-72376500D01*
X105190000Y-72583332D01*
X105149650Y-72786190D01*
X105070498Y-72977278D01*
X104955589Y-73149252D01*
X104809336Y-73295505D01*
X104637362Y-73410414D01*
X104446274Y-73489566D01*
X104243416Y-73529916D01*
X104036584Y-73529916D01*
X103833726Y-73489566D01*
X103642638Y-73410414D01*
X103470664Y-73295505D01*
X103324411Y-73149252D01*
X103209502Y-72977278D01*
X103130350Y-72786190D01*
X103090000Y-72583332D01*
X103090000Y-72376500D01*
X103130350Y-72173642D01*
X103209502Y-71982554D01*
X103324411Y-71810580D01*
X103470664Y-71664327D01*
X103642638Y-71549418D01*
X103833726Y-71470266D01*
X104036584Y-71429916D01*
X104243416Y-71429916D01*
X104446274Y-71470266D01*
X104446274Y-71470266D01*
G37*
G36*
X124475000Y-72100000D02*
X122775000Y-72100000D01*
X122775000Y-71000000D01*
X124475000Y-71000000D01*
X124475000Y-72100000D01*
X124475000Y-72100000D01*
G37*
G36*
X162800000Y-72050000D02*
X161700000Y-72050000D01*
X161700000Y-70350000D01*
X162800000Y-70350000D01*
X162800000Y-72050000D01*
X162800000Y-72050000D01*
G37*
G36*
X160900000Y-72050000D02*
X159800000Y-72050000D01*
X159800000Y-70350000D01*
X160900000Y-70350000D01*
X160900000Y-72050000D01*
X160900000Y-72050000D01*
G37*
G36*
X107730000Y-70989916D02*
X105630000Y-70989916D01*
X105630000Y-68889916D01*
X107730000Y-68889916D01*
X107730000Y-70989916D01*
X107730000Y-70989916D01*
G37*
G36*
X104446274Y-68930266D02*
X104637362Y-69009418D01*
X104809336Y-69124327D01*
X104955589Y-69270580D01*
X105070498Y-69442554D01*
X105149650Y-69633642D01*
X105190000Y-69836500D01*
X105190000Y-70043332D01*
X105149650Y-70246190D01*
X105070498Y-70437278D01*
X104955589Y-70609252D01*
X104809336Y-70755505D01*
X104637362Y-70870414D01*
X104446274Y-70949566D01*
X104243416Y-70989916D01*
X104036584Y-70989916D01*
X103833726Y-70949566D01*
X103642638Y-70870414D01*
X103470664Y-70755505D01*
X103324411Y-70609252D01*
X103209502Y-70437278D01*
X103130350Y-70246190D01*
X103090000Y-70043332D01*
X103090000Y-69836500D01*
X103130350Y-69633642D01*
X103209502Y-69442554D01*
X103324411Y-69270580D01*
X103470664Y-69124327D01*
X103642638Y-69009418D01*
X103833726Y-68930266D01*
X104036584Y-68889916D01*
X104243416Y-68889916D01*
X104446274Y-68930266D01*
X104446274Y-68930266D01*
G37*
G36*
X120125000Y-70740000D02*
X113875000Y-70740000D01*
X113875000Y-69140000D01*
X120125000Y-69140000D01*
X120125000Y-70740000D01*
X120125000Y-70740000D01*
G37*
G36*
X126325000Y-70325000D02*
X125225000Y-70325000D01*
X125225000Y-68625000D01*
X126325000Y-68625000D01*
X126325000Y-70325000D01*
X126325000Y-70325000D01*
G37*
G36*
X128225000Y-70325000D02*
X127125000Y-70325000D01*
X127125000Y-68625000D01*
X128225000Y-68625000D01*
X128225000Y-70325000D01*
X128225000Y-70325000D01*
G37*
G36*
X160900000Y-70050000D02*
X159800000Y-70050000D01*
X159800000Y-68350000D01*
X160900000Y-68350000D01*
X160900000Y-70050000D01*
X160900000Y-70050000D01*
G37*
G36*
X162800000Y-70050000D02*
X161700000Y-70050000D01*
X161700000Y-68350000D01*
X162800000Y-68350000D01*
X162800000Y-70050000D01*
X162800000Y-70050000D01*
G37*
G36*
X111900000Y-69950000D02*
X110800000Y-69950000D01*
X110800000Y-68250000D01*
X111900000Y-68250000D01*
X111900000Y-69950000D01*
X111900000Y-69950000D01*
G37*
G36*
X110000000Y-69950000D02*
X108900000Y-69950000D01*
X108900000Y-68250000D01*
X110000000Y-68250000D01*
X110000000Y-69950000D01*
X110000000Y-69950000D01*
G37*
G36*
X116596031Y-66174468D02*
X116734552Y-66216489D01*
X116784535Y-66231651D01*
X116784537Y-66231652D01*
X116958258Y-66324507D01*
X117110528Y-66449472D01*
X117235493Y-66601742D01*
X117305468Y-66732657D01*
X117328349Y-66775465D01*
X117343511Y-66825448D01*
X117385532Y-66963969D01*
X117404839Y-67160000D01*
X117385532Y-67356031D01*
X117328348Y-67544537D01*
X117235493Y-67718258D01*
X117110528Y-67870528D01*
X116958258Y-67995493D01*
X116784537Y-68088348D01*
X116784535Y-68088349D01*
X116734552Y-68103511D01*
X116596031Y-68145532D01*
X116449129Y-68160000D01*
X115950871Y-68160000D01*
X115803969Y-68145532D01*
X115665448Y-68103511D01*
X115615465Y-68088349D01*
X115615463Y-68088348D01*
X115441742Y-67995493D01*
X115289472Y-67870528D01*
X115164507Y-67718258D01*
X115071652Y-67544537D01*
X115014468Y-67356031D01*
X114995161Y-67160000D01*
X115014468Y-66963969D01*
X115056489Y-66825448D01*
X115071651Y-66775465D01*
X115094532Y-66732657D01*
X115164507Y-66601742D01*
X115289472Y-66449472D01*
X115441742Y-66324507D01*
X115615463Y-66231652D01*
X115615465Y-66231651D01*
X115665448Y-66216489D01*
X115803969Y-66174468D01*
X115950871Y-66160000D01*
X116449129Y-66160000D01*
X116596031Y-66174468D01*
X116596031Y-66174468D01*
G37*
G36*
X162900000Y-68000000D02*
X161700000Y-68000000D01*
X161700000Y-66800000D01*
X162900000Y-66800000D01*
X162900000Y-68000000D01*
X162900000Y-68000000D01*
G37*
G36*
X161300000Y-68000000D02*
X160100000Y-68000000D01*
X160100000Y-66800000D01*
X161300000Y-66800000D01*
X161300000Y-68000000D01*
X161300000Y-68000000D01*
G37*
G36*
X127300000Y-66600000D02*
X126100000Y-66600000D01*
X126100000Y-65400000D01*
X127300000Y-65400000D01*
X127300000Y-66600000D01*
X127300000Y-66600000D01*
G37*
G36*
X125700000Y-66600000D02*
X124500000Y-66600000D01*
X124500000Y-65400000D01*
X125700000Y-65400000D01*
X125700000Y-66600000D01*
X125700000Y-66600000D01*
G37*
G36*
X109526274Y-64522350D02*
X109717362Y-64601502D01*
X109889336Y-64716411D01*
X110035589Y-64862664D01*
X110150498Y-65034638D01*
X110229650Y-65225726D01*
X110270000Y-65428584D01*
X110270000Y-65635416D01*
X110229650Y-65838274D01*
X110150498Y-66029362D01*
X110035589Y-66201336D01*
X109889336Y-66347589D01*
X109717362Y-66462498D01*
X109526274Y-66541650D01*
X109323416Y-66582000D01*
X109116584Y-66582000D01*
X108913726Y-66541650D01*
X108722638Y-66462498D01*
X108550664Y-66347589D01*
X108404411Y-66201336D01*
X108289502Y-66029362D01*
X108210350Y-65838274D01*
X108170000Y-65635416D01*
X108170000Y-65428584D01*
X108210350Y-65225726D01*
X108289502Y-65034638D01*
X108404411Y-64862664D01*
X108550664Y-64716411D01*
X108722638Y-64601502D01*
X108913726Y-64522350D01*
X109116584Y-64482000D01*
X109323416Y-64482000D01*
X109526274Y-64522350D01*
X109526274Y-64522350D01*
G37*
G36*
X105190000Y-66582000D02*
X103090000Y-66582000D01*
X103090000Y-64482000D01*
X105190000Y-64482000D01*
X105190000Y-66582000D01*
X105190000Y-66582000D01*
G37*
G36*
X106986274Y-64522350D02*
X107177362Y-64601502D01*
X107349336Y-64716411D01*
X107495589Y-64862664D01*
X107610498Y-65034638D01*
X107689650Y-65225726D01*
X107730000Y-65428584D01*
X107730000Y-65635416D01*
X107689650Y-65838274D01*
X107610498Y-66029362D01*
X107495589Y-66201336D01*
X107349336Y-66347589D01*
X107177362Y-66462498D01*
X106986274Y-66541650D01*
X106783416Y-66582000D01*
X106576584Y-66582000D01*
X106373726Y-66541650D01*
X106182638Y-66462498D01*
X106010664Y-66347589D01*
X105864411Y-66201336D01*
X105749502Y-66029362D01*
X105670350Y-65838274D01*
X105630000Y-65635416D01*
X105630000Y-65428584D01*
X105670350Y-65225726D01*
X105749502Y-65034638D01*
X105864411Y-64862664D01*
X106010664Y-64716411D01*
X106182638Y-64601502D01*
X106373726Y-64522350D01*
X106576584Y-64482000D01*
X106783416Y-64482000D01*
X106986274Y-64522350D01*
X106986274Y-64522350D01*
G37*
G36*
X119550000Y-66300000D02*
X117850000Y-66300000D01*
X117850000Y-65200000D01*
X119550000Y-65200000D01*
X119550000Y-66300000D01*
X119550000Y-66300000D01*
G37*
G36*
X116596031Y-63634468D02*
X116734552Y-63676489D01*
X116784535Y-63691651D01*
X116784537Y-63691652D01*
X116958258Y-63784507D01*
X117110528Y-63909472D01*
X117235493Y-64061742D01*
X117328348Y-64235463D01*
X117385532Y-64423969D01*
X117404839Y-64620000D01*
X117385532Y-64816031D01*
X117328348Y-65004537D01*
X117235493Y-65178258D01*
X117110528Y-65330528D01*
X116958258Y-65455493D01*
X116784537Y-65548348D01*
X116784535Y-65548349D01*
X116734552Y-65563511D01*
X116596031Y-65605532D01*
X116449129Y-65620000D01*
X115950871Y-65620000D01*
X115803969Y-65605532D01*
X115665448Y-65563511D01*
X115615465Y-65548349D01*
X115615463Y-65548348D01*
X115441742Y-65455493D01*
X115289472Y-65330528D01*
X115164507Y-65178258D01*
X115071652Y-65004537D01*
X115014468Y-64816031D01*
X114995161Y-64620000D01*
X115014468Y-64423969D01*
X115071652Y-64235463D01*
X115164507Y-64061742D01*
X115289472Y-63909472D01*
X115441742Y-63784507D01*
X115615463Y-63691652D01*
X115615465Y-63691651D01*
X115665448Y-63676489D01*
X115803969Y-63634468D01*
X115950871Y-63620000D01*
X116449129Y-63620000D01*
X116596031Y-63634468D01*
X116596031Y-63634468D01*
G37*
G36*
X127300000Y-64900000D02*
X126100000Y-64900000D01*
X126100000Y-63700000D01*
X127300000Y-63700000D01*
X127300000Y-64900000D01*
X127300000Y-64900000D01*
G37*
G36*
X125700000Y-64900000D02*
X124500000Y-64900000D01*
X124500000Y-63700000D01*
X125700000Y-63700000D01*
X125700000Y-64900000D01*
X125700000Y-64900000D01*
G37*
G36*
X119550000Y-64400000D02*
X117850000Y-64400000D01*
X117850000Y-63300000D01*
X119550000Y-63300000D01*
X119550000Y-64400000D01*
X119550000Y-64400000D01*
G37*
G36*
X104446274Y-61982350D02*
X104637362Y-62061502D01*
X104809336Y-62176411D01*
X104955589Y-62322664D01*
X105070498Y-62494638D01*
X105149650Y-62685726D01*
X105190000Y-62888584D01*
X105190000Y-63095416D01*
X105149650Y-63298274D01*
X105070498Y-63489362D01*
X104955589Y-63661336D01*
X104809336Y-63807589D01*
X104637362Y-63922498D01*
X104446274Y-64001650D01*
X104243416Y-64042000D01*
X104036584Y-64042000D01*
X103833726Y-64001650D01*
X103642638Y-63922498D01*
X103470664Y-63807589D01*
X103324411Y-63661336D01*
X103209502Y-63489362D01*
X103130350Y-63298274D01*
X103090000Y-63095416D01*
X103090000Y-62888584D01*
X103130350Y-62685726D01*
X103209502Y-62494638D01*
X103324411Y-62322664D01*
X103470664Y-62176411D01*
X103642638Y-62061502D01*
X103833726Y-61982350D01*
X104036584Y-61942000D01*
X104243416Y-61942000D01*
X104446274Y-61982350D01*
X104446274Y-61982350D01*
G37*
G36*
X109526274Y-61982350D02*
X109717362Y-62061502D01*
X109889336Y-62176411D01*
X110035589Y-62322664D01*
X110150498Y-62494638D01*
X110229650Y-62685726D01*
X110270000Y-62888584D01*
X110270000Y-63095416D01*
X110229650Y-63298274D01*
X110150498Y-63489362D01*
X110035589Y-63661336D01*
X109889336Y-63807589D01*
X109717362Y-63922498D01*
X109526274Y-64001650D01*
X109323416Y-64042000D01*
X109116584Y-64042000D01*
X108913726Y-64001650D01*
X108722638Y-63922498D01*
X108550664Y-63807589D01*
X108404411Y-63661336D01*
X108289502Y-63489362D01*
X108210350Y-63298274D01*
X108170000Y-63095416D01*
X108170000Y-62888584D01*
X108210350Y-62685726D01*
X108289502Y-62494638D01*
X108404411Y-62322664D01*
X108550664Y-62176411D01*
X108722638Y-62061502D01*
X108913726Y-61982350D01*
X109116584Y-61942000D01*
X109323416Y-61942000D01*
X109526274Y-61982350D01*
X109526274Y-61982350D01*
G37*
G36*
X106986274Y-61982350D02*
X107177362Y-62061502D01*
X107349336Y-62176411D01*
X107495589Y-62322664D01*
X107610498Y-62494638D01*
X107689650Y-62685726D01*
X107730000Y-62888584D01*
X107730000Y-63095416D01*
X107689650Y-63298274D01*
X107610498Y-63489362D01*
X107495589Y-63661336D01*
X107349336Y-63807589D01*
X107177362Y-63922498D01*
X106986274Y-64001650D01*
X106783416Y-64042000D01*
X106576584Y-64042000D01*
X106373726Y-64001650D01*
X106182638Y-63922498D01*
X106010664Y-63807589D01*
X105864411Y-63661336D01*
X105749502Y-63489362D01*
X105670350Y-63298274D01*
X105630000Y-63095416D01*
X105630000Y-62888584D01*
X105670350Y-62685726D01*
X105749502Y-62494638D01*
X105864411Y-62322664D01*
X106010664Y-62176411D01*
X106182638Y-62061502D01*
X106373726Y-61982350D01*
X106576584Y-61942000D01*
X106783416Y-61942000D01*
X106986274Y-61982350D01*
X106986274Y-61982350D01*
G37*
G36*
X166150000Y-63500000D02*
X164450000Y-63500000D01*
X164450000Y-62400000D01*
X166150000Y-62400000D01*
X166150000Y-63500000D01*
X166150000Y-63500000D01*
G37*
G36*
X168196031Y-61334468D02*
X168334552Y-61376489D01*
X168384535Y-61391651D01*
X168384537Y-61391652D01*
X168558258Y-61484507D01*
X168710528Y-61609472D01*
X168835493Y-61761742D01*
X168928348Y-61935463D01*
X168985532Y-62123969D01*
X169004839Y-62320000D01*
X168985532Y-62516031D01*
X168948454Y-62638258D01*
X168934055Y-62685726D01*
X168928348Y-62704537D01*
X168835493Y-62878258D01*
X168710528Y-63030528D01*
X168558258Y-63155493D01*
X168384537Y-63248348D01*
X168384535Y-63248349D01*
X168334552Y-63263511D01*
X168196031Y-63305532D01*
X168049129Y-63320000D01*
X167550871Y-63320000D01*
X167403969Y-63305532D01*
X167265448Y-63263511D01*
X167215465Y-63248349D01*
X167215463Y-63248348D01*
X167041742Y-63155493D01*
X166889472Y-63030528D01*
X166764507Y-62878258D01*
X166671652Y-62704537D01*
X166665946Y-62685726D01*
X166651546Y-62638258D01*
X166614468Y-62516031D01*
X166595161Y-62320000D01*
X166614468Y-62123969D01*
X166671652Y-61935463D01*
X166764507Y-61761742D01*
X166889472Y-61609472D01*
X167041742Y-61484507D01*
X167215463Y-61391652D01*
X167215465Y-61391651D01*
X167265448Y-61376489D01*
X167403969Y-61334468D01*
X167550871Y-61320000D01*
X168049129Y-61320000D01*
X168196031Y-61334468D01*
X168196031Y-61334468D01*
G37*
G36*
X116596031Y-61094468D02*
X116734552Y-61136489D01*
X116784535Y-61151651D01*
X116784537Y-61151652D01*
X116958258Y-61244507D01*
X117110528Y-61369472D01*
X117235493Y-61521742D01*
X117328348Y-61695463D01*
X117385532Y-61883969D01*
X117404839Y-62080000D01*
X117385532Y-62276031D01*
X117328348Y-62464537D01*
X117235493Y-62638258D01*
X117110528Y-62790528D01*
X116958258Y-62915493D01*
X116784537Y-63008348D01*
X116784535Y-63008349D01*
X116734552Y-63023511D01*
X116596031Y-63065532D01*
X116449129Y-63080000D01*
X115950871Y-63080000D01*
X115803969Y-63065532D01*
X115665448Y-63023511D01*
X115615465Y-63008349D01*
X115615463Y-63008348D01*
X115441742Y-62915493D01*
X115289472Y-62790528D01*
X115164507Y-62638258D01*
X115071652Y-62464537D01*
X115014468Y-62276031D01*
X114995161Y-62080000D01*
X115014468Y-61883969D01*
X115071652Y-61695463D01*
X115164507Y-61521742D01*
X115289472Y-61369472D01*
X115441742Y-61244507D01*
X115615463Y-61151652D01*
X115615465Y-61151651D01*
X115665448Y-61136489D01*
X115803969Y-61094468D01*
X115950871Y-61080000D01*
X116449129Y-61080000D01*
X116596031Y-61094468D01*
X116596031Y-61094468D01*
G37*
G36*
X131100000Y-62850000D02*
X130000000Y-62850000D01*
X130000000Y-61150000D01*
X131100000Y-61150000D01*
X131100000Y-62850000D01*
X131100000Y-62850000D01*
G37*
G36*
X129200000Y-62850000D02*
X128100000Y-62850000D01*
X128100000Y-61150000D01*
X129200000Y-61150000D01*
X129200000Y-62850000D01*
X129200000Y-62850000D01*
G37*
G36*
X121900000Y-62350000D02*
X120400000Y-62350000D01*
X120400000Y-61350000D01*
X121900000Y-61350000D01*
X121900000Y-62350000D01*
X121900000Y-62350000D01*
G37*
G36*
X119200000Y-62350000D02*
X117700000Y-62350000D01*
X117700000Y-59450000D01*
X119200000Y-59450000D01*
X119200000Y-62350000D01*
X119200000Y-62350000D01*
G37*
G36*
X127400000Y-62300000D02*
X126200000Y-62300000D01*
X126200000Y-61100000D01*
X127400000Y-61100000D01*
X127400000Y-62300000D01*
X127400000Y-62300000D01*
G37*
G36*
X125800000Y-62300000D02*
X124600000Y-62300000D01*
X124600000Y-61100000D01*
X125800000Y-61100000D01*
X125800000Y-62300000D01*
X125800000Y-62300000D01*
G37*
G36*
X123850000Y-62200000D02*
X122150000Y-62200000D01*
X122150000Y-61100000D01*
X123850000Y-61100000D01*
X123850000Y-62200000D01*
X123850000Y-62200000D01*
G37*
G36*
X166150000Y-61600000D02*
X164450000Y-61600000D01*
X164450000Y-60500000D01*
X166150000Y-60500000D01*
X166150000Y-61600000D01*
X166150000Y-61600000D01*
G37*
G36*
X104650000Y-61400000D02*
X102950000Y-61400000D01*
X102950000Y-60300000D01*
X104650000Y-60300000D01*
X104650000Y-61400000D01*
X104650000Y-61400000D01*
G37*
G36*
X168196031Y-58794468D02*
X168334552Y-58836489D01*
X168384535Y-58851651D01*
X168384537Y-58851652D01*
X168558258Y-58944507D01*
X168710528Y-59069472D01*
X168835493Y-59221742D01*
X168928348Y-59395463D01*
X168985532Y-59583969D01*
X169004839Y-59780000D01*
X168985532Y-59976031D01*
X168928348Y-60164537D01*
X168835493Y-60338258D01*
X168710528Y-60490528D01*
X168558258Y-60615493D01*
X168384537Y-60708348D01*
X168384535Y-60708349D01*
X168334552Y-60723511D01*
X168196031Y-60765532D01*
X168049129Y-60780000D01*
X167550871Y-60780000D01*
X167403969Y-60765532D01*
X167265448Y-60723511D01*
X167215465Y-60708349D01*
X167215463Y-60708348D01*
X167041742Y-60615493D01*
X166889472Y-60490528D01*
X166764507Y-60338258D01*
X166671652Y-60164537D01*
X166614468Y-59976031D01*
X166595161Y-59780000D01*
X166614468Y-59583969D01*
X166671652Y-59395463D01*
X166764507Y-59221742D01*
X166889472Y-59069472D01*
X167041742Y-58944507D01*
X167215463Y-58851652D01*
X167215465Y-58851651D01*
X167265448Y-58836489D01*
X167403969Y-58794468D01*
X167550871Y-58780000D01*
X168049129Y-58780000D01*
X168196031Y-58794468D01*
X168196031Y-58794468D01*
G37*
G36*
X127500000Y-60750000D02*
X126400000Y-60750000D01*
X126400000Y-59050000D01*
X127500000Y-59050000D01*
X127500000Y-60750000D01*
X127500000Y-60750000D01*
G37*
G36*
X125600000Y-60750000D02*
X124500000Y-60750000D01*
X124500000Y-59050000D01*
X125600000Y-59050000D01*
X125600000Y-60750000D01*
X125600000Y-60750000D01*
G37*
G36*
X131100000Y-60750000D02*
X130000000Y-60750000D01*
X130000000Y-59050000D01*
X131100000Y-59050000D01*
X131100000Y-60750000D01*
X131100000Y-60750000D01*
G37*
G36*
X129200000Y-60750000D02*
X128100000Y-60750000D01*
X128100000Y-59050000D01*
X129200000Y-59050000D01*
X129200000Y-60750000D01*
X129200000Y-60750000D01*
G37*
G36*
X117400000Y-60540000D02*
X115000000Y-60540000D01*
X115000000Y-58540000D01*
X117400000Y-58540000D01*
X117400000Y-60540000D01*
X117400000Y-60540000D01*
G37*
G36*
X121900000Y-60450000D02*
X120400000Y-60450000D01*
X120400000Y-59450000D01*
X121900000Y-59450000D01*
X121900000Y-60450000D01*
X121900000Y-60450000D01*
G37*
G36*
X123850000Y-60300000D02*
X122150000Y-60300000D01*
X122150000Y-59200000D01*
X123850000Y-59200000D01*
X123850000Y-60300000D01*
X123850000Y-60300000D01*
G37*
G36*
X104650000Y-59500000D02*
X102950000Y-59500000D01*
X102950000Y-58400000D01*
X104650000Y-58400000D01*
X104650000Y-59500000D01*
X104650000Y-59500000D01*
G37*
G36*
X166150000Y-59100000D02*
X164450000Y-59100000D01*
X164450000Y-58000000D01*
X166150000Y-58000000D01*
X166150000Y-59100000D01*
X166150000Y-59100000D01*
G37*
G36*
X163450000Y-59100000D02*
X161750000Y-59100000D01*
X161750000Y-58000000D01*
X163450000Y-58000000D01*
X163450000Y-59100000D01*
X163450000Y-59100000D01*
G37*
G36*
X160750000Y-59100000D02*
X159050000Y-59100000D01*
X159050000Y-58000000D01*
X160750000Y-58000000D01*
X160750000Y-59100000D01*
X160750000Y-59100000D01*
G37*
G36*
X169000000Y-58240000D02*
X166600000Y-58240000D01*
X166600000Y-56240000D01*
X169000000Y-56240000D01*
X169000000Y-58240000D01*
X169000000Y-58240000D01*
G37*
G36*
X109526274Y-55886350D02*
X109717362Y-55965502D01*
X109889336Y-56080411D01*
X110035589Y-56226664D01*
X110150498Y-56398638D01*
X110229650Y-56589726D01*
X110270000Y-56792584D01*
X110270000Y-56999416D01*
X110229650Y-57202274D01*
X110150498Y-57393362D01*
X110035589Y-57565336D01*
X109889336Y-57711589D01*
X109717362Y-57826498D01*
X109526274Y-57905650D01*
X109323416Y-57946000D01*
X109116584Y-57946000D01*
X108913726Y-57905650D01*
X108722638Y-57826498D01*
X108550664Y-57711589D01*
X108404411Y-57565336D01*
X108289502Y-57393362D01*
X108210350Y-57202274D01*
X108170000Y-56999416D01*
X108170000Y-56792584D01*
X108210350Y-56589726D01*
X108289502Y-56398638D01*
X108404411Y-56226664D01*
X108550664Y-56080411D01*
X108722638Y-55965502D01*
X108913726Y-55886350D01*
X109116584Y-55846000D01*
X109323416Y-55846000D01*
X109526274Y-55886350D01*
X109526274Y-55886350D01*
G37*
G36*
X106986274Y-55886350D02*
X107177362Y-55965502D01*
X107349336Y-56080411D01*
X107495589Y-56226664D01*
X107610498Y-56398638D01*
X107689650Y-56589726D01*
X107730000Y-56792584D01*
X107730000Y-56999416D01*
X107689650Y-57202274D01*
X107610498Y-57393362D01*
X107495589Y-57565336D01*
X107349336Y-57711589D01*
X107177362Y-57826498D01*
X106986274Y-57905650D01*
X106783416Y-57946000D01*
X106576584Y-57946000D01*
X106373726Y-57905650D01*
X106182638Y-57826498D01*
X106010664Y-57711589D01*
X105864411Y-57565336D01*
X105749502Y-57393362D01*
X105670350Y-57202274D01*
X105630000Y-56999416D01*
X105630000Y-56792584D01*
X105670350Y-56589726D01*
X105749502Y-56398638D01*
X105864411Y-56226664D01*
X106010664Y-56080411D01*
X106182638Y-55965502D01*
X106373726Y-55886350D01*
X106576584Y-55846000D01*
X106783416Y-55846000D01*
X106986274Y-55886350D01*
X106986274Y-55886350D01*
G37*
G36*
X105190000Y-57946000D02*
X103090000Y-57946000D01*
X103090000Y-55846000D01*
X105190000Y-55846000D01*
X105190000Y-57946000D01*
X105190000Y-57946000D01*
G37*
G36*
X160750000Y-57200000D02*
X159050000Y-57200000D01*
X159050000Y-56100000D01*
X160750000Y-56100000D01*
X160750000Y-57200000D01*
X160750000Y-57200000D01*
G37*
G36*
X166150000Y-57200000D02*
X164450000Y-57200000D01*
X164450000Y-56100000D01*
X166150000Y-56100000D01*
X166150000Y-57200000D01*
X166150000Y-57200000D01*
G37*
G36*
X163450000Y-57200000D02*
X161750000Y-57200000D01*
X161750000Y-56100000D01*
X163450000Y-56100000D01*
X163450000Y-57200000D01*
X163450000Y-57200000D01*
G37*
G36*
X128200000Y-56450000D02*
X127100000Y-56450000D01*
X127100000Y-54750000D01*
X128200000Y-54750000D01*
X128200000Y-56450000D01*
X128200000Y-56450000D01*
G37*
G36*
X126300000Y-56450000D02*
X125200000Y-56450000D01*
X125200000Y-54750000D01*
X126300000Y-54750000D01*
X126300000Y-56450000D01*
X126300000Y-56450000D01*
G37*
G36*
X104446274Y-53346350D02*
X104637362Y-53425502D01*
X104809336Y-53540411D01*
X104955589Y-53686664D01*
X105070498Y-53858638D01*
X105149650Y-54049726D01*
X105190000Y-54252584D01*
X105190000Y-54459416D01*
X105149650Y-54662274D01*
X105070498Y-54853362D01*
X104955589Y-55025336D01*
X104809336Y-55171589D01*
X104637362Y-55286498D01*
X104446274Y-55365650D01*
X104243416Y-55406000D01*
X104036584Y-55406000D01*
X103833726Y-55365650D01*
X103642638Y-55286498D01*
X103470664Y-55171589D01*
X103324411Y-55025336D01*
X103209502Y-54853362D01*
X103130350Y-54662274D01*
X103090000Y-54459416D01*
X103090000Y-54252584D01*
X103130350Y-54049726D01*
X103209502Y-53858638D01*
X103324411Y-53686664D01*
X103470664Y-53540411D01*
X103642638Y-53425502D01*
X103833726Y-53346350D01*
X104036584Y-53306000D01*
X104243416Y-53306000D01*
X104446274Y-53346350D01*
X104446274Y-53346350D01*
G37*
G36*
X106986274Y-53346350D02*
X107177362Y-53425502D01*
X107349336Y-53540411D01*
X107495589Y-53686664D01*
X107610498Y-53858638D01*
X107689650Y-54049726D01*
X107730000Y-54252584D01*
X107730000Y-54459416D01*
X107689650Y-54662274D01*
X107610498Y-54853362D01*
X107495589Y-55025336D01*
X107349336Y-55171589D01*
X107177362Y-55286498D01*
X106986274Y-55365650D01*
X106783416Y-55406000D01*
X106576584Y-55406000D01*
X106373726Y-55365650D01*
X106182638Y-55286498D01*
X106010664Y-55171589D01*
X105864411Y-55025336D01*
X105749502Y-54853362D01*
X105670350Y-54662274D01*
X105630000Y-54459416D01*
X105630000Y-54252584D01*
X105670350Y-54049726D01*
X105749502Y-53858638D01*
X105864411Y-53686664D01*
X106010664Y-53540411D01*
X106182638Y-53425502D01*
X106373726Y-53346350D01*
X106576584Y-53306000D01*
X106783416Y-53306000D01*
X106986274Y-53346350D01*
X106986274Y-53346350D01*
G37*
G36*
X109526274Y-53346350D02*
X109717362Y-53425502D01*
X109889336Y-53540411D01*
X110035589Y-53686664D01*
X110150498Y-53858638D01*
X110229650Y-54049726D01*
X110270000Y-54252584D01*
X110270000Y-54459416D01*
X110229650Y-54662274D01*
X110150498Y-54853362D01*
X110035589Y-55025336D01*
X109889336Y-55171589D01*
X109717362Y-55286498D01*
X109526274Y-55365650D01*
X109323416Y-55406000D01*
X109116584Y-55406000D01*
X108913726Y-55365650D01*
X108722638Y-55286498D01*
X108550664Y-55171589D01*
X108404411Y-55025336D01*
X108289502Y-54853362D01*
X108210350Y-54662274D01*
X108170000Y-54459416D01*
X108170000Y-54252584D01*
X108210350Y-54049726D01*
X108289502Y-53858638D01*
X108404411Y-53686664D01*
X108550664Y-53540411D01*
X108722638Y-53425502D01*
X108913726Y-53346350D01*
X109116584Y-53306000D01*
X109323416Y-53306000D01*
X109526274Y-53346350D01*
X109526274Y-53346350D01*
G37*
G36*
X117365041Y-51609173D02*
X117692620Y-51744861D01*
X117987433Y-51941849D01*
X118238151Y-52192567D01*
X118435139Y-52487380D01*
X118570827Y-52814959D01*
X118640000Y-53162716D01*
X118640000Y-53517284D01*
X118570827Y-53865041D01*
X118435139Y-54192620D01*
X118238151Y-54487433D01*
X117987433Y-54738151D01*
X117692620Y-54935139D01*
X117365041Y-55070827D01*
X117017284Y-55140000D01*
X116662716Y-55140000D01*
X116314959Y-55070827D01*
X115987380Y-54935139D01*
X115692567Y-54738151D01*
X115441849Y-54487433D01*
X115244861Y-54192620D01*
X115109173Y-53865041D01*
X115040000Y-53517284D01*
X115040000Y-53162716D01*
X115109173Y-52814959D01*
X115244861Y-52487380D01*
X115441849Y-52192567D01*
X115692567Y-51941849D01*
X115987380Y-51744861D01*
X116314959Y-51609173D01*
X116662716Y-51540000D01*
X117017284Y-51540000D01*
X117365041Y-51609173D01*
X117365041Y-51609173D01*
G37*
G36*
X125672031Y-52154468D02*
X125797630Y-52192569D01*
X125860535Y-52211651D01*
X125860537Y-52211652D01*
X126034258Y-52304507D01*
X126186528Y-52429472D01*
X126311493Y-52581742D01*
X126348030Y-52650099D01*
X126404349Y-52755465D01*
X126422396Y-52814959D01*
X126461532Y-52943970D01*
X126476000Y-53090872D01*
X126476000Y-53589129D01*
X126461532Y-53736031D01*
X126404348Y-53924537D01*
X126311493Y-54098258D01*
X126186528Y-54250528D01*
X126034258Y-54375493D01*
X125877247Y-54459416D01*
X125860534Y-54468349D01*
X125819038Y-54480937D01*
X125672031Y-54525532D01*
X125475999Y-54544839D01*
X125279969Y-54525532D01*
X125141448Y-54483511D01*
X125091465Y-54468349D01*
X125091463Y-54468348D01*
X124917742Y-54375493D01*
X124765472Y-54250528D01*
X124640507Y-54098258D01*
X124547652Y-53924536D01*
X124490468Y-53736030D01*
X124476000Y-53589128D01*
X124476000Y-53090871D01*
X124490468Y-52943969D01*
X124547651Y-52755465D01*
X124640509Y-52581741D01*
X124765473Y-52429472D01*
X124917743Y-52304507D01*
X125091464Y-52211652D01*
X125091466Y-52211651D01*
X125132962Y-52199063D01*
X125279969Y-52154468D01*
X125476001Y-52135161D01*
X125672031Y-52154468D01*
X125672031Y-52154468D01*
G37*
G36*
X135832031Y-52154468D02*
X135957630Y-52192569D01*
X136020535Y-52211651D01*
X136020537Y-52211652D01*
X136194258Y-52304507D01*
X136346528Y-52429472D01*
X136471493Y-52581742D01*
X136508030Y-52650099D01*
X136564349Y-52755465D01*
X136582396Y-52814959D01*
X136621532Y-52943970D01*
X136636000Y-53090872D01*
X136636000Y-53589129D01*
X136621532Y-53736031D01*
X136564348Y-53924537D01*
X136471493Y-54098258D01*
X136346528Y-54250528D01*
X136194258Y-54375493D01*
X136037247Y-54459416D01*
X136020534Y-54468349D01*
X135979038Y-54480937D01*
X135832031Y-54525532D01*
X135635999Y-54544839D01*
X135439969Y-54525532D01*
X135301448Y-54483511D01*
X135251465Y-54468349D01*
X135251463Y-54468348D01*
X135077742Y-54375493D01*
X134925472Y-54250528D01*
X134800507Y-54098258D01*
X134707652Y-53924536D01*
X134650468Y-53736030D01*
X134636000Y-53589128D01*
X134636000Y-53090871D01*
X134650468Y-52943969D01*
X134707651Y-52755465D01*
X134800509Y-52581741D01*
X134925473Y-52429472D01*
X135077743Y-52304507D01*
X135251464Y-52211652D01*
X135251466Y-52211651D01*
X135292962Y-52199063D01*
X135439969Y-52154468D01*
X135636001Y-52135161D01*
X135832031Y-52154468D01*
X135832031Y-52154468D01*
G37*
G36*
X128212031Y-52154468D02*
X128337630Y-52192569D01*
X128400535Y-52211651D01*
X128400537Y-52211652D01*
X128574258Y-52304507D01*
X128726528Y-52429472D01*
X128851493Y-52581742D01*
X128888030Y-52650099D01*
X128944349Y-52755465D01*
X128962396Y-52814959D01*
X129001532Y-52943970D01*
X129016000Y-53090872D01*
X129016000Y-53589129D01*
X129001532Y-53736031D01*
X128944348Y-53924537D01*
X128851493Y-54098258D01*
X128726528Y-54250528D01*
X128574258Y-54375493D01*
X128417247Y-54459416D01*
X128400534Y-54468349D01*
X128359038Y-54480937D01*
X128212031Y-54525532D01*
X128015999Y-54544839D01*
X127819969Y-54525532D01*
X127681448Y-54483511D01*
X127631465Y-54468349D01*
X127631463Y-54468348D01*
X127457742Y-54375493D01*
X127305472Y-54250528D01*
X127180507Y-54098258D01*
X127087652Y-53924536D01*
X127030468Y-53736030D01*
X127016000Y-53589128D01*
X127016000Y-53090871D01*
X127030468Y-52943969D01*
X127087651Y-52755465D01*
X127180509Y-52581741D01*
X127305473Y-52429472D01*
X127457743Y-52304507D01*
X127631464Y-52211652D01*
X127631466Y-52211651D01*
X127672962Y-52199063D01*
X127819969Y-52154468D01*
X128016001Y-52135161D01*
X128212031Y-52154468D01*
X128212031Y-52154468D01*
G37*
G36*
X150056031Y-52154468D02*
X150181630Y-52192569D01*
X150244535Y-52211651D01*
X150244537Y-52211652D01*
X150418258Y-52304507D01*
X150570528Y-52429472D01*
X150695493Y-52581742D01*
X150732030Y-52650099D01*
X150788349Y-52755465D01*
X150806396Y-52814959D01*
X150845532Y-52943970D01*
X150860000Y-53090872D01*
X150860000Y-53589129D01*
X150845532Y-53736031D01*
X150788348Y-53924537D01*
X150695493Y-54098258D01*
X150570528Y-54250528D01*
X150418258Y-54375493D01*
X150261247Y-54459416D01*
X150244534Y-54468349D01*
X150203038Y-54480937D01*
X150056031Y-54525532D01*
X149859999Y-54544839D01*
X149663969Y-54525532D01*
X149525448Y-54483511D01*
X149475465Y-54468349D01*
X149475463Y-54468348D01*
X149301742Y-54375493D01*
X149149472Y-54250528D01*
X149024507Y-54098258D01*
X148931652Y-53924536D01*
X148874468Y-53736030D01*
X148860000Y-53589128D01*
X148860000Y-53090871D01*
X148874468Y-52943969D01*
X148931651Y-52755465D01*
X149024509Y-52581741D01*
X149149473Y-52429472D01*
X149301743Y-52304507D01*
X149475464Y-52211652D01*
X149475466Y-52211651D01*
X149516962Y-52199063D01*
X149663969Y-52154468D01*
X149860001Y-52135161D01*
X150056031Y-52154468D01*
X150056031Y-52154468D01*
G37*
G36*
X123132031Y-52154468D02*
X123257630Y-52192569D01*
X123320535Y-52211651D01*
X123320537Y-52211652D01*
X123494258Y-52304507D01*
X123646528Y-52429472D01*
X123771493Y-52581742D01*
X123808030Y-52650099D01*
X123864349Y-52755465D01*
X123882396Y-52814959D01*
X123921532Y-52943970D01*
X123936000Y-53090872D01*
X123936000Y-53589129D01*
X123921532Y-53736031D01*
X123864348Y-53924537D01*
X123771493Y-54098258D01*
X123646528Y-54250528D01*
X123494258Y-54375493D01*
X123337247Y-54459416D01*
X123320534Y-54468349D01*
X123279038Y-54480937D01*
X123132031Y-54525532D01*
X122935999Y-54544839D01*
X122739969Y-54525532D01*
X122601448Y-54483511D01*
X122551465Y-54468349D01*
X122551463Y-54468348D01*
X122377742Y-54375493D01*
X122225472Y-54250528D01*
X122100507Y-54098258D01*
X122007652Y-53924536D01*
X121950468Y-53736030D01*
X121936000Y-53589128D01*
X121936000Y-53090871D01*
X121950468Y-52943969D01*
X122007651Y-52755465D01*
X122100509Y-52581741D01*
X122225473Y-52429472D01*
X122377743Y-52304507D01*
X122551464Y-52211652D01*
X122551466Y-52211651D01*
X122592962Y-52199063D01*
X122739969Y-52154468D01*
X122936001Y-52135161D01*
X123132031Y-52154468D01*
X123132031Y-52154468D01*
G37*
G36*
X160216031Y-52154468D02*
X160341630Y-52192569D01*
X160404535Y-52211651D01*
X160404537Y-52211652D01*
X160578258Y-52304507D01*
X160730528Y-52429472D01*
X160855493Y-52581742D01*
X160892030Y-52650099D01*
X160948349Y-52755465D01*
X160966396Y-52814959D01*
X161005532Y-52943970D01*
X161020000Y-53090872D01*
X161020000Y-53589129D01*
X161005532Y-53736031D01*
X160948348Y-53924537D01*
X160855493Y-54098258D01*
X160730528Y-54250528D01*
X160578258Y-54375493D01*
X160421247Y-54459416D01*
X160404534Y-54468349D01*
X160363038Y-54480937D01*
X160216031Y-54525532D01*
X160019999Y-54544839D01*
X159823969Y-54525532D01*
X159685448Y-54483511D01*
X159635465Y-54468349D01*
X159635463Y-54468348D01*
X159461742Y-54375493D01*
X159309472Y-54250528D01*
X159184507Y-54098258D01*
X159091652Y-53924536D01*
X159034468Y-53736030D01*
X159020000Y-53589128D01*
X159020000Y-53090871D01*
X159034468Y-52943969D01*
X159091651Y-52755465D01*
X159184509Y-52581741D01*
X159309473Y-52429472D01*
X159461743Y-52304507D01*
X159635464Y-52211652D01*
X159635466Y-52211651D01*
X159676962Y-52199063D01*
X159823969Y-52154468D01*
X160020001Y-52135161D01*
X160216031Y-52154468D01*
X160216031Y-52154468D01*
G37*
G36*
X162756031Y-52154468D02*
X162881630Y-52192569D01*
X162944535Y-52211651D01*
X162944537Y-52211652D01*
X163118258Y-52304507D01*
X163270528Y-52429472D01*
X163395493Y-52581742D01*
X163432030Y-52650099D01*
X163488349Y-52755465D01*
X163506396Y-52814959D01*
X163545532Y-52943970D01*
X163560000Y-53090872D01*
X163560000Y-53589129D01*
X163545532Y-53736031D01*
X163488348Y-53924537D01*
X163395493Y-54098258D01*
X163270528Y-54250528D01*
X163118258Y-54375493D01*
X162961247Y-54459416D01*
X162944534Y-54468349D01*
X162903038Y-54480937D01*
X162756031Y-54525532D01*
X162559999Y-54544839D01*
X162363969Y-54525532D01*
X162225448Y-54483511D01*
X162175465Y-54468349D01*
X162175463Y-54468348D01*
X162001742Y-54375493D01*
X161849472Y-54250528D01*
X161724507Y-54098258D01*
X161631652Y-53924536D01*
X161574468Y-53736030D01*
X161560000Y-53589128D01*
X161560000Y-53090871D01*
X161574468Y-52943969D01*
X161631651Y-52755465D01*
X161724509Y-52581741D01*
X161849473Y-52429472D01*
X162001743Y-52304507D01*
X162175464Y-52211652D01*
X162175466Y-52211651D01*
X162216962Y-52199063D01*
X162363969Y-52154468D01*
X162560001Y-52135161D01*
X162756031Y-52154468D01*
X162756031Y-52154468D01*
G37*
G36*
X147516031Y-52154468D02*
X147641630Y-52192569D01*
X147704535Y-52211651D01*
X147704537Y-52211652D01*
X147878258Y-52304507D01*
X148030528Y-52429472D01*
X148155493Y-52581742D01*
X148192030Y-52650099D01*
X148248349Y-52755465D01*
X148266396Y-52814959D01*
X148305532Y-52943970D01*
X148320000Y-53090872D01*
X148320000Y-53589129D01*
X148305532Y-53736031D01*
X148248348Y-53924537D01*
X148155493Y-54098258D01*
X148030528Y-54250528D01*
X147878258Y-54375493D01*
X147721247Y-54459416D01*
X147704534Y-54468349D01*
X147663038Y-54480937D01*
X147516031Y-54525532D01*
X147319999Y-54544839D01*
X147123969Y-54525532D01*
X146985448Y-54483511D01*
X146935465Y-54468349D01*
X146935463Y-54468348D01*
X146761742Y-54375493D01*
X146609472Y-54250528D01*
X146484507Y-54098258D01*
X146391652Y-53924536D01*
X146334468Y-53736030D01*
X146320000Y-53589128D01*
X146320000Y-53090871D01*
X146334468Y-52943969D01*
X146391651Y-52755465D01*
X146484509Y-52581741D01*
X146609473Y-52429472D01*
X146761743Y-52304507D01*
X146935464Y-52211652D01*
X146935466Y-52211651D01*
X146976962Y-52199063D01*
X147123969Y-52154468D01*
X147320001Y-52135161D01*
X147516031Y-52154468D01*
X147516031Y-52154468D01*
G37*
G36*
X140912031Y-52154468D02*
X141037630Y-52192569D01*
X141100535Y-52211651D01*
X141100537Y-52211652D01*
X141274258Y-52304507D01*
X141426528Y-52429472D01*
X141551493Y-52581742D01*
X141588030Y-52650099D01*
X141644349Y-52755465D01*
X141662396Y-52814959D01*
X141701532Y-52943970D01*
X141716000Y-53090872D01*
X141716000Y-53589129D01*
X141701532Y-53736031D01*
X141644348Y-53924537D01*
X141551493Y-54098258D01*
X141426528Y-54250528D01*
X141274258Y-54375493D01*
X141117247Y-54459416D01*
X141100534Y-54468349D01*
X141059038Y-54480937D01*
X140912031Y-54525532D01*
X140715999Y-54544839D01*
X140519969Y-54525532D01*
X140381448Y-54483511D01*
X140331465Y-54468349D01*
X140331463Y-54468348D01*
X140157742Y-54375493D01*
X140005472Y-54250528D01*
X139880507Y-54098258D01*
X139787652Y-53924536D01*
X139730468Y-53736030D01*
X139716000Y-53589128D01*
X139716000Y-53090871D01*
X139730468Y-52943969D01*
X139787651Y-52755465D01*
X139880509Y-52581741D01*
X140005473Y-52429472D01*
X140157743Y-52304507D01*
X140331464Y-52211652D01*
X140331466Y-52211651D01*
X140372962Y-52199063D01*
X140519969Y-52154468D01*
X140716001Y-52135161D01*
X140912031Y-52154468D01*
X140912031Y-52154468D01*
G37*
G36*
X138372031Y-52154468D02*
X138497630Y-52192569D01*
X138560535Y-52211651D01*
X138560537Y-52211652D01*
X138734258Y-52304507D01*
X138886528Y-52429472D01*
X139011493Y-52581742D01*
X139048030Y-52650099D01*
X139104349Y-52755465D01*
X139122396Y-52814959D01*
X139161532Y-52943970D01*
X139176000Y-53090872D01*
X139176000Y-53589129D01*
X139161532Y-53736031D01*
X139104348Y-53924537D01*
X139011493Y-54098258D01*
X138886528Y-54250528D01*
X138734258Y-54375493D01*
X138577247Y-54459416D01*
X138560534Y-54468349D01*
X138519038Y-54480937D01*
X138372031Y-54525532D01*
X138175999Y-54544839D01*
X137979969Y-54525532D01*
X137841448Y-54483511D01*
X137791465Y-54468349D01*
X137791463Y-54468348D01*
X137617742Y-54375493D01*
X137465472Y-54250528D01*
X137340507Y-54098258D01*
X137247652Y-53924536D01*
X137190468Y-53736030D01*
X137176000Y-53589128D01*
X137176000Y-53090871D01*
X137190468Y-52943969D01*
X137247651Y-52755465D01*
X137340509Y-52581741D01*
X137465473Y-52429472D01*
X137617743Y-52304507D01*
X137791464Y-52211652D01*
X137791466Y-52211651D01*
X137832962Y-52199063D01*
X137979969Y-52154468D01*
X138176001Y-52135161D01*
X138372031Y-52154468D01*
X138372031Y-52154468D01*
G37*
G36*
X157676031Y-52154468D02*
X157801630Y-52192569D01*
X157864535Y-52211651D01*
X157864537Y-52211652D01*
X158038258Y-52304507D01*
X158190528Y-52429472D01*
X158315493Y-52581742D01*
X158352030Y-52650099D01*
X158408349Y-52755465D01*
X158426396Y-52814959D01*
X158465532Y-52943970D01*
X158480000Y-53090872D01*
X158480000Y-53589129D01*
X158465532Y-53736031D01*
X158408348Y-53924537D01*
X158315493Y-54098258D01*
X158190528Y-54250528D01*
X158038258Y-54375493D01*
X157881247Y-54459416D01*
X157864534Y-54468349D01*
X157823038Y-54480937D01*
X157676031Y-54525532D01*
X157479999Y-54544839D01*
X157283969Y-54525532D01*
X157145448Y-54483511D01*
X157095465Y-54468349D01*
X157095463Y-54468348D01*
X156921742Y-54375493D01*
X156769472Y-54250528D01*
X156644507Y-54098258D01*
X156551652Y-53924536D01*
X156494468Y-53736030D01*
X156480000Y-53589128D01*
X156480000Y-53090871D01*
X156494468Y-52943969D01*
X156551651Y-52755465D01*
X156644509Y-52581741D01*
X156769473Y-52429472D01*
X156921743Y-52304507D01*
X157095464Y-52211652D01*
X157095466Y-52211651D01*
X157136962Y-52199063D01*
X157283969Y-52154468D01*
X157480001Y-52135161D01*
X157676031Y-52154468D01*
X157676031Y-52154468D01*
G37*
G36*
X133292031Y-52154468D02*
X133417630Y-52192569D01*
X133480535Y-52211651D01*
X133480537Y-52211652D01*
X133654258Y-52304507D01*
X133806528Y-52429472D01*
X133931493Y-52581742D01*
X133968030Y-52650099D01*
X134024349Y-52755465D01*
X134042396Y-52814959D01*
X134081532Y-52943970D01*
X134096000Y-53090872D01*
X134096000Y-53589129D01*
X134081532Y-53736031D01*
X134024348Y-53924537D01*
X133931493Y-54098258D01*
X133806528Y-54250528D01*
X133654258Y-54375493D01*
X133497247Y-54459416D01*
X133480534Y-54468349D01*
X133439038Y-54480937D01*
X133292031Y-54525532D01*
X133095999Y-54544839D01*
X132899969Y-54525532D01*
X132761448Y-54483511D01*
X132711465Y-54468349D01*
X132711463Y-54468348D01*
X132537742Y-54375493D01*
X132385472Y-54250528D01*
X132260507Y-54098258D01*
X132167652Y-53924536D01*
X132110468Y-53736030D01*
X132096000Y-53589128D01*
X132096000Y-53090871D01*
X132110468Y-52943969D01*
X132167651Y-52755465D01*
X132260509Y-52581741D01*
X132385473Y-52429472D01*
X132537743Y-52304507D01*
X132711464Y-52211652D01*
X132711466Y-52211651D01*
X132752962Y-52199063D01*
X132899969Y-52154468D01*
X133096001Y-52135161D01*
X133292031Y-52154468D01*
X133292031Y-52154468D01*
G37*
G36*
X152596031Y-52154468D02*
X152721630Y-52192569D01*
X152784535Y-52211651D01*
X152784537Y-52211652D01*
X152958258Y-52304507D01*
X153110528Y-52429472D01*
X153235493Y-52581742D01*
X153272030Y-52650099D01*
X153328349Y-52755465D01*
X153346396Y-52814959D01*
X153385532Y-52943970D01*
X153400000Y-53090872D01*
X153400000Y-53589129D01*
X153385532Y-53736031D01*
X153328348Y-53924537D01*
X153235493Y-54098258D01*
X153110528Y-54250528D01*
X152958258Y-54375493D01*
X152801247Y-54459416D01*
X152784534Y-54468349D01*
X152743038Y-54480937D01*
X152596031Y-54525532D01*
X152399999Y-54544839D01*
X152203969Y-54525532D01*
X152065448Y-54483511D01*
X152015465Y-54468349D01*
X152015463Y-54468348D01*
X151841742Y-54375493D01*
X151689472Y-54250528D01*
X151564507Y-54098258D01*
X151471652Y-53924536D01*
X151414468Y-53736030D01*
X151400000Y-53589128D01*
X151400000Y-53090871D01*
X151414468Y-52943969D01*
X151471651Y-52755465D01*
X151564509Y-52581741D01*
X151689473Y-52429472D01*
X151841743Y-52304507D01*
X152015464Y-52211652D01*
X152015466Y-52211651D01*
X152056962Y-52199063D01*
X152203969Y-52154468D01*
X152400001Y-52135161D01*
X152596031Y-52154468D01*
X152596031Y-52154468D01*
G37*
G36*
X155136031Y-52154468D02*
X155261630Y-52192569D01*
X155324535Y-52211651D01*
X155324537Y-52211652D01*
X155498258Y-52304507D01*
X155650528Y-52429472D01*
X155775493Y-52581742D01*
X155812030Y-52650099D01*
X155868349Y-52755465D01*
X155886396Y-52814959D01*
X155925532Y-52943970D01*
X155940000Y-53090872D01*
X155940000Y-53589129D01*
X155925532Y-53736031D01*
X155868348Y-53924537D01*
X155775493Y-54098258D01*
X155650528Y-54250528D01*
X155498258Y-54375493D01*
X155341247Y-54459416D01*
X155324534Y-54468349D01*
X155283038Y-54480937D01*
X155136031Y-54525532D01*
X154939999Y-54544839D01*
X154743969Y-54525532D01*
X154605448Y-54483511D01*
X154555465Y-54468349D01*
X154555463Y-54468348D01*
X154381742Y-54375493D01*
X154229472Y-54250528D01*
X154104507Y-54098258D01*
X154011652Y-53924536D01*
X153954468Y-53736030D01*
X153940000Y-53589128D01*
X153940000Y-53090871D01*
X153954468Y-52943969D01*
X154011651Y-52755465D01*
X154104509Y-52581741D01*
X154229473Y-52429472D01*
X154381743Y-52304507D01*
X154555464Y-52211652D01*
X154555466Y-52211651D01*
X154596962Y-52199063D01*
X154743969Y-52154468D01*
X154940001Y-52135161D01*
X155136031Y-52154468D01*
X155136031Y-52154468D01*
G37*
G36*
X130752031Y-52154468D02*
X130877630Y-52192569D01*
X130940535Y-52211651D01*
X130940537Y-52211652D01*
X131114258Y-52304507D01*
X131266528Y-52429472D01*
X131391493Y-52581742D01*
X131428030Y-52650099D01*
X131484349Y-52755465D01*
X131502396Y-52814959D01*
X131541532Y-52943970D01*
X131556000Y-53090872D01*
X131556000Y-53589129D01*
X131541532Y-53736031D01*
X131484348Y-53924537D01*
X131391493Y-54098258D01*
X131266528Y-54250528D01*
X131114258Y-54375493D01*
X130957247Y-54459416D01*
X130940534Y-54468349D01*
X130899038Y-54480937D01*
X130752031Y-54525532D01*
X130555999Y-54544839D01*
X130359969Y-54525532D01*
X130221448Y-54483511D01*
X130171465Y-54468349D01*
X130171463Y-54468348D01*
X129997742Y-54375493D01*
X129845472Y-54250528D01*
X129720507Y-54098258D01*
X129627652Y-53924536D01*
X129570468Y-53736030D01*
X129556000Y-53589128D01*
X129556000Y-53090871D01*
X129570468Y-52943969D01*
X129627651Y-52755465D01*
X129720509Y-52581741D01*
X129845473Y-52429472D01*
X129997743Y-52304507D01*
X130171464Y-52211652D01*
X130171466Y-52211651D01*
X130212962Y-52199063D01*
X130359969Y-52154468D01*
X130556001Y-52135161D01*
X130752031Y-52154468D01*
X130752031Y-52154468D01*
G37*
G36*
X120592031Y-52154468D02*
X120717630Y-52192569D01*
X120780535Y-52211651D01*
X120780537Y-52211652D01*
X120954258Y-52304507D01*
X121106528Y-52429472D01*
X121231493Y-52581742D01*
X121268030Y-52650099D01*
X121324349Y-52755465D01*
X121342396Y-52814959D01*
X121381532Y-52943970D01*
X121396000Y-53090872D01*
X121396000Y-53589129D01*
X121381532Y-53736031D01*
X121324348Y-53924537D01*
X121231493Y-54098258D01*
X121106528Y-54250528D01*
X120954258Y-54375493D01*
X120797247Y-54459416D01*
X120780534Y-54468349D01*
X120739038Y-54480937D01*
X120592031Y-54525532D01*
X120395999Y-54544839D01*
X120199969Y-54525532D01*
X120061448Y-54483511D01*
X120011465Y-54468349D01*
X120011463Y-54468348D01*
X119837742Y-54375493D01*
X119685472Y-54250528D01*
X119560507Y-54098258D01*
X119467652Y-53924536D01*
X119410468Y-53736030D01*
X119396000Y-53589128D01*
X119396000Y-53090871D01*
X119410468Y-52943969D01*
X119467651Y-52755465D01*
X119560509Y-52581741D01*
X119685473Y-52429472D01*
X119837743Y-52304507D01*
X120011464Y-52211652D01*
X120011466Y-52211651D01*
X120052962Y-52199063D01*
X120199969Y-52154468D01*
X120396001Y-52135161D01*
X120592031Y-52154468D01*
X120592031Y-52154468D01*
G37*
G36*
X144256000Y-54540000D02*
X142256000Y-54540000D01*
X142256000Y-52140000D01*
X144256000Y-52140000D01*
X144256000Y-54540000D01*
X144256000Y-54540000D01*
G37*
G36*
X166100000Y-54540000D02*
X164100000Y-54540000D01*
X164100000Y-52140000D01*
X166100000Y-52140000D01*
X166100000Y-54540000D01*
X166100000Y-54540000D01*
G37*
G36*
X168844534Y-51134566D02*
X168844536Y-51134567D01*
X168844537Y-51134567D01*
X169121885Y-51249449D01*
X169371492Y-51416231D01*
X169583769Y-51628508D01*
X169750551Y-51878115D01*
X169865022Y-52154470D01*
X169865434Y-52155466D01*
X169924000Y-52449899D01*
X169924000Y-52750101D01*
X169885325Y-52944537D01*
X169865433Y-53044537D01*
X169750551Y-53321885D01*
X169583769Y-53571492D01*
X169371492Y-53783769D01*
X169121885Y-53950551D01*
X168844537Y-54065433D01*
X168844536Y-54065433D01*
X168844534Y-54065434D01*
X168550101Y-54124000D01*
X168249899Y-54124000D01*
X167955466Y-54065434D01*
X167955464Y-54065433D01*
X167955463Y-54065433D01*
X167678115Y-53950551D01*
X167428508Y-53783769D01*
X167216231Y-53571492D01*
X167049449Y-53321885D01*
X166934567Y-53044537D01*
X166914676Y-52944537D01*
X166876000Y-52750101D01*
X166876000Y-52449899D01*
X166934566Y-52155466D01*
X166934979Y-52154470D01*
X167049449Y-51878115D01*
X167216231Y-51628508D01*
X167428508Y-51416231D01*
X167678115Y-51249449D01*
X167955463Y-51134567D01*
X167955464Y-51134567D01*
X167955466Y-51134566D01*
X168249899Y-51076000D01*
X168550101Y-51076000D01*
X168844534Y-51134566D01*
X168844534Y-51134566D01*
G37*
G36*
X112444534Y-51034566D02*
X112444536Y-51034567D01*
X112444537Y-51034567D01*
X112721885Y-51149449D01*
X112971492Y-51316231D01*
X113183769Y-51528508D01*
X113237668Y-51609174D01*
X113350551Y-51778115D01*
X113465434Y-52055466D01*
X113524000Y-52349899D01*
X113524000Y-52650101D01*
X113465547Y-52943967D01*
X113465433Y-52944537D01*
X113350551Y-53221885D01*
X113183769Y-53471492D01*
X112971492Y-53683769D01*
X112721885Y-53850551D01*
X112444537Y-53965433D01*
X112444536Y-53965433D01*
X112444534Y-53965434D01*
X112150101Y-54024000D01*
X111849899Y-54024000D01*
X111555466Y-53965434D01*
X111555464Y-53965433D01*
X111555463Y-53965433D01*
X111278115Y-53850551D01*
X111028508Y-53683769D01*
X110816231Y-53471492D01*
X110649449Y-53221885D01*
X110534567Y-52944537D01*
X110534454Y-52943967D01*
X110476000Y-52650101D01*
X110476000Y-52349899D01*
X110534566Y-52055466D01*
X110649449Y-51778115D01*
X110762332Y-51609174D01*
X110816231Y-51528508D01*
X111028508Y-51316231D01*
X111278115Y-51149449D01*
X111555463Y-51034567D01*
X111555464Y-51034567D01*
X111555466Y-51034566D01*
X111849899Y-50976000D01*
X112150101Y-50976000D01*
X112444534Y-51034566D01*
X112444534Y-51034566D01*
G37*
G36*
X104100000Y-52850000D02*
X103000000Y-52850000D01*
X103000000Y-51150000D01*
X104100000Y-51150000D01*
X104100000Y-52850000D01*
X104100000Y-52850000D01*
G37*
G36*
X106000000Y-52850000D02*
X104900000Y-52850000D01*
X104900000Y-51150000D01*
X106000000Y-51150000D01*
X106000000Y-52850000D01*
X106000000Y-52850000D01*
G37*
M02*
