G04 #@! TF.GenerationSoftware,KiCad,Pcbnew,(5.0.0-3-g5ebb6b6)*
G04 #@! TF.CreationDate,2018-09-25T22:11:26+10:00*
G04 #@! TF.ProjectId,arduinouno,61726475696E6F756E6F2E6B69636164,rev?*
G04 #@! TF.SameCoordinates,Original*
G04 #@! TF.FileFunction,Copper,L2,Bot,Signal*
G04 #@! TF.FilePolarity,Positive*
%FSLAX46Y46*%
G04 Gerber Fmt 4.6, Leading zero omitted, Abs format (unit mm)*
G04 Created by KiCad (PCBNEW (5.0.0-3-g5ebb6b6)) date Tuesday, 25 September 2018 at 10:11:26 PM*
%MOMM*%
%LPD*%
G01*
G04 APERTURE LIST*
G04 #@! TA.AperFunction,ComponentPad*
%ADD10C,1.900000*%
G04 #@! TD*
G04 #@! TA.AperFunction,ComponentPad*
%ADD11R,1.900000X1.900000*%
G04 #@! TD*
G04 #@! TA.AperFunction,ComponentPad*
%ADD12O,1.600000X2.000000*%
G04 #@! TD*
G04 #@! TA.AperFunction,ComponentPad*
%ADD13R,1.600000X2.000000*%
G04 #@! TD*
G04 #@! TA.AperFunction,ComponentPad*
%ADD14C,1.700000*%
G04 #@! TD*
G04 #@! TA.AperFunction,ComponentPad*
%ADD15R,1.700000X1.700000*%
G04 #@! TD*
G04 #@! TA.AperFunction,ComponentPad*
%ADD16O,2.000000X1.200000*%
G04 #@! TD*
G04 #@! TA.AperFunction,ComponentPad*
%ADD17C,4.000000*%
G04 #@! TD*
G04 #@! TA.AperFunction,ComponentPad*
%ADD18O,2.000000X1.600000*%
G04 #@! TD*
G04 #@! TA.AperFunction,ComponentPad*
%ADD19R,2.000000X1.600000*%
G04 #@! TD*
G04 #@! TA.AperFunction,ComponentPad*
%ADD20C,7.400000*%
G04 #@! TD*
G04 #@! TA.AperFunction,ViaPad*
%ADD21C,0.604800*%
G04 #@! TD*
G04 #@! TA.AperFunction,Conductor*
%ADD22C,0.600000*%
G04 #@! TD*
G04 #@! TA.AperFunction,Conductor*
%ADD23C,0.400000*%
G04 #@! TD*
G04 #@! TA.AperFunction,Conductor*
%ADD24C,0.300000*%
G04 #@! TD*
G04 #@! TA.AperFunction,Conductor*
%ADD25C,1.000000*%
G04 #@! TD*
G04 #@! TA.AperFunction,Conductor*
%ADD26C,0.500000*%
G04 #@! TD*
G04 #@! TA.AperFunction,Conductor*
%ADD27C,0.254000*%
G04 #@! TD*
G04 APERTURE END LIST*
D10*
G04 #@! TO.P,SW2,3*
G04 #@! TO.N,GND*
X121550000Y-95750000D03*
D11*
G04 #@! TO.P,SW2,1*
G04 #@! TO.N,/USER_BUTTON*
X126050000Y-95750000D03*
D10*
G04 #@! TO.P,SW2,2*
X126050000Y-102250000D03*
G04 #@! TO.P,SW2,4*
G04 #@! TO.N,GND*
X121550000Y-102250000D03*
G04 #@! TD*
G04 #@! TO.P,SW1,3*
G04 #@! TO.N,GND*
X167750000Y-73550000D03*
D11*
G04 #@! TO.P,SW1,1*
G04 #@! TO.N,/BUTTON_RESETn*
X167750000Y-78050000D03*
D10*
G04 #@! TO.P,SW1,2*
X161250000Y-78050000D03*
G04 #@! TO.P,SW1,4*
G04 #@! TO.N,GND*
X161250000Y-73550000D03*
G04 #@! TD*
D12*
G04 #@! TO.P,J4,10*
G04 #@! TO.N,/AD5_SCL*
X120396000Y-53340000D03*
G04 #@! TO.P,J4,9*
G04 #@! TO.N,/AD4_SDA*
X122936000Y-53340000D03*
G04 #@! TO.P,J4,8*
G04 #@! TO.N,+AREF*
X125476000Y-53340000D03*
G04 #@! TO.P,J4,7*
G04 #@! TO.N,GND*
X128016000Y-53340000D03*
G04 #@! TO.P,J4,6*
G04 #@! TO.N,/SCK*
X130556000Y-53340000D03*
G04 #@! TO.P,J4,5*
G04 #@! TO.N,/MISO*
X133096000Y-53340000D03*
G04 #@! TO.P,J4,4*
G04 #@! TO.N,/MOSI*
X135636000Y-53340000D03*
G04 #@! TO.P,J4,3*
G04 #@! TO.N,/SS*
X138176000Y-53340000D03*
G04 #@! TO.P,J4,2*
G04 #@! TO.N,/IO9*
X140716000Y-53340000D03*
D13*
G04 #@! TO.P,J4,1*
G04 #@! TO.N,/IO8*
X143256000Y-53340000D03*
G04 #@! TD*
D12*
G04 #@! TO.P,U1,28*
G04 #@! TO.N,/AD5_SCL*
X163665000Y-91567000D03*
G04 #@! TO.P,U1,27*
G04 #@! TO.N,/AD4_SDA*
X161125000Y-91567000D03*
G04 #@! TO.P,U1,26*
G04 #@! TO.N,/AD3*
X158585000Y-91567000D03*
G04 #@! TO.P,U1,25*
G04 #@! TO.N,/AD2*
X156045000Y-91567000D03*
G04 #@! TO.P,U1,24*
G04 #@! TO.N,/AD1*
X153505000Y-91567000D03*
G04 #@! TO.P,U1,23*
G04 #@! TO.N,/AD0*
X150965000Y-91567000D03*
G04 #@! TO.P,U1,22*
G04 #@! TO.N,GND*
X148425000Y-91567000D03*
G04 #@! TO.P,U1,21*
G04 #@! TO.N,+AREF*
X145885000Y-91567000D03*
G04 #@! TO.P,U1,20*
G04 #@! TO.N,/+5_3V3_328P_AVCC*
X143345000Y-91567000D03*
G04 #@! TO.P,U1,19*
G04 #@! TO.N,/SCK_R*
X140805000Y-91567000D03*
G04 #@! TO.P,U1,18*
G04 #@! TO.N,/MISO*
X138265000Y-91567000D03*
G04 #@! TO.P,U1,17*
G04 #@! TO.N,/MOSI*
X135725000Y-91567000D03*
G04 #@! TO.P,U1,16*
G04 #@! TO.N,/SS*
X133185000Y-91567000D03*
G04 #@! TO.P,U1,15*
G04 #@! TO.N,/IO9*
X130645000Y-91567000D03*
G04 #@! TO.P,U1,14*
G04 #@! TO.N,/IO8*
X130645000Y-83947000D03*
G04 #@! TO.P,U1,13*
G04 #@! TO.N,/IO7*
X133185000Y-83947000D03*
G04 #@! TO.P,U1,12*
G04 #@! TO.N,/IO6*
X135725000Y-83947000D03*
G04 #@! TO.P,U1,11*
G04 #@! TO.N,/IO5*
X138265000Y-83947000D03*
G04 #@! TO.P,U1,10*
G04 #@! TO.N,/328P_16MHZ_XTAL1*
X140805000Y-83947000D03*
G04 #@! TO.P,U1,9*
G04 #@! TO.N,/328P_16MHZ_XTAL2*
X143345000Y-83947000D03*
G04 #@! TO.P,U1,8*
G04 #@! TO.N,GND*
X145885000Y-83947000D03*
G04 #@! TO.P,U1,7*
G04 #@! TO.N,/+5_3V3_328P_VCC*
X148425000Y-83947000D03*
G04 #@! TO.P,U1,6*
G04 #@! TO.N,/IO4*
X150965000Y-83947000D03*
G04 #@! TO.P,U1,5*
G04 #@! TO.N,/IO3*
X153505000Y-83947000D03*
G04 #@! TO.P,U1,4*
G04 #@! TO.N,/IO2*
X156045000Y-83947000D03*
G04 #@! TO.P,U1,3*
G04 #@! TO.N,/IO1*
X158585000Y-83947000D03*
G04 #@! TO.P,U1,2*
G04 #@! TO.N,/IO0*
X161125000Y-83947000D03*
D13*
G04 #@! TO.P,U1,1*
G04 #@! TO.N,/328P_RESETn*
X163665000Y-83947000D03*
G04 #@! TD*
G04 #@! TO.P,J1,1*
G04 #@! TO.N,Net-(J1-Pad1)*
X129540000Y-101600000D03*
D12*
G04 #@! TO.P,J1,2*
G04 #@! TO.N,+5V_3V3*
X132080000Y-101600000D03*
G04 #@! TO.P,J1,3*
G04 #@! TO.N,/328P_RESETn*
X134620000Y-101600000D03*
G04 #@! TO.P,J1,4*
G04 #@! TO.N,+3V3*
X137160000Y-101600000D03*
G04 #@! TO.P,J1,5*
G04 #@! TO.N,+5V*
X139700000Y-101600000D03*
G04 #@! TO.P,J1,6*
G04 #@! TO.N,GND*
X142240000Y-101600000D03*
G04 #@! TO.P,J1,7*
X144780000Y-101600000D03*
G04 #@! TO.P,J1,8*
G04 #@! TO.N,Net-(J1-Pad8)*
X147320000Y-101600000D03*
G04 #@! TD*
G04 #@! TO.P,J2,6*
G04 #@! TO.N,/AD5_SCL*
X165100000Y-101600000D03*
G04 #@! TO.P,J2,5*
G04 #@! TO.N,/AD4_SDA*
X162560000Y-101600000D03*
G04 #@! TO.P,J2,4*
G04 #@! TO.N,/AD3*
X160020000Y-101600000D03*
G04 #@! TO.P,J2,3*
G04 #@! TO.N,/AD2*
X157480000Y-101600000D03*
G04 #@! TO.P,J2,2*
G04 #@! TO.N,/AD1*
X154940000Y-101600000D03*
D13*
G04 #@! TO.P,J2,1*
G04 #@! TO.N,/AD0*
X152400000Y-101600000D03*
G04 #@! TD*
G04 #@! TO.P,J3,1*
G04 #@! TO.N,/IO0*
X165100000Y-53340000D03*
D12*
G04 #@! TO.P,J3,2*
G04 #@! TO.N,/IO1*
X162560000Y-53340000D03*
G04 #@! TO.P,J3,3*
G04 #@! TO.N,/IO2*
X160020000Y-53340000D03*
G04 #@! TO.P,J3,4*
G04 #@! TO.N,/IO3*
X157480000Y-53340000D03*
G04 #@! TO.P,J3,5*
G04 #@! TO.N,/IO4*
X154940000Y-53340000D03*
G04 #@! TO.P,J3,6*
G04 #@! TO.N,/IO5*
X152400000Y-53340000D03*
G04 #@! TO.P,J3,7*
G04 #@! TO.N,/IO6*
X149860000Y-53340000D03*
G04 #@! TO.P,J3,8*
G04 #@! TO.N,/IO7*
X147320000Y-53340000D03*
G04 #@! TD*
D14*
G04 #@! TO.P,J5,5*
G04 #@! TO.N,/328P_RESETn*
X109220000Y-56896000D03*
G04 #@! TO.P,J5,6*
G04 #@! TO.N,GND*
X109220000Y-54356000D03*
G04 #@! TO.P,J5,3*
G04 #@! TO.N,/SCK*
X106680000Y-56896000D03*
G04 #@! TO.P,J5,4*
G04 #@! TO.N,/MOSI*
X106680000Y-54356000D03*
D15*
G04 #@! TO.P,J5,1*
G04 #@! TO.N,/MISO*
X104140000Y-56896000D03*
D14*
G04 #@! TO.P,J5,2*
G04 #@! TO.N,+5V_3V3*
X104140000Y-54356000D03*
G04 #@! TD*
G04 #@! TO.P,J6,5*
G04 #@! TO.N,/16U2_HDR_RESETn*
X109220000Y-65532000D03*
G04 #@! TO.P,J6,6*
G04 #@! TO.N,GND*
X109220000Y-62992000D03*
G04 #@! TO.P,J6,3*
G04 #@! TO.N,/16U2_SCLK*
X106680000Y-65532000D03*
G04 #@! TO.P,J6,4*
G04 #@! TO.N,/16U2_MOSI*
X106680000Y-62992000D03*
D15*
G04 #@! TO.P,J6,1*
G04 #@! TO.N,/16U2_MISO*
X104140000Y-65532000D03*
D14*
G04 #@! TO.P,J6,2*
G04 #@! TO.N,+5V_3V3*
X104140000Y-62992000D03*
G04 #@! TD*
D16*
G04 #@! TO.P,J7,11*
G04 #@! TO.N,GND*
X103600000Y-87340000D03*
G04 #@! TO.P,J7,10*
X103600000Y-80740000D03*
G04 #@! TD*
D17*
G04 #@! TO.P,J8,1*
G04 #@! TO.N,+5V*
X103800000Y-101800000D03*
G04 #@! TD*
G04 #@! TO.P,J9,1*
G04 #@! TO.N,GND*
X103800000Y-90800000D03*
G04 #@! TD*
D18*
G04 #@! TO.P,JP1,3*
G04 #@! TO.N,Net-(JP1-Pad3)*
X167800000Y-62320000D03*
G04 #@! TO.P,JP1,2*
G04 #@! TO.N,/16U2PROG_328P_RESETn*
X167800000Y-59780000D03*
D19*
G04 #@! TO.P,JP1,1*
G04 #@! TO.N,Net-(C11-Pad2)*
X167800000Y-57240000D03*
G04 #@! TD*
D14*
G04 #@! TO.P,JP2,3*
G04 #@! TO.N,/16U2_PB5*
X104140000Y-69939916D03*
G04 #@! TO.P,JP2,4*
G04 #@! TO.N,/16U2_PB7*
X104140000Y-72479916D03*
D15*
G04 #@! TO.P,JP2,1*
G04 #@! TO.N,/16U2_PB4*
X106680000Y-69939916D03*
D14*
G04 #@! TO.P,JP2,2*
G04 #@! TO.N,/16U2_PB6*
X106680000Y-72479916D03*
G04 #@! TD*
D18*
G04 #@! TO.P,JP3,4*
G04 #@! TO.N,/16U2_RESETn*
X116200000Y-67160000D03*
G04 #@! TO.P,JP3,3*
G04 #@! TO.N,/16U2_HDR_RESETn*
X116200000Y-64620000D03*
G04 #@! TO.P,JP3,2*
G04 #@! TO.N,/16U2_PB4*
X116200000Y-62080000D03*
D19*
G04 #@! TO.P,JP3,1*
G04 #@! TO.N,/328P_RESETn*
X116200000Y-59540000D03*
G04 #@! TD*
D12*
G04 #@! TO.P,JP4,3*
G04 #@! TO.N,+3V3*
X118300000Y-95340000D03*
G04 #@! TO.P,JP4,2*
G04 #@! TO.N,+5V_3V3*
X115760000Y-95340000D03*
D13*
G04 #@! TO.P,JP4,1*
G04 #@! TO.N,+5V*
X113220000Y-95340000D03*
G04 #@! TD*
D20*
G04 #@! TO.P,MH1,1*
G04 #@! TO.N,GND*
X115570000Y-101600000D03*
G04 #@! TD*
G04 #@! TO.P,MH2,1*
G04 #@! TO.N,GND*
X167640000Y-96520000D03*
G04 #@! TD*
G04 #@! TO.P,MH3,1*
G04 #@! TO.N,GND*
X167640000Y-68580000D03*
G04 #@! TD*
D21*
G04 #@! TO.N,GND*
X106700000Y-52050000D03*
X141600000Y-95400000D03*
X114500000Y-86600000D03*
X109900000Y-74750000D03*
X145500000Y-82300000D03*
X142000000Y-79300000D03*
X111850000Y-79800000D03*
X114800000Y-81850000D03*
X119250000Y-82950000D03*
X125550000Y-83700000D03*
X128550000Y-79600000D03*
X121800000Y-82894398D03*
X123600000Y-70650000D03*
X121950000Y-60900000D03*
X164750000Y-86500000D03*
X128700000Y-69500000D03*
X164700000Y-85750000D03*
X147150000Y-92850000D03*
X122300000Y-90550000D03*
X109450000Y-79250000D03*
X109094398Y-81550000D03*
X109290754Y-85950001D03*
X124400000Y-90550000D03*
X107100000Y-59000000D03*
X119950000Y-62450000D03*
X169400000Y-91400000D03*
X132100000Y-96400000D03*
X149200000Y-79300000D03*
X124000000Y-79200000D03*
X138552493Y-97647507D03*
X121040363Y-89740363D03*
X118400000Y-90600000D03*
X116600000Y-76900000D03*
X119900000Y-75400000D03*
X144400000Y-97600000D03*
X143500000Y-97600000D03*
X142600000Y-97600000D03*
X141700000Y-97600000D03*
X141000000Y-56000000D03*
X141000000Y-65199996D03*
X142099998Y-92900000D03*
X148399994Y-95100000D03*
X159900000Y-65300000D03*
X159900000Y-66100000D03*
X159900000Y-66900000D03*
X141700000Y-65200000D03*
X141700000Y-56000000D03*
X141000000Y-65900000D03*
X141700000Y-65900000D03*
X141000000Y-55300000D03*
X141700000Y-55300000D03*
X114500000Y-87300000D03*
X114500000Y-88000000D03*
X111800000Y-89100000D03*
X112500000Y-89100000D03*
X113200000Y-89100000D03*
X112500000Y-89800000D03*
X113300000Y-87300000D03*
G04 #@! TO.N,/+5V_USB*
X110450000Y-93000000D03*
X107300000Y-82400000D03*
X110450000Y-92150000D03*
X107300000Y-81600000D03*
G04 #@! TO.N,/+5_3V3_16U2*
X123000000Y-83100000D03*
X119100000Y-84900000D03*
G04 #@! TO.N,+5V_3V3*
X147950000Y-99850000D03*
X146150000Y-99250000D03*
X103200000Y-75900000D03*
X118650000Y-62655602D03*
X106000000Y-75899998D03*
X130300000Y-97100000D03*
X131499996Y-62000000D03*
X117335610Y-90970337D03*
X124200000Y-59899998D03*
X114500000Y-63300000D03*
X113800000Y-63600000D03*
X113800000Y-62900000D03*
X134100000Y-97600000D03*
X133400000Y-97600000D03*
X163200000Y-97000000D03*
X163200000Y-96300000D03*
G04 #@! TO.N,/328P_AUTORESETn*
X164000000Y-58550000D03*
X168394390Y-87809637D03*
G04 #@! TO.N,/+5_3V3_328P_VCC*
X147076058Y-88126058D03*
X149900000Y-94200000D03*
G04 #@! TO.N,+AREF*
X124300000Y-55900000D03*
X161100000Y-86200004D03*
X159900000Y-86200000D03*
G04 #@! TO.N,/328P_RESETn*
X160200000Y-60800000D03*
G04 #@! TO.N,/IO8*
X126700000Y-86400008D03*
G04 #@! TO.N,/IO9*
X131900000Y-87400000D03*
X132800000Y-81400000D03*
G04 #@! TO.N,/SS*
X134500000Y-87400000D03*
X134500000Y-78400000D03*
G04 #@! TO.N,/MISO*
X129400000Y-55400000D03*
G04 #@! TO.N,/16U2PROG_328P_RESETn*
X122400000Y-63600002D03*
X160100000Y-64100000D03*
G04 #@! TO.N,/16U2_PB4*
X111100000Y-67150000D03*
X111099994Y-71500000D03*
G04 #@! TO.N,/16U2_RESETn*
X112000000Y-67150000D03*
X111557404Y-76905938D03*
G04 #@! TO.N,/USB_N*
X112750000Y-82900000D03*
X117600000Y-83450000D03*
G04 #@! TO.N,/USB_P*
X112750000Y-84900000D03*
X116800000Y-84141159D03*
G04 #@! TO.N,/16U2_TXD*
X159500000Y-62100000D03*
X132800000Y-62100000D03*
G04 #@! TO.N,/16U2_RXD*
X158797032Y-63097235D03*
X132800000Y-63300004D03*
G04 #@! TD*
D22*
G04 #@! TO.N,GND*
X128016000Y-53340000D02*
X128016000Y-53366000D01*
X128016000Y-53366000D02*
X128600000Y-53950000D01*
X148425000Y-91567000D02*
X148425000Y-91575000D01*
X128550000Y-79600000D02*
X128600000Y-79600000D01*
X167640000Y-96520000D02*
X167640000Y-93334400D01*
X166020000Y-94900000D02*
X167640000Y-96520000D01*
X119950000Y-62450000D02*
X119950000Y-62400000D01*
X121344398Y-82950000D02*
X121400000Y-82894398D01*
X164700000Y-86450000D02*
X164750000Y-86500000D01*
X109094398Y-85753645D02*
X109290754Y-85950001D01*
D23*
X108370001Y-55205999D02*
X109220000Y-54356000D01*
X107933201Y-55642799D02*
X108370001Y-55205999D01*
X107933201Y-58166799D02*
X107933201Y-55642799D01*
X107100000Y-59000000D02*
X107933201Y-58166799D01*
D22*
G04 #@! TO.N,/+5_3V3_16U2*
X122697601Y-83402399D02*
X123000000Y-83100000D01*
X121200000Y-84900000D02*
X122697601Y-83402399D01*
X119000000Y-84900000D02*
X121200000Y-84900000D01*
G04 #@! TO.N,+5V_3V3*
X103558000Y-62992000D02*
X104140000Y-62992000D01*
X105999998Y-75900000D02*
X106000000Y-75899998D01*
D24*
G04 #@! TO.N,/328P_AUTORESETn*
X168394390Y-87381979D02*
X168394390Y-87809637D01*
X163553211Y-58996789D02*
X163553211Y-76553211D01*
X164000000Y-58550000D02*
X163553211Y-58996789D01*
X168394390Y-81394390D02*
X168394390Y-87381979D01*
X163553211Y-76553211D02*
X168394390Y-81394390D01*
D25*
G04 #@! TO.N,+AREF*
X161100000Y-86200004D02*
X160600004Y-86200004D01*
D26*
X159871790Y-85228210D02*
X159871790Y-82964351D01*
D25*
X161100000Y-86200004D02*
X159900004Y-86200004D01*
X159871790Y-86171790D02*
X159871790Y-85228210D01*
X159900004Y-86200004D02*
X159871790Y-86171790D01*
X127600000Y-59200000D02*
X124602399Y-56202399D01*
X161405601Y-59880601D02*
X160725000Y-59200000D01*
X160725000Y-59200000D02*
X127600000Y-59200000D01*
X158846789Y-72353211D02*
X161405601Y-69794399D01*
X124602399Y-56202399D02*
X124300000Y-55900000D01*
X158846789Y-81846789D02*
X158846789Y-72353211D01*
X161405601Y-69794399D02*
X161405601Y-59880601D01*
X159800000Y-82800000D02*
X158846789Y-81846789D01*
D24*
G04 #@! TO.N,/328P_RESETn*
X110624000Y-58300000D02*
X109220000Y-56896000D01*
X114960000Y-58300000D02*
X110624000Y-58300000D01*
X116200000Y-59540000D02*
X114960000Y-58300000D01*
X125040000Y-58440000D02*
X127400000Y-60800000D01*
X117500000Y-58440000D02*
X125040000Y-58440000D01*
X116200000Y-59540000D02*
X116400000Y-59540000D01*
X127400000Y-60800000D02*
X159772342Y-60800000D01*
X116400000Y-59540000D02*
X117500000Y-58440000D01*
X159772342Y-60800000D02*
X160200000Y-60800000D01*
G04 #@! TO.N,/AD4_SDA*
X161125000Y-91567000D02*
X161125000Y-91425000D01*
X161125000Y-91425000D02*
X165692000Y-86858000D01*
X164300000Y-81700000D02*
X165750000Y-83150000D01*
X159900000Y-78628738D02*
X162971262Y-81700000D01*
X159900000Y-72971262D02*
X159900000Y-78628738D01*
X162971262Y-81700000D02*
X164300000Y-81700000D01*
X162400000Y-70471262D02*
X159900000Y-72971262D01*
X162400000Y-59400000D02*
X162400000Y-70471262D01*
X165750000Y-83150000D02*
X165750000Y-86800000D01*
X160800000Y-57800000D02*
X162400000Y-59400000D01*
X127800000Y-57800000D02*
X160800000Y-57800000D01*
X123340000Y-53340000D02*
X127800000Y-57800000D01*
X122936000Y-53340000D02*
X123340000Y-53340000D01*
G04 #@! TO.N,/AD5_SCL*
X121836000Y-51700000D02*
X120396000Y-53140000D01*
X126700000Y-52500000D02*
X125900000Y-51700000D01*
X126700000Y-55800000D02*
X126700000Y-52500000D01*
X161000000Y-57000000D02*
X127900000Y-57000000D01*
X127900000Y-57000000D02*
X126700000Y-55800000D01*
X163000000Y-59000000D02*
X161000000Y-57000000D01*
X125900000Y-51700000D02*
X121836000Y-51700000D01*
X167300000Y-82536000D02*
X163000000Y-78236000D01*
X120396000Y-53140000D02*
X120396000Y-53340000D01*
X163665000Y-91567000D02*
X163665000Y-90267000D01*
X163000000Y-78236000D02*
X163000000Y-59000000D01*
X167300000Y-86632000D02*
X167300000Y-82536000D01*
X163665000Y-90267000D02*
X167300000Y-86632000D01*
G04 #@! TO.N,/IO8*
X129153008Y-83947000D02*
X127002399Y-86097609D01*
X130645000Y-83947000D02*
X129153008Y-83947000D01*
X127002399Y-86097609D02*
X126700000Y-86400008D01*
G04 #@! TO.N,/IO9*
X131900000Y-82300000D02*
X132497601Y-81702399D01*
X131900000Y-87400000D02*
X131900000Y-82300000D01*
X132497601Y-81702399D02*
X132800000Y-81400000D01*
G04 #@! TO.N,/SS*
X134500000Y-86972342D02*
X134500000Y-78400000D01*
X134500000Y-87400000D02*
X134500000Y-86972342D01*
G04 #@! TO.N,/MISO*
X133096000Y-53540000D02*
X131236000Y-55400000D01*
X133096000Y-53340000D02*
X133096000Y-53540000D01*
X129827658Y-55400000D02*
X129400000Y-55400000D01*
X131236000Y-55400000D02*
X129827658Y-55400000D01*
G04 #@! TO.N,/16U2PROG_328P_RESETn*
X122300000Y-63500002D02*
X122400000Y-63600002D01*
X159672342Y-64100000D02*
X160100000Y-64100000D01*
X122899998Y-64100000D02*
X159672342Y-64100000D01*
X122400000Y-63600002D02*
X122899998Y-64100000D01*
G04 #@! TO.N,/16U2_PB4*
X111100000Y-71499994D02*
X111099994Y-71500000D01*
X111100000Y-67150000D02*
X111100000Y-71499994D01*
G04 #@! TO.N,/16U2_RESETn*
X112000000Y-76463342D02*
X111557404Y-76905938D01*
X112000000Y-67150000D02*
X112000000Y-76463342D01*
G04 #@! TO.N,/USB_N*
X117050000Y-82900000D02*
X117297601Y-83147601D01*
X112750000Y-82900000D02*
X117050000Y-82900000D01*
X117297601Y-83147601D02*
X117600000Y-83450000D01*
G04 #@! TO.N,/USB_P*
X116041159Y-84900000D02*
X116497601Y-84443558D01*
X116497601Y-84443558D02*
X116800000Y-84141159D01*
X112750000Y-84900000D02*
X116041159Y-84900000D01*
G04 #@! TO.N,/16U2_TXD*
X159500000Y-62100000D02*
X132800000Y-62100000D01*
G04 #@! TO.N,/16U2_RXD*
X158797032Y-63097235D02*
X133002769Y-63097235D01*
X133002769Y-63097235D02*
X132800000Y-63300004D01*
G04 #@! TD*
D27*
G04 #@! TO.N,+5V*
G36*
X113973000Y-97000000D02*
X113982667Y-97048601D01*
X114010197Y-97089803D01*
X114051399Y-97117333D01*
X114100000Y-97127000D01*
X120146085Y-97127000D01*
X122908636Y-99988214D01*
X122949349Y-100016462D01*
X123000000Y-100027000D01*
X127442372Y-100027000D01*
X128073000Y-100747718D01*
X128073000Y-103100000D01*
X128082667Y-103148601D01*
X128110197Y-103189803D01*
X128151399Y-103217333D01*
X128200000Y-103227000D01*
X138600000Y-103227000D01*
X138648601Y-103217333D01*
X138689803Y-103189803D01*
X138717333Y-103148601D01*
X138727000Y-103100000D01*
X138727000Y-100427000D01*
X140673000Y-100427000D01*
X140673000Y-103573000D01*
X126454270Y-103573000D01*
X126830008Y-103417364D01*
X127217364Y-103030008D01*
X127427000Y-102523902D01*
X127427000Y-101976098D01*
X127217364Y-101469992D01*
X126830008Y-101082636D01*
X126323902Y-100873000D01*
X125776098Y-100873000D01*
X125269992Y-101082636D01*
X124882636Y-101469992D01*
X124673000Y-101976098D01*
X124673000Y-102523902D01*
X124882636Y-103030008D01*
X125269992Y-103417364D01*
X125645730Y-103573000D01*
X121954270Y-103573000D01*
X122330008Y-103417364D01*
X122717364Y-103030008D01*
X122927000Y-102523902D01*
X122927000Y-101976098D01*
X122717364Y-101469992D01*
X122330008Y-101082636D01*
X121823902Y-100873000D01*
X121276098Y-100873000D01*
X120769992Y-101082636D01*
X120382636Y-101469992D01*
X120173000Y-101976098D01*
X120173000Y-102523902D01*
X120382636Y-103030008D01*
X120769992Y-103417364D01*
X121145730Y-103573000D01*
X119219790Y-103573000D01*
X119697000Y-102420911D01*
X119697000Y-100779089D01*
X119068702Y-99262242D01*
X117907758Y-98101298D01*
X116390911Y-97473000D01*
X114749089Y-97473000D01*
X113232242Y-98101298D01*
X112071298Y-99262242D01*
X111443000Y-100779089D01*
X111443000Y-102420911D01*
X111920210Y-103573000D01*
X102127000Y-103573000D01*
X102127000Y-98327000D01*
X109000000Y-98327000D01*
X109048601Y-98317333D01*
X109084026Y-98295229D01*
X112484026Y-95295229D01*
X112514073Y-95255825D01*
X112527000Y-95200000D01*
X112527000Y-94427000D01*
X113973000Y-94427000D01*
X113973000Y-97000000D01*
X113973000Y-97000000D01*
G37*
X113973000Y-97000000D02*
X113982667Y-97048601D01*
X114010197Y-97089803D01*
X114051399Y-97117333D01*
X114100000Y-97127000D01*
X120146085Y-97127000D01*
X122908636Y-99988214D01*
X122949349Y-100016462D01*
X123000000Y-100027000D01*
X127442372Y-100027000D01*
X128073000Y-100747718D01*
X128073000Y-103100000D01*
X128082667Y-103148601D01*
X128110197Y-103189803D01*
X128151399Y-103217333D01*
X128200000Y-103227000D01*
X138600000Y-103227000D01*
X138648601Y-103217333D01*
X138689803Y-103189803D01*
X138717333Y-103148601D01*
X138727000Y-103100000D01*
X138727000Y-100427000D01*
X140673000Y-100427000D01*
X140673000Y-103573000D01*
X126454270Y-103573000D01*
X126830008Y-103417364D01*
X127217364Y-103030008D01*
X127427000Y-102523902D01*
X127427000Y-101976098D01*
X127217364Y-101469992D01*
X126830008Y-101082636D01*
X126323902Y-100873000D01*
X125776098Y-100873000D01*
X125269992Y-101082636D01*
X124882636Y-101469992D01*
X124673000Y-101976098D01*
X124673000Y-102523902D01*
X124882636Y-103030008D01*
X125269992Y-103417364D01*
X125645730Y-103573000D01*
X121954270Y-103573000D01*
X122330008Y-103417364D01*
X122717364Y-103030008D01*
X122927000Y-102523902D01*
X122927000Y-101976098D01*
X122717364Y-101469992D01*
X122330008Y-101082636D01*
X121823902Y-100873000D01*
X121276098Y-100873000D01*
X120769992Y-101082636D01*
X120382636Y-101469992D01*
X120173000Y-101976098D01*
X120173000Y-102523902D01*
X120382636Y-103030008D01*
X120769992Y-103417364D01*
X121145730Y-103573000D01*
X119219790Y-103573000D01*
X119697000Y-102420911D01*
X119697000Y-100779089D01*
X119068702Y-99262242D01*
X117907758Y-98101298D01*
X116390911Y-97473000D01*
X114749089Y-97473000D01*
X113232242Y-98101298D01*
X112071298Y-99262242D01*
X111443000Y-100779089D01*
X111443000Y-102420911D01*
X111920210Y-103573000D01*
X102127000Y-103573000D01*
X102127000Y-98327000D01*
X109000000Y-98327000D01*
X109048601Y-98317333D01*
X109084026Y-98295229D01*
X112484026Y-95295229D01*
X112514073Y-95255825D01*
X112527000Y-95200000D01*
X112527000Y-94427000D01*
X113973000Y-94427000D01*
X113973000Y-97000000D01*
G04 #@! TO.N,+3V3*
G36*
X124664635Y-94941776D02*
X124664635Y-96700000D01*
X124673000Y-96742054D01*
X124673000Y-97000000D01*
X124682667Y-97048601D01*
X124710197Y-97089803D01*
X124751399Y-97117333D01*
X124800000Y-97127000D01*
X125057946Y-97127000D01*
X125100000Y-97135365D01*
X127000000Y-97135365D01*
X127042054Y-97127000D01*
X129147394Y-97127000D01*
X130410197Y-98389803D01*
X130451399Y-98417333D01*
X130500000Y-98427000D01*
X136050902Y-98427000D01*
X138173000Y-100356180D01*
X138173000Y-102673000D01*
X136127000Y-102673000D01*
X136127000Y-100300000D01*
X136117333Y-100251399D01*
X136089803Y-100210197D01*
X136048601Y-100182667D01*
X136000000Y-100173000D01*
X134740847Y-100173000D01*
X134620000Y-100148962D01*
X134499153Y-100173000D01*
X132200847Y-100173000D01*
X132080000Y-100148962D01*
X131959153Y-100173000D01*
X130382054Y-100173000D01*
X130340000Y-100164635D01*
X128740000Y-100164635D01*
X128697946Y-100173000D01*
X128358413Y-100173000D01*
X127796426Y-99517349D01*
X127757457Y-99486740D01*
X127700000Y-99473000D01*
X123253915Y-99473000D01*
X120797343Y-96928693D01*
X121276098Y-97127000D01*
X121823902Y-97127000D01*
X122330008Y-96917364D01*
X122717364Y-96530008D01*
X122927000Y-96023902D01*
X122927000Y-95476098D01*
X122717364Y-94969992D01*
X122330008Y-94582636D01*
X121823902Y-94373000D01*
X121276098Y-94373000D01*
X120769992Y-94582636D01*
X120382636Y-94969992D01*
X120173000Y-95476098D01*
X120173000Y-96023902D01*
X120382636Y-96530008D01*
X120432361Y-96579733D01*
X120400000Y-96573000D01*
X117427000Y-96573000D01*
X117427000Y-93952606D01*
X118252606Y-93127000D01*
X122945373Y-93127000D01*
X124664635Y-94941776D01*
X124664635Y-94941776D01*
G37*
X124664635Y-94941776D02*
X124664635Y-96700000D01*
X124673000Y-96742054D01*
X124673000Y-97000000D01*
X124682667Y-97048601D01*
X124710197Y-97089803D01*
X124751399Y-97117333D01*
X124800000Y-97127000D01*
X125057946Y-97127000D01*
X125100000Y-97135365D01*
X127000000Y-97135365D01*
X127042054Y-97127000D01*
X129147394Y-97127000D01*
X130410197Y-98389803D01*
X130451399Y-98417333D01*
X130500000Y-98427000D01*
X136050902Y-98427000D01*
X138173000Y-100356180D01*
X138173000Y-102673000D01*
X136127000Y-102673000D01*
X136127000Y-100300000D01*
X136117333Y-100251399D01*
X136089803Y-100210197D01*
X136048601Y-100182667D01*
X136000000Y-100173000D01*
X134740847Y-100173000D01*
X134620000Y-100148962D01*
X134499153Y-100173000D01*
X132200847Y-100173000D01*
X132080000Y-100148962D01*
X131959153Y-100173000D01*
X130382054Y-100173000D01*
X130340000Y-100164635D01*
X128740000Y-100164635D01*
X128697946Y-100173000D01*
X128358413Y-100173000D01*
X127796426Y-99517349D01*
X127757457Y-99486740D01*
X127700000Y-99473000D01*
X123253915Y-99473000D01*
X120797343Y-96928693D01*
X121276098Y-97127000D01*
X121823902Y-97127000D01*
X122330008Y-96917364D01*
X122717364Y-96530008D01*
X122927000Y-96023902D01*
X122927000Y-95476098D01*
X122717364Y-94969992D01*
X122330008Y-94582636D01*
X121823902Y-94373000D01*
X121276098Y-94373000D01*
X120769992Y-94582636D01*
X120382636Y-94969992D01*
X120173000Y-95476098D01*
X120173000Y-96023902D01*
X120382636Y-96530008D01*
X120432361Y-96579733D01*
X120400000Y-96573000D01*
X117427000Y-96573000D01*
X117427000Y-93952606D01*
X118252606Y-93127000D01*
X122945373Y-93127000D01*
X124664635Y-94941776D01*
G04 #@! TO.N,/+5V_USB*
G36*
X108373000Y-81385594D02*
X108364998Y-81404913D01*
X108364998Y-81695087D01*
X108373000Y-81714406D01*
X108373000Y-85653887D01*
X108353157Y-85753645D01*
X108373000Y-85853403D01*
X108373000Y-86600000D01*
X108382667Y-86648601D01*
X108410197Y-86689803D01*
X108451399Y-86717333D01*
X108500000Y-86727000D01*
X110773000Y-86727000D01*
X110773000Y-93273000D01*
X110127000Y-93273000D01*
X110127000Y-90800000D01*
X110117333Y-90751399D01*
X110089803Y-90710197D01*
X109227000Y-89847394D01*
X109227000Y-88700000D01*
X109217333Y-88651399D01*
X109189803Y-88610197D01*
X107627000Y-87047394D01*
X107627000Y-85700000D01*
X107617333Y-85651399D01*
X107589803Y-85610197D01*
X106927000Y-84947394D01*
X106927000Y-81327000D01*
X108373000Y-81327000D01*
X108373000Y-81385594D01*
X108373000Y-81385594D01*
G37*
X108373000Y-81385594D02*
X108364998Y-81404913D01*
X108364998Y-81695087D01*
X108373000Y-81714406D01*
X108373000Y-85653887D01*
X108353157Y-85753645D01*
X108373000Y-85853403D01*
X108373000Y-86600000D01*
X108382667Y-86648601D01*
X108410197Y-86689803D01*
X108451399Y-86717333D01*
X108500000Y-86727000D01*
X110773000Y-86727000D01*
X110773000Y-93273000D01*
X110127000Y-93273000D01*
X110127000Y-90800000D01*
X110117333Y-90751399D01*
X110089803Y-90710197D01*
X109227000Y-89847394D01*
X109227000Y-88700000D01*
X109217333Y-88651399D01*
X109189803Y-88610197D01*
X107627000Y-87047394D01*
X107627000Y-85700000D01*
X107617333Y-85651399D01*
X107589803Y-85610197D01*
X106927000Y-84947394D01*
X106927000Y-81327000D01*
X108373000Y-81327000D01*
X108373000Y-81385594D01*
G04 #@! TO.N,+5V_3V3*
G36*
X105597412Y-53632638D02*
X105403000Y-54101989D01*
X105403000Y-54610011D01*
X105597412Y-55079362D01*
X105956638Y-55438588D01*
X106273000Y-55569630D01*
X106273000Y-55682370D01*
X105956638Y-55813412D01*
X105597412Y-56172638D01*
X105425365Y-56587995D01*
X105425365Y-56046000D01*
X105392225Y-55879393D01*
X105297850Y-55738150D01*
X105156607Y-55643775D01*
X104990000Y-55610635D01*
X103290000Y-55610635D01*
X103123393Y-55643775D01*
X102982150Y-55738150D01*
X102887775Y-55879393D01*
X102854635Y-56046000D01*
X102854635Y-57746000D01*
X102887775Y-57912607D01*
X102982150Y-58053850D01*
X103123393Y-58148225D01*
X103290000Y-58181365D01*
X104990000Y-58181365D01*
X105156607Y-58148225D01*
X105297850Y-58053850D01*
X105392225Y-57912607D01*
X105425365Y-57746000D01*
X105425365Y-57204005D01*
X105597412Y-57619362D01*
X105956638Y-57978588D01*
X106273000Y-58109630D01*
X106273000Y-61778370D01*
X105956638Y-61909412D01*
X105597412Y-62268638D01*
X105403000Y-62737989D01*
X105403000Y-63246011D01*
X105597412Y-63715362D01*
X105956638Y-64074588D01*
X106273000Y-64205630D01*
X106273000Y-64318370D01*
X105956638Y-64449412D01*
X105597412Y-64808638D01*
X105425365Y-65223995D01*
X105425365Y-64682000D01*
X105392225Y-64515393D01*
X105297850Y-64374150D01*
X105156607Y-64279775D01*
X104990000Y-64246635D01*
X103290000Y-64246635D01*
X103123393Y-64279775D01*
X102982150Y-64374150D01*
X102887775Y-64515393D01*
X102854635Y-64682000D01*
X102854635Y-66382000D01*
X102887775Y-66548607D01*
X102982150Y-66689850D01*
X103123393Y-66784225D01*
X103290000Y-66817365D01*
X104990000Y-66817365D01*
X105156607Y-66784225D01*
X105297850Y-66689850D01*
X105392225Y-66548607D01*
X105425365Y-66382000D01*
X105425365Y-65840005D01*
X105597412Y-66255362D01*
X105956638Y-66614588D01*
X106273000Y-66745630D01*
X106273000Y-68654551D01*
X105830000Y-68654551D01*
X105663393Y-68687691D01*
X105522150Y-68782066D01*
X105427775Y-68923309D01*
X105394635Y-69089916D01*
X105394635Y-69631911D01*
X105222588Y-69216554D01*
X104863362Y-68857328D01*
X104394011Y-68662916D01*
X103885989Y-68662916D01*
X103416638Y-68857328D01*
X103057412Y-69216554D01*
X102863000Y-69685905D01*
X102863000Y-70193927D01*
X103057412Y-70663278D01*
X103416638Y-71022504D01*
X103869090Y-71209916D01*
X103416638Y-71397328D01*
X103057412Y-71756554D01*
X102863000Y-72225905D01*
X102863000Y-72733927D01*
X103057412Y-73203278D01*
X103416638Y-73562504D01*
X103885989Y-73756916D01*
X104394011Y-73756916D01*
X104863362Y-73562504D01*
X105222588Y-73203278D01*
X105410000Y-72750826D01*
X105597412Y-73203278D01*
X105956638Y-73562504D01*
X106273000Y-73693546D01*
X106273000Y-85200000D01*
X106282667Y-85248601D01*
X106310197Y-85289803D01*
X106973000Y-85952606D01*
X106973000Y-87200000D01*
X106982667Y-87248601D01*
X107010197Y-87289803D01*
X107807216Y-88086822D01*
X108473000Y-88847718D01*
X108473000Y-90000000D01*
X108482667Y-90048601D01*
X108510197Y-90089803D01*
X109573000Y-91152606D01*
X109573000Y-93700000D01*
X109582667Y-93748601D01*
X109610197Y-93789803D01*
X109651399Y-93817333D01*
X109700000Y-93827000D01*
X111200000Y-93827000D01*
X111248601Y-93817333D01*
X111289803Y-93789803D01*
X111317333Y-93748601D01*
X111327000Y-93700000D01*
X111327000Y-90827000D01*
X117573000Y-90827000D01*
X117573000Y-91200000D01*
X117582667Y-91248601D01*
X117610197Y-91289803D01*
X117651399Y-91317333D01*
X117700000Y-91327000D01*
X118249119Y-91327000D01*
X118254913Y-91329400D01*
X118545087Y-91329400D01*
X118550881Y-91327000D01*
X125548019Y-91327000D01*
X131510955Y-97190554D01*
X131552387Y-97217737D01*
X131600000Y-97227000D01*
X136750128Y-97227000D01*
X138113583Y-98493065D01*
X138155775Y-98519051D01*
X138200000Y-98527000D01*
X154200000Y-98527000D01*
X154248601Y-98517333D01*
X154293463Y-98485986D01*
X156555730Y-96027000D01*
X163473000Y-96027000D01*
X163473000Y-100557861D01*
X163444617Y-100515383D01*
X163038751Y-100244192D01*
X162560000Y-100148962D01*
X162081248Y-100244192D01*
X161675383Y-100515383D01*
X161404192Y-100921249D01*
X161333000Y-101279154D01*
X161333000Y-101920847D01*
X161404192Y-102278752D01*
X161675384Y-102684617D01*
X162081249Y-102955808D01*
X162560000Y-103051038D01*
X163038752Y-102955808D01*
X163444617Y-102684617D01*
X163473000Y-102642139D01*
X163473000Y-103573000D01*
X141327000Y-103573000D01*
X141327000Y-102642138D01*
X141355384Y-102684617D01*
X141761249Y-102955808D01*
X142240000Y-103051038D01*
X142718752Y-102955808D01*
X143124617Y-102684617D01*
X143395808Y-102278751D01*
X143467000Y-101920846D01*
X143467000Y-101279154D01*
X143553000Y-101279154D01*
X143553000Y-101920847D01*
X143624192Y-102278752D01*
X143895384Y-102684617D01*
X144301249Y-102955808D01*
X144780000Y-103051038D01*
X145258752Y-102955808D01*
X145664617Y-102684617D01*
X145935808Y-102278751D01*
X146007000Y-101920846D01*
X146007000Y-101279154D01*
X146093000Y-101279154D01*
X146093000Y-101920847D01*
X146164192Y-102278752D01*
X146435384Y-102684617D01*
X146841249Y-102955808D01*
X147320000Y-103051038D01*
X147798752Y-102955808D01*
X148204617Y-102684617D01*
X148475808Y-102278751D01*
X148547000Y-101920846D01*
X148547000Y-101279153D01*
X148475808Y-100921248D01*
X148261157Y-100600000D01*
X151164635Y-100600000D01*
X151164635Y-102600000D01*
X151197775Y-102766607D01*
X151292150Y-102907850D01*
X151433393Y-103002225D01*
X151600000Y-103035365D01*
X153200000Y-103035365D01*
X153366607Y-103002225D01*
X153507850Y-102907850D01*
X153602225Y-102766607D01*
X153635365Y-102600000D01*
X153635365Y-101279154D01*
X153713000Y-101279154D01*
X153713000Y-101920847D01*
X153784192Y-102278752D01*
X154055384Y-102684617D01*
X154461249Y-102955808D01*
X154940000Y-103051038D01*
X155418752Y-102955808D01*
X155824617Y-102684617D01*
X156095808Y-102278751D01*
X156167000Y-101920846D01*
X156167000Y-101279154D01*
X156253000Y-101279154D01*
X156253000Y-101920847D01*
X156324192Y-102278752D01*
X156595384Y-102684617D01*
X157001249Y-102955808D01*
X157480000Y-103051038D01*
X157958752Y-102955808D01*
X158364617Y-102684617D01*
X158635808Y-102278751D01*
X158707000Y-101920846D01*
X158707000Y-101279154D01*
X158793000Y-101279154D01*
X158793000Y-101920847D01*
X158864192Y-102278752D01*
X159135384Y-102684617D01*
X159541249Y-102955808D01*
X160020000Y-103051038D01*
X160498752Y-102955808D01*
X160904617Y-102684617D01*
X161175808Y-102278751D01*
X161247000Y-101920846D01*
X161247000Y-101279153D01*
X161175808Y-100921248D01*
X160904617Y-100515383D01*
X160498751Y-100244192D01*
X160020000Y-100148962D01*
X159541248Y-100244192D01*
X159135383Y-100515383D01*
X158864192Y-100921249D01*
X158793000Y-101279154D01*
X158707000Y-101279154D01*
X158707000Y-101279153D01*
X158635808Y-100921248D01*
X158364617Y-100515383D01*
X157958751Y-100244192D01*
X157480000Y-100148962D01*
X157001248Y-100244192D01*
X156595383Y-100515383D01*
X156324192Y-100921249D01*
X156253000Y-101279154D01*
X156167000Y-101279154D01*
X156167000Y-101279153D01*
X156095808Y-100921248D01*
X155824617Y-100515383D01*
X155418751Y-100244192D01*
X154940000Y-100148962D01*
X154461248Y-100244192D01*
X154055383Y-100515383D01*
X153784192Y-100921249D01*
X153713000Y-101279154D01*
X153635365Y-101279154D01*
X153635365Y-100600000D01*
X153602225Y-100433393D01*
X153507850Y-100292150D01*
X153366607Y-100197775D01*
X153200000Y-100164635D01*
X151600000Y-100164635D01*
X151433393Y-100197775D01*
X151292150Y-100292150D01*
X151197775Y-100433393D01*
X151164635Y-100600000D01*
X148261157Y-100600000D01*
X148204617Y-100515383D01*
X147798751Y-100244192D01*
X147320000Y-100148962D01*
X146841248Y-100244192D01*
X146435383Y-100515383D01*
X146164192Y-100921249D01*
X146093000Y-101279154D01*
X146007000Y-101279154D01*
X146007000Y-101279153D01*
X145935808Y-100921248D01*
X145664617Y-100515383D01*
X145258751Y-100244192D01*
X144780000Y-100148962D01*
X144301248Y-100244192D01*
X143895383Y-100515383D01*
X143624192Y-100921249D01*
X143553000Y-101279154D01*
X143467000Y-101279154D01*
X143467000Y-101279153D01*
X143395808Y-100921248D01*
X143124617Y-100515383D01*
X142718751Y-100244192D01*
X142240000Y-100148962D01*
X141761248Y-100244192D01*
X141355383Y-100515383D01*
X141327000Y-100557861D01*
X141327000Y-99800000D01*
X141317333Y-99751399D01*
X141289803Y-99710197D01*
X141248601Y-99682667D01*
X141200000Y-99673000D01*
X138448735Y-99673000D01*
X136484959Y-97905602D01*
X136442367Y-97880275D01*
X136400000Y-97873000D01*
X130752606Y-97873000D01*
X129489803Y-96610197D01*
X129448601Y-96582667D01*
X129400000Y-96573000D01*
X127435365Y-96573000D01*
X127435365Y-94800000D01*
X127427000Y-94757946D01*
X127427000Y-94500000D01*
X127417333Y-94451399D01*
X127389803Y-94410197D01*
X127348601Y-94382667D01*
X127300000Y-94373000D01*
X127042054Y-94373000D01*
X127000000Y-94364635D01*
X125100000Y-94364635D01*
X125057946Y-94373000D01*
X124954743Y-94373000D01*
X123292331Y-92612799D01*
X123251932Y-92584103D01*
X123200000Y-92573000D01*
X118000000Y-92573000D01*
X117951399Y-92582667D01*
X117910197Y-92610197D01*
X116910197Y-93610197D01*
X116882667Y-93651399D01*
X116873000Y-93700000D01*
X116873000Y-96573000D01*
X114527000Y-96573000D01*
X114527000Y-94000000D01*
X114517333Y-93951399D01*
X114489803Y-93910197D01*
X114448601Y-93882667D01*
X114400000Y-93873000D01*
X112100000Y-93873000D01*
X112051399Y-93882667D01*
X112010197Y-93910197D01*
X111982667Y-93951399D01*
X111973000Y-94000000D01*
X111973000Y-94942535D01*
X108752126Y-97773000D01*
X102127000Y-97773000D01*
X102127000Y-92559296D01*
X102425215Y-92857511D01*
X103317240Y-93227000D01*
X104282760Y-93227000D01*
X105174785Y-92857511D01*
X105857511Y-92174785D01*
X106227000Y-91282760D01*
X106227000Y-90317240D01*
X105857511Y-89425215D01*
X105174785Y-88742489D01*
X104282760Y-88373000D01*
X103317240Y-88373000D01*
X102425215Y-88742489D01*
X102127000Y-89040704D01*
X102127000Y-87340000D01*
X102152880Y-87340000D01*
X102232587Y-87740715D01*
X102459574Y-88080426D01*
X102799285Y-88307413D01*
X103098850Y-88367000D01*
X104101150Y-88367000D01*
X104400715Y-88307413D01*
X104740426Y-88080426D01*
X104967413Y-87740715D01*
X105047120Y-87340000D01*
X104967413Y-86939285D01*
X104740426Y-86599574D01*
X104400715Y-86372587D01*
X104101150Y-86313000D01*
X103098850Y-86313000D01*
X102799285Y-86372587D01*
X102459574Y-86599574D01*
X102232587Y-86939285D01*
X102152880Y-87340000D01*
X102127000Y-87340000D01*
X102127000Y-80740000D01*
X102152880Y-80740000D01*
X102232587Y-81140715D01*
X102459574Y-81480426D01*
X102799285Y-81707413D01*
X103098850Y-81767000D01*
X104101150Y-81767000D01*
X104400715Y-81707413D01*
X104740426Y-81480426D01*
X104967413Y-81140715D01*
X105047120Y-80740000D01*
X104967413Y-80339285D01*
X104740426Y-79999574D01*
X104400715Y-79772587D01*
X104101150Y-79713000D01*
X103098850Y-79713000D01*
X102799285Y-79772587D01*
X102459574Y-79999574D01*
X102232587Y-80339285D01*
X102152880Y-80740000D01*
X102127000Y-80740000D01*
X102127000Y-53327000D01*
X105903050Y-53327000D01*
X105597412Y-53632638D01*
X105597412Y-53632638D01*
G37*
X105597412Y-53632638D02*
X105403000Y-54101989D01*
X105403000Y-54610011D01*
X105597412Y-55079362D01*
X105956638Y-55438588D01*
X106273000Y-55569630D01*
X106273000Y-55682370D01*
X105956638Y-55813412D01*
X105597412Y-56172638D01*
X105425365Y-56587995D01*
X105425365Y-56046000D01*
X105392225Y-55879393D01*
X105297850Y-55738150D01*
X105156607Y-55643775D01*
X104990000Y-55610635D01*
X103290000Y-55610635D01*
X103123393Y-55643775D01*
X102982150Y-55738150D01*
X102887775Y-55879393D01*
X102854635Y-56046000D01*
X102854635Y-57746000D01*
X102887775Y-57912607D01*
X102982150Y-58053850D01*
X103123393Y-58148225D01*
X103290000Y-58181365D01*
X104990000Y-58181365D01*
X105156607Y-58148225D01*
X105297850Y-58053850D01*
X105392225Y-57912607D01*
X105425365Y-57746000D01*
X105425365Y-57204005D01*
X105597412Y-57619362D01*
X105956638Y-57978588D01*
X106273000Y-58109630D01*
X106273000Y-61778370D01*
X105956638Y-61909412D01*
X105597412Y-62268638D01*
X105403000Y-62737989D01*
X105403000Y-63246011D01*
X105597412Y-63715362D01*
X105956638Y-64074588D01*
X106273000Y-64205630D01*
X106273000Y-64318370D01*
X105956638Y-64449412D01*
X105597412Y-64808638D01*
X105425365Y-65223995D01*
X105425365Y-64682000D01*
X105392225Y-64515393D01*
X105297850Y-64374150D01*
X105156607Y-64279775D01*
X104990000Y-64246635D01*
X103290000Y-64246635D01*
X103123393Y-64279775D01*
X102982150Y-64374150D01*
X102887775Y-64515393D01*
X102854635Y-64682000D01*
X102854635Y-66382000D01*
X102887775Y-66548607D01*
X102982150Y-66689850D01*
X103123393Y-66784225D01*
X103290000Y-66817365D01*
X104990000Y-66817365D01*
X105156607Y-66784225D01*
X105297850Y-66689850D01*
X105392225Y-66548607D01*
X105425365Y-66382000D01*
X105425365Y-65840005D01*
X105597412Y-66255362D01*
X105956638Y-66614588D01*
X106273000Y-66745630D01*
X106273000Y-68654551D01*
X105830000Y-68654551D01*
X105663393Y-68687691D01*
X105522150Y-68782066D01*
X105427775Y-68923309D01*
X105394635Y-69089916D01*
X105394635Y-69631911D01*
X105222588Y-69216554D01*
X104863362Y-68857328D01*
X104394011Y-68662916D01*
X103885989Y-68662916D01*
X103416638Y-68857328D01*
X103057412Y-69216554D01*
X102863000Y-69685905D01*
X102863000Y-70193927D01*
X103057412Y-70663278D01*
X103416638Y-71022504D01*
X103869090Y-71209916D01*
X103416638Y-71397328D01*
X103057412Y-71756554D01*
X102863000Y-72225905D01*
X102863000Y-72733927D01*
X103057412Y-73203278D01*
X103416638Y-73562504D01*
X103885989Y-73756916D01*
X104394011Y-73756916D01*
X104863362Y-73562504D01*
X105222588Y-73203278D01*
X105410000Y-72750826D01*
X105597412Y-73203278D01*
X105956638Y-73562504D01*
X106273000Y-73693546D01*
X106273000Y-85200000D01*
X106282667Y-85248601D01*
X106310197Y-85289803D01*
X106973000Y-85952606D01*
X106973000Y-87200000D01*
X106982667Y-87248601D01*
X107010197Y-87289803D01*
X107807216Y-88086822D01*
X108473000Y-88847718D01*
X108473000Y-90000000D01*
X108482667Y-90048601D01*
X108510197Y-90089803D01*
X109573000Y-91152606D01*
X109573000Y-93700000D01*
X109582667Y-93748601D01*
X109610197Y-93789803D01*
X109651399Y-93817333D01*
X109700000Y-93827000D01*
X111200000Y-93827000D01*
X111248601Y-93817333D01*
X111289803Y-93789803D01*
X111317333Y-93748601D01*
X111327000Y-93700000D01*
X111327000Y-90827000D01*
X117573000Y-90827000D01*
X117573000Y-91200000D01*
X117582667Y-91248601D01*
X117610197Y-91289803D01*
X117651399Y-91317333D01*
X117700000Y-91327000D01*
X118249119Y-91327000D01*
X118254913Y-91329400D01*
X118545087Y-91329400D01*
X118550881Y-91327000D01*
X125548019Y-91327000D01*
X131510955Y-97190554D01*
X131552387Y-97217737D01*
X131600000Y-97227000D01*
X136750128Y-97227000D01*
X138113583Y-98493065D01*
X138155775Y-98519051D01*
X138200000Y-98527000D01*
X154200000Y-98527000D01*
X154248601Y-98517333D01*
X154293463Y-98485986D01*
X156555730Y-96027000D01*
X163473000Y-96027000D01*
X163473000Y-100557861D01*
X163444617Y-100515383D01*
X163038751Y-100244192D01*
X162560000Y-100148962D01*
X162081248Y-100244192D01*
X161675383Y-100515383D01*
X161404192Y-100921249D01*
X161333000Y-101279154D01*
X161333000Y-101920847D01*
X161404192Y-102278752D01*
X161675384Y-102684617D01*
X162081249Y-102955808D01*
X162560000Y-103051038D01*
X163038752Y-102955808D01*
X163444617Y-102684617D01*
X163473000Y-102642139D01*
X163473000Y-103573000D01*
X141327000Y-103573000D01*
X141327000Y-102642138D01*
X141355384Y-102684617D01*
X141761249Y-102955808D01*
X142240000Y-103051038D01*
X142718752Y-102955808D01*
X143124617Y-102684617D01*
X143395808Y-102278751D01*
X143467000Y-101920846D01*
X143467000Y-101279154D01*
X143553000Y-101279154D01*
X143553000Y-101920847D01*
X143624192Y-102278752D01*
X143895384Y-102684617D01*
X144301249Y-102955808D01*
X144780000Y-103051038D01*
X145258752Y-102955808D01*
X145664617Y-102684617D01*
X145935808Y-102278751D01*
X146007000Y-101920846D01*
X146007000Y-101279154D01*
X146093000Y-101279154D01*
X146093000Y-101920847D01*
X146164192Y-102278752D01*
X146435384Y-102684617D01*
X146841249Y-102955808D01*
X147320000Y-103051038D01*
X147798752Y-102955808D01*
X148204617Y-102684617D01*
X148475808Y-102278751D01*
X148547000Y-101920846D01*
X148547000Y-101279153D01*
X148475808Y-100921248D01*
X148261157Y-100600000D01*
X151164635Y-100600000D01*
X151164635Y-102600000D01*
X151197775Y-102766607D01*
X151292150Y-102907850D01*
X151433393Y-103002225D01*
X151600000Y-103035365D01*
X153200000Y-103035365D01*
X153366607Y-103002225D01*
X153507850Y-102907850D01*
X153602225Y-102766607D01*
X153635365Y-102600000D01*
X153635365Y-101279154D01*
X153713000Y-101279154D01*
X153713000Y-101920847D01*
X153784192Y-102278752D01*
X154055384Y-102684617D01*
X154461249Y-102955808D01*
X154940000Y-103051038D01*
X155418752Y-102955808D01*
X155824617Y-102684617D01*
X156095808Y-102278751D01*
X156167000Y-101920846D01*
X156167000Y-101279154D01*
X156253000Y-101279154D01*
X156253000Y-101920847D01*
X156324192Y-102278752D01*
X156595384Y-102684617D01*
X157001249Y-102955808D01*
X157480000Y-103051038D01*
X157958752Y-102955808D01*
X158364617Y-102684617D01*
X158635808Y-102278751D01*
X158707000Y-101920846D01*
X158707000Y-101279154D01*
X158793000Y-101279154D01*
X158793000Y-101920847D01*
X158864192Y-102278752D01*
X159135384Y-102684617D01*
X159541249Y-102955808D01*
X160020000Y-103051038D01*
X160498752Y-102955808D01*
X160904617Y-102684617D01*
X161175808Y-102278751D01*
X161247000Y-101920846D01*
X161247000Y-101279153D01*
X161175808Y-100921248D01*
X160904617Y-100515383D01*
X160498751Y-100244192D01*
X160020000Y-100148962D01*
X159541248Y-100244192D01*
X159135383Y-100515383D01*
X158864192Y-100921249D01*
X158793000Y-101279154D01*
X158707000Y-101279154D01*
X158707000Y-101279153D01*
X158635808Y-100921248D01*
X158364617Y-100515383D01*
X157958751Y-100244192D01*
X157480000Y-100148962D01*
X157001248Y-100244192D01*
X156595383Y-100515383D01*
X156324192Y-100921249D01*
X156253000Y-101279154D01*
X156167000Y-101279154D01*
X156167000Y-101279153D01*
X156095808Y-100921248D01*
X155824617Y-100515383D01*
X155418751Y-100244192D01*
X154940000Y-100148962D01*
X154461248Y-100244192D01*
X154055383Y-100515383D01*
X153784192Y-100921249D01*
X153713000Y-101279154D01*
X153635365Y-101279154D01*
X153635365Y-100600000D01*
X153602225Y-100433393D01*
X153507850Y-100292150D01*
X153366607Y-100197775D01*
X153200000Y-100164635D01*
X151600000Y-100164635D01*
X151433393Y-100197775D01*
X151292150Y-100292150D01*
X151197775Y-100433393D01*
X151164635Y-100600000D01*
X148261157Y-100600000D01*
X148204617Y-100515383D01*
X147798751Y-100244192D01*
X147320000Y-100148962D01*
X146841248Y-100244192D01*
X146435383Y-100515383D01*
X146164192Y-100921249D01*
X146093000Y-101279154D01*
X146007000Y-101279154D01*
X146007000Y-101279153D01*
X145935808Y-100921248D01*
X145664617Y-100515383D01*
X145258751Y-100244192D01*
X144780000Y-100148962D01*
X144301248Y-100244192D01*
X143895383Y-100515383D01*
X143624192Y-100921249D01*
X143553000Y-101279154D01*
X143467000Y-101279154D01*
X143467000Y-101279153D01*
X143395808Y-100921248D01*
X143124617Y-100515383D01*
X142718751Y-100244192D01*
X142240000Y-100148962D01*
X141761248Y-100244192D01*
X141355383Y-100515383D01*
X141327000Y-100557861D01*
X141327000Y-99800000D01*
X141317333Y-99751399D01*
X141289803Y-99710197D01*
X141248601Y-99682667D01*
X141200000Y-99673000D01*
X138448735Y-99673000D01*
X136484959Y-97905602D01*
X136442367Y-97880275D01*
X136400000Y-97873000D01*
X130752606Y-97873000D01*
X129489803Y-96610197D01*
X129448601Y-96582667D01*
X129400000Y-96573000D01*
X127435365Y-96573000D01*
X127435365Y-94800000D01*
X127427000Y-94757946D01*
X127427000Y-94500000D01*
X127417333Y-94451399D01*
X127389803Y-94410197D01*
X127348601Y-94382667D01*
X127300000Y-94373000D01*
X127042054Y-94373000D01*
X127000000Y-94364635D01*
X125100000Y-94364635D01*
X125057946Y-94373000D01*
X124954743Y-94373000D01*
X123292331Y-92612799D01*
X123251932Y-92584103D01*
X123200000Y-92573000D01*
X118000000Y-92573000D01*
X117951399Y-92582667D01*
X117910197Y-92610197D01*
X116910197Y-93610197D01*
X116882667Y-93651399D01*
X116873000Y-93700000D01*
X116873000Y-96573000D01*
X114527000Y-96573000D01*
X114527000Y-94000000D01*
X114517333Y-93951399D01*
X114489803Y-93910197D01*
X114448601Y-93882667D01*
X114400000Y-93873000D01*
X112100000Y-93873000D01*
X112051399Y-93882667D01*
X112010197Y-93910197D01*
X111982667Y-93951399D01*
X111973000Y-94000000D01*
X111973000Y-94942535D01*
X108752126Y-97773000D01*
X102127000Y-97773000D01*
X102127000Y-92559296D01*
X102425215Y-92857511D01*
X103317240Y-93227000D01*
X104282760Y-93227000D01*
X105174785Y-92857511D01*
X105857511Y-92174785D01*
X106227000Y-91282760D01*
X106227000Y-90317240D01*
X105857511Y-89425215D01*
X105174785Y-88742489D01*
X104282760Y-88373000D01*
X103317240Y-88373000D01*
X102425215Y-88742489D01*
X102127000Y-89040704D01*
X102127000Y-87340000D01*
X102152880Y-87340000D01*
X102232587Y-87740715D01*
X102459574Y-88080426D01*
X102799285Y-88307413D01*
X103098850Y-88367000D01*
X104101150Y-88367000D01*
X104400715Y-88307413D01*
X104740426Y-88080426D01*
X104967413Y-87740715D01*
X105047120Y-87340000D01*
X104967413Y-86939285D01*
X104740426Y-86599574D01*
X104400715Y-86372587D01*
X104101150Y-86313000D01*
X103098850Y-86313000D01*
X102799285Y-86372587D01*
X102459574Y-86599574D01*
X102232587Y-86939285D01*
X102152880Y-87340000D01*
X102127000Y-87340000D01*
X102127000Y-80740000D01*
X102152880Y-80740000D01*
X102232587Y-81140715D01*
X102459574Y-81480426D01*
X102799285Y-81707413D01*
X103098850Y-81767000D01*
X104101150Y-81767000D01*
X104400715Y-81707413D01*
X104740426Y-81480426D01*
X104967413Y-81140715D01*
X105047120Y-80740000D01*
X104967413Y-80339285D01*
X104740426Y-79999574D01*
X104400715Y-79772587D01*
X104101150Y-79713000D01*
X103098850Y-79713000D01*
X102799285Y-79772587D01*
X102459574Y-79999574D01*
X102232587Y-80339285D01*
X102152880Y-80740000D01*
X102127000Y-80740000D01*
X102127000Y-53327000D01*
X105903050Y-53327000D01*
X105597412Y-53632638D01*
G36*
X126806680Y-61786142D02*
X126846748Y-61815296D01*
X126900000Y-61827000D01*
X131973000Y-61827000D01*
X131973000Y-63173000D01*
X123542333Y-63173000D01*
X123176200Y-62898400D01*
X123165341Y-62891098D01*
X122727000Y-62628093D01*
X122727000Y-60300000D01*
X122717333Y-60251399D01*
X122689803Y-60210197D01*
X122648601Y-60182667D01*
X122600000Y-60173000D01*
X122100881Y-60173000D01*
X122095087Y-60170600D01*
X121804913Y-60170600D01*
X121799119Y-60173000D01*
X119300000Y-60173000D01*
X119251399Y-60182667D01*
X119210197Y-60210197D01*
X119182667Y-60251399D01*
X119173000Y-60300000D01*
X119173000Y-65723000D01*
X116957785Y-65723000D01*
X117284617Y-65504617D01*
X117555808Y-65098752D01*
X117651038Y-64620000D01*
X117555808Y-64141248D01*
X117284617Y-63735383D01*
X116878752Y-63464192D01*
X116520847Y-63393000D01*
X115879153Y-63393000D01*
X115521248Y-63464192D01*
X115115383Y-63735383D01*
X114844192Y-64141248D01*
X114748962Y-64620000D01*
X114844192Y-65098752D01*
X115115383Y-65504617D01*
X115442215Y-65723000D01*
X114077000Y-65723000D01*
X114077000Y-64100000D01*
X114067333Y-64051399D01*
X114039803Y-64010197D01*
X113998601Y-63982667D01*
X113950000Y-63973000D01*
X112027000Y-63973000D01*
X112027000Y-60866581D01*
X115810877Y-60866581D01*
X115521248Y-60924192D01*
X115115383Y-61195383D01*
X114844192Y-61601248D01*
X114748962Y-62080000D01*
X114844192Y-62558752D01*
X115115383Y-62964617D01*
X115521248Y-63235808D01*
X115879153Y-63307000D01*
X116520847Y-63307000D01*
X116878752Y-63235808D01*
X117284617Y-62964617D01*
X117555808Y-62558752D01*
X117651038Y-62080000D01*
X117555808Y-61601248D01*
X117284617Y-61195383D01*
X116878752Y-60924192D01*
X116589123Y-60866581D01*
X118300000Y-60866581D01*
X118348601Y-60856914D01*
X118389803Y-60829384D01*
X118417333Y-60788182D01*
X118427000Y-60739581D01*
X118427000Y-59227000D01*
X124444395Y-59227000D01*
X126806680Y-61786142D01*
X126806680Y-61786142D01*
G37*
X126806680Y-61786142D02*
X126846748Y-61815296D01*
X126900000Y-61827000D01*
X131973000Y-61827000D01*
X131973000Y-63173000D01*
X123542333Y-63173000D01*
X123176200Y-62898400D01*
X123165341Y-62891098D01*
X122727000Y-62628093D01*
X122727000Y-60300000D01*
X122717333Y-60251399D01*
X122689803Y-60210197D01*
X122648601Y-60182667D01*
X122600000Y-60173000D01*
X122100881Y-60173000D01*
X122095087Y-60170600D01*
X121804913Y-60170600D01*
X121799119Y-60173000D01*
X119300000Y-60173000D01*
X119251399Y-60182667D01*
X119210197Y-60210197D01*
X119182667Y-60251399D01*
X119173000Y-60300000D01*
X119173000Y-65723000D01*
X116957785Y-65723000D01*
X117284617Y-65504617D01*
X117555808Y-65098752D01*
X117651038Y-64620000D01*
X117555808Y-64141248D01*
X117284617Y-63735383D01*
X116878752Y-63464192D01*
X116520847Y-63393000D01*
X115879153Y-63393000D01*
X115521248Y-63464192D01*
X115115383Y-63735383D01*
X114844192Y-64141248D01*
X114748962Y-64620000D01*
X114844192Y-65098752D01*
X115115383Y-65504617D01*
X115442215Y-65723000D01*
X114077000Y-65723000D01*
X114077000Y-64100000D01*
X114067333Y-64051399D01*
X114039803Y-64010197D01*
X113998601Y-63982667D01*
X113950000Y-63973000D01*
X112027000Y-63973000D01*
X112027000Y-60866581D01*
X115810877Y-60866581D01*
X115521248Y-60924192D01*
X115115383Y-61195383D01*
X114844192Y-61601248D01*
X114748962Y-62080000D01*
X114844192Y-62558752D01*
X115115383Y-62964617D01*
X115521248Y-63235808D01*
X115879153Y-63307000D01*
X116520847Y-63307000D01*
X116878752Y-63235808D01*
X117284617Y-62964617D01*
X117555808Y-62558752D01*
X117651038Y-62080000D01*
X117555808Y-61601248D01*
X117284617Y-61195383D01*
X116878752Y-60924192D01*
X116589123Y-60866581D01*
X118300000Y-60866581D01*
X118348601Y-60856914D01*
X118389803Y-60829384D01*
X118417333Y-60788182D01*
X118427000Y-60739581D01*
X118427000Y-59227000D01*
X124444395Y-59227000D01*
X126806680Y-61786142D01*
G04 #@! TO.N,GND*
G36*
X169573000Y-56273000D02*
X169201962Y-56273000D01*
X169107850Y-56132150D01*
X168966607Y-56037775D01*
X168800000Y-56004635D01*
X166800000Y-56004635D01*
X166633393Y-56037775D01*
X166492150Y-56132150D01*
X166398038Y-56273000D01*
X128148285Y-56273000D01*
X127327000Y-55542969D01*
X127327000Y-55254913D01*
X128670600Y-55254913D01*
X128670600Y-55545087D01*
X128781644Y-55813172D01*
X128986828Y-56018356D01*
X129254913Y-56129400D01*
X129545087Y-56129400D01*
X129813172Y-56018356D01*
X129854528Y-55977000D01*
X131179172Y-55977000D01*
X131236000Y-55988304D01*
X131292828Y-55977000D01*
X131292829Y-55977000D01*
X131461134Y-55943522D01*
X131651994Y-55815994D01*
X131684188Y-55767812D01*
X132733140Y-54718860D01*
X133096000Y-54791038D01*
X133574751Y-54695808D01*
X133980617Y-54424617D01*
X134251808Y-54018752D01*
X134323000Y-53660847D01*
X134323000Y-53019154D01*
X134323000Y-53019153D01*
X134409000Y-53019153D01*
X134409000Y-53660846D01*
X134480192Y-54018751D01*
X134751383Y-54424617D01*
X135157248Y-54695808D01*
X135636000Y-54791038D01*
X136114751Y-54695808D01*
X136520617Y-54424617D01*
X136791808Y-54018752D01*
X136863000Y-53660847D01*
X136863000Y-53019154D01*
X136863000Y-53019153D01*
X136949000Y-53019153D01*
X136949000Y-53660846D01*
X137020192Y-54018751D01*
X137291383Y-54424617D01*
X137697248Y-54695808D01*
X138176000Y-54791038D01*
X138654751Y-54695808D01*
X139060617Y-54424617D01*
X139331808Y-54018752D01*
X139403000Y-53660847D01*
X139403000Y-53019154D01*
X139403000Y-53019153D01*
X139489000Y-53019153D01*
X139489000Y-53660846D01*
X139560192Y-54018751D01*
X139831383Y-54424617D01*
X140237248Y-54695808D01*
X140716000Y-54791038D01*
X141194751Y-54695808D01*
X141600617Y-54424617D01*
X141871808Y-54018752D01*
X141943000Y-53660847D01*
X141943000Y-53019154D01*
X141871808Y-52661249D01*
X141657157Y-52340000D01*
X142020635Y-52340000D01*
X142020635Y-54340000D01*
X142053775Y-54506607D01*
X142148150Y-54647850D01*
X142289393Y-54742225D01*
X142456000Y-54775365D01*
X144056000Y-54775365D01*
X144222607Y-54742225D01*
X144363850Y-54647850D01*
X144458225Y-54506607D01*
X144491365Y-54340000D01*
X144491365Y-53019153D01*
X146093000Y-53019153D01*
X146093000Y-53660846D01*
X146164192Y-54018751D01*
X146435383Y-54424617D01*
X146841248Y-54695808D01*
X147320000Y-54791038D01*
X147798751Y-54695808D01*
X148204617Y-54424617D01*
X148475808Y-54018752D01*
X148547000Y-53660847D01*
X148547000Y-53019154D01*
X148547000Y-53019153D01*
X148633000Y-53019153D01*
X148633000Y-53660846D01*
X148704192Y-54018751D01*
X148975383Y-54424617D01*
X149381248Y-54695808D01*
X149860000Y-54791038D01*
X150338751Y-54695808D01*
X150744617Y-54424617D01*
X151015808Y-54018752D01*
X151087000Y-53660847D01*
X151087000Y-53019154D01*
X151087000Y-53019153D01*
X151173000Y-53019153D01*
X151173000Y-53660846D01*
X151244192Y-54018751D01*
X151515383Y-54424617D01*
X151921248Y-54695808D01*
X152400000Y-54791038D01*
X152878751Y-54695808D01*
X153284617Y-54424617D01*
X153555808Y-54018752D01*
X153627000Y-53660847D01*
X153627000Y-53019154D01*
X153627000Y-53019153D01*
X153713000Y-53019153D01*
X153713000Y-53660846D01*
X153784192Y-54018751D01*
X154055383Y-54424617D01*
X154461248Y-54695808D01*
X154940000Y-54791038D01*
X155418751Y-54695808D01*
X155824617Y-54424617D01*
X156095808Y-54018752D01*
X156167000Y-53660847D01*
X156167000Y-53019154D01*
X156167000Y-53019153D01*
X156253000Y-53019153D01*
X156253000Y-53660846D01*
X156324192Y-54018751D01*
X156595383Y-54424617D01*
X157001248Y-54695808D01*
X157480000Y-54791038D01*
X157958751Y-54695808D01*
X158364617Y-54424617D01*
X158635808Y-54018752D01*
X158707000Y-53660847D01*
X158707000Y-53019154D01*
X158707000Y-53019153D01*
X158793000Y-53019153D01*
X158793000Y-53660846D01*
X158864192Y-54018751D01*
X159135383Y-54424617D01*
X159541248Y-54695808D01*
X160020000Y-54791038D01*
X160498751Y-54695808D01*
X160904617Y-54424617D01*
X161175808Y-54018752D01*
X161247000Y-53660847D01*
X161247000Y-53019154D01*
X161247000Y-53019153D01*
X161333000Y-53019153D01*
X161333000Y-53660846D01*
X161404192Y-54018751D01*
X161675383Y-54424617D01*
X162081248Y-54695808D01*
X162560000Y-54791038D01*
X163038751Y-54695808D01*
X163444617Y-54424617D01*
X163715808Y-54018752D01*
X163787000Y-53660847D01*
X163787000Y-53019154D01*
X163715808Y-52661249D01*
X163501157Y-52340000D01*
X163864635Y-52340000D01*
X163864635Y-54340000D01*
X163897775Y-54506607D01*
X163992150Y-54647850D01*
X164133393Y-54742225D01*
X164300000Y-54775365D01*
X165900000Y-54775365D01*
X166066607Y-54742225D01*
X166207850Y-54647850D01*
X166302225Y-54506607D01*
X166335365Y-54340000D01*
X166335365Y-52340000D01*
X166302225Y-52173393D01*
X166207850Y-52032150D01*
X166066607Y-51937775D01*
X165900000Y-51904635D01*
X164300000Y-51904635D01*
X164133393Y-51937775D01*
X163992150Y-52032150D01*
X163897775Y-52173393D01*
X163864635Y-52340000D01*
X163501157Y-52340000D01*
X163444617Y-52255383D01*
X163038752Y-51984192D01*
X162560000Y-51888962D01*
X162081249Y-51984192D01*
X161675384Y-52255383D01*
X161404192Y-52661248D01*
X161333000Y-53019153D01*
X161247000Y-53019153D01*
X161175808Y-52661249D01*
X160904617Y-52255383D01*
X160498752Y-51984192D01*
X160020000Y-51888962D01*
X159541249Y-51984192D01*
X159135384Y-52255383D01*
X158864192Y-52661248D01*
X158793000Y-53019153D01*
X158707000Y-53019153D01*
X158635808Y-52661249D01*
X158364617Y-52255383D01*
X157958752Y-51984192D01*
X157480000Y-51888962D01*
X157001249Y-51984192D01*
X156595384Y-52255383D01*
X156324192Y-52661248D01*
X156253000Y-53019153D01*
X156167000Y-53019153D01*
X156095808Y-52661249D01*
X155824617Y-52255383D01*
X155418752Y-51984192D01*
X154940000Y-51888962D01*
X154461249Y-51984192D01*
X154055384Y-52255383D01*
X153784192Y-52661248D01*
X153713000Y-53019153D01*
X153627000Y-53019153D01*
X153555808Y-52661249D01*
X153284617Y-52255383D01*
X152878752Y-51984192D01*
X152400000Y-51888962D01*
X151921249Y-51984192D01*
X151515384Y-52255383D01*
X151244192Y-52661248D01*
X151173000Y-53019153D01*
X151087000Y-53019153D01*
X151015808Y-52661249D01*
X150744617Y-52255383D01*
X150338752Y-51984192D01*
X149860000Y-51888962D01*
X149381249Y-51984192D01*
X148975384Y-52255383D01*
X148704192Y-52661248D01*
X148633000Y-53019153D01*
X148547000Y-53019153D01*
X148475808Y-52661249D01*
X148204617Y-52255383D01*
X147798752Y-51984192D01*
X147320000Y-51888962D01*
X146841249Y-51984192D01*
X146435384Y-52255383D01*
X146164192Y-52661248D01*
X146093000Y-53019153D01*
X144491365Y-53019153D01*
X144491365Y-52340000D01*
X144458225Y-52173393D01*
X144363850Y-52032150D01*
X144222607Y-51937775D01*
X144056000Y-51904635D01*
X142456000Y-51904635D01*
X142289393Y-51937775D01*
X142148150Y-52032150D01*
X142053775Y-52173393D01*
X142020635Y-52340000D01*
X141657157Y-52340000D01*
X141600617Y-52255383D01*
X141194752Y-51984192D01*
X140716000Y-51888962D01*
X140237249Y-51984192D01*
X139831384Y-52255383D01*
X139560192Y-52661248D01*
X139489000Y-53019153D01*
X139403000Y-53019153D01*
X139331808Y-52661249D01*
X139060617Y-52255383D01*
X138654752Y-51984192D01*
X138176000Y-51888962D01*
X137697249Y-51984192D01*
X137291384Y-52255383D01*
X137020192Y-52661248D01*
X136949000Y-53019153D01*
X136863000Y-53019153D01*
X136791808Y-52661249D01*
X136520617Y-52255383D01*
X136114752Y-51984192D01*
X135636000Y-51888962D01*
X135157249Y-51984192D01*
X134751384Y-52255383D01*
X134480192Y-52661248D01*
X134409000Y-53019153D01*
X134323000Y-53019153D01*
X134251808Y-52661249D01*
X133980617Y-52255383D01*
X133574752Y-51984192D01*
X133096000Y-51888962D01*
X132617249Y-51984192D01*
X132211384Y-52255383D01*
X131940192Y-52661248D01*
X131869000Y-53019153D01*
X131869000Y-53660846D01*
X131917140Y-53902860D01*
X131531705Y-54288295D01*
X131711808Y-54018752D01*
X131783000Y-53660847D01*
X131783000Y-53019154D01*
X131711808Y-52661249D01*
X131440617Y-52255383D01*
X131034752Y-51984192D01*
X130556000Y-51888962D01*
X130077249Y-51984192D01*
X129671384Y-52255383D01*
X129400192Y-52661248D01*
X129329000Y-53019153D01*
X129329000Y-53660846D01*
X129400192Y-54018751D01*
X129671383Y-54424617D01*
X130077248Y-54695808D01*
X130556000Y-54791038D01*
X131034751Y-54695808D01*
X131304296Y-54515704D01*
X130997000Y-54823000D01*
X129854528Y-54823000D01*
X129813172Y-54781644D01*
X129545087Y-54670600D01*
X129254913Y-54670600D01*
X128986828Y-54781644D01*
X128781644Y-54986828D01*
X128670600Y-55254913D01*
X127327000Y-55254913D01*
X127327000Y-51427000D01*
X169573000Y-51427000D01*
X169573000Y-56273000D01*
X169573000Y-56273000D01*
G37*
X169573000Y-56273000D02*
X169201962Y-56273000D01*
X169107850Y-56132150D01*
X168966607Y-56037775D01*
X168800000Y-56004635D01*
X166800000Y-56004635D01*
X166633393Y-56037775D01*
X166492150Y-56132150D01*
X166398038Y-56273000D01*
X128148285Y-56273000D01*
X127327000Y-55542969D01*
X127327000Y-55254913D01*
X128670600Y-55254913D01*
X128670600Y-55545087D01*
X128781644Y-55813172D01*
X128986828Y-56018356D01*
X129254913Y-56129400D01*
X129545087Y-56129400D01*
X129813172Y-56018356D01*
X129854528Y-55977000D01*
X131179172Y-55977000D01*
X131236000Y-55988304D01*
X131292828Y-55977000D01*
X131292829Y-55977000D01*
X131461134Y-55943522D01*
X131651994Y-55815994D01*
X131684188Y-55767812D01*
X132733140Y-54718860D01*
X133096000Y-54791038D01*
X133574751Y-54695808D01*
X133980617Y-54424617D01*
X134251808Y-54018752D01*
X134323000Y-53660847D01*
X134323000Y-53019154D01*
X134323000Y-53019153D01*
X134409000Y-53019153D01*
X134409000Y-53660846D01*
X134480192Y-54018751D01*
X134751383Y-54424617D01*
X135157248Y-54695808D01*
X135636000Y-54791038D01*
X136114751Y-54695808D01*
X136520617Y-54424617D01*
X136791808Y-54018752D01*
X136863000Y-53660847D01*
X136863000Y-53019154D01*
X136863000Y-53019153D01*
X136949000Y-53019153D01*
X136949000Y-53660846D01*
X137020192Y-54018751D01*
X137291383Y-54424617D01*
X137697248Y-54695808D01*
X138176000Y-54791038D01*
X138654751Y-54695808D01*
X139060617Y-54424617D01*
X139331808Y-54018752D01*
X139403000Y-53660847D01*
X139403000Y-53019154D01*
X139403000Y-53019153D01*
X139489000Y-53019153D01*
X139489000Y-53660846D01*
X139560192Y-54018751D01*
X139831383Y-54424617D01*
X140237248Y-54695808D01*
X140716000Y-54791038D01*
X141194751Y-54695808D01*
X141600617Y-54424617D01*
X141871808Y-54018752D01*
X141943000Y-53660847D01*
X141943000Y-53019154D01*
X141871808Y-52661249D01*
X141657157Y-52340000D01*
X142020635Y-52340000D01*
X142020635Y-54340000D01*
X142053775Y-54506607D01*
X142148150Y-54647850D01*
X142289393Y-54742225D01*
X142456000Y-54775365D01*
X144056000Y-54775365D01*
X144222607Y-54742225D01*
X144363850Y-54647850D01*
X144458225Y-54506607D01*
X144491365Y-54340000D01*
X144491365Y-53019153D01*
X146093000Y-53019153D01*
X146093000Y-53660846D01*
X146164192Y-54018751D01*
X146435383Y-54424617D01*
X146841248Y-54695808D01*
X147320000Y-54791038D01*
X147798751Y-54695808D01*
X148204617Y-54424617D01*
X148475808Y-54018752D01*
X148547000Y-53660847D01*
X148547000Y-53019154D01*
X148547000Y-53019153D01*
X148633000Y-53019153D01*
X148633000Y-53660846D01*
X148704192Y-54018751D01*
X148975383Y-54424617D01*
X149381248Y-54695808D01*
X149860000Y-54791038D01*
X150338751Y-54695808D01*
X150744617Y-54424617D01*
X151015808Y-54018752D01*
X151087000Y-53660847D01*
X151087000Y-53019154D01*
X151087000Y-53019153D01*
X151173000Y-53019153D01*
X151173000Y-53660846D01*
X151244192Y-54018751D01*
X151515383Y-54424617D01*
X151921248Y-54695808D01*
X152400000Y-54791038D01*
X152878751Y-54695808D01*
X153284617Y-54424617D01*
X153555808Y-54018752D01*
X153627000Y-53660847D01*
X153627000Y-53019154D01*
X153627000Y-53019153D01*
X153713000Y-53019153D01*
X153713000Y-53660846D01*
X153784192Y-54018751D01*
X154055383Y-54424617D01*
X154461248Y-54695808D01*
X154940000Y-54791038D01*
X155418751Y-54695808D01*
X155824617Y-54424617D01*
X156095808Y-54018752D01*
X156167000Y-53660847D01*
X156167000Y-53019154D01*
X156167000Y-53019153D01*
X156253000Y-53019153D01*
X156253000Y-53660846D01*
X156324192Y-54018751D01*
X156595383Y-54424617D01*
X157001248Y-54695808D01*
X157480000Y-54791038D01*
X157958751Y-54695808D01*
X158364617Y-54424617D01*
X158635808Y-54018752D01*
X158707000Y-53660847D01*
X158707000Y-53019154D01*
X158707000Y-53019153D01*
X158793000Y-53019153D01*
X158793000Y-53660846D01*
X158864192Y-54018751D01*
X159135383Y-54424617D01*
X159541248Y-54695808D01*
X160020000Y-54791038D01*
X160498751Y-54695808D01*
X160904617Y-54424617D01*
X161175808Y-54018752D01*
X161247000Y-53660847D01*
X161247000Y-53019154D01*
X161247000Y-53019153D01*
X161333000Y-53019153D01*
X161333000Y-53660846D01*
X161404192Y-54018751D01*
X161675383Y-54424617D01*
X162081248Y-54695808D01*
X162560000Y-54791038D01*
X163038751Y-54695808D01*
X163444617Y-54424617D01*
X163715808Y-54018752D01*
X163787000Y-53660847D01*
X163787000Y-53019154D01*
X163715808Y-52661249D01*
X163501157Y-52340000D01*
X163864635Y-52340000D01*
X163864635Y-54340000D01*
X163897775Y-54506607D01*
X163992150Y-54647850D01*
X164133393Y-54742225D01*
X164300000Y-54775365D01*
X165900000Y-54775365D01*
X166066607Y-54742225D01*
X166207850Y-54647850D01*
X166302225Y-54506607D01*
X166335365Y-54340000D01*
X166335365Y-52340000D01*
X166302225Y-52173393D01*
X166207850Y-52032150D01*
X166066607Y-51937775D01*
X165900000Y-51904635D01*
X164300000Y-51904635D01*
X164133393Y-51937775D01*
X163992150Y-52032150D01*
X163897775Y-52173393D01*
X163864635Y-52340000D01*
X163501157Y-52340000D01*
X163444617Y-52255383D01*
X163038752Y-51984192D01*
X162560000Y-51888962D01*
X162081249Y-51984192D01*
X161675384Y-52255383D01*
X161404192Y-52661248D01*
X161333000Y-53019153D01*
X161247000Y-53019153D01*
X161175808Y-52661249D01*
X160904617Y-52255383D01*
X160498752Y-51984192D01*
X160020000Y-51888962D01*
X159541249Y-51984192D01*
X159135384Y-52255383D01*
X158864192Y-52661248D01*
X158793000Y-53019153D01*
X158707000Y-53019153D01*
X158635808Y-52661249D01*
X158364617Y-52255383D01*
X157958752Y-51984192D01*
X157480000Y-51888962D01*
X157001249Y-51984192D01*
X156595384Y-52255383D01*
X156324192Y-52661248D01*
X156253000Y-53019153D01*
X156167000Y-53019153D01*
X156095808Y-52661249D01*
X155824617Y-52255383D01*
X155418752Y-51984192D01*
X154940000Y-51888962D01*
X154461249Y-51984192D01*
X154055384Y-52255383D01*
X153784192Y-52661248D01*
X153713000Y-53019153D01*
X153627000Y-53019153D01*
X153555808Y-52661249D01*
X153284617Y-52255383D01*
X152878752Y-51984192D01*
X152400000Y-51888962D01*
X151921249Y-51984192D01*
X151515384Y-52255383D01*
X151244192Y-52661248D01*
X151173000Y-53019153D01*
X151087000Y-53019153D01*
X151015808Y-52661249D01*
X150744617Y-52255383D01*
X150338752Y-51984192D01*
X149860000Y-51888962D01*
X149381249Y-51984192D01*
X148975384Y-52255383D01*
X148704192Y-52661248D01*
X148633000Y-53019153D01*
X148547000Y-53019153D01*
X148475808Y-52661249D01*
X148204617Y-52255383D01*
X147798752Y-51984192D01*
X147320000Y-51888962D01*
X146841249Y-51984192D01*
X146435384Y-52255383D01*
X146164192Y-52661248D01*
X146093000Y-53019153D01*
X144491365Y-53019153D01*
X144491365Y-52340000D01*
X144458225Y-52173393D01*
X144363850Y-52032150D01*
X144222607Y-51937775D01*
X144056000Y-51904635D01*
X142456000Y-51904635D01*
X142289393Y-51937775D01*
X142148150Y-52032150D01*
X142053775Y-52173393D01*
X142020635Y-52340000D01*
X141657157Y-52340000D01*
X141600617Y-52255383D01*
X141194752Y-51984192D01*
X140716000Y-51888962D01*
X140237249Y-51984192D01*
X139831384Y-52255383D01*
X139560192Y-52661248D01*
X139489000Y-53019153D01*
X139403000Y-53019153D01*
X139331808Y-52661249D01*
X139060617Y-52255383D01*
X138654752Y-51984192D01*
X138176000Y-51888962D01*
X137697249Y-51984192D01*
X137291384Y-52255383D01*
X137020192Y-52661248D01*
X136949000Y-53019153D01*
X136863000Y-53019153D01*
X136791808Y-52661249D01*
X136520617Y-52255383D01*
X136114752Y-51984192D01*
X135636000Y-51888962D01*
X135157249Y-51984192D01*
X134751384Y-52255383D01*
X134480192Y-52661248D01*
X134409000Y-53019153D01*
X134323000Y-53019153D01*
X134251808Y-52661249D01*
X133980617Y-52255383D01*
X133574752Y-51984192D01*
X133096000Y-51888962D01*
X132617249Y-51984192D01*
X132211384Y-52255383D01*
X131940192Y-52661248D01*
X131869000Y-53019153D01*
X131869000Y-53660846D01*
X131917140Y-53902860D01*
X131531705Y-54288295D01*
X131711808Y-54018752D01*
X131783000Y-53660847D01*
X131783000Y-53019154D01*
X131711808Y-52661249D01*
X131440617Y-52255383D01*
X131034752Y-51984192D01*
X130556000Y-51888962D01*
X130077249Y-51984192D01*
X129671384Y-52255383D01*
X129400192Y-52661248D01*
X129329000Y-53019153D01*
X129329000Y-53660846D01*
X129400192Y-54018751D01*
X129671383Y-54424617D01*
X130077248Y-54695808D01*
X130556000Y-54791038D01*
X131034751Y-54695808D01*
X131304296Y-54515704D01*
X130997000Y-54823000D01*
X129854528Y-54823000D01*
X129813172Y-54781644D01*
X129545087Y-54670600D01*
X129254913Y-54670600D01*
X128986828Y-54781644D01*
X128781644Y-54986828D01*
X128670600Y-55254913D01*
X127327000Y-55254913D01*
X127327000Y-51427000D01*
X169573000Y-51427000D01*
X169573000Y-56273000D01*
G36*
X108137412Y-57619362D02*
X108496638Y-57978588D01*
X108965989Y-58173000D01*
X109474011Y-58173000D01*
X109620374Y-58112374D01*
X110175814Y-58667815D01*
X110208006Y-58715994D01*
X110398866Y-58843522D01*
X110567171Y-58877000D01*
X110567172Y-58877000D01*
X110624000Y-58888304D01*
X110680828Y-58877000D01*
X111473000Y-58877000D01*
X111473000Y-64400000D01*
X111482667Y-64448601D01*
X111510197Y-64489803D01*
X111551399Y-64517333D01*
X111600000Y-64527000D01*
X113473000Y-64527000D01*
X113473000Y-66200000D01*
X113482667Y-66248601D01*
X113510197Y-66289803D01*
X113551399Y-66317333D01*
X113600000Y-66327000D01*
X115080894Y-66327000D01*
X114844192Y-66681248D01*
X114748962Y-67160000D01*
X114844192Y-67638752D01*
X115115383Y-68044617D01*
X115521248Y-68315808D01*
X115879153Y-68387000D01*
X116520847Y-68387000D01*
X116878752Y-68315808D01*
X117284617Y-68044617D01*
X117555808Y-67638752D01*
X117651038Y-67160000D01*
X117555808Y-66681248D01*
X117319106Y-66327000D01*
X119600000Y-66327000D01*
X119648601Y-66317333D01*
X119689803Y-66289803D01*
X119717333Y-66248601D01*
X119727000Y-66200000D01*
X119727000Y-60727000D01*
X122173000Y-60727000D01*
X122173000Y-62673000D01*
X121600000Y-62673000D01*
X121551399Y-62682667D01*
X121510197Y-62710197D01*
X121482667Y-62751399D01*
X121473000Y-62800000D01*
X121473000Y-64800000D01*
X121482667Y-64848601D01*
X121510197Y-64889803D01*
X121551399Y-64917333D01*
X121600000Y-64927000D01*
X160173000Y-64927000D01*
X160173000Y-69248793D01*
X157608519Y-71911908D01*
X157581771Y-71953621D01*
X157573000Y-72000000D01*
X157573000Y-82073000D01*
X157300000Y-82073000D01*
X157251399Y-82082667D01*
X157210197Y-82110197D01*
X157182667Y-82151399D01*
X157173000Y-82200000D01*
X157173000Y-83226631D01*
X156929617Y-82862383D01*
X156523752Y-82591192D01*
X156045000Y-82495962D01*
X155566249Y-82591192D01*
X155160384Y-82862383D01*
X154889192Y-83268248D01*
X154818000Y-83626153D01*
X154818000Y-84267846D01*
X154889192Y-84625751D01*
X155160383Y-85031617D01*
X155566248Y-85302808D01*
X156045000Y-85398038D01*
X156523751Y-85302808D01*
X156929617Y-85031617D01*
X157173000Y-84667370D01*
X157173000Y-85400000D01*
X157182667Y-85448601D01*
X157218195Y-85497144D01*
X159118195Y-87097144D01*
X159161597Y-87121055D01*
X159200000Y-87127000D01*
X159808682Y-87127000D01*
X159808702Y-87127004D01*
X159808704Y-87127004D01*
X159900004Y-87145165D01*
X159991305Y-87127004D01*
X161191302Y-87127004D01*
X161191322Y-87127000D01*
X161900000Y-87127000D01*
X161948601Y-87117333D01*
X161989803Y-87089803D01*
X162017333Y-87048601D01*
X162027000Y-87000000D01*
X162027000Y-86291306D01*
X162045161Y-86200004D01*
X162027000Y-86108702D01*
X162027000Y-85427000D01*
X165173000Y-85427000D01*
X165173000Y-86448470D01*
X161846314Y-89873000D01*
X159900000Y-89873000D01*
X159851399Y-89882667D01*
X159810197Y-89910197D01*
X159782667Y-89951399D01*
X159773000Y-90000000D01*
X159773000Y-91050089D01*
X159740808Y-90888249D01*
X159469617Y-90482383D01*
X159063752Y-90211192D01*
X158585000Y-90115962D01*
X158106249Y-90211192D01*
X157700384Y-90482383D01*
X157429192Y-90888248D01*
X157358000Y-91246153D01*
X157358000Y-91887846D01*
X157429192Y-92245751D01*
X157700383Y-92651617D01*
X158106248Y-92922808D01*
X158585000Y-93018038D01*
X159063751Y-92922808D01*
X159469617Y-92651617D01*
X159740808Y-92245752D01*
X159773000Y-92083912D01*
X159773000Y-92900000D01*
X159782667Y-92948601D01*
X159810197Y-92989803D01*
X159851399Y-93017333D01*
X159900000Y-93027000D01*
X165800000Y-93027000D01*
X165848601Y-93017333D01*
X165889803Y-92989803D01*
X165917333Y-92948601D01*
X165927000Y-92900000D01*
X165927000Y-90727000D01*
X169573000Y-90727000D01*
X169573000Y-103573000D01*
X164027000Y-103573000D01*
X164027000Y-102402682D01*
X164215384Y-102684617D01*
X164621249Y-102955808D01*
X165100000Y-103051038D01*
X165578752Y-102955808D01*
X165984617Y-102684617D01*
X166255808Y-102278751D01*
X166327000Y-101920846D01*
X166327000Y-101279153D01*
X166255808Y-100921248D01*
X165984617Y-100515383D01*
X165578751Y-100244192D01*
X165100000Y-100148962D01*
X164621248Y-100244192D01*
X164215383Y-100515383D01*
X164027000Y-100797318D01*
X164027000Y-95600000D01*
X164017333Y-95551399D01*
X163989803Y-95510197D01*
X163948601Y-95482667D01*
X163900000Y-95473000D01*
X156200000Y-95473000D01*
X156151399Y-95482667D01*
X156108307Y-95512128D01*
X153845805Y-97873000D01*
X138449655Y-97873000D01*
X137186142Y-96706680D01*
X137143872Y-96680819D01*
X137100000Y-96673000D01*
X131951981Y-96673000D01*
X126433154Y-91246153D01*
X129418000Y-91246153D01*
X129418000Y-91887846D01*
X129489192Y-92245751D01*
X129760383Y-92651617D01*
X130166248Y-92922808D01*
X130645000Y-93018038D01*
X131123751Y-92922808D01*
X131529617Y-92651617D01*
X131800808Y-92245752D01*
X131872000Y-91887847D01*
X131872000Y-91246154D01*
X131872000Y-91246153D01*
X131958000Y-91246153D01*
X131958000Y-91887846D01*
X132029192Y-92245751D01*
X132300383Y-92651617D01*
X132706248Y-92922808D01*
X133185000Y-93018038D01*
X133663751Y-92922808D01*
X134069617Y-92651617D01*
X134340808Y-92245752D01*
X134412000Y-91887847D01*
X134412000Y-91246154D01*
X134412000Y-91246153D01*
X134498000Y-91246153D01*
X134498000Y-91887846D01*
X134569192Y-92245751D01*
X134840383Y-92651617D01*
X135246248Y-92922808D01*
X135725000Y-93018038D01*
X136203751Y-92922808D01*
X136609617Y-92651617D01*
X136880808Y-92245752D01*
X136952000Y-91887847D01*
X136952000Y-91246154D01*
X136952000Y-91246153D01*
X137038000Y-91246153D01*
X137038000Y-91887846D01*
X137109192Y-92245751D01*
X137380383Y-92651617D01*
X137786248Y-92922808D01*
X138265000Y-93018038D01*
X138743751Y-92922808D01*
X139149617Y-92651617D01*
X139420808Y-92245752D01*
X139492000Y-91887847D01*
X139492000Y-91246154D01*
X139492000Y-91246153D01*
X139578000Y-91246153D01*
X139578000Y-91887846D01*
X139649192Y-92245751D01*
X139920383Y-92651617D01*
X140326248Y-92922808D01*
X140805000Y-93018038D01*
X141283751Y-92922808D01*
X141689617Y-92651617D01*
X141960808Y-92245752D01*
X142032000Y-91887847D01*
X142032000Y-91246154D01*
X142032000Y-91246153D01*
X142118000Y-91246153D01*
X142118000Y-91887846D01*
X142189192Y-92245751D01*
X142460383Y-92651617D01*
X142866248Y-92922808D01*
X143345000Y-93018038D01*
X143823751Y-92922808D01*
X144229617Y-92651617D01*
X144500808Y-92245752D01*
X144572000Y-91887847D01*
X144572000Y-91246154D01*
X144572000Y-91246153D01*
X144658000Y-91246153D01*
X144658000Y-91887846D01*
X144729192Y-92245751D01*
X145000383Y-92651617D01*
X145406248Y-92922808D01*
X145885000Y-93018038D01*
X146363751Y-92922808D01*
X146769617Y-92651617D01*
X147040808Y-92245752D01*
X147112000Y-91887847D01*
X147112000Y-91246154D01*
X147040808Y-90888249D01*
X146769617Y-90482383D01*
X146363752Y-90211192D01*
X145885000Y-90115962D01*
X145406249Y-90211192D01*
X145000384Y-90482383D01*
X144729192Y-90888248D01*
X144658000Y-91246153D01*
X144572000Y-91246153D01*
X144500808Y-90888249D01*
X144229617Y-90482383D01*
X143823752Y-90211192D01*
X143345000Y-90115962D01*
X142866249Y-90211192D01*
X142460384Y-90482383D01*
X142189192Y-90888248D01*
X142118000Y-91246153D01*
X142032000Y-91246153D01*
X141960808Y-90888249D01*
X141689617Y-90482383D01*
X141283752Y-90211192D01*
X140805000Y-90115962D01*
X140326249Y-90211192D01*
X139920384Y-90482383D01*
X139649192Y-90888248D01*
X139578000Y-91246153D01*
X139492000Y-91246153D01*
X139420808Y-90888249D01*
X139149617Y-90482383D01*
X138743752Y-90211192D01*
X138265000Y-90115962D01*
X137786249Y-90211192D01*
X137380384Y-90482383D01*
X137109192Y-90888248D01*
X137038000Y-91246153D01*
X136952000Y-91246153D01*
X136880808Y-90888249D01*
X136609617Y-90482383D01*
X136203752Y-90211192D01*
X135725000Y-90115962D01*
X135246249Y-90211192D01*
X134840384Y-90482383D01*
X134569192Y-90888248D01*
X134498000Y-91246153D01*
X134412000Y-91246153D01*
X134340808Y-90888249D01*
X134069617Y-90482383D01*
X133663752Y-90211192D01*
X133185000Y-90115962D01*
X132706249Y-90211192D01*
X132300384Y-90482383D01*
X132029192Y-90888248D01*
X131958000Y-91246153D01*
X131872000Y-91246153D01*
X131800808Y-90888249D01*
X131529617Y-90482383D01*
X131123752Y-90211192D01*
X130645000Y-90115962D01*
X130166249Y-90211192D01*
X129760384Y-90482383D01*
X129489192Y-90888248D01*
X129418000Y-91246153D01*
X126433154Y-91246153D01*
X125989045Y-90809446D01*
X125947613Y-90782263D01*
X125900000Y-90773000D01*
X118227000Y-90773000D01*
X118227000Y-90400000D01*
X118217333Y-90351399D01*
X118189803Y-90310197D01*
X118148601Y-90282667D01*
X118100000Y-90273000D01*
X117558104Y-90273000D01*
X117480697Y-90240937D01*
X117190523Y-90240937D01*
X117113116Y-90273000D01*
X111327000Y-90273000D01*
X111327000Y-86300000D01*
X111318034Y-86254921D01*
X125970600Y-86254921D01*
X125970600Y-86545095D01*
X126081644Y-86813180D01*
X126286828Y-87018364D01*
X126554913Y-87129408D01*
X126845087Y-87129408D01*
X127113172Y-87018364D01*
X127318356Y-86813180D01*
X127429400Y-86545095D01*
X127429400Y-86486608D01*
X127450583Y-86465425D01*
X129392009Y-84524000D01*
X129468952Y-84524000D01*
X129489192Y-84625751D01*
X129760383Y-85031617D01*
X130166248Y-85302808D01*
X130645000Y-85398038D01*
X131123751Y-85302808D01*
X131323000Y-85169674D01*
X131323000Y-86945472D01*
X131281644Y-86986828D01*
X131170600Y-87254913D01*
X131170600Y-87545087D01*
X131281644Y-87813172D01*
X131486828Y-88018356D01*
X131754913Y-88129400D01*
X132045087Y-88129400D01*
X132313172Y-88018356D01*
X132518356Y-87813172D01*
X132629400Y-87545087D01*
X132629400Y-87254913D01*
X132518356Y-86986828D01*
X132477000Y-86945472D01*
X132477000Y-85149629D01*
X132706248Y-85302808D01*
X133185000Y-85398038D01*
X133663751Y-85302808D01*
X133923000Y-85129583D01*
X133923000Y-86945472D01*
X133881644Y-86986828D01*
X133770600Y-87254913D01*
X133770600Y-87545087D01*
X133881644Y-87813172D01*
X134086828Y-88018356D01*
X134354913Y-88129400D01*
X134645087Y-88129400D01*
X134913172Y-88018356D01*
X135118356Y-87813172D01*
X135123811Y-87800000D01*
X146273000Y-87800000D01*
X146273000Y-88500000D01*
X146305503Y-88663406D01*
X146398065Y-88801935D01*
X146536594Y-88894497D01*
X146700000Y-88927000D01*
X149173000Y-88927000D01*
X149173000Y-94049119D01*
X149170600Y-94054913D01*
X149170600Y-94345087D01*
X149173000Y-94350881D01*
X149173000Y-94400000D01*
X149233851Y-94619690D01*
X149345794Y-94743086D01*
X149470443Y-94801971D01*
X149486828Y-94818356D01*
X149754913Y-94929400D01*
X150045087Y-94929400D01*
X150050881Y-94927000D01*
X152200000Y-94927000D01*
X152363406Y-94894497D01*
X152501935Y-94801935D01*
X152594497Y-94663406D01*
X152627000Y-94500000D01*
X152627000Y-92656038D01*
X153026248Y-92922808D01*
X153505000Y-93018038D01*
X153983751Y-92922808D01*
X154389617Y-92651617D01*
X154660808Y-92245752D01*
X154732000Y-91887847D01*
X154732000Y-91246154D01*
X154732000Y-91246153D01*
X154818000Y-91246153D01*
X154818000Y-91887846D01*
X154889192Y-92245751D01*
X155160383Y-92651617D01*
X155566248Y-92922808D01*
X156045000Y-93018038D01*
X156523751Y-92922808D01*
X156929617Y-92651617D01*
X157200808Y-92245752D01*
X157272000Y-91887847D01*
X157272000Y-91246154D01*
X157200808Y-90888249D01*
X156929617Y-90482383D01*
X156523752Y-90211192D01*
X156045000Y-90115962D01*
X155566249Y-90211192D01*
X155160384Y-90482383D01*
X154889192Y-90888248D01*
X154818000Y-91246153D01*
X154732000Y-91246153D01*
X154660808Y-90888249D01*
X154389617Y-90482383D01*
X153983752Y-90211192D01*
X153505000Y-90115962D01*
X153026249Y-90211192D01*
X152627000Y-90477962D01*
X152627000Y-87800000D01*
X152594497Y-87636594D01*
X152501935Y-87498065D01*
X152363406Y-87405503D01*
X152200000Y-87373000D01*
X146700000Y-87373000D01*
X146536594Y-87405503D01*
X146398065Y-87498065D01*
X146305503Y-87636594D01*
X146273000Y-87800000D01*
X135123811Y-87800000D01*
X135229400Y-87545087D01*
X135229400Y-87254913D01*
X135118356Y-86986828D01*
X135077000Y-86945472D01*
X135077000Y-85189720D01*
X135246248Y-85302808D01*
X135725000Y-85398038D01*
X136203751Y-85302808D01*
X136609617Y-85031617D01*
X136880808Y-84625752D01*
X136952000Y-84267847D01*
X136952000Y-83626154D01*
X136952000Y-83626153D01*
X137038000Y-83626153D01*
X137038000Y-84267846D01*
X137109192Y-84625751D01*
X137380383Y-85031617D01*
X137786248Y-85302808D01*
X138265000Y-85398038D01*
X138743751Y-85302808D01*
X139149617Y-85031617D01*
X139420808Y-84625752D01*
X139492000Y-84267847D01*
X139492000Y-83626154D01*
X139492000Y-83626153D01*
X139578000Y-83626153D01*
X139578000Y-84267846D01*
X139649192Y-84625751D01*
X139920383Y-85031617D01*
X140326248Y-85302808D01*
X140805000Y-85398038D01*
X141283751Y-85302808D01*
X141689617Y-85031617D01*
X141960808Y-84625752D01*
X142032000Y-84267847D01*
X142032000Y-83626154D01*
X142032000Y-83626153D01*
X142118000Y-83626153D01*
X142118000Y-84267846D01*
X142189192Y-84625751D01*
X142460383Y-85031617D01*
X142866248Y-85302808D01*
X143345000Y-85398038D01*
X143823751Y-85302808D01*
X144229617Y-85031617D01*
X144500808Y-84625752D01*
X144572000Y-84267847D01*
X144572000Y-83626154D01*
X144572000Y-83626153D01*
X147198000Y-83626153D01*
X147198000Y-84267846D01*
X147269192Y-84625751D01*
X147540383Y-85031617D01*
X147946248Y-85302808D01*
X148425000Y-85398038D01*
X148903751Y-85302808D01*
X149309617Y-85031617D01*
X149580808Y-84625752D01*
X149652000Y-84267847D01*
X149652000Y-83626154D01*
X149652000Y-83626153D01*
X149738000Y-83626153D01*
X149738000Y-84267846D01*
X149809192Y-84625751D01*
X150080383Y-85031617D01*
X150486248Y-85302808D01*
X150965000Y-85398038D01*
X151443751Y-85302808D01*
X151849617Y-85031617D01*
X152120808Y-84625752D01*
X152192000Y-84267847D01*
X152192000Y-83626154D01*
X152192000Y-83626153D01*
X152278000Y-83626153D01*
X152278000Y-84267846D01*
X152349192Y-84625751D01*
X152620383Y-85031617D01*
X153026248Y-85302808D01*
X153505000Y-85398038D01*
X153983751Y-85302808D01*
X154389617Y-85031617D01*
X154660808Y-84625752D01*
X154732000Y-84267847D01*
X154732000Y-83626154D01*
X154660808Y-83268249D01*
X154389617Y-82862383D01*
X153983752Y-82591192D01*
X153505000Y-82495962D01*
X153026249Y-82591192D01*
X152620384Y-82862383D01*
X152349192Y-83268248D01*
X152278000Y-83626153D01*
X152192000Y-83626153D01*
X152120808Y-83268249D01*
X151849617Y-82862383D01*
X151443752Y-82591192D01*
X150965000Y-82495962D01*
X150486249Y-82591192D01*
X150080384Y-82862383D01*
X149809192Y-83268248D01*
X149738000Y-83626153D01*
X149652000Y-83626153D01*
X149580808Y-83268249D01*
X149309617Y-82862383D01*
X148903752Y-82591192D01*
X148425000Y-82495962D01*
X147946249Y-82591192D01*
X147540384Y-82862383D01*
X147269192Y-83268248D01*
X147198000Y-83626153D01*
X144572000Y-83626153D01*
X144500808Y-83268249D01*
X144229617Y-82862383D01*
X143823752Y-82591192D01*
X143345000Y-82495962D01*
X142866249Y-82591192D01*
X142460384Y-82862383D01*
X142189192Y-83268248D01*
X142118000Y-83626153D01*
X142032000Y-83626153D01*
X141960808Y-83268249D01*
X141689617Y-82862383D01*
X141283752Y-82591192D01*
X140805000Y-82495962D01*
X140326249Y-82591192D01*
X139920384Y-82862383D01*
X139649192Y-83268248D01*
X139578000Y-83626153D01*
X139492000Y-83626153D01*
X139420808Y-83268249D01*
X139149617Y-82862383D01*
X138743752Y-82591192D01*
X138265000Y-82495962D01*
X137786249Y-82591192D01*
X137380384Y-82862383D01*
X137109192Y-83268248D01*
X137038000Y-83626153D01*
X136952000Y-83626153D01*
X136880808Y-83268249D01*
X136609617Y-82862383D01*
X136203752Y-82591192D01*
X135725000Y-82495962D01*
X135246249Y-82591192D01*
X135077000Y-82704281D01*
X135077000Y-78854528D01*
X135118356Y-78813172D01*
X135229400Y-78545087D01*
X135229400Y-78254913D01*
X135118356Y-77986828D01*
X134913172Y-77781644D01*
X134645087Y-77670600D01*
X134354913Y-77670600D01*
X134086828Y-77781644D01*
X133881644Y-77986828D01*
X133770600Y-78254913D01*
X133770600Y-78545087D01*
X133881644Y-78813172D01*
X133923001Y-78854529D01*
X133923000Y-82764417D01*
X133663752Y-82591192D01*
X133185000Y-82495962D01*
X132706249Y-82591192D01*
X132477000Y-82744372D01*
X132477000Y-82539000D01*
X132886601Y-82129400D01*
X132945087Y-82129400D01*
X133213172Y-82018356D01*
X133418356Y-81813172D01*
X133529400Y-81545087D01*
X133529400Y-81254913D01*
X133418356Y-80986828D01*
X133213172Y-80781644D01*
X132945087Y-80670600D01*
X132654913Y-80670600D01*
X132386828Y-80781644D01*
X132181644Y-80986828D01*
X132070600Y-81254913D01*
X132070600Y-81313399D01*
X131532186Y-81851814D01*
X131484007Y-81884006D01*
X131394238Y-82018356D01*
X131356479Y-82074866D01*
X131311696Y-82300000D01*
X131323001Y-82356833D01*
X131323001Y-82724326D01*
X131123752Y-82591192D01*
X130645000Y-82495962D01*
X130166249Y-82591192D01*
X129760384Y-82862383D01*
X129489192Y-83268248D01*
X129468952Y-83370000D01*
X129209835Y-83370000D01*
X129153007Y-83358696D01*
X129096179Y-83370000D01*
X128927874Y-83403478D01*
X128737014Y-83531006D01*
X128704822Y-83579185D01*
X126634583Y-85649425D01*
X126613400Y-85670608D01*
X126554913Y-85670608D01*
X126286828Y-85781652D01*
X126081644Y-85986836D01*
X125970600Y-86254921D01*
X111318034Y-86254921D01*
X111317333Y-86251399D01*
X111289803Y-86210197D01*
X111248601Y-86182667D01*
X111200000Y-86173000D01*
X108927000Y-86173000D01*
X108927000Y-82754913D01*
X112020600Y-82754913D01*
X112020600Y-83045087D01*
X112131644Y-83313172D01*
X112336828Y-83518356D01*
X112604913Y-83629400D01*
X112895087Y-83629400D01*
X113163172Y-83518356D01*
X113204528Y-83477000D01*
X116497407Y-83477000D01*
X116386828Y-83522803D01*
X116181644Y-83727987D01*
X116070600Y-83996072D01*
X116070600Y-84054558D01*
X115802159Y-84323000D01*
X113204528Y-84323000D01*
X113163172Y-84281644D01*
X112895087Y-84170600D01*
X112604913Y-84170600D01*
X112336828Y-84281644D01*
X112131644Y-84486828D01*
X112020600Y-84754913D01*
X112020600Y-85045087D01*
X112131644Y-85313172D01*
X112336828Y-85518356D01*
X112604913Y-85629400D01*
X112895087Y-85629400D01*
X113163172Y-85518356D01*
X113204528Y-85477000D01*
X115984331Y-85477000D01*
X116041159Y-85488304D01*
X116097987Y-85477000D01*
X116097988Y-85477000D01*
X116266293Y-85443522D01*
X116457153Y-85315994D01*
X116489347Y-85267812D01*
X116857159Y-84900000D01*
X118258758Y-84900000D01*
X118315182Y-85183661D01*
X118475863Y-85424137D01*
X118716339Y-85584818D01*
X118928401Y-85627000D01*
X118949119Y-85627000D01*
X118954913Y-85629400D01*
X119245087Y-85629400D01*
X119250881Y-85627000D01*
X121128405Y-85627000D01*
X121200000Y-85641241D01*
X121271595Y-85627000D01*
X121271599Y-85627000D01*
X121483661Y-85584818D01*
X121724137Y-85424137D01*
X121764696Y-85363436D01*
X123262296Y-83865838D01*
X123262300Y-83865832D01*
X123407375Y-83720757D01*
X123413172Y-83718356D01*
X123618356Y-83513172D01*
X123651097Y-83434127D01*
X123684818Y-83383661D01*
X123696659Y-83324131D01*
X123729400Y-83245087D01*
X123729400Y-83159529D01*
X123741241Y-83100000D01*
X123729400Y-83040471D01*
X123729400Y-82954913D01*
X123696659Y-82875869D01*
X123684818Y-82816340D01*
X123651098Y-82765874D01*
X123618356Y-82686828D01*
X123557858Y-82626330D01*
X123524137Y-82575863D01*
X123473670Y-82542142D01*
X123413172Y-82481644D01*
X123334126Y-82448902D01*
X123283660Y-82415182D01*
X123224131Y-82403341D01*
X123145087Y-82370600D01*
X123059529Y-82370600D01*
X123000000Y-82358759D01*
X122940471Y-82370600D01*
X122854913Y-82370600D01*
X122775869Y-82403341D01*
X122716339Y-82415182D01*
X122665873Y-82448903D01*
X122586828Y-82481644D01*
X122381644Y-82686828D01*
X122379243Y-82692625D01*
X122234168Y-82837700D01*
X122234162Y-82837704D01*
X120898868Y-84173000D01*
X119250881Y-84173000D01*
X119245087Y-84170600D01*
X118954913Y-84170600D01*
X118949119Y-84173000D01*
X118928401Y-84173000D01*
X118716339Y-84215182D01*
X118475863Y-84375863D01*
X118315182Y-84616339D01*
X118258758Y-84900000D01*
X116857159Y-84900000D01*
X116886601Y-84870559D01*
X116945087Y-84870559D01*
X117213172Y-84759515D01*
X117418356Y-84554331D01*
X117529400Y-84286246D01*
X117529400Y-84179400D01*
X117745087Y-84179400D01*
X118013172Y-84068356D01*
X118218356Y-83863172D01*
X118329400Y-83595087D01*
X118329400Y-83304913D01*
X118218356Y-83036828D01*
X118013172Y-82831644D01*
X117745087Y-82720600D01*
X117686601Y-82720600D01*
X117498188Y-82532187D01*
X117465994Y-82484006D01*
X117275134Y-82356478D01*
X117106829Y-82323000D01*
X117106828Y-82323000D01*
X117050000Y-82311696D01*
X116993172Y-82323000D01*
X113204528Y-82323000D01*
X113163172Y-82281644D01*
X112895087Y-82170600D01*
X112604913Y-82170600D01*
X112336828Y-82281644D01*
X112131644Y-82486828D01*
X112020600Y-82754913D01*
X108927000Y-82754913D01*
X108927000Y-80900000D01*
X108917333Y-80851399D01*
X108889803Y-80810197D01*
X108848601Y-80782667D01*
X108800000Y-80773000D01*
X106827000Y-80773000D01*
X106827000Y-73756916D01*
X106934011Y-73756916D01*
X107403362Y-73562504D01*
X107762588Y-73203278D01*
X107957000Y-72733927D01*
X107957000Y-72225905D01*
X107762588Y-71756554D01*
X107403362Y-71397328D01*
X107300964Y-71354913D01*
X110370594Y-71354913D01*
X110370594Y-71645087D01*
X110481638Y-71913172D01*
X110686822Y-72118356D01*
X110954907Y-72229400D01*
X111245081Y-72229400D01*
X111423001Y-72155704D01*
X111423001Y-76176538D01*
X111412317Y-76176538D01*
X111144232Y-76287582D01*
X110939048Y-76492766D01*
X110828004Y-76760851D01*
X110828004Y-77051025D01*
X110939048Y-77319110D01*
X111144232Y-77524294D01*
X111412317Y-77635338D01*
X111702491Y-77635338D01*
X111970576Y-77524294D01*
X112175760Y-77319110D01*
X112286804Y-77051025D01*
X112286804Y-76992539D01*
X112367814Y-76911528D01*
X112415994Y-76879336D01*
X112543522Y-76688476D01*
X112577000Y-76520171D01*
X112588304Y-76463343D01*
X112577000Y-76406515D01*
X112577000Y-67604528D01*
X112618356Y-67563172D01*
X112729400Y-67295087D01*
X112729400Y-67004913D01*
X112618356Y-66736828D01*
X112413172Y-66531644D01*
X112145087Y-66420600D01*
X111854913Y-66420600D01*
X111586828Y-66531644D01*
X111550000Y-66568472D01*
X111513172Y-66531644D01*
X111245087Y-66420600D01*
X110954913Y-66420600D01*
X110686828Y-66531644D01*
X110481644Y-66736828D01*
X110370600Y-67004913D01*
X110370600Y-67295087D01*
X110481644Y-67563172D01*
X110523000Y-67604528D01*
X110523001Y-71045465D01*
X110481638Y-71086828D01*
X110370594Y-71354913D01*
X107300964Y-71354913D01*
X106988005Y-71225281D01*
X107530000Y-71225281D01*
X107696607Y-71192141D01*
X107837850Y-71097766D01*
X107932225Y-70956523D01*
X107965365Y-70789916D01*
X107965365Y-69089916D01*
X107932225Y-68923309D01*
X107837850Y-68782066D01*
X107696607Y-68687691D01*
X107530000Y-68654551D01*
X106827000Y-68654551D01*
X106827000Y-66809000D01*
X106934011Y-66809000D01*
X107403362Y-66614588D01*
X107762588Y-66255362D01*
X107950000Y-65802910D01*
X108137412Y-66255362D01*
X108496638Y-66614588D01*
X108965989Y-66809000D01*
X109474011Y-66809000D01*
X109943362Y-66614588D01*
X110302588Y-66255362D01*
X110497000Y-65786011D01*
X110497000Y-65277989D01*
X110302588Y-64808638D01*
X109943362Y-64449412D01*
X109474011Y-64255000D01*
X108965989Y-64255000D01*
X108496638Y-64449412D01*
X108137412Y-64808638D01*
X107950000Y-65261090D01*
X107762588Y-64808638D01*
X107403362Y-64449412D01*
X106950910Y-64262000D01*
X107403362Y-64074588D01*
X107762588Y-63715362D01*
X107957000Y-63246011D01*
X107957000Y-62737989D01*
X107762588Y-62268638D01*
X107403362Y-61909412D01*
X106934011Y-61715000D01*
X106827000Y-61715000D01*
X106827000Y-58173000D01*
X106934011Y-58173000D01*
X107403362Y-57978588D01*
X107762588Y-57619362D01*
X107950000Y-57166910D01*
X108137412Y-57619362D01*
X108137412Y-57619362D01*
G37*
X108137412Y-57619362D02*
X108496638Y-57978588D01*
X108965989Y-58173000D01*
X109474011Y-58173000D01*
X109620374Y-58112374D01*
X110175814Y-58667815D01*
X110208006Y-58715994D01*
X110398866Y-58843522D01*
X110567171Y-58877000D01*
X110567172Y-58877000D01*
X110624000Y-58888304D01*
X110680828Y-58877000D01*
X111473000Y-58877000D01*
X111473000Y-64400000D01*
X111482667Y-64448601D01*
X111510197Y-64489803D01*
X111551399Y-64517333D01*
X111600000Y-64527000D01*
X113473000Y-64527000D01*
X113473000Y-66200000D01*
X113482667Y-66248601D01*
X113510197Y-66289803D01*
X113551399Y-66317333D01*
X113600000Y-66327000D01*
X115080894Y-66327000D01*
X114844192Y-66681248D01*
X114748962Y-67160000D01*
X114844192Y-67638752D01*
X115115383Y-68044617D01*
X115521248Y-68315808D01*
X115879153Y-68387000D01*
X116520847Y-68387000D01*
X116878752Y-68315808D01*
X117284617Y-68044617D01*
X117555808Y-67638752D01*
X117651038Y-67160000D01*
X117555808Y-66681248D01*
X117319106Y-66327000D01*
X119600000Y-66327000D01*
X119648601Y-66317333D01*
X119689803Y-66289803D01*
X119717333Y-66248601D01*
X119727000Y-66200000D01*
X119727000Y-60727000D01*
X122173000Y-60727000D01*
X122173000Y-62673000D01*
X121600000Y-62673000D01*
X121551399Y-62682667D01*
X121510197Y-62710197D01*
X121482667Y-62751399D01*
X121473000Y-62800000D01*
X121473000Y-64800000D01*
X121482667Y-64848601D01*
X121510197Y-64889803D01*
X121551399Y-64917333D01*
X121600000Y-64927000D01*
X160173000Y-64927000D01*
X160173000Y-69248793D01*
X157608519Y-71911908D01*
X157581771Y-71953621D01*
X157573000Y-72000000D01*
X157573000Y-82073000D01*
X157300000Y-82073000D01*
X157251399Y-82082667D01*
X157210197Y-82110197D01*
X157182667Y-82151399D01*
X157173000Y-82200000D01*
X157173000Y-83226631D01*
X156929617Y-82862383D01*
X156523752Y-82591192D01*
X156045000Y-82495962D01*
X155566249Y-82591192D01*
X155160384Y-82862383D01*
X154889192Y-83268248D01*
X154818000Y-83626153D01*
X154818000Y-84267846D01*
X154889192Y-84625751D01*
X155160383Y-85031617D01*
X155566248Y-85302808D01*
X156045000Y-85398038D01*
X156523751Y-85302808D01*
X156929617Y-85031617D01*
X157173000Y-84667370D01*
X157173000Y-85400000D01*
X157182667Y-85448601D01*
X157218195Y-85497144D01*
X159118195Y-87097144D01*
X159161597Y-87121055D01*
X159200000Y-87127000D01*
X159808682Y-87127000D01*
X159808702Y-87127004D01*
X159808704Y-87127004D01*
X159900004Y-87145165D01*
X159991305Y-87127004D01*
X161191302Y-87127004D01*
X161191322Y-87127000D01*
X161900000Y-87127000D01*
X161948601Y-87117333D01*
X161989803Y-87089803D01*
X162017333Y-87048601D01*
X162027000Y-87000000D01*
X162027000Y-86291306D01*
X162045161Y-86200004D01*
X162027000Y-86108702D01*
X162027000Y-85427000D01*
X165173000Y-85427000D01*
X165173000Y-86448470D01*
X161846314Y-89873000D01*
X159900000Y-89873000D01*
X159851399Y-89882667D01*
X159810197Y-89910197D01*
X159782667Y-89951399D01*
X159773000Y-90000000D01*
X159773000Y-91050089D01*
X159740808Y-90888249D01*
X159469617Y-90482383D01*
X159063752Y-90211192D01*
X158585000Y-90115962D01*
X158106249Y-90211192D01*
X157700384Y-90482383D01*
X157429192Y-90888248D01*
X157358000Y-91246153D01*
X157358000Y-91887846D01*
X157429192Y-92245751D01*
X157700383Y-92651617D01*
X158106248Y-92922808D01*
X158585000Y-93018038D01*
X159063751Y-92922808D01*
X159469617Y-92651617D01*
X159740808Y-92245752D01*
X159773000Y-92083912D01*
X159773000Y-92900000D01*
X159782667Y-92948601D01*
X159810197Y-92989803D01*
X159851399Y-93017333D01*
X159900000Y-93027000D01*
X165800000Y-93027000D01*
X165848601Y-93017333D01*
X165889803Y-92989803D01*
X165917333Y-92948601D01*
X165927000Y-92900000D01*
X165927000Y-90727000D01*
X169573000Y-90727000D01*
X169573000Y-103573000D01*
X164027000Y-103573000D01*
X164027000Y-102402682D01*
X164215384Y-102684617D01*
X164621249Y-102955808D01*
X165100000Y-103051038D01*
X165578752Y-102955808D01*
X165984617Y-102684617D01*
X166255808Y-102278751D01*
X166327000Y-101920846D01*
X166327000Y-101279153D01*
X166255808Y-100921248D01*
X165984617Y-100515383D01*
X165578751Y-100244192D01*
X165100000Y-100148962D01*
X164621248Y-100244192D01*
X164215383Y-100515383D01*
X164027000Y-100797318D01*
X164027000Y-95600000D01*
X164017333Y-95551399D01*
X163989803Y-95510197D01*
X163948601Y-95482667D01*
X163900000Y-95473000D01*
X156200000Y-95473000D01*
X156151399Y-95482667D01*
X156108307Y-95512128D01*
X153845805Y-97873000D01*
X138449655Y-97873000D01*
X137186142Y-96706680D01*
X137143872Y-96680819D01*
X137100000Y-96673000D01*
X131951981Y-96673000D01*
X126433154Y-91246153D01*
X129418000Y-91246153D01*
X129418000Y-91887846D01*
X129489192Y-92245751D01*
X129760383Y-92651617D01*
X130166248Y-92922808D01*
X130645000Y-93018038D01*
X131123751Y-92922808D01*
X131529617Y-92651617D01*
X131800808Y-92245752D01*
X131872000Y-91887847D01*
X131872000Y-91246154D01*
X131872000Y-91246153D01*
X131958000Y-91246153D01*
X131958000Y-91887846D01*
X132029192Y-92245751D01*
X132300383Y-92651617D01*
X132706248Y-92922808D01*
X133185000Y-93018038D01*
X133663751Y-92922808D01*
X134069617Y-92651617D01*
X134340808Y-92245752D01*
X134412000Y-91887847D01*
X134412000Y-91246154D01*
X134412000Y-91246153D01*
X134498000Y-91246153D01*
X134498000Y-91887846D01*
X134569192Y-92245751D01*
X134840383Y-92651617D01*
X135246248Y-92922808D01*
X135725000Y-93018038D01*
X136203751Y-92922808D01*
X136609617Y-92651617D01*
X136880808Y-92245752D01*
X136952000Y-91887847D01*
X136952000Y-91246154D01*
X136952000Y-91246153D01*
X137038000Y-91246153D01*
X137038000Y-91887846D01*
X137109192Y-92245751D01*
X137380383Y-92651617D01*
X137786248Y-92922808D01*
X138265000Y-93018038D01*
X138743751Y-92922808D01*
X139149617Y-92651617D01*
X139420808Y-92245752D01*
X139492000Y-91887847D01*
X139492000Y-91246154D01*
X139492000Y-91246153D01*
X139578000Y-91246153D01*
X139578000Y-91887846D01*
X139649192Y-92245751D01*
X139920383Y-92651617D01*
X140326248Y-92922808D01*
X140805000Y-93018038D01*
X141283751Y-92922808D01*
X141689617Y-92651617D01*
X141960808Y-92245752D01*
X142032000Y-91887847D01*
X142032000Y-91246154D01*
X142032000Y-91246153D01*
X142118000Y-91246153D01*
X142118000Y-91887846D01*
X142189192Y-92245751D01*
X142460383Y-92651617D01*
X142866248Y-92922808D01*
X143345000Y-93018038D01*
X143823751Y-92922808D01*
X144229617Y-92651617D01*
X144500808Y-92245752D01*
X144572000Y-91887847D01*
X144572000Y-91246154D01*
X144572000Y-91246153D01*
X144658000Y-91246153D01*
X144658000Y-91887846D01*
X144729192Y-92245751D01*
X145000383Y-92651617D01*
X145406248Y-92922808D01*
X145885000Y-93018038D01*
X146363751Y-92922808D01*
X146769617Y-92651617D01*
X147040808Y-92245752D01*
X147112000Y-91887847D01*
X147112000Y-91246154D01*
X147040808Y-90888249D01*
X146769617Y-90482383D01*
X146363752Y-90211192D01*
X145885000Y-90115962D01*
X145406249Y-90211192D01*
X145000384Y-90482383D01*
X144729192Y-90888248D01*
X144658000Y-91246153D01*
X144572000Y-91246153D01*
X144500808Y-90888249D01*
X144229617Y-90482383D01*
X143823752Y-90211192D01*
X143345000Y-90115962D01*
X142866249Y-90211192D01*
X142460384Y-90482383D01*
X142189192Y-90888248D01*
X142118000Y-91246153D01*
X142032000Y-91246153D01*
X141960808Y-90888249D01*
X141689617Y-90482383D01*
X141283752Y-90211192D01*
X140805000Y-90115962D01*
X140326249Y-90211192D01*
X139920384Y-90482383D01*
X139649192Y-90888248D01*
X139578000Y-91246153D01*
X139492000Y-91246153D01*
X139420808Y-90888249D01*
X139149617Y-90482383D01*
X138743752Y-90211192D01*
X138265000Y-90115962D01*
X137786249Y-90211192D01*
X137380384Y-90482383D01*
X137109192Y-90888248D01*
X137038000Y-91246153D01*
X136952000Y-91246153D01*
X136880808Y-90888249D01*
X136609617Y-90482383D01*
X136203752Y-90211192D01*
X135725000Y-90115962D01*
X135246249Y-90211192D01*
X134840384Y-90482383D01*
X134569192Y-90888248D01*
X134498000Y-91246153D01*
X134412000Y-91246153D01*
X134340808Y-90888249D01*
X134069617Y-90482383D01*
X133663752Y-90211192D01*
X133185000Y-90115962D01*
X132706249Y-90211192D01*
X132300384Y-90482383D01*
X132029192Y-90888248D01*
X131958000Y-91246153D01*
X131872000Y-91246153D01*
X131800808Y-90888249D01*
X131529617Y-90482383D01*
X131123752Y-90211192D01*
X130645000Y-90115962D01*
X130166249Y-90211192D01*
X129760384Y-90482383D01*
X129489192Y-90888248D01*
X129418000Y-91246153D01*
X126433154Y-91246153D01*
X125989045Y-90809446D01*
X125947613Y-90782263D01*
X125900000Y-90773000D01*
X118227000Y-90773000D01*
X118227000Y-90400000D01*
X118217333Y-90351399D01*
X118189803Y-90310197D01*
X118148601Y-90282667D01*
X118100000Y-90273000D01*
X117558104Y-90273000D01*
X117480697Y-90240937D01*
X117190523Y-90240937D01*
X117113116Y-90273000D01*
X111327000Y-90273000D01*
X111327000Y-86300000D01*
X111318034Y-86254921D01*
X125970600Y-86254921D01*
X125970600Y-86545095D01*
X126081644Y-86813180D01*
X126286828Y-87018364D01*
X126554913Y-87129408D01*
X126845087Y-87129408D01*
X127113172Y-87018364D01*
X127318356Y-86813180D01*
X127429400Y-86545095D01*
X127429400Y-86486608D01*
X127450583Y-86465425D01*
X129392009Y-84524000D01*
X129468952Y-84524000D01*
X129489192Y-84625751D01*
X129760383Y-85031617D01*
X130166248Y-85302808D01*
X130645000Y-85398038D01*
X131123751Y-85302808D01*
X131323000Y-85169674D01*
X131323000Y-86945472D01*
X131281644Y-86986828D01*
X131170600Y-87254913D01*
X131170600Y-87545087D01*
X131281644Y-87813172D01*
X131486828Y-88018356D01*
X131754913Y-88129400D01*
X132045087Y-88129400D01*
X132313172Y-88018356D01*
X132518356Y-87813172D01*
X132629400Y-87545087D01*
X132629400Y-87254913D01*
X132518356Y-86986828D01*
X132477000Y-86945472D01*
X132477000Y-85149629D01*
X132706248Y-85302808D01*
X133185000Y-85398038D01*
X133663751Y-85302808D01*
X133923000Y-85129583D01*
X133923000Y-86945472D01*
X133881644Y-86986828D01*
X133770600Y-87254913D01*
X133770600Y-87545087D01*
X133881644Y-87813172D01*
X134086828Y-88018356D01*
X134354913Y-88129400D01*
X134645087Y-88129400D01*
X134913172Y-88018356D01*
X135118356Y-87813172D01*
X135123811Y-87800000D01*
X146273000Y-87800000D01*
X146273000Y-88500000D01*
X146305503Y-88663406D01*
X146398065Y-88801935D01*
X146536594Y-88894497D01*
X146700000Y-88927000D01*
X149173000Y-88927000D01*
X149173000Y-94049119D01*
X149170600Y-94054913D01*
X149170600Y-94345087D01*
X149173000Y-94350881D01*
X149173000Y-94400000D01*
X149233851Y-94619690D01*
X149345794Y-94743086D01*
X149470443Y-94801971D01*
X149486828Y-94818356D01*
X149754913Y-94929400D01*
X150045087Y-94929400D01*
X150050881Y-94927000D01*
X152200000Y-94927000D01*
X152363406Y-94894497D01*
X152501935Y-94801935D01*
X152594497Y-94663406D01*
X152627000Y-94500000D01*
X152627000Y-92656038D01*
X153026248Y-92922808D01*
X153505000Y-93018038D01*
X153983751Y-92922808D01*
X154389617Y-92651617D01*
X154660808Y-92245752D01*
X154732000Y-91887847D01*
X154732000Y-91246154D01*
X154732000Y-91246153D01*
X154818000Y-91246153D01*
X154818000Y-91887846D01*
X154889192Y-92245751D01*
X155160383Y-92651617D01*
X155566248Y-92922808D01*
X156045000Y-93018038D01*
X156523751Y-92922808D01*
X156929617Y-92651617D01*
X157200808Y-92245752D01*
X157272000Y-91887847D01*
X157272000Y-91246154D01*
X157200808Y-90888249D01*
X156929617Y-90482383D01*
X156523752Y-90211192D01*
X156045000Y-90115962D01*
X155566249Y-90211192D01*
X155160384Y-90482383D01*
X154889192Y-90888248D01*
X154818000Y-91246153D01*
X154732000Y-91246153D01*
X154660808Y-90888249D01*
X154389617Y-90482383D01*
X153983752Y-90211192D01*
X153505000Y-90115962D01*
X153026249Y-90211192D01*
X152627000Y-90477962D01*
X152627000Y-87800000D01*
X152594497Y-87636594D01*
X152501935Y-87498065D01*
X152363406Y-87405503D01*
X152200000Y-87373000D01*
X146700000Y-87373000D01*
X146536594Y-87405503D01*
X146398065Y-87498065D01*
X146305503Y-87636594D01*
X146273000Y-87800000D01*
X135123811Y-87800000D01*
X135229400Y-87545087D01*
X135229400Y-87254913D01*
X135118356Y-86986828D01*
X135077000Y-86945472D01*
X135077000Y-85189720D01*
X135246248Y-85302808D01*
X135725000Y-85398038D01*
X136203751Y-85302808D01*
X136609617Y-85031617D01*
X136880808Y-84625752D01*
X136952000Y-84267847D01*
X136952000Y-83626154D01*
X136952000Y-83626153D01*
X137038000Y-83626153D01*
X137038000Y-84267846D01*
X137109192Y-84625751D01*
X137380383Y-85031617D01*
X137786248Y-85302808D01*
X138265000Y-85398038D01*
X138743751Y-85302808D01*
X139149617Y-85031617D01*
X139420808Y-84625752D01*
X139492000Y-84267847D01*
X139492000Y-83626154D01*
X139492000Y-83626153D01*
X139578000Y-83626153D01*
X139578000Y-84267846D01*
X139649192Y-84625751D01*
X139920383Y-85031617D01*
X140326248Y-85302808D01*
X140805000Y-85398038D01*
X141283751Y-85302808D01*
X141689617Y-85031617D01*
X141960808Y-84625752D01*
X142032000Y-84267847D01*
X142032000Y-83626154D01*
X142032000Y-83626153D01*
X142118000Y-83626153D01*
X142118000Y-84267846D01*
X142189192Y-84625751D01*
X142460383Y-85031617D01*
X142866248Y-85302808D01*
X143345000Y-85398038D01*
X143823751Y-85302808D01*
X144229617Y-85031617D01*
X144500808Y-84625752D01*
X144572000Y-84267847D01*
X144572000Y-83626154D01*
X144572000Y-83626153D01*
X147198000Y-83626153D01*
X147198000Y-84267846D01*
X147269192Y-84625751D01*
X147540383Y-85031617D01*
X147946248Y-85302808D01*
X148425000Y-85398038D01*
X148903751Y-85302808D01*
X149309617Y-85031617D01*
X149580808Y-84625752D01*
X149652000Y-84267847D01*
X149652000Y-83626154D01*
X149652000Y-83626153D01*
X149738000Y-83626153D01*
X149738000Y-84267846D01*
X149809192Y-84625751D01*
X150080383Y-85031617D01*
X150486248Y-85302808D01*
X150965000Y-85398038D01*
X151443751Y-85302808D01*
X151849617Y-85031617D01*
X152120808Y-84625752D01*
X152192000Y-84267847D01*
X152192000Y-83626154D01*
X152192000Y-83626153D01*
X152278000Y-83626153D01*
X152278000Y-84267846D01*
X152349192Y-84625751D01*
X152620383Y-85031617D01*
X153026248Y-85302808D01*
X153505000Y-85398038D01*
X153983751Y-85302808D01*
X154389617Y-85031617D01*
X154660808Y-84625752D01*
X154732000Y-84267847D01*
X154732000Y-83626154D01*
X154660808Y-83268249D01*
X154389617Y-82862383D01*
X153983752Y-82591192D01*
X153505000Y-82495962D01*
X153026249Y-82591192D01*
X152620384Y-82862383D01*
X152349192Y-83268248D01*
X152278000Y-83626153D01*
X152192000Y-83626153D01*
X152120808Y-83268249D01*
X151849617Y-82862383D01*
X151443752Y-82591192D01*
X150965000Y-82495962D01*
X150486249Y-82591192D01*
X150080384Y-82862383D01*
X149809192Y-83268248D01*
X149738000Y-83626153D01*
X149652000Y-83626153D01*
X149580808Y-83268249D01*
X149309617Y-82862383D01*
X148903752Y-82591192D01*
X148425000Y-82495962D01*
X147946249Y-82591192D01*
X147540384Y-82862383D01*
X147269192Y-83268248D01*
X147198000Y-83626153D01*
X144572000Y-83626153D01*
X144500808Y-83268249D01*
X144229617Y-82862383D01*
X143823752Y-82591192D01*
X143345000Y-82495962D01*
X142866249Y-82591192D01*
X142460384Y-82862383D01*
X142189192Y-83268248D01*
X142118000Y-83626153D01*
X142032000Y-83626153D01*
X141960808Y-83268249D01*
X141689617Y-82862383D01*
X141283752Y-82591192D01*
X140805000Y-82495962D01*
X140326249Y-82591192D01*
X139920384Y-82862383D01*
X139649192Y-83268248D01*
X139578000Y-83626153D01*
X139492000Y-83626153D01*
X139420808Y-83268249D01*
X139149617Y-82862383D01*
X138743752Y-82591192D01*
X138265000Y-82495962D01*
X137786249Y-82591192D01*
X137380384Y-82862383D01*
X137109192Y-83268248D01*
X137038000Y-83626153D01*
X136952000Y-83626153D01*
X136880808Y-83268249D01*
X136609617Y-82862383D01*
X136203752Y-82591192D01*
X135725000Y-82495962D01*
X135246249Y-82591192D01*
X135077000Y-82704281D01*
X135077000Y-78854528D01*
X135118356Y-78813172D01*
X135229400Y-78545087D01*
X135229400Y-78254913D01*
X135118356Y-77986828D01*
X134913172Y-77781644D01*
X134645087Y-77670600D01*
X134354913Y-77670600D01*
X134086828Y-77781644D01*
X133881644Y-77986828D01*
X133770600Y-78254913D01*
X133770600Y-78545087D01*
X133881644Y-78813172D01*
X133923001Y-78854529D01*
X133923000Y-82764417D01*
X133663752Y-82591192D01*
X133185000Y-82495962D01*
X132706249Y-82591192D01*
X132477000Y-82744372D01*
X132477000Y-82539000D01*
X132886601Y-82129400D01*
X132945087Y-82129400D01*
X133213172Y-82018356D01*
X133418356Y-81813172D01*
X133529400Y-81545087D01*
X133529400Y-81254913D01*
X133418356Y-80986828D01*
X133213172Y-80781644D01*
X132945087Y-80670600D01*
X132654913Y-80670600D01*
X132386828Y-80781644D01*
X132181644Y-80986828D01*
X132070600Y-81254913D01*
X132070600Y-81313399D01*
X131532186Y-81851814D01*
X131484007Y-81884006D01*
X131394238Y-82018356D01*
X131356479Y-82074866D01*
X131311696Y-82300000D01*
X131323001Y-82356833D01*
X131323001Y-82724326D01*
X131123752Y-82591192D01*
X130645000Y-82495962D01*
X130166249Y-82591192D01*
X129760384Y-82862383D01*
X129489192Y-83268248D01*
X129468952Y-83370000D01*
X129209835Y-83370000D01*
X129153007Y-83358696D01*
X129096179Y-83370000D01*
X128927874Y-83403478D01*
X128737014Y-83531006D01*
X128704822Y-83579185D01*
X126634583Y-85649425D01*
X126613400Y-85670608D01*
X126554913Y-85670608D01*
X126286828Y-85781652D01*
X126081644Y-85986836D01*
X125970600Y-86254921D01*
X111318034Y-86254921D01*
X111317333Y-86251399D01*
X111289803Y-86210197D01*
X111248601Y-86182667D01*
X111200000Y-86173000D01*
X108927000Y-86173000D01*
X108927000Y-82754913D01*
X112020600Y-82754913D01*
X112020600Y-83045087D01*
X112131644Y-83313172D01*
X112336828Y-83518356D01*
X112604913Y-83629400D01*
X112895087Y-83629400D01*
X113163172Y-83518356D01*
X113204528Y-83477000D01*
X116497407Y-83477000D01*
X116386828Y-83522803D01*
X116181644Y-83727987D01*
X116070600Y-83996072D01*
X116070600Y-84054558D01*
X115802159Y-84323000D01*
X113204528Y-84323000D01*
X113163172Y-84281644D01*
X112895087Y-84170600D01*
X112604913Y-84170600D01*
X112336828Y-84281644D01*
X112131644Y-84486828D01*
X112020600Y-84754913D01*
X112020600Y-85045087D01*
X112131644Y-85313172D01*
X112336828Y-85518356D01*
X112604913Y-85629400D01*
X112895087Y-85629400D01*
X113163172Y-85518356D01*
X113204528Y-85477000D01*
X115984331Y-85477000D01*
X116041159Y-85488304D01*
X116097987Y-85477000D01*
X116097988Y-85477000D01*
X116266293Y-85443522D01*
X116457153Y-85315994D01*
X116489347Y-85267812D01*
X116857159Y-84900000D01*
X118258758Y-84900000D01*
X118315182Y-85183661D01*
X118475863Y-85424137D01*
X118716339Y-85584818D01*
X118928401Y-85627000D01*
X118949119Y-85627000D01*
X118954913Y-85629400D01*
X119245087Y-85629400D01*
X119250881Y-85627000D01*
X121128405Y-85627000D01*
X121200000Y-85641241D01*
X121271595Y-85627000D01*
X121271599Y-85627000D01*
X121483661Y-85584818D01*
X121724137Y-85424137D01*
X121764696Y-85363436D01*
X123262296Y-83865838D01*
X123262300Y-83865832D01*
X123407375Y-83720757D01*
X123413172Y-83718356D01*
X123618356Y-83513172D01*
X123651097Y-83434127D01*
X123684818Y-83383661D01*
X123696659Y-83324131D01*
X123729400Y-83245087D01*
X123729400Y-83159529D01*
X123741241Y-83100000D01*
X123729400Y-83040471D01*
X123729400Y-82954913D01*
X123696659Y-82875869D01*
X123684818Y-82816340D01*
X123651098Y-82765874D01*
X123618356Y-82686828D01*
X123557858Y-82626330D01*
X123524137Y-82575863D01*
X123473670Y-82542142D01*
X123413172Y-82481644D01*
X123334126Y-82448902D01*
X123283660Y-82415182D01*
X123224131Y-82403341D01*
X123145087Y-82370600D01*
X123059529Y-82370600D01*
X123000000Y-82358759D01*
X122940471Y-82370600D01*
X122854913Y-82370600D01*
X122775869Y-82403341D01*
X122716339Y-82415182D01*
X122665873Y-82448903D01*
X122586828Y-82481644D01*
X122381644Y-82686828D01*
X122379243Y-82692625D01*
X122234168Y-82837700D01*
X122234162Y-82837704D01*
X120898868Y-84173000D01*
X119250881Y-84173000D01*
X119245087Y-84170600D01*
X118954913Y-84170600D01*
X118949119Y-84173000D01*
X118928401Y-84173000D01*
X118716339Y-84215182D01*
X118475863Y-84375863D01*
X118315182Y-84616339D01*
X118258758Y-84900000D01*
X116857159Y-84900000D01*
X116886601Y-84870559D01*
X116945087Y-84870559D01*
X117213172Y-84759515D01*
X117418356Y-84554331D01*
X117529400Y-84286246D01*
X117529400Y-84179400D01*
X117745087Y-84179400D01*
X118013172Y-84068356D01*
X118218356Y-83863172D01*
X118329400Y-83595087D01*
X118329400Y-83304913D01*
X118218356Y-83036828D01*
X118013172Y-82831644D01*
X117745087Y-82720600D01*
X117686601Y-82720600D01*
X117498188Y-82532187D01*
X117465994Y-82484006D01*
X117275134Y-82356478D01*
X117106829Y-82323000D01*
X117106828Y-82323000D01*
X117050000Y-82311696D01*
X116993172Y-82323000D01*
X113204528Y-82323000D01*
X113163172Y-82281644D01*
X112895087Y-82170600D01*
X112604913Y-82170600D01*
X112336828Y-82281644D01*
X112131644Y-82486828D01*
X112020600Y-82754913D01*
X108927000Y-82754913D01*
X108927000Y-80900000D01*
X108917333Y-80851399D01*
X108889803Y-80810197D01*
X108848601Y-80782667D01*
X108800000Y-80773000D01*
X106827000Y-80773000D01*
X106827000Y-73756916D01*
X106934011Y-73756916D01*
X107403362Y-73562504D01*
X107762588Y-73203278D01*
X107957000Y-72733927D01*
X107957000Y-72225905D01*
X107762588Y-71756554D01*
X107403362Y-71397328D01*
X107300964Y-71354913D01*
X110370594Y-71354913D01*
X110370594Y-71645087D01*
X110481638Y-71913172D01*
X110686822Y-72118356D01*
X110954907Y-72229400D01*
X111245081Y-72229400D01*
X111423001Y-72155704D01*
X111423001Y-76176538D01*
X111412317Y-76176538D01*
X111144232Y-76287582D01*
X110939048Y-76492766D01*
X110828004Y-76760851D01*
X110828004Y-77051025D01*
X110939048Y-77319110D01*
X111144232Y-77524294D01*
X111412317Y-77635338D01*
X111702491Y-77635338D01*
X111970576Y-77524294D01*
X112175760Y-77319110D01*
X112286804Y-77051025D01*
X112286804Y-76992539D01*
X112367814Y-76911528D01*
X112415994Y-76879336D01*
X112543522Y-76688476D01*
X112577000Y-76520171D01*
X112588304Y-76463343D01*
X112577000Y-76406515D01*
X112577000Y-67604528D01*
X112618356Y-67563172D01*
X112729400Y-67295087D01*
X112729400Y-67004913D01*
X112618356Y-66736828D01*
X112413172Y-66531644D01*
X112145087Y-66420600D01*
X111854913Y-66420600D01*
X111586828Y-66531644D01*
X111550000Y-66568472D01*
X111513172Y-66531644D01*
X111245087Y-66420600D01*
X110954913Y-66420600D01*
X110686828Y-66531644D01*
X110481644Y-66736828D01*
X110370600Y-67004913D01*
X110370600Y-67295087D01*
X110481644Y-67563172D01*
X110523000Y-67604528D01*
X110523001Y-71045465D01*
X110481638Y-71086828D01*
X110370594Y-71354913D01*
X107300964Y-71354913D01*
X106988005Y-71225281D01*
X107530000Y-71225281D01*
X107696607Y-71192141D01*
X107837850Y-71097766D01*
X107932225Y-70956523D01*
X107965365Y-70789916D01*
X107965365Y-69089916D01*
X107932225Y-68923309D01*
X107837850Y-68782066D01*
X107696607Y-68687691D01*
X107530000Y-68654551D01*
X106827000Y-68654551D01*
X106827000Y-66809000D01*
X106934011Y-66809000D01*
X107403362Y-66614588D01*
X107762588Y-66255362D01*
X107950000Y-65802910D01*
X108137412Y-66255362D01*
X108496638Y-66614588D01*
X108965989Y-66809000D01*
X109474011Y-66809000D01*
X109943362Y-66614588D01*
X110302588Y-66255362D01*
X110497000Y-65786011D01*
X110497000Y-65277989D01*
X110302588Y-64808638D01*
X109943362Y-64449412D01*
X109474011Y-64255000D01*
X108965989Y-64255000D01*
X108496638Y-64449412D01*
X108137412Y-64808638D01*
X107950000Y-65261090D01*
X107762588Y-64808638D01*
X107403362Y-64449412D01*
X106950910Y-64262000D01*
X107403362Y-64074588D01*
X107762588Y-63715362D01*
X107957000Y-63246011D01*
X107957000Y-62737989D01*
X107762588Y-62268638D01*
X107403362Y-61909412D01*
X106934011Y-61715000D01*
X106827000Y-61715000D01*
X106827000Y-58173000D01*
X106934011Y-58173000D01*
X107403362Y-57978588D01*
X107762588Y-57619362D01*
X107950000Y-57166910D01*
X108137412Y-57619362D01*
G36*
X111473000Y-57723000D02*
X110863001Y-57723000D01*
X110436374Y-57296374D01*
X110497000Y-57150011D01*
X110497000Y-56641989D01*
X110302588Y-56172638D01*
X109943362Y-55813412D01*
X109474011Y-55619000D01*
X108965989Y-55619000D01*
X108496638Y-55813412D01*
X108137412Y-56172638D01*
X107950000Y-56625090D01*
X107762588Y-56172638D01*
X107403362Y-55813412D01*
X106950910Y-55626000D01*
X107403362Y-55438588D01*
X107762588Y-55079362D01*
X107957000Y-54610011D01*
X107957000Y-54101989D01*
X107762588Y-53632638D01*
X107403362Y-53273412D01*
X106934011Y-53079000D01*
X106827000Y-53079000D01*
X106827000Y-52900000D01*
X106817333Y-52851399D01*
X106789803Y-52810197D01*
X106748601Y-52782667D01*
X106700000Y-52773000D01*
X102127000Y-52773000D01*
X102127000Y-51327000D01*
X111473000Y-51327000D01*
X111473000Y-57723000D01*
X111473000Y-57723000D01*
G37*
X111473000Y-57723000D02*
X110863001Y-57723000D01*
X110436374Y-57296374D01*
X110497000Y-57150011D01*
X110497000Y-56641989D01*
X110302588Y-56172638D01*
X109943362Y-55813412D01*
X109474011Y-55619000D01*
X108965989Y-55619000D01*
X108496638Y-55813412D01*
X108137412Y-56172638D01*
X107950000Y-56625090D01*
X107762588Y-56172638D01*
X107403362Y-55813412D01*
X106950910Y-55626000D01*
X107403362Y-55438588D01*
X107762588Y-55079362D01*
X107957000Y-54610011D01*
X107957000Y-54101989D01*
X107762588Y-53632638D01*
X107403362Y-53273412D01*
X106934011Y-53079000D01*
X106827000Y-53079000D01*
X106827000Y-52900000D01*
X106817333Y-52851399D01*
X106789803Y-52810197D01*
X106748601Y-52782667D01*
X106700000Y-52773000D01*
X102127000Y-52773000D01*
X102127000Y-51327000D01*
X111473000Y-51327000D01*
X111473000Y-57723000D01*
G04 #@! TO.N,/+5_3V3_328P_VCC*
G36*
X152073000Y-90816699D02*
X151849617Y-90482383D01*
X151443752Y-90211192D01*
X150965000Y-90115962D01*
X150486249Y-90211192D01*
X150080384Y-90482383D01*
X149809192Y-90888248D01*
X149738000Y-91246153D01*
X149738000Y-91887846D01*
X149809192Y-92245751D01*
X150080383Y-92651617D01*
X150486248Y-92922808D01*
X150965000Y-93018038D01*
X151443751Y-92922808D01*
X151849617Y-92651617D01*
X152073000Y-92317302D01*
X152073000Y-94373000D01*
X150015634Y-94373000D01*
X149727000Y-94300842D01*
X149727000Y-88500000D01*
X149717333Y-88451399D01*
X149689803Y-88410197D01*
X149648601Y-88382667D01*
X149600000Y-88373000D01*
X146827000Y-88373000D01*
X146827000Y-87927000D01*
X152073000Y-87927000D01*
X152073000Y-90816699D01*
X152073000Y-90816699D01*
G37*
X152073000Y-90816699D02*
X151849617Y-90482383D01*
X151443752Y-90211192D01*
X150965000Y-90115962D01*
X150486249Y-90211192D01*
X150080384Y-90482383D01*
X149809192Y-90888248D01*
X149738000Y-91246153D01*
X149738000Y-91887846D01*
X149809192Y-92245751D01*
X150080383Y-92651617D01*
X150486248Y-92922808D01*
X150965000Y-93018038D01*
X151443751Y-92922808D01*
X151849617Y-92651617D01*
X152073000Y-92317302D01*
X152073000Y-94373000D01*
X150015634Y-94373000D01*
X149727000Y-94300842D01*
X149727000Y-88500000D01*
X149717333Y-88451399D01*
X149689803Y-88410197D01*
X149648601Y-88382667D01*
X149600000Y-88373000D01*
X146827000Y-88373000D01*
X146827000Y-87927000D01*
X152073000Y-87927000D01*
X152073000Y-90816699D01*
G04 #@! TD*
M02*
