G04 #@! TF.GenerationSoftware,KiCad,Pcbnew,(5.0.0-3-g5ebb6b6)*
G04 #@! TF.CreationDate,2018-09-25T22:11:26+10:00*
G04 #@! TF.ProjectId,arduinouno,61726475696E6F756E6F2E6B69636164,rev?*
G04 #@! TF.SameCoordinates,Original*
G04 #@! TF.FileFunction,Copper,L1,Top,Signal*
G04 #@! TF.FilePolarity,Positive*
%FSLAX46Y46*%
G04 Gerber Fmt 4.6, Leading zero omitted, Abs format (unit mm)*
G04 Created by KiCad (PCBNEW (5.0.0-3-g5ebb6b6)) date Tuesday, 25 September 2018 at 10:11:26 PM*
%MOMM*%
%LPD*%
G01*
G04 APERTURE LIST*
G04 #@! TA.AperFunction,ComponentPad*
%ADD10C,1.900000*%
G04 #@! TD*
G04 #@! TA.AperFunction,ComponentPad*
%ADD11R,1.900000X1.900000*%
G04 #@! TD*
G04 #@! TA.AperFunction,SMDPad,CuDef*
%ADD12R,1.300000X0.700000*%
G04 #@! TD*
G04 #@! TA.AperFunction,SMDPad,CuDef*
%ADD13R,2.600000X2.500000*%
G04 #@! TD*
G04 #@! TA.AperFunction,ComponentPad*
%ADD14O,1.600000X2.000000*%
G04 #@! TD*
G04 #@! TA.AperFunction,ComponentPad*
%ADD15R,1.600000X2.000000*%
G04 #@! TD*
G04 #@! TA.AperFunction,SMDPad,CuDef*
%ADD16R,1.600000X3.000000*%
G04 #@! TD*
G04 #@! TA.AperFunction,SMDPad,CuDef*
%ADD17R,0.700000X1.300000*%
G04 #@! TD*
G04 #@! TA.AperFunction,SMDPad,CuDef*
%ADD18R,0.800000X0.800000*%
G04 #@! TD*
G04 #@! TA.AperFunction,SMDPad,CuDef*
%ADD19R,0.830000X0.630000*%
G04 #@! TD*
G04 #@! TA.AperFunction,SMDPad,CuDef*
%ADD20R,0.630000X0.830000*%
G04 #@! TD*
G04 #@! TA.AperFunction,BGAPad,CuDef*
%ADD21C,1.016000*%
G04 #@! TD*
G04 #@! TA.AperFunction,ComponentPad*
%ADD22C,1.700000*%
G04 #@! TD*
G04 #@! TA.AperFunction,ComponentPad*
%ADD23R,1.700000X1.700000*%
G04 #@! TD*
G04 #@! TA.AperFunction,ComponentPad*
%ADD24O,2.000000X1.200000*%
G04 #@! TD*
G04 #@! TA.AperFunction,SMDPad,CuDef*
%ADD25R,1.900000X1.900000*%
G04 #@! TD*
G04 #@! TA.AperFunction,SMDPad,CuDef*
%ADD26R,1.400000X1.600000*%
G04 #@! TD*
G04 #@! TA.AperFunction,SMDPad,CuDef*
%ADD27R,1.350000X0.400000*%
G04 #@! TD*
G04 #@! TA.AperFunction,ComponentPad*
%ADD28C,4.000000*%
G04 #@! TD*
G04 #@! TA.AperFunction,ComponentPad*
%ADD29O,2.000000X1.600000*%
G04 #@! TD*
G04 #@! TA.AperFunction,ComponentPad*
%ADD30R,2.000000X1.600000*%
G04 #@! TD*
G04 #@! TA.AperFunction,SMDPad,CuDef*
%ADD31R,2.700000X2.000000*%
G04 #@! TD*
G04 #@! TA.AperFunction,ComponentPad*
%ADD32C,7.400000*%
G04 #@! TD*
G04 #@! TA.AperFunction,SMDPad,CuDef*
%ADD33R,0.550000X1.500000*%
G04 #@! TD*
G04 #@! TA.AperFunction,SMDPad,CuDef*
%ADD34R,1.500000X0.550000*%
G04 #@! TD*
G04 #@! TA.AperFunction,SMDPad,CuDef*
%ADD35R,3.500000X2.200000*%
G04 #@! TD*
G04 #@! TA.AperFunction,SMDPad,CuDef*
%ADD36R,0.600000X2.200000*%
G04 #@! TD*
G04 #@! TA.AperFunction,SMDPad,CuDef*
%ADD37R,1.100000X0.600000*%
G04 #@! TD*
G04 #@! TA.AperFunction,SMDPad,CuDef*
%ADD38R,0.600000X1.100000*%
G04 #@! TD*
G04 #@! TA.AperFunction,SMDPad,CuDef*
%ADD39R,2.500000X2.600000*%
G04 #@! TD*
G04 #@! TA.AperFunction,SMDPad,CuDef*
%ADD40R,0.900000X0.600000*%
G04 #@! TD*
G04 #@! TA.AperFunction,ViaPad*
%ADD41C,0.604800*%
G04 #@! TD*
G04 #@! TA.AperFunction,Conductor*
%ADD42C,0.600000*%
G04 #@! TD*
G04 #@! TA.AperFunction,Conductor*
%ADD43C,0.400000*%
G04 #@! TD*
G04 #@! TA.AperFunction,Conductor*
%ADD44C,0.500000*%
G04 #@! TD*
G04 #@! TA.AperFunction,Conductor*
%ADD45C,0.800000*%
G04 #@! TD*
G04 #@! TA.AperFunction,Conductor*
%ADD46C,1.000000*%
G04 #@! TD*
G04 #@! TA.AperFunction,Conductor*
%ADD47C,0.300000*%
G04 #@! TD*
G04 #@! TA.AperFunction,Conductor*
%ADD48C,0.254000*%
G04 #@! TD*
G04 APERTURE END LIST*
D10*
G04 #@! TO.P,SW2,3*
G04 #@! TO.N,GND*
X121550000Y-95750000D03*
D11*
G04 #@! TO.P,SW2,1*
G04 #@! TO.N,/USER_BUTTON*
X126050000Y-95750000D03*
D10*
G04 #@! TO.P,SW2,2*
X126050000Y-102250000D03*
G04 #@! TO.P,SW2,4*
G04 #@! TO.N,GND*
X121550000Y-102250000D03*
G04 #@! TD*
G04 #@! TO.P,SW1,3*
G04 #@! TO.N,GND*
X167750000Y-73550000D03*
D11*
G04 #@! TO.P,SW1,1*
G04 #@! TO.N,/BUTTON_RESETn*
X167750000Y-78050000D03*
D10*
G04 #@! TO.P,SW1,2*
X161250000Y-78050000D03*
G04 #@! TO.P,SW1,4*
G04 #@! TO.N,GND*
X161250000Y-73550000D03*
G04 #@! TD*
D12*
G04 #@! TO.P,C16,2*
G04 #@! TO.N,GND*
X137200000Y-97650000D03*
G04 #@! TO.P,C16,1*
G04 #@! TO.N,+3V3*
X137200000Y-99550000D03*
G04 #@! TD*
D13*
G04 #@! TO.P,Y2,2*
G04 #@! TO.N,/16U2_16MHZ_XTAL1*
X126700000Y-77100000D03*
G04 #@! TO.P,Y2,1*
G04 #@! TO.N,/16U2_16MHZ_XTAL2*
X126700000Y-72200000D03*
G04 #@! TD*
D14*
G04 #@! TO.P,J4,10*
G04 #@! TO.N,/AD5_SCL*
X120396000Y-53340000D03*
G04 #@! TO.P,J4,9*
G04 #@! TO.N,/AD4_SDA*
X122936000Y-53340000D03*
G04 #@! TO.P,J4,8*
G04 #@! TO.N,+AREF*
X125476000Y-53340000D03*
G04 #@! TO.P,J4,7*
G04 #@! TO.N,GND*
X128016000Y-53340000D03*
G04 #@! TO.P,J4,6*
G04 #@! TO.N,/SCK*
X130556000Y-53340000D03*
G04 #@! TO.P,J4,5*
G04 #@! TO.N,/MISO*
X133096000Y-53340000D03*
G04 #@! TO.P,J4,4*
G04 #@! TO.N,/MOSI*
X135636000Y-53340000D03*
G04 #@! TO.P,J4,3*
G04 #@! TO.N,/SS*
X138176000Y-53340000D03*
G04 #@! TO.P,J4,2*
G04 #@! TO.N,/IO9*
X140716000Y-53340000D03*
D15*
G04 #@! TO.P,J4,1*
G04 #@! TO.N,/IO8*
X143256000Y-53340000D03*
G04 #@! TD*
D14*
G04 #@! TO.P,U1,28*
G04 #@! TO.N,/AD5_SCL*
X163665000Y-91567000D03*
G04 #@! TO.P,U1,27*
G04 #@! TO.N,/AD4_SDA*
X161125000Y-91567000D03*
G04 #@! TO.P,U1,26*
G04 #@! TO.N,/AD3*
X158585000Y-91567000D03*
G04 #@! TO.P,U1,25*
G04 #@! TO.N,/AD2*
X156045000Y-91567000D03*
G04 #@! TO.P,U1,24*
G04 #@! TO.N,/AD1*
X153505000Y-91567000D03*
G04 #@! TO.P,U1,23*
G04 #@! TO.N,/AD0*
X150965000Y-91567000D03*
G04 #@! TO.P,U1,22*
G04 #@! TO.N,GND*
X148425000Y-91567000D03*
G04 #@! TO.P,U1,21*
G04 #@! TO.N,+AREF*
X145885000Y-91567000D03*
G04 #@! TO.P,U1,20*
G04 #@! TO.N,/+5_3V3_328P_AVCC*
X143345000Y-91567000D03*
G04 #@! TO.P,U1,19*
G04 #@! TO.N,/SCK_R*
X140805000Y-91567000D03*
G04 #@! TO.P,U1,18*
G04 #@! TO.N,/MISO*
X138265000Y-91567000D03*
G04 #@! TO.P,U1,17*
G04 #@! TO.N,/MOSI*
X135725000Y-91567000D03*
G04 #@! TO.P,U1,16*
G04 #@! TO.N,/SS*
X133185000Y-91567000D03*
G04 #@! TO.P,U1,15*
G04 #@! TO.N,/IO9*
X130645000Y-91567000D03*
G04 #@! TO.P,U1,14*
G04 #@! TO.N,/IO8*
X130645000Y-83947000D03*
G04 #@! TO.P,U1,13*
G04 #@! TO.N,/IO7*
X133185000Y-83947000D03*
G04 #@! TO.P,U1,12*
G04 #@! TO.N,/IO6*
X135725000Y-83947000D03*
G04 #@! TO.P,U1,11*
G04 #@! TO.N,/IO5*
X138265000Y-83947000D03*
G04 #@! TO.P,U1,10*
G04 #@! TO.N,/328P_16MHZ_XTAL1*
X140805000Y-83947000D03*
G04 #@! TO.P,U1,9*
G04 #@! TO.N,/328P_16MHZ_XTAL2*
X143345000Y-83947000D03*
G04 #@! TO.P,U1,8*
G04 #@! TO.N,GND*
X145885000Y-83947000D03*
G04 #@! TO.P,U1,7*
G04 #@! TO.N,/+5_3V3_328P_VCC*
X148425000Y-83947000D03*
G04 #@! TO.P,U1,6*
G04 #@! TO.N,/IO4*
X150965000Y-83947000D03*
G04 #@! TO.P,U1,5*
G04 #@! TO.N,/IO3*
X153505000Y-83947000D03*
G04 #@! TO.P,U1,4*
G04 #@! TO.N,/IO2*
X156045000Y-83947000D03*
G04 #@! TO.P,U1,3*
G04 #@! TO.N,/IO1*
X158585000Y-83947000D03*
G04 #@! TO.P,U1,2*
G04 #@! TO.N,/IO0*
X161125000Y-83947000D03*
D15*
G04 #@! TO.P,U1,1*
G04 #@! TO.N,/328P_RESETn*
X163665000Y-83947000D03*
G04 #@! TD*
D16*
G04 #@! TO.P,C1,2*
G04 #@! TO.N,GND*
X108800000Y-89950000D03*
G04 #@! TO.P,C1,1*
G04 #@! TO.N,/+5V_USB*
X108800000Y-94050000D03*
G04 #@! TD*
G04 #@! TO.P,C2,2*
G04 #@! TO.N,GND*
X108800000Y-98050000D03*
G04 #@! TO.P,C2,1*
G04 #@! TO.N,+5V*
X108800000Y-102150000D03*
G04 #@! TD*
D12*
G04 #@! TO.P,C3,2*
G04 #@! TO.N,GND*
X124000000Y-80150000D03*
G04 #@! TO.P,C3,1*
G04 #@! TO.N,/+5_3V3_16U2*
X124000000Y-82050000D03*
G04 #@! TD*
G04 #@! TO.P,C4,2*
G04 #@! TO.N,GND*
X121800000Y-82050000D03*
G04 #@! TO.P,C4,1*
G04 #@! TO.N,/+5_3V3_16U2*
X121800000Y-80150000D03*
G04 #@! TD*
G04 #@! TO.P,C5,2*
G04 #@! TO.N,GND*
X123625000Y-71550000D03*
G04 #@! TO.P,C5,1*
G04 #@! TO.N,/+5_3V3_16U2*
X123625000Y-73450000D03*
G04 #@! TD*
G04 #@! TO.P,C6,2*
G04 #@! TO.N,GND*
X119250000Y-82050000D03*
G04 #@! TO.P,C6,1*
G04 #@! TO.N,+5V*
X119250000Y-80150000D03*
G04 #@! TD*
D17*
G04 #@! TO.P,C7,2*
G04 #@! TO.N,/+3V3_16U2_UCAP*
X113650000Y-81000000D03*
G04 #@! TO.P,C7,1*
G04 #@! TO.N,GND*
X115550000Y-81000000D03*
G04 #@! TD*
D12*
G04 #@! TO.P,C8,2*
G04 #@! TO.N,GND*
X103800000Y-58950000D03*
G04 #@! TO.P,C8,1*
G04 #@! TO.N,+5V_3V3*
X103800000Y-60850000D03*
G04 #@! TD*
D17*
G04 #@! TO.P,C9,2*
G04 #@! TO.N,/16U2_16MHZ_XTAL2*
X125775000Y-69475000D03*
G04 #@! TO.P,C9,1*
G04 #@! TO.N,GND*
X127675000Y-69475000D03*
G04 #@! TD*
G04 #@! TO.P,C10,2*
G04 #@! TO.N,/16U2_16MHZ_XTAL1*
X125675000Y-79800000D03*
G04 #@! TO.P,C10,1*
G04 #@! TO.N,GND*
X127575000Y-79800000D03*
G04 #@! TD*
D12*
G04 #@! TO.P,C11,2*
G04 #@! TO.N,Net-(C11-Pad2)*
X165300000Y-56650000D03*
G04 #@! TO.P,C11,1*
G04 #@! TO.N,/328P_AUTORESETn*
X165300000Y-58550000D03*
G04 #@! TD*
G04 #@! TO.P,C12,2*
G04 #@! TO.N,GND*
X113100000Y-90950000D03*
G04 #@! TO.P,C12,1*
G04 #@! TO.N,+5V*
X113100000Y-92850000D03*
G04 #@! TD*
G04 #@! TO.P,C13,2*
G04 #@! TO.N,GND*
X122300000Y-91450000D03*
G04 #@! TO.P,C13,1*
G04 #@! TO.N,+3V3*
X122300000Y-93350000D03*
G04 #@! TD*
D17*
G04 #@! TO.P,C14,2*
G04 #@! TO.N,GND*
X141950000Y-99300000D03*
G04 #@! TO.P,C14,1*
G04 #@! TO.N,+5V*
X140050000Y-99300000D03*
G04 #@! TD*
D12*
G04 #@! TO.P,C15,2*
G04 #@! TO.N,GND*
X131900000Y-97650000D03*
G04 #@! TO.P,C15,1*
G04 #@! TO.N,+5V_3V3*
X131900000Y-99550000D03*
G04 #@! TD*
D17*
G04 #@! TO.P,C17,2*
G04 #@! TO.N,GND*
X105450000Y-52000000D03*
G04 #@! TO.P,C17,1*
G04 #@! TO.N,+5V_3V3*
X103550000Y-52000000D03*
G04 #@! TD*
G04 #@! TO.P,C19,2*
G04 #@! TO.N,GND*
X147950000Y-96225000D03*
G04 #@! TO.P,C19,1*
G04 #@! TO.N,/+5_3V3_328P_VCC*
X149850000Y-96225000D03*
G04 #@! TD*
G04 #@! TO.P,C20,2*
G04 #@! TO.N,GND*
X146250000Y-81400000D03*
G04 #@! TO.P,C20,1*
G04 #@! TO.N,/+5_3V3_328P_VCC*
X148150000Y-81400000D03*
G04 #@! TD*
G04 #@! TO.P,C21,2*
G04 #@! TO.N,GND*
X127650000Y-55600000D03*
G04 #@! TO.P,C21,1*
G04 #@! TO.N,+AREF*
X125750000Y-55600000D03*
G04 #@! TD*
G04 #@! TO.P,C22,2*
G04 #@! TO.N,GND*
X142450000Y-96200000D03*
G04 #@! TO.P,C22,1*
G04 #@! TO.N,/+5_3V3_328P_AVCC*
X144350000Y-96200000D03*
G04 #@! TD*
G04 #@! TO.P,C23,2*
G04 #@! TO.N,GND*
X142450000Y-94100000D03*
G04 #@! TO.P,C23,1*
G04 #@! TO.N,/+5_3V3_328P_AVCC*
X144350000Y-94100000D03*
G04 #@! TD*
G04 #@! TO.P,C24,2*
G04 #@! TO.N,GND*
X147750000Y-94100000D03*
G04 #@! TO.P,C24,1*
G04 #@! TO.N,+AREF*
X145850000Y-94100000D03*
G04 #@! TD*
G04 #@! TO.P,C25,2*
G04 #@! TO.N,/328P_16MHZ_XTAL2*
X146250000Y-79300000D03*
G04 #@! TO.P,C25,1*
G04 #@! TO.N,GND*
X148150000Y-79300000D03*
G04 #@! TD*
D12*
G04 #@! TO.P,C26,2*
G04 #@! TO.N,GND*
X123000000Y-61650000D03*
G04 #@! TO.P,C26,1*
G04 #@! TO.N,+5V_3V3*
X123000000Y-59750000D03*
G04 #@! TD*
D17*
G04 #@! TO.P,C27,2*
G04 #@! TO.N,/328P_16MHZ_XTAL1*
X144750000Y-79300000D03*
G04 #@! TO.P,C27,1*
G04 #@! TO.N,GND*
X142850000Y-79300000D03*
G04 #@! TD*
G04 #@! TO.P,C28,2*
G04 #@! TO.N,GND*
X168750000Y-91400000D03*
G04 #@! TO.P,C28,1*
G04 #@! TO.N,+5V_3V3*
X166850000Y-91400000D03*
G04 #@! TD*
D12*
G04 #@! TO.P,C29,2*
G04 #@! TO.N,GND*
X124300000Y-83750000D03*
G04 #@! TO.P,C29,1*
G04 #@! TO.N,+5V_3V3*
X124300000Y-85650000D03*
G04 #@! TD*
D17*
G04 #@! TO.P,C30,2*
G04 #@! TO.N,GND*
X109050000Y-74750000D03*
G04 #@! TO.P,C30,1*
G04 #@! TO.N,+5V_3V3*
X107150000Y-74750000D03*
G04 #@! TD*
G04 #@! TO.P,C31,2*
G04 #@! TO.N,GND*
X111850000Y-81000000D03*
G04 #@! TO.P,C31,1*
G04 #@! TO.N,/16U2_BUF_RESETn*
X109950000Y-81000000D03*
G04 #@! TD*
D12*
G04 #@! TO.P,C32,2*
G04 #@! TO.N,GND*
X165900000Y-85200000D03*
G04 #@! TO.P,C32,1*
G04 #@! TO.N,/328P_BUF_RESETn*
X165900000Y-83300000D03*
G04 #@! TD*
G04 #@! TO.P,C33,2*
G04 #@! TO.N,GND*
X124400000Y-91450000D03*
G04 #@! TO.P,C33,1*
G04 #@! TO.N,/USER_BUTTON_BUF*
X124400000Y-93350000D03*
G04 #@! TD*
D17*
G04 #@! TO.P,C34,2*
G04 #@! TO.N,GND*
X162250000Y-71200000D03*
G04 #@! TO.P,C34,1*
G04 #@! TO.N,+5V_3V3*
X160350000Y-71200000D03*
G04 #@! TD*
D18*
G04 #@! TO.P,D1,1*
G04 #@! TO.N,GND*
X160700000Y-67400000D03*
G04 #@! TO.P,D1,2*
G04 #@! TO.N,Net-(D1-Pad2)*
X162300000Y-67400000D03*
G04 #@! TD*
G04 #@! TO.P,D2,1*
G04 #@! TO.N,Net-(D2-Pad1)*
X125200000Y-61700000D03*
G04 #@! TO.P,D2,2*
G04 #@! TO.N,Net-(D2-Pad2)*
X126800000Y-61700000D03*
G04 #@! TD*
G04 #@! TO.P,D3,1*
G04 #@! TO.N,/16U2_TX_LED*
X125100000Y-64300000D03*
G04 #@! TO.P,D3,2*
G04 #@! TO.N,Net-(D3-Pad2)*
X126700000Y-64300000D03*
G04 #@! TD*
G04 #@! TO.P,D4,1*
G04 #@! TO.N,/16U2_RX_LED*
X125100000Y-66000000D03*
G04 #@! TO.P,D4,2*
G04 #@! TO.N,Net-(D4-Pad2)*
X126700000Y-66000000D03*
G04 #@! TD*
D19*
G04 #@! TO.P,D5,2*
G04 #@! TO.N,Net-(D5-Pad2)*
X103200000Y-77115000D03*
G04 #@! TO.P,D5,1*
G04 #@! TO.N,+5V_3V3*
X103200000Y-74885000D03*
G04 #@! TD*
D20*
G04 #@! TO.P,D6,2*
G04 #@! TO.N,/BUTTON_RESETn*
X164515000Y-79900000D03*
G04 #@! TO.P,D6,1*
G04 #@! TO.N,+5V_3V3*
X162285000Y-79900000D03*
G04 #@! TD*
D12*
G04 #@! TO.P,FB1,2*
G04 #@! TO.N,/+5_3V3_16U2*
X121800000Y-83750000D03*
G04 #@! TO.P,FB1,1*
G04 #@! TO.N,+5V_3V3*
X121800000Y-85650000D03*
G04 #@! TD*
D17*
G04 #@! TO.P,FB2,2*
G04 #@! TO.N,/+5_3V3_328P_VCC*
X149850000Y-98325000D03*
G04 #@! TO.P,FB2,1*
G04 #@! TO.N,+5V_3V3*
X147950000Y-98325000D03*
G04 #@! TD*
D12*
G04 #@! TO.P,FB3,2*
G04 #@! TO.N,/+5_3V3_328P_AVCC*
X146150000Y-95900000D03*
G04 #@! TO.P,FB3,1*
G04 #@! TO.N,+5V_3V3*
X146150000Y-97800000D03*
G04 #@! TD*
D21*
G04 #@! TO.P,FID1,1*
G04 #@! TO.N,N/C*
X168400000Y-102400000D03*
G04 #@! TD*
G04 #@! TO.P,FID2,1*
G04 #@! TO.N,N/C*
X168400000Y-52600000D03*
G04 #@! TD*
G04 #@! TO.P,FID3,1*
G04 #@! TO.N,N/C*
X112000000Y-52500000D03*
G04 #@! TD*
G04 #@! TO.P,FID4,1*
G04 #@! TO.N,N/C*
X123800000Y-98900000D03*
G04 #@! TD*
D15*
G04 #@! TO.P,J1,1*
G04 #@! TO.N,Net-(J1-Pad1)*
X129540000Y-101600000D03*
D14*
G04 #@! TO.P,J1,2*
G04 #@! TO.N,+5V_3V3*
X132080000Y-101600000D03*
G04 #@! TO.P,J1,3*
G04 #@! TO.N,/328P_RESETn*
X134620000Y-101600000D03*
G04 #@! TO.P,J1,4*
G04 #@! TO.N,+3V3*
X137160000Y-101600000D03*
G04 #@! TO.P,J1,5*
G04 #@! TO.N,+5V*
X139700000Y-101600000D03*
G04 #@! TO.P,J1,6*
G04 #@! TO.N,GND*
X142240000Y-101600000D03*
G04 #@! TO.P,J1,7*
X144780000Y-101600000D03*
G04 #@! TO.P,J1,8*
G04 #@! TO.N,Net-(J1-Pad8)*
X147320000Y-101600000D03*
G04 #@! TD*
G04 #@! TO.P,J2,6*
G04 #@! TO.N,/AD5_SCL*
X165100000Y-101600000D03*
G04 #@! TO.P,J2,5*
G04 #@! TO.N,/AD4_SDA*
X162560000Y-101600000D03*
G04 #@! TO.P,J2,4*
G04 #@! TO.N,/AD3*
X160020000Y-101600000D03*
G04 #@! TO.P,J2,3*
G04 #@! TO.N,/AD2*
X157480000Y-101600000D03*
G04 #@! TO.P,J2,2*
G04 #@! TO.N,/AD1*
X154940000Y-101600000D03*
D15*
G04 #@! TO.P,J2,1*
G04 #@! TO.N,/AD0*
X152400000Y-101600000D03*
G04 #@! TD*
G04 #@! TO.P,J3,1*
G04 #@! TO.N,/IO0*
X165100000Y-53340000D03*
D14*
G04 #@! TO.P,J3,2*
G04 #@! TO.N,/IO1*
X162560000Y-53340000D03*
G04 #@! TO.P,J3,3*
G04 #@! TO.N,/IO2*
X160020000Y-53340000D03*
G04 #@! TO.P,J3,4*
G04 #@! TO.N,/IO3*
X157480000Y-53340000D03*
G04 #@! TO.P,J3,5*
G04 #@! TO.N,/IO4*
X154940000Y-53340000D03*
G04 #@! TO.P,J3,6*
G04 #@! TO.N,/IO5*
X152400000Y-53340000D03*
G04 #@! TO.P,J3,7*
G04 #@! TO.N,/IO6*
X149860000Y-53340000D03*
G04 #@! TO.P,J3,8*
G04 #@! TO.N,/IO7*
X147320000Y-53340000D03*
G04 #@! TD*
D22*
G04 #@! TO.P,J5,5*
G04 #@! TO.N,/328P_RESETn*
X109220000Y-56896000D03*
G04 #@! TO.P,J5,6*
G04 #@! TO.N,GND*
X109220000Y-54356000D03*
G04 #@! TO.P,J5,3*
G04 #@! TO.N,/SCK*
X106680000Y-56896000D03*
G04 #@! TO.P,J5,4*
G04 #@! TO.N,/MOSI*
X106680000Y-54356000D03*
D23*
G04 #@! TO.P,J5,1*
G04 #@! TO.N,/MISO*
X104140000Y-56896000D03*
D22*
G04 #@! TO.P,J5,2*
G04 #@! TO.N,+5V_3V3*
X104140000Y-54356000D03*
G04 #@! TD*
G04 #@! TO.P,J6,5*
G04 #@! TO.N,/16U2_HDR_RESETn*
X109220000Y-65532000D03*
G04 #@! TO.P,J6,6*
G04 #@! TO.N,GND*
X109220000Y-62992000D03*
G04 #@! TO.P,J6,3*
G04 #@! TO.N,/16U2_SCLK*
X106680000Y-65532000D03*
G04 #@! TO.P,J6,4*
G04 #@! TO.N,/16U2_MOSI*
X106680000Y-62992000D03*
D23*
G04 #@! TO.P,J6,1*
G04 #@! TO.N,/16U2_MISO*
X104140000Y-65532000D03*
D22*
G04 #@! TO.P,J6,2*
G04 #@! TO.N,+5V_3V3*
X104140000Y-62992000D03*
G04 #@! TD*
D24*
G04 #@! TO.P,J7,11*
G04 #@! TO.N,GND*
X103600000Y-87340000D03*
G04 #@! TO.P,J7,10*
X103600000Y-80740000D03*
D25*
G04 #@! TO.P,J7,9*
X103600000Y-85290000D03*
G04 #@! TO.P,J7,8*
X103600000Y-82790000D03*
D26*
G04 #@! TO.P,J7,7*
X106050000Y-87240000D03*
G04 #@! TO.P,J7,6*
X106050000Y-80840000D03*
D27*
G04 #@! TO.P,J7,5*
X106275000Y-85340000D03*
G04 #@! TO.P,J7,4*
G04 #@! TO.N,Net-(J7-Pad4)*
X106275000Y-84690000D03*
G04 #@! TO.P,J7,1*
G04 #@! TO.N,/+5V_USB*
X106275000Y-82740000D03*
G04 #@! TO.P,J7,2*
G04 #@! TO.N,/CON_USB_N*
X106275000Y-83390000D03*
G04 #@! TO.P,J7,3*
G04 #@! TO.N,/CON_USB_P*
X106275000Y-84040000D03*
G04 #@! TD*
D28*
G04 #@! TO.P,J8,1*
G04 #@! TO.N,+5V*
X103800000Y-101800000D03*
G04 #@! TD*
G04 #@! TO.P,J9,1*
G04 #@! TO.N,GND*
X103800000Y-90800000D03*
G04 #@! TD*
D29*
G04 #@! TO.P,JP1,3*
G04 #@! TO.N,Net-(JP1-Pad3)*
X167800000Y-62320000D03*
G04 #@! TO.P,JP1,2*
G04 #@! TO.N,/16U2PROG_328P_RESETn*
X167800000Y-59780000D03*
D30*
G04 #@! TO.P,JP1,1*
G04 #@! TO.N,Net-(C11-Pad2)*
X167800000Y-57240000D03*
G04 #@! TD*
D22*
G04 #@! TO.P,JP2,3*
G04 #@! TO.N,/16U2_PB5*
X104140000Y-69939916D03*
G04 #@! TO.P,JP2,4*
G04 #@! TO.N,/16U2_PB7*
X104140000Y-72479916D03*
D23*
G04 #@! TO.P,JP2,1*
G04 #@! TO.N,/16U2_PB4*
X106680000Y-69939916D03*
D22*
G04 #@! TO.P,JP2,2*
G04 #@! TO.N,/16U2_PB6*
X106680000Y-72479916D03*
G04 #@! TD*
D29*
G04 #@! TO.P,JP3,4*
G04 #@! TO.N,/16U2_RESETn*
X116200000Y-67160000D03*
G04 #@! TO.P,JP3,3*
G04 #@! TO.N,/16U2_HDR_RESETn*
X116200000Y-64620000D03*
G04 #@! TO.P,JP3,2*
G04 #@! TO.N,/16U2_PB4*
X116200000Y-62080000D03*
D30*
G04 #@! TO.P,JP3,1*
G04 #@! TO.N,/328P_RESETn*
X116200000Y-59540000D03*
G04 #@! TD*
D14*
G04 #@! TO.P,JP4,3*
G04 #@! TO.N,+3V3*
X118300000Y-95340000D03*
G04 #@! TO.P,JP4,2*
G04 #@! TO.N,+5V_3V3*
X115760000Y-95340000D03*
D15*
G04 #@! TO.P,JP4,1*
G04 #@! TO.N,+5V*
X113220000Y-95340000D03*
G04 #@! TD*
D31*
G04 #@! TO.P,L1,2*
G04 #@! TO.N,+5V*
X103700000Y-97900000D03*
G04 #@! TO.P,L1,1*
G04 #@! TO.N,/+5V_USB*
X103700000Y-94700000D03*
G04 #@! TD*
D32*
G04 #@! TO.P,MH1,1*
G04 #@! TO.N,GND*
X115570000Y-101600000D03*
G04 #@! TD*
G04 #@! TO.P,MH2,1*
G04 #@! TO.N,GND*
X167640000Y-96520000D03*
G04 #@! TD*
G04 #@! TO.P,MH3,1*
G04 #@! TO.N,GND*
X167640000Y-68580000D03*
G04 #@! TD*
D12*
G04 #@! TO.P,R1,2*
G04 #@! TO.N,/16U2PROG_328P_RESETn*
X118700000Y-65750000D03*
G04 #@! TO.P,R1,1*
G04 #@! TO.N,+5V_3V3*
X118700000Y-63850000D03*
G04 #@! TD*
D17*
G04 #@! TO.P,R2,2*
G04 #@! TO.N,Net-(D3-Pad2)*
X128650000Y-59900000D03*
G04 #@! TO.P,R2,1*
G04 #@! TO.N,+5V_3V3*
X130550000Y-59900000D03*
G04 #@! TD*
G04 #@! TO.P,R3,2*
G04 #@! TO.N,Net-(D4-Pad2)*
X128650000Y-62000000D03*
G04 #@! TO.P,R3,1*
G04 #@! TO.N,+5V_3V3*
X130550000Y-62000000D03*
G04 #@! TD*
D12*
G04 #@! TO.P,R4,2*
G04 #@! TO.N,/16U2_RESETn*
X110800000Y-75850000D03*
G04 #@! TO.P,R4,1*
G04 #@! TO.N,+5V_3V3*
X110800000Y-77750000D03*
G04 #@! TD*
D17*
G04 #@! TO.P,R5,2*
G04 #@! TO.N,/16U2_SCLK*
X109450000Y-69100000D03*
G04 #@! TO.P,R5,1*
G04 #@! TO.N,/16U2_SCLK_R*
X111350000Y-69100000D03*
G04 #@! TD*
G04 #@! TO.P,R6,2*
G04 #@! TO.N,/USB_N*
X111850000Y-82900000D03*
G04 #@! TO.P,R6,1*
G04 #@! TO.N,/CON_USB_N*
X109950000Y-82900000D03*
G04 #@! TD*
G04 #@! TO.P,R7,2*
G04 #@! TO.N,/USB_P*
X111850000Y-84900000D03*
G04 #@! TO.P,R7,1*
G04 #@! TO.N,/CON_USB_P*
X109950000Y-84900000D03*
G04 #@! TD*
G04 #@! TO.P,R8,2*
G04 #@! TO.N,GND*
X111850000Y-87000000D03*
G04 #@! TO.P,R8,1*
G04 #@! TO.N,Net-(J7-Pad4)*
X109950000Y-87000000D03*
G04 #@! TD*
D12*
G04 #@! TO.P,R9,2*
G04 #@! TO.N,/16U2_16MHZ_XTAL1*
X123625000Y-77075000D03*
G04 #@! TO.P,R9,1*
G04 #@! TO.N,/16U2_16MHZ_XTAL2*
X123625000Y-75175000D03*
G04 #@! TD*
G04 #@! TO.P,R10,2*
G04 #@! TO.N,/IO0*
X162600000Y-56650000D03*
G04 #@! TO.P,R10,1*
G04 #@! TO.N,/16U2_TXD*
X162600000Y-58550000D03*
G04 #@! TD*
G04 #@! TO.P,R11,2*
G04 #@! TO.N,/IO1*
X159900000Y-56650000D03*
G04 #@! TO.P,R11,1*
G04 #@! TO.N,/16U2_RXD*
X159900000Y-58550000D03*
G04 #@! TD*
G04 #@! TO.P,R12,2*
G04 #@! TO.N,Net-(JP1-Pad3)*
X165300000Y-61050000D03*
G04 #@! TO.P,R12,1*
G04 #@! TO.N,GND*
X165300000Y-62950000D03*
G04 #@! TD*
D17*
G04 #@! TO.P,R13,2*
G04 #@! TO.N,/SCK*
X139000000Y-94125000D03*
G04 #@! TO.P,R13,1*
G04 #@! TO.N,/SCK_R*
X140900000Y-94125000D03*
G04 #@! TD*
G04 #@! TO.P,R14,2*
G04 #@! TO.N,/328P_RESETn*
X162550000Y-81600000D03*
G04 #@! TO.P,R14,1*
G04 #@! TO.N,+5V_3V3*
X164450000Y-81600000D03*
G04 #@! TD*
G04 #@! TO.P,R15,2*
G04 #@! TO.N,Net-(D2-Pad2)*
X126950000Y-59900000D03*
G04 #@! TO.P,R15,1*
G04 #@! TO.N,+5V_3V3*
X125050000Y-59900000D03*
G04 #@! TD*
G04 #@! TO.P,R16,2*
G04 #@! TO.N,/328P_16MHZ_XTAL1*
X142800000Y-81400000D03*
G04 #@! TO.P,R16,1*
G04 #@! TO.N,/328P_16MHZ_XTAL2*
X144700000Y-81400000D03*
G04 #@! TD*
G04 #@! TO.P,R17,2*
G04 #@! TO.N,Net-(D1-Pad2)*
X162250000Y-69200000D03*
G04 #@! TO.P,R17,1*
G04 #@! TO.N,+5V_3V3*
X160350000Y-69200000D03*
G04 #@! TD*
D12*
G04 #@! TO.P,R18,2*
G04 #@! TO.N,/328P_AUTORESETn*
X168000000Y-85200000D03*
G04 #@! TO.P,R18,1*
G04 #@! TO.N,+5V_3V3*
X168000000Y-83300000D03*
G04 #@! TD*
G04 #@! TO.P,R19,2*
G04 #@! TO.N,Net-(D5-Pad2)*
X105000000Y-76950000D03*
G04 #@! TO.P,R19,1*
G04 #@! TO.N,+5V_3V3*
X105000000Y-75050000D03*
G04 #@! TD*
G04 #@! TO.P,R20,2*
G04 #@! TO.N,/BUTTON_RESETn*
X168000000Y-79950000D03*
G04 #@! TO.P,R20,1*
G04 #@! TO.N,+5V_3V3*
X168000000Y-81850000D03*
G04 #@! TD*
G04 #@! TO.P,R21,2*
G04 #@! TO.N,/USER_BUTTON*
X128600000Y-97350000D03*
G04 #@! TO.P,R21,1*
G04 #@! TO.N,+5V_3V3*
X128600000Y-99250000D03*
G04 #@! TD*
G04 #@! TO.P,R22,2*
G04 #@! TO.N,/IO8*
X126700000Y-87650000D03*
G04 #@! TO.P,R22,1*
G04 #@! TO.N,Net-(R22-Pad1)*
X126700000Y-89550000D03*
G04 #@! TD*
D17*
G04 #@! TO.P,R23,2*
G04 #@! TO.N,/16U2_BUF_RESETn*
X105150000Y-78800000D03*
G04 #@! TO.P,R23,1*
G04 #@! TO.N,Net-(D5-Pad2)*
X103250000Y-78800000D03*
G04 #@! TD*
D12*
G04 #@! TO.P,R24,2*
G04 #@! TO.N,/328P_BUF_RESETn*
X166100000Y-81850000D03*
G04 #@! TO.P,R24,1*
G04 #@! TO.N,/BUTTON_RESETn*
X166100000Y-79950000D03*
G04 #@! TD*
D17*
G04 #@! TO.P,R25,2*
G04 #@! TO.N,/USER_BUTTON_BUF*
X128500000Y-95400000D03*
G04 #@! TO.P,R25,1*
G04 #@! TO.N,/USER_BUTTON*
X130400000Y-95400000D03*
G04 #@! TD*
G04 #@! TO.P,R26,2*
G04 #@! TO.N,/+3V3_16U2_UCAP*
X113650000Y-82900000D03*
G04 #@! TO.P,R26,1*
G04 #@! TO.N,/+5_3V3_16U2*
X115550000Y-82900000D03*
G04 #@! TD*
D12*
G04 #@! TO.P,R27,2*
G04 #@! TO.N,+5V_3V3*
X135100000Y-97650000D03*
G04 #@! TO.P,R27,1*
G04 #@! TO.N,+5V*
X135100000Y-95750000D03*
G04 #@! TD*
G04 #@! TO.P,R28,2*
G04 #@! TO.N,+3V3*
X135100000Y-99550000D03*
G04 #@! TO.P,R28,1*
G04 #@! TO.N,+5V_3V3*
X135100000Y-97650000D03*
G04 #@! TD*
D33*
G04 #@! TO.P,U2,32*
G04 #@! TO.N,/+5_3V3_16U2*
X119800000Y-78340000D03*
G04 #@! TO.P,U2,31*
G04 #@! TO.N,+5V*
X119000000Y-78340000D03*
G04 #@! TO.P,U2,30*
G04 #@! TO.N,/USB_N*
X118200000Y-78340000D03*
G04 #@! TO.P,U2,29*
G04 #@! TO.N,/USB_P*
X117400000Y-78340000D03*
G04 #@! TO.P,U2,28*
G04 #@! TO.N,GND*
X116600000Y-78340000D03*
G04 #@! TO.P,U2,27*
G04 #@! TO.N,/+3V3_16U2_UCAP*
X115800000Y-78340000D03*
G04 #@! TO.P,U2,26*
G04 #@! TO.N,Net-(U2-Pad26)*
X115000000Y-78340000D03*
G04 #@! TO.P,U2,25*
G04 #@! TO.N,Net-(U2-Pad25)*
X114200000Y-78340000D03*
D34*
G04 #@! TO.P,U2,24*
G04 #@! TO.N,/16U2_RESETn*
X112800000Y-76940000D03*
G04 #@! TO.P,U2,23*
G04 #@! TO.N,Net-(U2-Pad23)*
X112800000Y-76140000D03*
G04 #@! TO.P,U2,22*
G04 #@! TO.N,Net-(U2-Pad22)*
X112800000Y-75340000D03*
G04 #@! TO.P,U2,21*
G04 #@! TO.N,/16U2_PB7*
X112800000Y-74540000D03*
G04 #@! TO.P,U2,20*
G04 #@! TO.N,/16U2_PB6*
X112800000Y-73740000D03*
G04 #@! TO.P,U2,19*
G04 #@! TO.N,/16U2_PB5*
X112800000Y-72940000D03*
G04 #@! TO.P,U2,18*
G04 #@! TO.N,/16U2_PB4*
X112800000Y-72140000D03*
G04 #@! TO.P,U2,17*
G04 #@! TO.N,/16U2_MISO*
X112800000Y-71340000D03*
D33*
G04 #@! TO.P,U2,16*
G04 #@! TO.N,/16U2_MOSI*
X114200000Y-69940000D03*
G04 #@! TO.P,U2,15*
G04 #@! TO.N,/16U2_SCLK_R*
X115000000Y-69940000D03*
G04 #@! TO.P,U2,14*
G04 #@! TO.N,Net-(U2-Pad14)*
X115800000Y-69940000D03*
G04 #@! TO.P,U2,13*
G04 #@! TO.N,/16U2PROG_328P_RESETn*
X116600000Y-69940000D03*
G04 #@! TO.P,U2,12*
G04 #@! TO.N,Net-(U2-Pad12)*
X117400000Y-69940000D03*
G04 #@! TO.P,U2,11*
G04 #@! TO.N,/16U2_TX_LED*
X118200000Y-69940000D03*
G04 #@! TO.P,U2,10*
G04 #@! TO.N,/16U2_RX_LED*
X119000000Y-69940000D03*
G04 #@! TO.P,U2,9*
G04 #@! TO.N,/16U2_TXD*
X119800000Y-69940000D03*
D34*
G04 #@! TO.P,U2,8*
G04 #@! TO.N,/16U2_RXD*
X121200000Y-71340000D03*
G04 #@! TO.P,U2,7*
G04 #@! TO.N,Net-(U2-Pad7)*
X121200000Y-72140000D03*
G04 #@! TO.P,U2,6*
G04 #@! TO.N,Net-(U2-Pad6)*
X121200000Y-72940000D03*
G04 #@! TO.P,U2,5*
G04 #@! TO.N,Net-(U2-Pad5)*
X121200000Y-73740000D03*
G04 #@! TO.P,U2,4*
G04 #@! TO.N,/+5_3V3_16U2*
X121200000Y-74540000D03*
G04 #@! TO.P,U2,3*
G04 #@! TO.N,GND*
X121200000Y-75340000D03*
G04 #@! TO.P,U2,2*
G04 #@! TO.N,/16U2_16MHZ_XTAL2*
X121200000Y-76140000D03*
G04 #@! TO.P,U2,1*
G04 #@! TO.N,/16U2_16MHZ_XTAL1*
X121200000Y-76940000D03*
G04 #@! TD*
D35*
G04 #@! TO.P,U3,6*
G04 #@! TO.N,GND*
X117800000Y-86550000D03*
D36*
G04 #@! TO.P,U3,5*
G04 #@! TO.N,+3V3*
X120340000Y-92750000D03*
G04 #@! TO.P,U3,4*
X119070000Y-92750000D03*
G04 #@! TO.P,U3,1*
G04 #@! TO.N,+5V*
X115260000Y-92750000D03*
G04 #@! TO.P,U3,2*
X116530000Y-92750000D03*
G04 #@! TO.P,U3,3*
G04 #@! TO.N,GND*
X117800000Y-92750000D03*
G04 #@! TD*
D37*
G04 #@! TO.P,U4,3*
G04 #@! TO.N,GND*
X118450000Y-61850000D03*
G04 #@! TO.P,U4,4*
G04 #@! TO.N,Net-(D2-Pad1)*
X121150000Y-61850000D03*
G04 #@! TO.P,U4,2*
G04 #@! TO.N,/SCK*
X118450000Y-60900000D03*
G04 #@! TO.P,U4,1*
X118450000Y-59950000D03*
G04 #@! TO.P,U4,5*
G04 #@! TO.N,+5V_3V3*
X121150000Y-59950000D03*
G04 #@! TD*
D38*
G04 #@! TO.P,U5,3*
G04 #@! TO.N,GND*
X108650000Y-79250000D03*
G04 #@! TO.P,U5,4*
G04 #@! TO.N,/16U2_RESETn*
X108650000Y-76550000D03*
G04 #@! TO.P,U5,2*
G04 #@! TO.N,/16U2_BUF_RESETn*
X107700000Y-79250000D03*
G04 #@! TO.P,U5,1*
X106750000Y-79250000D03*
G04 #@! TO.P,U5,5*
G04 #@! TO.N,+5V_3V3*
X106750000Y-76550000D03*
G04 #@! TD*
G04 #@! TO.P,U6,3*
G04 #@! TO.N,GND*
X166350000Y-86800000D03*
G04 #@! TO.P,U6,4*
G04 #@! TO.N,/328P_RESETn*
X166350000Y-89500000D03*
G04 #@! TO.P,U6,2*
G04 #@! TO.N,/328P_BUF_RESETn*
X167300000Y-86800000D03*
G04 #@! TO.P,U6,1*
G04 #@! TO.N,/328P_AUTORESETn*
X168250000Y-86800000D03*
G04 #@! TO.P,U6,5*
G04 #@! TO.N,+5V_3V3*
X168250000Y-89500000D03*
G04 #@! TD*
D37*
G04 #@! TO.P,U7,3*
G04 #@! TO.N,GND*
X122250000Y-89550000D03*
G04 #@! TO.P,U7,4*
G04 #@! TO.N,Net-(R22-Pad1)*
X124950000Y-89550000D03*
G04 #@! TO.P,U7,2*
G04 #@! TO.N,/USER_BUTTON_BUF*
X122250000Y-88600000D03*
G04 #@! TO.P,U7,1*
X122250000Y-87650000D03*
G04 #@! TO.P,U7,5*
G04 #@! TO.N,+5V_3V3*
X124950000Y-87650000D03*
G04 #@! TD*
D39*
G04 #@! TO.P,Y1,2*
G04 #@! TO.N,/328P_16MHZ_XTAL1*
X142975000Y-76225000D03*
G04 #@! TO.P,Y1,1*
G04 #@! TO.N,/328P_16MHZ_XTAL2*
X147875000Y-76225000D03*
G04 #@! TD*
D40*
G04 #@! TO.P,Z1,2*
G04 #@! TO.N,/CON_USB_N*
X108350000Y-83050000D03*
G04 #@! TO.P,Z1,1*
G04 #@! TO.N,GND*
X108350000Y-81550000D03*
G04 #@! TD*
G04 #@! TO.P,Z2,2*
G04 #@! TO.N,/CON_USB_P*
X108350000Y-84500000D03*
G04 #@! TO.P,Z2,1*
G04 #@! TO.N,GND*
X108350000Y-86000000D03*
G04 #@! TD*
D41*
G04 #@! TO.N,GND*
X106700000Y-52050000D03*
X141600000Y-95400000D03*
X114500000Y-86600000D03*
X109900000Y-74750000D03*
X145500000Y-82300000D03*
X142000000Y-79300000D03*
X111850000Y-79800000D03*
X114800000Y-81850000D03*
X119250000Y-82950000D03*
X125550000Y-83700000D03*
X128550000Y-79600000D03*
X121800000Y-82894398D03*
X123600000Y-70650000D03*
X121950000Y-60900000D03*
X164750000Y-86500000D03*
X128700000Y-69500000D03*
X164700000Y-85750000D03*
X147150000Y-92850000D03*
X122300000Y-90550000D03*
X109450000Y-79250000D03*
X109094398Y-81550000D03*
X109290754Y-85950001D03*
X124400000Y-90550000D03*
X107100000Y-59000000D03*
X119950000Y-62450000D03*
X169400000Y-91400000D03*
X132100000Y-96400000D03*
X149200000Y-79300000D03*
X124000000Y-79200000D03*
X138552493Y-97647507D03*
X121040363Y-89740363D03*
X118400000Y-90600000D03*
X116600000Y-76900000D03*
X119900000Y-75400000D03*
X144400000Y-97600000D03*
X143500000Y-97600000D03*
X142600000Y-97600000D03*
X141700000Y-97600000D03*
X141000000Y-56000000D03*
X141000000Y-65199996D03*
X142099998Y-92900000D03*
X148399994Y-95100000D03*
X159900000Y-65300000D03*
X159900000Y-66100000D03*
X159900000Y-66900000D03*
X141700000Y-65200000D03*
X141700000Y-56000000D03*
X141000000Y-65900000D03*
X141700000Y-65900000D03*
X141000000Y-55300000D03*
X141700000Y-55300000D03*
X114500000Y-87300000D03*
X114500000Y-88000000D03*
X111800000Y-89100000D03*
X112500000Y-89100000D03*
X113200000Y-89100000D03*
X112500000Y-89800000D03*
X113300000Y-87300000D03*
G04 #@! TO.N,/+5V_USB*
X110450000Y-93000000D03*
X107300000Y-82400000D03*
X110450000Y-92150000D03*
X107300000Y-81600000D03*
G04 #@! TO.N,/+5_3V3_16U2*
X123000000Y-83100000D03*
X119100000Y-84900000D03*
G04 #@! TO.N,+5V_3V3*
X147950000Y-99850000D03*
X146150000Y-99250000D03*
X103200000Y-75900000D03*
X118650000Y-62655602D03*
X106000000Y-75899998D03*
X130300000Y-97100000D03*
X131499996Y-62000000D03*
X117335610Y-90970337D03*
X124200000Y-59899998D03*
X114500000Y-63300000D03*
X113800000Y-63600000D03*
X113800000Y-62900000D03*
X134100000Y-97600000D03*
X133400000Y-97600000D03*
X163200000Y-97000000D03*
X163200000Y-96300000D03*
G04 #@! TO.N,/328P_AUTORESETn*
X164000000Y-58550000D03*
X168394390Y-87809637D03*
G04 #@! TO.N,/+5_3V3_328P_VCC*
X147076058Y-88126058D03*
X149900000Y-94200000D03*
G04 #@! TO.N,+AREF*
X124300000Y-55900000D03*
X161100000Y-86200004D03*
X159900000Y-86200000D03*
G04 #@! TO.N,/328P_RESETn*
X160200000Y-60800000D03*
G04 #@! TO.N,/IO8*
X126700000Y-86400008D03*
G04 #@! TO.N,/IO9*
X131900000Y-87400000D03*
X132800000Y-81400000D03*
G04 #@! TO.N,/SS*
X134500000Y-87400000D03*
X134500000Y-78400000D03*
G04 #@! TO.N,/MISO*
X129400000Y-55400000D03*
G04 #@! TO.N,/16U2PROG_328P_RESETn*
X122400000Y-63600002D03*
X160100000Y-64100000D03*
G04 #@! TO.N,/16U2_PB4*
X111100000Y-67150000D03*
X111099994Y-71500000D03*
G04 #@! TO.N,/16U2_RESETn*
X112000000Y-67150000D03*
X111557404Y-76905938D03*
G04 #@! TO.N,/USB_N*
X112750000Y-82900000D03*
X117600000Y-83450000D03*
G04 #@! TO.N,/USB_P*
X112750000Y-84900000D03*
X116800000Y-84141159D03*
G04 #@! TO.N,/16U2_TXD*
X159500000Y-62100000D03*
X132800000Y-62100000D03*
G04 #@! TO.N,/16U2_RXD*
X158797032Y-63097235D03*
X132800000Y-63300004D03*
G04 #@! TD*
D42*
G04 #@! TO.N,GND*
X128016000Y-53340000D02*
X128016000Y-54184000D01*
X127650000Y-54550000D02*
X127650000Y-55600000D01*
X128016000Y-54184000D02*
X127650000Y-54550000D01*
X105950000Y-87340000D02*
X106050000Y-87240000D01*
X142400000Y-96200000D02*
X141600000Y-95400000D01*
X127675000Y-69475000D02*
X128675000Y-69475000D01*
X117800000Y-92750000D02*
X117800000Y-91950000D01*
X127575000Y-79800000D02*
X128350000Y-79800000D01*
X105450000Y-52000000D02*
X106650000Y-52000000D01*
X106650000Y-52000000D02*
X106700000Y-52050000D01*
X146250000Y-81550000D02*
X145500000Y-82300000D01*
X119250000Y-82050000D02*
X119250000Y-82950000D01*
D43*
X108350000Y-86000000D02*
X109240755Y-86000000D01*
D42*
X124400000Y-91450000D02*
X124400000Y-90550000D01*
X109050000Y-74750000D02*
X109900000Y-74750000D01*
X105950000Y-80740000D02*
X106050000Y-80840000D01*
X124300000Y-83750000D02*
X125500000Y-83750000D01*
X119450000Y-98700000D02*
X121550000Y-98700000D01*
X121550000Y-98700000D02*
X121550000Y-102250000D01*
X128350000Y-79800000D02*
X128550000Y-79600000D01*
X123625000Y-71550000D02*
X123625000Y-70675000D01*
X123000000Y-61650000D02*
X122700000Y-61650000D01*
X111850000Y-81000000D02*
X111850000Y-79800000D01*
X165050000Y-86800000D02*
X164750000Y-86500000D01*
X115550000Y-81100000D02*
X114800000Y-81850000D01*
X119350000Y-61850000D02*
X119950000Y-62450000D01*
X142450000Y-96200000D02*
X142400000Y-96200000D01*
X123625000Y-70675000D02*
X123600000Y-70650000D01*
X142850000Y-79300000D02*
X142000000Y-79300000D01*
X103600000Y-85290000D02*
X103650000Y-85340000D01*
X108800000Y-89950000D02*
X109050000Y-89950000D01*
X108650000Y-79250000D02*
X109450000Y-79250000D01*
X142240000Y-101600000D02*
X144780000Y-101600000D01*
X118450000Y-61850000D02*
X119350000Y-61850000D01*
X103600000Y-90600000D02*
X103800000Y-90800000D01*
X147750000Y-93450000D02*
X147150000Y-92850000D01*
X141950000Y-101310000D02*
X142240000Y-101600000D01*
X146250000Y-81400000D02*
X146250000Y-81550000D01*
D43*
X109240755Y-86000000D02*
X109290754Y-85950001D01*
D42*
X128675000Y-69475000D02*
X128700000Y-69500000D01*
X122252399Y-61202399D02*
X121950000Y-60900000D01*
X125500000Y-83750000D02*
X125550000Y-83700000D01*
X115550000Y-81000000D02*
X115550000Y-81100000D01*
X121800000Y-82050000D02*
X121800000Y-82894398D01*
X116550000Y-101600000D02*
X119450000Y-98700000D01*
X122300000Y-91450000D02*
X122300000Y-90550000D01*
X142240000Y-101600000D02*
X142240000Y-101140000D01*
X108350000Y-81550000D02*
X109094398Y-81550000D01*
X121550000Y-95750000D02*
X121550000Y-98700000D01*
X147750000Y-94100000D02*
X147750000Y-93450000D01*
X122700000Y-61650000D02*
X122252399Y-61202399D01*
X103800000Y-58950000D02*
X107050000Y-58950000D01*
X107050000Y-58950000D02*
X107100000Y-59000000D01*
X168750000Y-91400000D02*
X169400000Y-91400000D01*
X131900000Y-96500000D02*
X131900000Y-96500000D01*
X131900000Y-97650000D02*
X131900000Y-96500000D01*
X131900000Y-96500000D02*
X132000000Y-96400000D01*
X132000000Y-96400000D02*
X132100000Y-96400000D01*
X148150000Y-79300000D02*
X149200000Y-79300000D01*
X165250000Y-85200000D02*
X166200000Y-85200000D01*
X165250000Y-85200000D02*
X164700000Y-85750000D01*
X165900000Y-85200000D02*
X165250000Y-85200000D01*
X165050000Y-86800000D02*
X166350000Y-86800000D01*
X124000000Y-79200000D02*
X124000000Y-80150000D01*
X137200000Y-97650000D02*
X138550000Y-97650000D01*
X138550000Y-97650000D02*
X138552493Y-97647507D01*
X122050000Y-89550000D02*
X121859637Y-89740363D01*
X121859637Y-89740363D02*
X121468021Y-89740363D01*
X121468021Y-89740363D02*
X121040363Y-89740363D01*
X118238820Y-90761180D02*
X118400000Y-90600000D01*
X118238820Y-91344458D02*
X118238820Y-90761180D01*
X117800000Y-91783278D02*
X118238820Y-91344458D01*
X117800000Y-92750000D02*
X117800000Y-91783278D01*
X116600000Y-78340000D02*
X116600000Y-76900000D01*
X119938201Y-75361799D02*
X119900000Y-75400000D01*
X121178201Y-75361799D02*
X119938201Y-75361799D01*
X121200000Y-75340000D02*
X121178201Y-75361799D01*
X142450000Y-94100000D02*
X142450000Y-93250002D01*
X142402397Y-93202399D02*
X142099998Y-92900000D01*
X142450000Y-93250002D02*
X142402397Y-93202399D01*
X147950000Y-96225000D02*
X147950000Y-95549994D01*
X147950000Y-95549994D02*
X148097595Y-95402399D01*
X148097595Y-95402399D02*
X148399994Y-95100000D01*
X167640000Y-73440000D02*
X167750000Y-73550000D01*
X167640000Y-68580000D02*
X167640000Y-73440000D01*
D43*
G04 #@! TO.N,/+5V_USB*
X106960000Y-82740000D02*
X106275000Y-82740000D01*
D42*
X107300000Y-82400000D02*
X107300000Y-81600000D01*
X104350000Y-94050000D02*
X103700000Y-94700000D01*
X107300000Y-81600000D02*
X107300000Y-81600000D01*
D43*
X106960000Y-82740000D02*
X107300000Y-82400000D01*
D42*
G04 #@! TO.N,+5V*
X103700000Y-101700000D02*
X103800000Y-101800000D01*
X104150000Y-102150000D02*
X103800000Y-101800000D01*
X139700000Y-101600000D02*
X139700000Y-101250000D01*
X139700000Y-101250000D02*
X140050000Y-100900000D01*
X113220000Y-92970000D02*
X113100000Y-92850000D01*
D43*
X119000000Y-79900000D02*
X119000000Y-78340000D01*
D42*
X115160000Y-92850000D02*
X115260000Y-92750000D01*
X116530000Y-92750000D02*
X116530000Y-91950000D01*
X115260000Y-89840000D02*
X115260000Y-91050000D01*
X119952561Y-88153201D02*
X116946799Y-88153201D01*
X120053201Y-88052561D02*
X119952561Y-88153201D01*
X120053201Y-85946799D02*
X120053201Y-88052561D01*
X116946799Y-88153201D02*
X115260000Y-89840000D01*
X120500000Y-85500000D02*
X120053201Y-85946799D01*
X115260000Y-91050000D02*
X115260000Y-92750000D01*
X120500000Y-81100000D02*
X120500000Y-85500000D01*
X119250000Y-80150000D02*
X119550000Y-80150000D01*
X119550000Y-80150000D02*
X120500000Y-81100000D01*
G04 #@! TO.N,/+5_3V3_16U2*
X123625000Y-73450000D02*
X123400000Y-73450000D01*
D44*
X123400000Y-73490000D02*
X122350000Y-74540000D01*
D42*
X123400000Y-73450000D02*
X123400000Y-73490000D01*
D43*
X119800000Y-78340000D02*
X119800000Y-78900000D01*
X119800000Y-78900000D02*
X119850000Y-78900000D01*
D44*
X122350000Y-74540000D02*
X121535910Y-74540000D01*
D42*
X119803210Y-78007300D02*
X119803210Y-78340000D01*
X119800000Y-78004090D02*
X119803210Y-78007300D01*
X122100000Y-80150000D02*
X124000000Y-82050000D01*
X121800000Y-80150000D02*
X122100000Y-80150000D01*
X120940000Y-78340000D02*
X119803210Y-78340000D01*
X121800000Y-79200000D02*
X120940000Y-78340000D01*
X121800000Y-80150000D02*
X121800000Y-79200000D01*
X124000000Y-82100000D02*
X123000000Y-83100000D01*
X124000000Y-82050000D02*
X124000000Y-82100000D01*
X122350000Y-83750000D02*
X123000000Y-83100000D01*
X121800000Y-83750000D02*
X122350000Y-83750000D01*
X115550000Y-82900000D02*
X115550000Y-84150000D01*
X118672342Y-84900000D02*
X119100000Y-84900000D01*
X115550000Y-84150000D02*
X116346799Y-84946799D01*
X118625543Y-84946799D02*
X118672342Y-84900000D01*
X116346799Y-84946799D02*
X118625543Y-84946799D01*
D44*
X119000000Y-74900000D02*
X119000000Y-76390000D01*
X119360000Y-74540000D02*
X119000000Y-74900000D01*
X120864090Y-74540000D02*
X119360000Y-74540000D01*
X119800000Y-77190000D02*
X119800000Y-78340000D01*
X119000000Y-76390000D02*
X119800000Y-77190000D01*
G04 #@! TO.N,/+3V3_16U2_UCAP*
X113650000Y-82900000D02*
X113650000Y-81000000D01*
D42*
X113650000Y-81000000D02*
X113650000Y-80700000D01*
D43*
X115600000Y-79700000D02*
X115800000Y-79500000D01*
X114650000Y-79700000D02*
X115600000Y-79700000D01*
X113650000Y-80700000D02*
X114650000Y-79700000D01*
X115800000Y-79500000D02*
X115800000Y-78340000D01*
D45*
G04 #@! TO.N,+5V_3V3*
X160350000Y-71200000D02*
X160350000Y-69200000D01*
D42*
X147950000Y-98325000D02*
X147950000Y-99850000D01*
X146150000Y-97800000D02*
X146150000Y-99250000D01*
X132080000Y-99730000D02*
X131900000Y-99550000D01*
X132080000Y-101600000D02*
X132080000Y-99730000D01*
X106750000Y-76800000D02*
X106750000Y-76550000D01*
X107700000Y-77750000D02*
X106750000Y-76800000D01*
X110800000Y-77750000D02*
X107700000Y-77750000D01*
X106750000Y-75150000D02*
X107150000Y-74750000D01*
X106750000Y-76550000D02*
X106750000Y-75150000D01*
X103365000Y-75050000D02*
X103200000Y-74885000D01*
X105000000Y-75050000D02*
X103365000Y-75050000D01*
X103200000Y-74885000D02*
X103200000Y-75900000D01*
X118650000Y-63800000D02*
X118700000Y-63850000D01*
X118650000Y-62655602D02*
X118650000Y-63800000D01*
X122800000Y-59950000D02*
X123000000Y-59750000D01*
X121150000Y-59950000D02*
X122800000Y-59950000D01*
X130550000Y-59900000D02*
X130550000Y-62000000D01*
X103550000Y-53766000D02*
X104140000Y-54356000D01*
X103550000Y-52000000D02*
X103550000Y-53766000D01*
X106750000Y-75150000D02*
X106302399Y-75597599D01*
X106302399Y-75597599D02*
X106000000Y-75899998D01*
X131900000Y-99550000D02*
X132200000Y-99550000D01*
X128600000Y-99250000D02*
X128900000Y-99250000D01*
X130300000Y-97527658D02*
X130300000Y-97100000D01*
X130300000Y-97850000D02*
X130300000Y-97527658D01*
X128900000Y-99250000D02*
X130300000Y-97850000D01*
X130300000Y-97150000D02*
X130300000Y-97100000D01*
X130550000Y-62000000D02*
X131499996Y-62000000D01*
X121800000Y-85650000D02*
X124300000Y-85650000D01*
X125050000Y-59900000D02*
X124255610Y-59900000D01*
X123000000Y-59750000D02*
X124050000Y-59750000D01*
X124050000Y-59750000D02*
X124200000Y-59900000D01*
X124950000Y-86300000D02*
X124300000Y-85650000D01*
X124950000Y-87650000D02*
X124950000Y-86300000D01*
D45*
X117335610Y-90164390D02*
X117335610Y-90970337D01*
X120326682Y-89056411D02*
X118443589Y-89056411D01*
X118443589Y-89056411D02*
X117335610Y-90164390D01*
X121096799Y-86353201D02*
X121096799Y-88286294D01*
X121096799Y-88286294D02*
X120326682Y-89056411D01*
X121800000Y-85650000D02*
X121096799Y-86353201D01*
D46*
X166850000Y-90900000D02*
X166850000Y-91400000D01*
X168250000Y-89500000D02*
X166850000Y-90900000D01*
D42*
X168050000Y-81850000D02*
X169350000Y-81850000D01*
X168000000Y-81800000D02*
X168050000Y-81850000D01*
X168000000Y-83300000D02*
X169400000Y-83300000D01*
D45*
X162750000Y-79900000D02*
X164450000Y-81600000D01*
X162285000Y-79900000D02*
X162750000Y-79900000D01*
D46*
X163200000Y-94500000D02*
X163200000Y-95872342D01*
X166300000Y-91400000D02*
X163200000Y-94500000D01*
X163200000Y-95872342D02*
X163200000Y-96300000D01*
X166850000Y-91400000D02*
X166300000Y-91400000D01*
X163200000Y-97000000D02*
X163200000Y-96300000D01*
D45*
X160100000Y-79200000D02*
X160800000Y-79900000D01*
X160100000Y-79198738D02*
X160100000Y-79200000D01*
X159400000Y-78498738D02*
X160100000Y-79198738D01*
X160325000Y-71175000D02*
X159400000Y-72100000D01*
X160800000Y-79900000D02*
X162285000Y-79900000D01*
X160350000Y-71200000D02*
X160325000Y-71175000D01*
X169303201Y-76497439D02*
X168605762Y-75800000D01*
X169303201Y-79482561D02*
X169303201Y-76497439D01*
X169300000Y-79485762D02*
X169303201Y-79482561D01*
X169300000Y-88200000D02*
X169300000Y-79485762D01*
X168250000Y-89500000D02*
X168250000Y-89250000D01*
X159900000Y-75800000D02*
X159400000Y-75300000D01*
X159400000Y-75300000D02*
X159400000Y-78498738D01*
X168605762Y-75800000D02*
X159900000Y-75800000D01*
X168250000Y-89250000D02*
X169300000Y-88200000D01*
X159400000Y-72100000D02*
X159400000Y-75300000D01*
D47*
G04 #@! TO.N,/16U2_16MHZ_XTAL2*
X125775000Y-71275000D02*
X126700000Y-72200000D01*
X125775000Y-69475000D02*
X125775000Y-71275000D01*
X123325000Y-75175000D02*
X123625000Y-75175000D01*
X122360000Y-76140000D02*
X123325000Y-75175000D01*
X121200000Y-76140000D02*
X122360000Y-76140000D01*
X126700000Y-72400000D02*
X126700000Y-72200000D01*
X123925000Y-75175000D02*
X126700000Y-72400000D01*
X123625000Y-75175000D02*
X123925000Y-75175000D01*
G04 #@! TO.N,/16U2_16MHZ_XTAL1*
X125675000Y-78125000D02*
X126700000Y-77100000D01*
X125675000Y-79800000D02*
X125675000Y-78125000D01*
X123650000Y-77100000D02*
X123625000Y-77075000D01*
X126700000Y-77100000D02*
X123650000Y-77100000D01*
X121335000Y-77075000D02*
X121200000Y-76940000D01*
X123625000Y-77075000D02*
X121335000Y-77075000D01*
G04 #@! TO.N,Net-(C11-Pad2)*
X167210000Y-56650000D02*
X167800000Y-57240000D01*
X165300000Y-56650000D02*
X167210000Y-56650000D01*
G04 #@! TO.N,/328P_AUTORESETn*
X165300000Y-58550000D02*
X164050000Y-58550000D01*
X168200000Y-85200000D02*
X168200000Y-86550000D01*
X168250000Y-87665247D02*
X168394390Y-87809637D01*
X168250000Y-86800000D02*
X168250000Y-87665247D01*
D42*
G04 #@! TO.N,+3V3*
X137160000Y-101600000D02*
X137150000Y-101600000D01*
X137160000Y-99590000D02*
X137200000Y-99550000D01*
G04 #@! TO.N,/+5_3V3_328P_VCC*
X148150000Y-83672000D02*
X148425000Y-83947000D01*
X148150000Y-81400000D02*
X148150000Y-83672000D01*
D46*
X148425000Y-85075000D02*
X148425000Y-83947000D01*
X147076058Y-86423942D02*
X148425000Y-85075000D01*
X147076058Y-88126058D02*
X147076058Y-86423942D01*
D42*
G04 #@! TO.N,+AREF*
X145850000Y-91602000D02*
X145885000Y-91567000D01*
X145850000Y-94100000D02*
X145850000Y-91602000D01*
X125750000Y-53614000D02*
X125476000Y-53340000D01*
X125750000Y-55600000D02*
X125750000Y-53614000D01*
X145885000Y-91567000D02*
X145885000Y-91367000D01*
X124600000Y-55600000D02*
X124300000Y-55900000D01*
X125750000Y-55600000D02*
X124600000Y-55600000D01*
D46*
X159900004Y-86200004D02*
X159900000Y-86200000D01*
X161100000Y-86200004D02*
X159900004Y-86200004D01*
X159472342Y-86200000D02*
X159900000Y-86200000D01*
X158472342Y-87200000D02*
X159472342Y-86200000D01*
X150052000Y-87200000D02*
X158472342Y-87200000D01*
X145885000Y-91367000D02*
X150052000Y-87200000D01*
D42*
G04 #@! TO.N,/+5_3V3_328P_AVCC*
X144650000Y-95900000D02*
X144350000Y-96200000D01*
X146150000Y-95900000D02*
X144650000Y-95900000D01*
D47*
G04 #@! TO.N,/328P_16MHZ_XTAL2*
X146250000Y-77900000D02*
X146250000Y-79300000D01*
X147875000Y-76275000D02*
X146250000Y-77900000D01*
X147875000Y-76225000D02*
X147875000Y-76275000D01*
X146250000Y-79850000D02*
X144700000Y-81400000D01*
X146250000Y-79300000D02*
X146250000Y-79850000D01*
X144700000Y-81700000D02*
X143600000Y-82800000D01*
X144700000Y-81400000D02*
X144700000Y-81700000D01*
X143600000Y-83692000D02*
X143345000Y-83947000D01*
X143600000Y-82800000D02*
X143600000Y-83692000D01*
G04 #@! TO.N,/328P_16MHZ_XTAL1*
X142975000Y-76275000D02*
X143800000Y-77100000D01*
X142975000Y-76225000D02*
X142975000Y-76275000D01*
X140805000Y-83947000D02*
X140805000Y-83747000D01*
X144750000Y-78050000D02*
X144750000Y-79300000D01*
X142975000Y-76275000D02*
X144750000Y-78050000D01*
X144750000Y-79450000D02*
X142800000Y-81400000D01*
X144750000Y-79300000D02*
X144750000Y-79450000D01*
X140805000Y-83695000D02*
X140805000Y-83947000D01*
X142800000Y-81700000D02*
X140805000Y-83695000D01*
X142800000Y-81400000D02*
X142800000Y-81700000D01*
G04 #@! TO.N,/16U2_BUF_RESETn*
X106300000Y-78800000D02*
X106750000Y-79250000D01*
X105150000Y-78800000D02*
X106300000Y-78800000D01*
X106750000Y-79250000D02*
X107700000Y-79250000D01*
X107700000Y-79250000D02*
X107700000Y-80100000D01*
X107700000Y-80100000D02*
X108050000Y-80450000D01*
X108050000Y-80450000D02*
X109300000Y-80450000D01*
X109300000Y-80450000D02*
X109850000Y-81000000D01*
G04 #@! TO.N,/328P_BUF_RESETn*
X166600000Y-81850000D02*
X166450000Y-82000000D01*
X166100000Y-83300000D02*
X166400000Y-83300000D01*
X166250000Y-83150000D02*
X166100000Y-83300000D01*
X166996799Y-84096799D02*
X166996799Y-85961037D01*
X167300000Y-86264238D02*
X167300000Y-86800000D01*
X166996799Y-85961037D02*
X167300000Y-86264238D01*
X166200000Y-83300000D02*
X166996799Y-84096799D01*
X165900000Y-83300000D02*
X166200000Y-83300000D01*
X166100000Y-83100000D02*
X165900000Y-83300000D01*
X166100000Y-81850000D02*
X166100000Y-83100000D01*
G04 #@! TO.N,/USER_BUTTON_BUF*
X128500000Y-94050000D02*
X128500000Y-95400000D01*
X127800000Y-93350000D02*
X128500000Y-94050000D01*
X122900000Y-88600000D02*
X122050000Y-88600000D01*
X123350000Y-89050000D02*
X122900000Y-88600000D01*
X123350000Y-92600000D02*
X123350000Y-89050000D01*
X124100000Y-93350000D02*
X123350000Y-92600000D01*
X124400000Y-93350000D02*
X124100000Y-93350000D01*
X127800000Y-93350000D02*
X124400000Y-93350000D01*
X122250000Y-87650000D02*
X122250000Y-88600000D01*
G04 #@! TO.N,Net-(D1-Pad2)*
X162300000Y-69150000D02*
X162250000Y-69200000D01*
X162300000Y-67400000D02*
X162300000Y-69150000D01*
G04 #@! TO.N,Net-(D2-Pad2)*
X126750000Y-61650000D02*
X126800000Y-61700000D01*
X126800000Y-60050000D02*
X126950000Y-59900000D01*
X126800000Y-61700000D02*
X126800000Y-60050000D01*
G04 #@! TO.N,Net-(D2-Pad1)*
X121150000Y-61850000D02*
X121150000Y-62050000D01*
X125200000Y-62400000D02*
X125200000Y-61700000D01*
X124950000Y-62650000D02*
X125200000Y-62400000D01*
X121350000Y-62650000D02*
X124950000Y-62650000D01*
X121150000Y-62450000D02*
X121350000Y-62650000D01*
X121150000Y-61850000D02*
X121150000Y-62450000D01*
G04 #@! TO.N,/16U2_TX_LED*
X122500000Y-64300000D02*
X125100000Y-64300000D01*
X118200000Y-68600000D02*
X122500000Y-64300000D01*
X118200000Y-69940000D02*
X118200000Y-68600000D01*
G04 #@! TO.N,Net-(D3-Pad2)*
X126700000Y-63600000D02*
X127550000Y-62750000D01*
X126700000Y-64300000D02*
X126700000Y-63600000D01*
X127550000Y-62750000D02*
X127553201Y-62746799D01*
X127550000Y-62750000D02*
X127800000Y-62500000D01*
X128650000Y-60200000D02*
X128650000Y-59900000D01*
X127800000Y-61050000D02*
X128650000Y-60200000D01*
X127800000Y-62500000D02*
X127800000Y-61050000D01*
G04 #@! TO.N,Net-(D4-Pad2)*
X128650000Y-62950000D02*
X127750000Y-63850000D01*
X128650000Y-62000000D02*
X128650000Y-62950000D01*
X127400000Y-66000000D02*
X126700000Y-66000000D01*
X127750000Y-65650000D02*
X127400000Y-66000000D01*
X127750000Y-63850000D02*
X127750000Y-65650000D01*
G04 #@! TO.N,/16U2_RX_LED*
X122200000Y-66000000D02*
X124400000Y-66000000D01*
X124400000Y-66000000D02*
X125100000Y-66000000D01*
X119000000Y-69200000D02*
X122200000Y-66000000D01*
X119000000Y-69940000D02*
X119000000Y-69200000D01*
G04 #@! TO.N,Net-(D5-Pad2)*
X104835000Y-77115000D02*
X105000000Y-76950000D01*
X103200000Y-77115000D02*
X104835000Y-77115000D01*
X103200000Y-78750000D02*
X103250000Y-78800000D01*
X103200000Y-77115000D02*
X103200000Y-78750000D01*
G04 #@! TO.N,/BUTTON_RESETn*
X164515000Y-79800000D02*
X164515000Y-79900000D01*
X162765000Y-78050000D02*
X164515000Y-79800000D01*
X161250000Y-78050000D02*
X162765000Y-78050000D01*
X166050000Y-79900000D02*
X166100000Y-79950000D01*
X164515000Y-79900000D02*
X166050000Y-79900000D01*
X166100000Y-79950000D02*
X168000000Y-79950000D01*
X167750000Y-79700000D02*
X168000000Y-79950000D01*
X167750000Y-78050000D02*
X167750000Y-79700000D01*
G04 #@! TO.N,/328P_RESETn*
X134620000Y-101600000D02*
X134620000Y-101800000D01*
X162550000Y-81900000D02*
X163450000Y-82800000D01*
X162550000Y-81600000D02*
X162550000Y-81900000D01*
X163450000Y-83732000D02*
X163665000Y-83947000D01*
X163450000Y-82800000D02*
X163450000Y-83732000D01*
X149800000Y-101300000D02*
X149800000Y-100700000D01*
X163665000Y-85247000D02*
X163650000Y-85262000D01*
X163650000Y-85262000D02*
X163650000Y-87200000D01*
X163650000Y-87200000D02*
X165950000Y-89500000D01*
X163665000Y-85247000D02*
X163665000Y-83947000D01*
X165950000Y-89500000D02*
X166550000Y-89500000D01*
X159462000Y-89450000D02*
X163665000Y-85247000D01*
X150550000Y-89450000D02*
X159462000Y-89450000D01*
X149700000Y-92400000D02*
X149700000Y-90300000D01*
X151600000Y-98850000D02*
X151600000Y-94300000D01*
X149800000Y-100650000D02*
X151600000Y-98850000D01*
X149700000Y-90300000D02*
X150550000Y-89450000D01*
X151600000Y-94300000D02*
X149700000Y-92400000D01*
X149800000Y-101300000D02*
X149800000Y-100650000D01*
X160200000Y-61227658D02*
X160200000Y-60800000D01*
X158100000Y-79300000D02*
X158100000Y-65000000D01*
X160200000Y-62900000D02*
X160200000Y-61227658D01*
X158100000Y-65000000D02*
X160200000Y-62900000D01*
X160400000Y-81600000D02*
X158100000Y-79300000D01*
X162550000Y-81600000D02*
X160400000Y-81600000D01*
X149800000Y-102800000D02*
X149800000Y-101300000D01*
X135120000Y-103400000D02*
X149200000Y-103400000D01*
X134620000Y-102900000D02*
X135120000Y-103400000D01*
X149200000Y-103400000D02*
X149800000Y-102800000D01*
X134620000Y-101600000D02*
X134620000Y-102900000D01*
G04 #@! TO.N,/AD0*
X152900000Y-99800000D02*
X152400000Y-100300000D01*
X152400000Y-100300000D02*
X152400000Y-101600000D01*
X152900000Y-93702000D02*
X152900000Y-99800000D01*
X150965000Y-91767000D02*
X152900000Y-93702000D01*
X150965000Y-91567000D02*
X150965000Y-91767000D01*
G04 #@! TO.N,/AD1*
X154940000Y-96640000D02*
X154940000Y-101600000D01*
X154200000Y-92262000D02*
X154200000Y-95900000D01*
X154200000Y-95900000D02*
X154940000Y-96640000D01*
X153505000Y-91567000D02*
X154200000Y-92262000D01*
G04 #@! TO.N,/AD2*
X157300000Y-101420000D02*
X157480000Y-101600000D01*
X157300000Y-96500000D02*
X157300000Y-101420000D01*
X156600000Y-95800000D02*
X157300000Y-96500000D01*
X156600000Y-92122000D02*
X156600000Y-95800000D01*
X156045000Y-91567000D02*
X156600000Y-92122000D01*
G04 #@! TO.N,/AD3*
X158700000Y-95700000D02*
X159300000Y-96300000D01*
X159300000Y-100880000D02*
X160020000Y-101600000D01*
X159300000Y-96300000D02*
X159300000Y-100880000D01*
X158700000Y-91682000D02*
X158700000Y-95700000D01*
X158585000Y-91567000D02*
X158700000Y-91682000D01*
G04 #@! TO.N,/AD4_SDA*
X162560000Y-101560000D02*
X162560000Y-101600000D01*
X160800000Y-99800000D02*
X162560000Y-101560000D01*
X160800000Y-91892000D02*
X160800000Y-99800000D01*
X161125000Y-91567000D02*
X160800000Y-91892000D01*
G04 #@! TO.N,/AD5_SCL*
X161800000Y-98100000D02*
X165100000Y-101400000D01*
X161800000Y-93800000D02*
X161800000Y-98100000D01*
X165100000Y-101400000D02*
X165100000Y-101600000D01*
X163665000Y-91935000D02*
X161800000Y-93800000D01*
X163665000Y-91567000D02*
X163665000Y-91935000D01*
G04 #@! TO.N,/IO0*
X165100000Y-53540000D02*
X165100000Y-53340000D01*
X164000000Y-54640000D02*
X165100000Y-53540000D01*
X163800000Y-54640000D02*
X164000000Y-54640000D01*
X162600000Y-55840000D02*
X163800000Y-54640000D01*
X162600000Y-56650000D02*
X162600000Y-55840000D01*
X159200000Y-57600000D02*
X160700000Y-57600000D01*
X161125000Y-83947000D02*
X161047000Y-83947000D01*
X157200000Y-59600000D02*
X159200000Y-57600000D01*
X161650000Y-56650000D02*
X162600000Y-56650000D01*
X160700000Y-57600000D02*
X161650000Y-56650000D01*
X157200000Y-80100000D02*
X157200000Y-59600000D01*
X161047000Y-83947000D02*
X157200000Y-80100000D01*
G04 #@! TO.N,/IO1*
X159900000Y-56000000D02*
X162560000Y-53340000D01*
X159900000Y-56650000D02*
X159900000Y-56000000D01*
X158738353Y-56650000D02*
X158950000Y-56650000D01*
X158950000Y-56650000D02*
X159900000Y-56650000D01*
X155900000Y-59488353D02*
X158738353Y-56650000D01*
X155900000Y-81062000D02*
X155900000Y-59488353D01*
X158585000Y-83747000D02*
X155900000Y-81062000D01*
X158585000Y-83947000D02*
X158585000Y-83747000D01*
G04 #@! TO.N,/IO2*
X160020000Y-53480000D02*
X160020000Y-53340000D01*
X154200000Y-59300000D02*
X160020000Y-53480000D01*
X154200000Y-82102000D02*
X154200000Y-59300000D01*
X156045000Y-83947000D02*
X154200000Y-82102000D01*
G04 #@! TO.N,/IO3*
X157480000Y-53720000D02*
X157480000Y-53340000D01*
X152400000Y-82842000D02*
X152400000Y-58800000D01*
X152400000Y-58800000D02*
X157480000Y-53720000D01*
X153505000Y-83947000D02*
X152400000Y-82842000D01*
G04 #@! TO.N,/IO4*
X154940000Y-53540000D02*
X154940000Y-53340000D01*
X150965000Y-83947000D02*
X151000000Y-83912000D01*
X150600000Y-58200000D02*
X154940000Y-53860000D01*
X150600000Y-83582000D02*
X150600000Y-58200000D01*
X154940000Y-53860000D02*
X154940000Y-53340000D01*
X150965000Y-83947000D02*
X150600000Y-83582000D01*
G04 #@! TO.N,/IO5*
X152400000Y-53800000D02*
X152400000Y-53340000D01*
X148900000Y-57300000D02*
X152400000Y-53800000D01*
X148900000Y-65000000D02*
X148900000Y-57300000D01*
X140500000Y-80800000D02*
X140500000Y-73400000D01*
X138265000Y-83035000D02*
X140500000Y-80800000D01*
X140500000Y-73400000D02*
X148900000Y-65000000D01*
X138265000Y-83947000D02*
X138265000Y-83035000D01*
G04 #@! TO.N,/IO6*
X147150000Y-64950000D02*
X147150000Y-56450000D01*
X149860000Y-53740000D02*
X149860000Y-53340000D01*
X147150000Y-56450000D02*
X149860000Y-53740000D01*
X139300000Y-80100000D02*
X139300000Y-72800000D01*
X139300000Y-72800000D02*
X147150000Y-64950000D01*
X135725000Y-83675000D02*
X139300000Y-80100000D01*
X135725000Y-83947000D02*
X135725000Y-83675000D01*
G04 #@! TO.N,/IO7*
X145300000Y-55800000D02*
X147320000Y-53780000D01*
X147320000Y-53780000D02*
X147320000Y-53340000D01*
X145300000Y-65100000D02*
X145300000Y-55800000D01*
X138200000Y-79400000D02*
X138200000Y-72200000D01*
X133653000Y-83947000D02*
X138200000Y-79400000D01*
X138200000Y-72200000D02*
X145300000Y-65100000D01*
X133185000Y-83947000D02*
X133653000Y-83947000D01*
G04 #@! TO.N,/IO8*
X126700000Y-87650000D02*
X126700000Y-86400008D01*
X143700000Y-65400000D02*
X143700000Y-53700000D01*
X141200000Y-67000000D02*
X142100000Y-67000000D01*
X137100000Y-71100000D02*
X141200000Y-67000000D01*
X143340000Y-53340000D02*
X143256000Y-53340000D01*
X137100000Y-78800000D02*
X137100000Y-71100000D01*
X133700000Y-82200000D02*
X137100000Y-78800000D01*
X143700000Y-53700000D02*
X143340000Y-53340000D01*
X142100000Y-67000000D02*
X143700000Y-65400000D01*
X130645000Y-83747000D02*
X132192000Y-82200000D01*
X132192000Y-82200000D02*
X133700000Y-82200000D01*
X130645000Y-83947000D02*
X130645000Y-83747000D01*
G04 #@! TO.N,/IO9*
X130645000Y-88655000D02*
X131597601Y-87702399D01*
X131597601Y-87702399D02*
X131900000Y-87400000D01*
X130645000Y-91567000D02*
X130645000Y-88655000D01*
X133102399Y-81097601D02*
X132800000Y-81400000D01*
X135800000Y-78400000D02*
X133102399Y-81097601D01*
X139800000Y-54256000D02*
X139800000Y-66100000D01*
X135800000Y-70100000D02*
X135800000Y-78400000D01*
X139800000Y-66100000D02*
X135800000Y-70100000D01*
X140716000Y-53340000D02*
X139800000Y-54256000D01*
G04 #@! TO.N,/SS*
X133185000Y-91567000D02*
X133185000Y-88715000D01*
X133185000Y-88715000D02*
X134197601Y-87702399D01*
X134197601Y-87702399D02*
X134500000Y-87400000D01*
X134500000Y-77972342D02*
X134500000Y-78400000D01*
X134500000Y-69500000D02*
X134500000Y-77972342D01*
X138400000Y-65600000D02*
X134500000Y-69500000D01*
X138400000Y-53716000D02*
X138400000Y-65600000D01*
X138000000Y-53316000D02*
X138400000Y-53716000D01*
G04 #@! TO.N,/MOSI*
X135725000Y-91567000D02*
X135725000Y-91367000D01*
X108336000Y-52700000D02*
X107529999Y-53506001D01*
X120450000Y-55600000D02*
X113100000Y-55600000D01*
X122450000Y-51750000D02*
X121650000Y-52550000D01*
X121650000Y-52550000D02*
X121650000Y-54400000D01*
X134246000Y-51750000D02*
X122450000Y-51750000D01*
X107529999Y-53506001D02*
X106680000Y-54356000D01*
X110200000Y-52700000D02*
X108336000Y-52700000D01*
X113100000Y-55600000D02*
X110200000Y-52700000D01*
X135636000Y-53140000D02*
X134246000Y-51750000D01*
X121650000Y-54400000D02*
X120450000Y-55600000D01*
X135636000Y-53340000D02*
X135636000Y-53140000D01*
X137100000Y-55000000D02*
X135636000Y-53536000D01*
X137100000Y-64800000D02*
X137100000Y-55000000D01*
X135636000Y-53536000D02*
X135636000Y-53340000D01*
X133300000Y-68600000D02*
X137100000Y-64800000D01*
X133300000Y-79200000D02*
X133300000Y-68600000D01*
X129300000Y-84942000D02*
X129300000Y-83200000D01*
X135270290Y-86100000D02*
X130458000Y-86100000D01*
X135725000Y-86554710D02*
X135270290Y-86100000D01*
X130458000Y-86100000D02*
X129300000Y-84942000D01*
X129300000Y-83200000D02*
X133300000Y-79200000D01*
X135725000Y-91567000D02*
X135725000Y-86554710D01*
G04 #@! TO.N,/MISO*
X128600000Y-56800000D02*
X129400000Y-56000000D01*
X104140000Y-55746000D02*
X104326799Y-55559201D01*
X111009201Y-55559201D02*
X112250000Y-56800000D01*
X104326799Y-55559201D02*
X111009201Y-55559201D01*
X112250000Y-56800000D02*
X128600000Y-56800000D01*
X129400000Y-56000000D02*
X129400000Y-55400000D01*
X104140000Y-56896000D02*
X104140000Y-55746000D01*
X133096000Y-53596000D02*
X133096000Y-53340000D01*
X135700000Y-56200000D02*
X133096000Y-53596000D01*
X135700000Y-64200000D02*
X135700000Y-56200000D01*
X128400000Y-85100000D02*
X128400000Y-82600000D01*
X131900000Y-68000000D02*
X135700000Y-64200000D01*
X129491790Y-86191790D02*
X128400000Y-85100000D01*
X129491790Y-92591790D02*
X129491790Y-86191790D01*
X130300000Y-93400000D02*
X129491790Y-92591790D01*
X131900000Y-79100000D02*
X131900000Y-68000000D01*
X136632000Y-93400000D02*
X130300000Y-93400000D01*
X138265000Y-91767000D02*
X136632000Y-93400000D01*
X128400000Y-82600000D02*
X131900000Y-79100000D01*
X138265000Y-91567000D02*
X138265000Y-91767000D01*
G04 #@! TO.N,/SCK*
X130556000Y-53356000D02*
X130500000Y-53300000D01*
X118450000Y-60900000D02*
X118450000Y-59950000D01*
X113600000Y-60900000D02*
X118450000Y-60900000D01*
X106680000Y-56896000D02*
X109284000Y-59500000D01*
X112200000Y-59500000D02*
X113600000Y-60900000D01*
X109284000Y-59500000D02*
X112200000Y-59500000D01*
X134100000Y-57084000D02*
X130556000Y-53540000D01*
X130400000Y-79100000D02*
X130400000Y-67700000D01*
X134100000Y-64000000D02*
X134100000Y-57084000D01*
X127100000Y-82400000D02*
X130400000Y-79100000D01*
X127100000Y-85300000D02*
X127100000Y-82400000D01*
X128400000Y-86600000D02*
X127100000Y-85300000D01*
X130556000Y-53540000D02*
X130556000Y-53340000D01*
X128400000Y-92600000D02*
X128400000Y-86600000D01*
X130400000Y-67700000D02*
X134100000Y-64000000D01*
X129925000Y-94125000D02*
X128400000Y-92600000D01*
X139000000Y-94125000D02*
X129925000Y-94125000D01*
X130556000Y-56444000D02*
X130556000Y-53340000D01*
X130550000Y-56450000D02*
X130556000Y-56444000D01*
X129100000Y-58100000D02*
X130550000Y-56650000D01*
X119300000Y-59950000D02*
X121150000Y-58100000D01*
X130550000Y-56650000D02*
X130550000Y-56450000D01*
X121150000Y-58100000D02*
X129100000Y-58100000D01*
X118450000Y-59950000D02*
X119300000Y-59950000D01*
G04 #@! TO.N,/16U2_MISO*
X108050000Y-69938354D02*
X108956045Y-70844399D01*
X107475846Y-68400000D02*
X108050000Y-68974154D01*
X108050000Y-68974154D02*
X108050000Y-69938354D01*
X105500000Y-68400000D02*
X107475846Y-68400000D01*
X112304399Y-70844399D02*
X112800000Y-71340000D01*
X104140000Y-67040000D02*
X105500000Y-68400000D01*
X108956045Y-70844399D02*
X112304399Y-70844399D01*
X104140000Y-65532000D02*
X104140000Y-67040000D01*
G04 #@! TO.N,/16U2_MOSI*
X113265000Y-70300000D02*
X113625000Y-69940000D01*
X109123293Y-70300000D02*
X113265000Y-70300000D01*
X113625000Y-69940000D02*
X114200000Y-69940000D01*
X108553211Y-69729918D02*
X109123293Y-70300000D01*
X108553211Y-68453211D02*
X108553211Y-69729918D01*
X107700000Y-67600000D02*
X108553211Y-68453211D01*
X106200000Y-67600000D02*
X107700000Y-67600000D01*
X106680000Y-62992000D02*
X105476799Y-64195201D01*
X105476799Y-66876799D02*
X106200000Y-67600000D01*
X105476799Y-64195201D02*
X105476799Y-66876799D01*
G04 #@! TO.N,/16U2_SCLK*
X106832000Y-65532000D02*
X106680000Y-65532000D01*
X109450000Y-69100000D02*
X109450000Y-68150000D01*
X109450000Y-68150000D02*
X106832000Y-65532000D01*
G04 #@! TO.N,/16U2_HDR_RESETn*
X111150000Y-65550000D02*
X111800000Y-64900000D01*
X111800000Y-64900000D02*
X115920000Y-64900000D01*
X115920000Y-64900000D02*
X116200000Y-64620000D01*
X110440081Y-65550000D02*
X111150000Y-65550000D01*
X110422081Y-65532000D02*
X110440081Y-65550000D01*
X109220000Y-65532000D02*
X110422081Y-65532000D01*
G04 #@! TO.N,/CON_USB_P*
X109750000Y-84900000D02*
X109950000Y-84900000D01*
X106275000Y-84040000D02*
X107140000Y-84040000D01*
X107600000Y-84500000D02*
X108350000Y-84500000D01*
X107140000Y-84040000D02*
X107600000Y-84500000D01*
X109550000Y-84500000D02*
X109950000Y-84900000D01*
X108350000Y-84500000D02*
X109550000Y-84500000D01*
G04 #@! TO.N,/CON_USB_N*
X106275000Y-83390000D02*
X107090000Y-83390000D01*
X107189147Y-83293209D02*
X107432356Y-83050000D01*
X107432356Y-83050000D02*
X108350000Y-83050000D01*
X107186791Y-83293209D02*
X107189147Y-83293209D01*
X107090000Y-83390000D02*
X107186791Y-83293209D01*
X109800000Y-83050000D02*
X109950000Y-82900000D01*
X108350000Y-83050000D02*
X109800000Y-83050000D01*
G04 #@! TO.N,Net-(J7-Pad4)*
X107400000Y-86435762D02*
X107964238Y-87000000D01*
X107964238Y-87000000D02*
X109300000Y-87000000D01*
X107400000Y-85011647D02*
X107400000Y-86435762D01*
X109300000Y-87000000D02*
X109950000Y-87000000D01*
X107078353Y-84690000D02*
X107400000Y-85011647D01*
X106275000Y-84690000D02*
X107078353Y-84690000D01*
G04 #@! TO.N,/16U2PROG_328P_RESETn*
X167800000Y-59780000D02*
X164420000Y-59780000D01*
X164420000Y-59780000D02*
X160402399Y-63797601D01*
X160402399Y-63797601D02*
X160100000Y-64100000D01*
X121800000Y-63600000D02*
X122399998Y-63600000D01*
X122399998Y-63600000D02*
X122400000Y-63600002D01*
X119650000Y-65750000D02*
X121800000Y-63600000D01*
X118700000Y-65750000D02*
X119650000Y-65750000D01*
X118700000Y-66800000D02*
X118700000Y-65750000D01*
X116600000Y-68900000D02*
X118700000Y-66800000D01*
X116600000Y-69940000D02*
X116600000Y-68900000D01*
G04 #@! TO.N,Net-(JP1-Pad3)*
X165600000Y-61050000D02*
X166500000Y-61950000D01*
X165300000Y-61050000D02*
X165600000Y-61050000D01*
X167430000Y-61950000D02*
X167800000Y-62320000D01*
X166500000Y-61950000D02*
X167430000Y-61950000D01*
G04 #@! TO.N,/16U2_PB6*
X111010000Y-73000000D02*
X111750000Y-73740000D01*
X107200000Y-73000000D02*
X111010000Y-73000000D01*
X111750000Y-73740000D02*
X112800000Y-73740000D01*
X106680000Y-72480000D02*
X107200000Y-73000000D01*
X106680000Y-72479916D02*
X106680000Y-72480000D01*
G04 #@! TO.N,/16U2_PB4*
X111750000Y-72140000D02*
X112800000Y-72140000D01*
X111110000Y-71500000D02*
X111750000Y-72140000D01*
X108700000Y-71500000D02*
X111110000Y-71500000D01*
X107139916Y-69939916D02*
X108700000Y-71500000D01*
X106680000Y-69939916D02*
X107139916Y-69939916D01*
X111100000Y-67000000D02*
X111100000Y-67150000D01*
X112200000Y-65900000D02*
X111100000Y-67000000D01*
X117200000Y-65900000D02*
X112200000Y-65900000D01*
X117600000Y-65500000D02*
X117200000Y-65900000D01*
X117600000Y-63280000D02*
X117600000Y-65500000D01*
X116400000Y-62080000D02*
X117600000Y-63280000D01*
X116200000Y-62080000D02*
X116400000Y-62080000D01*
G04 #@! TO.N,/16U2_PB7*
X104989999Y-73329915D02*
X105029915Y-73329915D01*
X104140000Y-72479916D02*
X104989999Y-73329915D01*
X105383117Y-73683117D02*
X110716883Y-73683117D01*
X105029915Y-73329915D02*
X105383117Y-73683117D01*
X111573766Y-74540000D02*
X112800000Y-74540000D01*
X110716883Y-73683117D02*
X111573766Y-74540000D01*
G04 #@! TO.N,/16U2_PB5*
X111750000Y-72940000D02*
X112800000Y-72940000D01*
X107588362Y-71276715D02*
X108611647Y-72300000D01*
X111110000Y-72300000D02*
X111750000Y-72940000D01*
X108611647Y-72300000D02*
X111110000Y-72300000D01*
X105476799Y-71276715D02*
X107588362Y-71276715D01*
X104140000Y-69939916D02*
X105476799Y-71276715D01*
G04 #@! TO.N,/16U2_RESETn*
X110800000Y-76500000D02*
X110800000Y-75850000D01*
X112800000Y-76940000D02*
X111240000Y-76940000D01*
X110750000Y-76550000D02*
X110800000Y-76500000D01*
X108650000Y-76550000D02*
X110750000Y-76550000D01*
X114900000Y-67160000D02*
X114890000Y-67150000D01*
X116200000Y-67160000D02*
X114900000Y-67160000D01*
X114890000Y-67150000D02*
X112000000Y-67150000D01*
X111240000Y-76940000D02*
X110800000Y-76500000D01*
G04 #@! TO.N,/16U2_SCLK_R*
X111350000Y-68950000D02*
X111350000Y-69100000D01*
X112100000Y-68200000D02*
X111350000Y-68950000D01*
X114310000Y-68200000D02*
X112100000Y-68200000D01*
X115000000Y-68890000D02*
X114310000Y-68200000D01*
X115000000Y-69940000D02*
X115000000Y-68890000D01*
G04 #@! TO.N,/USB_N*
X118200000Y-78340000D02*
X118200000Y-79390000D01*
X112650000Y-82900000D02*
X112750000Y-82900000D01*
X118200000Y-78340000D02*
X118200000Y-79600000D01*
X118200000Y-79600000D02*
X117590000Y-80210000D01*
X111850000Y-82900000D02*
X112750000Y-82900000D01*
X117600000Y-80460000D02*
X117600000Y-83450000D01*
X117590000Y-80450000D02*
X117600000Y-80460000D01*
X117590000Y-80210000D02*
X117590000Y-80450000D01*
X117590000Y-80450000D02*
X117590000Y-80600000D01*
G04 #@! TO.N,/USB_P*
X117400000Y-78340000D02*
X117400000Y-79372168D01*
X111850000Y-84900000D02*
X112750000Y-84900000D01*
X117400000Y-78340000D02*
X117400000Y-79390000D01*
X116800000Y-79990000D02*
X116800000Y-83713501D01*
X116800000Y-83713501D02*
X116800000Y-84141159D01*
X117400000Y-79390000D02*
X116800000Y-79990000D01*
G04 #@! TO.N,/16U2_TXD*
X119800000Y-69900000D02*
X122500000Y-67200000D01*
X127700000Y-67200000D02*
X132497601Y-62402399D01*
X119800000Y-69940000D02*
X119800000Y-69900000D01*
X132497601Y-62402399D02*
X132800000Y-62100000D01*
X122500000Y-67200000D02*
X127700000Y-67200000D01*
X160100000Y-59600000D02*
X159500000Y-60200000D01*
X161200000Y-59600000D02*
X160100000Y-59600000D01*
X162250000Y-58550000D02*
X161200000Y-59600000D01*
X159500000Y-60200000D02*
X159500000Y-62100000D01*
X162600000Y-58550000D02*
X162250000Y-58550000D01*
G04 #@! TO.N,/16U2_RXD*
X132800000Y-63600000D02*
X132800000Y-63300004D01*
X128400000Y-68100000D02*
X132800000Y-63700000D01*
X124915000Y-68100000D02*
X128400000Y-68100000D01*
X132800000Y-63700000D02*
X132800000Y-63600000D01*
X121675000Y-71340000D02*
X124915000Y-68100000D01*
X121200000Y-71340000D02*
X121675000Y-71340000D01*
X158600000Y-62900203D02*
X158797032Y-63097235D01*
X158600000Y-59600000D02*
X158600000Y-62900203D01*
X159650000Y-58550000D02*
X158600000Y-59600000D01*
X159900000Y-58550000D02*
X159650000Y-58550000D01*
G04 #@! TO.N,/SCK_R*
X140805000Y-94030000D02*
X140900000Y-94125000D01*
X140805000Y-91567000D02*
X140805000Y-94030000D01*
G04 #@! TO.N,/USER_BUTTON*
X130400000Y-95400000D02*
X130400000Y-95700000D01*
X130400000Y-95850000D02*
X129250000Y-97000000D01*
X130400000Y-95700000D02*
X130400000Y-95850000D01*
X126050000Y-102250000D02*
X126050000Y-95750000D01*
X127650000Y-97350000D02*
X126050000Y-95750000D01*
X128600000Y-97350000D02*
X127650000Y-97350000D01*
G04 #@! TO.N,Net-(R22-Pad1)*
X124950000Y-89550000D02*
X126700000Y-89550000D01*
X124900000Y-89600000D02*
X124950000Y-89550000D01*
G04 #@! TD*
D48*
G04 #@! TO.N,+5V*
G36*
X105773000Y-100400000D02*
X105782667Y-100448601D01*
X105810197Y-100489803D01*
X105851399Y-100517333D01*
X105900000Y-100527000D01*
X109673000Y-100527000D01*
X109673000Y-103573000D01*
X102127000Y-103573000D01*
X102127000Y-96827000D01*
X105773000Y-96827000D01*
X105773000Y-100400000D01*
X105773000Y-100400000D01*
G37*
X105773000Y-100400000D02*
X105782667Y-100448601D01*
X105810197Y-100489803D01*
X105851399Y-100517333D01*
X105900000Y-100527000D01*
X109673000Y-100527000D01*
X109673000Y-103573000D01*
X102127000Y-103573000D01*
X102127000Y-96827000D01*
X105773000Y-96827000D01*
X105773000Y-100400000D01*
G04 #@! TO.N,/+5V_USB*
G36*
X110673000Y-93342969D02*
X109815626Y-94105079D01*
X109785724Y-94144593D01*
X109773000Y-94200000D01*
X109773000Y-95773000D01*
X102127000Y-95773000D01*
X102127000Y-93527000D01*
X105500000Y-93527000D01*
X105548601Y-93517333D01*
X105589803Y-93489803D01*
X106652606Y-92427000D01*
X109900000Y-92427000D01*
X109948601Y-92417333D01*
X109989803Y-92389803D01*
X110017333Y-92348601D01*
X110027000Y-92300000D01*
X110027000Y-91827000D01*
X110673000Y-91827000D01*
X110673000Y-93342969D01*
X110673000Y-93342969D01*
G37*
X110673000Y-93342969D02*
X109815626Y-94105079D01*
X109785724Y-94144593D01*
X109773000Y-94200000D01*
X109773000Y-95773000D01*
X102127000Y-95773000D01*
X102127000Y-93527000D01*
X105500000Y-93527000D01*
X105548601Y-93517333D01*
X105589803Y-93489803D01*
X106652606Y-92427000D01*
X109900000Y-92427000D01*
X109948601Y-92417333D01*
X109989803Y-92389803D01*
X110017333Y-92348601D01*
X110027000Y-92300000D01*
X110027000Y-91827000D01*
X110673000Y-91827000D01*
X110673000Y-93342969D01*
G04 #@! TO.N,+3V3*
G36*
X121073000Y-92900000D02*
X121082667Y-92948601D01*
X121110197Y-92989803D01*
X121151399Y-93017333D01*
X121200000Y-93027000D01*
X122950478Y-93027000D01*
X122982188Y-93048188D01*
X123073000Y-93139000D01*
X123073000Y-94273000D01*
X120200000Y-94273000D01*
X120151399Y-94282667D01*
X120110197Y-94310197D01*
X120082667Y-94351399D01*
X120073000Y-94400000D01*
X120073000Y-96573000D01*
X117427000Y-96573000D01*
X117427000Y-94270844D01*
X117500000Y-94285365D01*
X118100000Y-94285365D01*
X118266607Y-94252225D01*
X118304359Y-94227000D01*
X118700000Y-94227000D01*
X118748601Y-94217333D01*
X118789803Y-94189803D01*
X118817333Y-94148601D01*
X118827000Y-94100000D01*
X118827000Y-91772747D01*
X118923638Y-91628119D01*
X118943752Y-91527000D01*
X121073000Y-91527000D01*
X121073000Y-92900000D01*
X121073000Y-92900000D01*
G37*
X121073000Y-92900000D02*
X121082667Y-92948601D01*
X121110197Y-92989803D01*
X121151399Y-93017333D01*
X121200000Y-93027000D01*
X122950478Y-93027000D01*
X122982188Y-93048188D01*
X123073000Y-93139000D01*
X123073000Y-94273000D01*
X120200000Y-94273000D01*
X120151399Y-94282667D01*
X120110197Y-94310197D01*
X120082667Y-94351399D01*
X120073000Y-94400000D01*
X120073000Y-96573000D01*
X117427000Y-96573000D01*
X117427000Y-94270844D01*
X117500000Y-94285365D01*
X118100000Y-94285365D01*
X118266607Y-94252225D01*
X118304359Y-94227000D01*
X118700000Y-94227000D01*
X118748601Y-94217333D01*
X118789803Y-94189803D01*
X118817333Y-94148601D01*
X118827000Y-94100000D01*
X118827000Y-91772747D01*
X118923638Y-91628119D01*
X118943752Y-91527000D01*
X121073000Y-91527000D01*
X121073000Y-92900000D01*
G04 #@! TO.N,+5V*
G36*
X116873000Y-91655853D02*
X116873000Y-93873000D01*
X114600000Y-93873000D01*
X114551399Y-93882667D01*
X114510197Y-93910197D01*
X114482667Y-93951399D01*
X114473000Y-94000000D01*
X114473000Y-96273000D01*
X112427000Y-96273000D01*
X112427000Y-92427000D01*
X113800000Y-92427000D01*
X113848601Y-92417333D01*
X113879336Y-92399170D01*
X114844549Y-91627000D01*
X116829818Y-91627000D01*
X116873000Y-91655853D01*
X116873000Y-91655853D01*
G37*
X116873000Y-91655853D02*
X116873000Y-93873000D01*
X114600000Y-93873000D01*
X114551399Y-93882667D01*
X114510197Y-93910197D01*
X114482667Y-93951399D01*
X114473000Y-94000000D01*
X114473000Y-96273000D01*
X112427000Y-96273000D01*
X112427000Y-92427000D01*
X113800000Y-92427000D01*
X113848601Y-92417333D01*
X113879336Y-92399170D01*
X114844549Y-91627000D01*
X116829818Y-91627000D01*
X116873000Y-91655853D01*
G04 #@! TO.N,+5V_3V3*
G36*
X112910197Y-62589803D02*
X112951399Y-62617333D01*
X113000000Y-62627000D01*
X114873000Y-62627000D01*
X114873000Y-63873000D01*
X110727000Y-63873000D01*
X110727000Y-62700000D01*
X110717333Y-62651399D01*
X110689803Y-62610197D01*
X109689803Y-61610197D01*
X109648601Y-61582667D01*
X109600000Y-61573000D01*
X106300000Y-61573000D01*
X106251399Y-61582667D01*
X106219579Y-61601707D01*
X105119579Y-62501707D01*
X105088086Y-62539965D01*
X105073000Y-62600000D01*
X105073000Y-63771059D01*
X105060805Y-63779207D01*
X104998135Y-63873000D01*
X103027000Y-63873000D01*
X103027000Y-60427000D01*
X104600000Y-60427000D01*
X104648601Y-60417333D01*
X104689803Y-60389803D01*
X104952606Y-60127000D01*
X110447394Y-60127000D01*
X112910197Y-62589803D01*
X112910197Y-62589803D01*
G37*
X112910197Y-62589803D02*
X112951399Y-62617333D01*
X113000000Y-62627000D01*
X114873000Y-62627000D01*
X114873000Y-63873000D01*
X110727000Y-63873000D01*
X110727000Y-62700000D01*
X110717333Y-62651399D01*
X110689803Y-62610197D01*
X109689803Y-61610197D01*
X109648601Y-61582667D01*
X109600000Y-61573000D01*
X106300000Y-61573000D01*
X106251399Y-61582667D01*
X106219579Y-61601707D01*
X105119579Y-62501707D01*
X105088086Y-62539965D01*
X105073000Y-62600000D01*
X105073000Y-63771059D01*
X105060805Y-63779207D01*
X104998135Y-63873000D01*
X103027000Y-63873000D01*
X103027000Y-60427000D01*
X104600000Y-60427000D01*
X104648601Y-60417333D01*
X104689803Y-60389803D01*
X104952606Y-60127000D01*
X110447394Y-60127000D01*
X112910197Y-62589803D01*
G36*
X135973000Y-98173000D02*
X134400000Y-98173000D01*
X134351399Y-98182667D01*
X134314571Y-98206028D01*
X133214571Y-99206028D01*
X133185112Y-99245873D01*
X133173000Y-99300000D01*
X133173000Y-102973000D01*
X131127000Y-102973000D01*
X131127000Y-98827000D01*
X132400000Y-98827000D01*
X132448601Y-98817333D01*
X132481303Y-98797564D01*
X133081303Y-98297564D01*
X133112451Y-98259024D01*
X133127000Y-98200000D01*
X133127000Y-97227000D01*
X135973000Y-97227000D01*
X135973000Y-98173000D01*
X135973000Y-98173000D01*
G37*
X135973000Y-98173000D02*
X134400000Y-98173000D01*
X134351399Y-98182667D01*
X134314571Y-98206028D01*
X133214571Y-99206028D01*
X133185112Y-99245873D01*
X133173000Y-99300000D01*
X133173000Y-102973000D01*
X131127000Y-102973000D01*
X131127000Y-98827000D01*
X132400000Y-98827000D01*
X132448601Y-98817333D01*
X132481303Y-98797564D01*
X133081303Y-98297564D01*
X133112451Y-98259024D01*
X133127000Y-98200000D01*
X133127000Y-97227000D01*
X135973000Y-97227000D01*
X135973000Y-98173000D01*
G04 #@! TO.N,+3V3*
G36*
X138173000Y-102823000D02*
X136127000Y-102823000D01*
X136127000Y-100200000D01*
X136117333Y-100151399D01*
X136089803Y-100110197D01*
X136048601Y-100082667D01*
X136000000Y-100073000D01*
X134427000Y-100073000D01*
X134427000Y-99027000D01*
X138173000Y-99027000D01*
X138173000Y-102823000D01*
X138173000Y-102823000D01*
G37*
X138173000Y-102823000D02*
X136127000Y-102823000D01*
X136127000Y-100200000D01*
X136117333Y-100151399D01*
X136089803Y-100110197D01*
X136048601Y-100082667D01*
X136000000Y-100073000D01*
X134427000Y-100073000D01*
X134427000Y-99027000D01*
X138173000Y-99027000D01*
X138173000Y-102823000D01*
G04 #@! TO.N,+5V*
G36*
X140773000Y-97357215D02*
X140773000Y-99678370D01*
X140751399Y-99682667D01*
X140710197Y-99710197D01*
X140682667Y-99751399D01*
X140673000Y-99800000D01*
X140673000Y-102823000D01*
X138727000Y-102823000D01*
X138727000Y-100427000D01*
X139100000Y-100427000D01*
X139148601Y-100417333D01*
X139189803Y-100389803D01*
X139217333Y-100348601D01*
X139227000Y-100300000D01*
X139227000Y-98527000D01*
X139600000Y-98527000D01*
X139648601Y-98517333D01*
X139689803Y-98489803D01*
X139717333Y-98448601D01*
X139727000Y-98400000D01*
X139727000Y-97700000D01*
X139717333Y-97651399D01*
X139683630Y-97604423D01*
X138083630Y-96204423D01*
X138040688Y-96179694D01*
X138000000Y-96173000D01*
X134327000Y-96173000D01*
X134327000Y-95127000D01*
X138251888Y-95127000D01*
X140773000Y-97357215D01*
X140773000Y-97357215D01*
G37*
X140773000Y-97357215D02*
X140773000Y-99678370D01*
X140751399Y-99682667D01*
X140710197Y-99710197D01*
X140682667Y-99751399D01*
X140673000Y-99800000D01*
X140673000Y-102823000D01*
X138727000Y-102823000D01*
X138727000Y-100427000D01*
X139100000Y-100427000D01*
X139148601Y-100417333D01*
X139189803Y-100389803D01*
X139217333Y-100348601D01*
X139227000Y-100300000D01*
X139227000Y-98527000D01*
X139600000Y-98527000D01*
X139648601Y-98517333D01*
X139689803Y-98489803D01*
X139717333Y-98448601D01*
X139727000Y-98400000D01*
X139727000Y-97700000D01*
X139717333Y-97651399D01*
X139683630Y-97604423D01*
X138083630Y-96204423D01*
X138040688Y-96179694D01*
X138000000Y-96173000D01*
X134327000Y-96173000D01*
X134327000Y-95127000D01*
X138251888Y-95127000D01*
X140773000Y-97357215D01*
G04 #@! TO.N,GND*
G36*
X144773000Y-99100000D02*
X144782667Y-99148601D01*
X144823800Y-99201600D01*
X145973000Y-100063500D01*
X145973000Y-102823000D01*
X141327000Y-102823000D01*
X141327000Y-97327000D01*
X144773000Y-97327000D01*
X144773000Y-99100000D01*
X144773000Y-99100000D01*
G37*
X144773000Y-99100000D02*
X144782667Y-99148601D01*
X144823800Y-99201600D01*
X145973000Y-100063500D01*
X145973000Y-102823000D01*
X141327000Y-102823000D01*
X141327000Y-97327000D01*
X144773000Y-97327000D01*
X144773000Y-99100000D01*
G04 #@! TO.N,/+5_3V3_328P_AVCC*
G36*
X144373000Y-92600000D02*
X144382667Y-92648601D01*
X144410197Y-92689803D01*
X144873000Y-93152606D01*
X144873000Y-95200000D01*
X144882667Y-95248601D01*
X144910197Y-95289803D01*
X144951399Y-95317333D01*
X145000000Y-95327000D01*
X146873000Y-95327000D01*
X146873000Y-96473000D01*
X145100000Y-96473000D01*
X145051399Y-96482667D01*
X145010197Y-96510197D01*
X144982667Y-96551399D01*
X144973000Y-96600000D01*
X144973000Y-96773000D01*
X143827000Y-96773000D01*
X143827000Y-93300000D01*
X143817333Y-93251399D01*
X143778463Y-93200138D01*
X142427000Y-92138274D01*
X142427000Y-90327000D01*
X144373000Y-90327000D01*
X144373000Y-92600000D01*
X144373000Y-92600000D01*
G37*
X144373000Y-92600000D02*
X144382667Y-92648601D01*
X144410197Y-92689803D01*
X144873000Y-93152606D01*
X144873000Y-95200000D01*
X144882667Y-95248601D01*
X144910197Y-95289803D01*
X144951399Y-95317333D01*
X145000000Y-95327000D01*
X146873000Y-95327000D01*
X146873000Y-96473000D01*
X145100000Y-96473000D01*
X145051399Y-96482667D01*
X145010197Y-96510197D01*
X144982667Y-96551399D01*
X144973000Y-96600000D01*
X144973000Y-96773000D01*
X143827000Y-96773000D01*
X143827000Y-93300000D01*
X143817333Y-93251399D01*
X143778463Y-93200138D01*
X142427000Y-92138274D01*
X142427000Y-90327000D01*
X144373000Y-90327000D01*
X144373000Y-92600000D01*
G04 #@! TO.N,/+5_3V3_328P_VCC*
G36*
X150773000Y-94352606D02*
X150773000Y-98647394D01*
X150247394Y-99173000D01*
X149327000Y-99173000D01*
X149327000Y-93827000D01*
X150247394Y-93827000D01*
X150773000Y-94352606D01*
X150773000Y-94352606D01*
G37*
X150773000Y-94352606D02*
X150773000Y-98647394D01*
X150247394Y-99173000D01*
X149327000Y-99173000D01*
X149327000Y-93827000D01*
X150247394Y-93827000D01*
X150773000Y-94352606D01*
G04 #@! TO.N,GND*
G36*
X166273000Y-64200000D02*
X166282667Y-64248601D01*
X166310197Y-64289803D01*
X166351399Y-64317333D01*
X166400000Y-64327000D01*
X169573000Y-64327000D01*
X169573000Y-74573000D01*
X160227000Y-74573000D01*
X160227000Y-73156180D01*
X161285429Y-72193972D01*
X161314888Y-72154127D01*
X161327000Y-72100000D01*
X161327000Y-70327000D01*
X163100000Y-70327000D01*
X163148601Y-70317333D01*
X163189803Y-70289803D01*
X163217333Y-70248601D01*
X163227000Y-70200000D01*
X163227000Y-66500000D01*
X163217333Y-66451399D01*
X163189803Y-66410197D01*
X163148601Y-66382667D01*
X163100000Y-66373000D01*
X161500000Y-66373000D01*
X161451399Y-66382667D01*
X161410197Y-66410197D01*
X161382667Y-66451399D01*
X161373000Y-66500000D01*
X161373000Y-68073000D01*
X159427000Y-68073000D01*
X159427000Y-64927000D01*
X160300000Y-64927000D01*
X160363010Y-64910267D01*
X164533727Y-62527000D01*
X166273000Y-62527000D01*
X166273000Y-64200000D01*
X166273000Y-64200000D01*
G37*
X166273000Y-64200000D02*
X166282667Y-64248601D01*
X166310197Y-64289803D01*
X166351399Y-64317333D01*
X166400000Y-64327000D01*
X169573000Y-64327000D01*
X169573000Y-74573000D01*
X160227000Y-74573000D01*
X160227000Y-73156180D01*
X161285429Y-72193972D01*
X161314888Y-72154127D01*
X161327000Y-72100000D01*
X161327000Y-70327000D01*
X163100000Y-70327000D01*
X163148601Y-70317333D01*
X163189803Y-70289803D01*
X163217333Y-70248601D01*
X163227000Y-70200000D01*
X163227000Y-66500000D01*
X163217333Y-66451399D01*
X163189803Y-66410197D01*
X163148601Y-66382667D01*
X163100000Y-66373000D01*
X161500000Y-66373000D01*
X161451399Y-66382667D01*
X161410197Y-66410197D01*
X161382667Y-66451399D01*
X161373000Y-66500000D01*
X161373000Y-68073000D01*
X159427000Y-68073000D01*
X159427000Y-64927000D01*
X160300000Y-64927000D01*
X160363010Y-64910267D01*
X164533727Y-62527000D01*
X166273000Y-62527000D01*
X166273000Y-64200000D01*
G36*
X142073000Y-66073000D02*
X140627000Y-66073000D01*
X140627000Y-55127000D01*
X142073000Y-55127000D01*
X142073000Y-66073000D01*
X142073000Y-66073000D01*
G37*
X142073000Y-66073000D02*
X140627000Y-66073000D01*
X140627000Y-55127000D01*
X142073000Y-55127000D01*
X142073000Y-66073000D01*
G36*
X106283393Y-80202225D02*
X106450000Y-80235365D01*
X106573000Y-80235365D01*
X106573000Y-81449119D01*
X106570600Y-81454913D01*
X106570600Y-81540467D01*
X106558758Y-81600000D01*
X106570600Y-81659533D01*
X106570600Y-81673000D01*
X105000000Y-81673000D01*
X104951399Y-81682667D01*
X104910197Y-81710197D01*
X104882667Y-81751399D01*
X104873000Y-81800000D01*
X104873000Y-85200000D01*
X104882667Y-85248601D01*
X104910197Y-85289803D01*
X104951399Y-85317333D01*
X105000000Y-85327000D01*
X106773000Y-85327000D01*
X106773000Y-87200000D01*
X106782667Y-87248601D01*
X106815041Y-87294398D01*
X107815041Y-88194398D01*
X107857633Y-88219725D01*
X107900000Y-88227000D01*
X111100000Y-88227000D01*
X111148601Y-88217333D01*
X111189803Y-88189803D01*
X111217333Y-88148601D01*
X111227000Y-88100000D01*
X111227000Y-86227000D01*
X114300000Y-86227000D01*
X114340161Y-86220483D01*
X116090457Y-85637051D01*
X116275200Y-85673799D01*
X116275204Y-85673799D01*
X116346799Y-85688040D01*
X116418394Y-85673799D01*
X118553948Y-85673799D01*
X118625543Y-85688040D01*
X118697138Y-85673799D01*
X118697142Y-85673799D01*
X118909204Y-85631617D01*
X118916114Y-85627000D01*
X118949119Y-85627000D01*
X118954913Y-85629400D01*
X119245087Y-85629400D01*
X119250881Y-85627000D01*
X119366809Y-85627000D01*
X119364051Y-85684917D01*
X119326201Y-85875201D01*
X119326201Y-85875204D01*
X119311960Y-85946799D01*
X119326201Y-86018394D01*
X119326201Y-86479759D01*
X119281133Y-87426201D01*
X117018393Y-87426201D01*
X116946798Y-87411960D01*
X116875203Y-87426201D01*
X116875200Y-87426201D01*
X116663138Y-87468383D01*
X116656228Y-87473000D01*
X116000000Y-87473000D01*
X115951399Y-87482667D01*
X115912414Y-87508034D01*
X113812414Y-89508034D01*
X113783887Y-89548553D01*
X113773000Y-89600000D01*
X113773000Y-91573000D01*
X111900000Y-91573000D01*
X111851399Y-91582667D01*
X111810197Y-91610197D01*
X111782667Y-91651399D01*
X111773000Y-91700000D01*
X111773000Y-96500000D01*
X111782667Y-96548601D01*
X111815626Y-96594921D01*
X112715626Y-97394921D01*
X112758373Y-97419984D01*
X112800000Y-97427000D01*
X120500000Y-97427000D01*
X120548601Y-97417333D01*
X120589803Y-97389803D01*
X120617333Y-97348601D01*
X120627000Y-97300000D01*
X120627000Y-94827000D01*
X122873000Y-94827000D01*
X122873000Y-96873000D01*
X122000000Y-96873000D01*
X121951399Y-96882667D01*
X121910197Y-96910197D01*
X121882667Y-96951399D01*
X121873000Y-97000000D01*
X121873000Y-101000000D01*
X121882667Y-101048601D01*
X121910197Y-101089803D01*
X121951399Y-101117333D01*
X122000000Y-101127000D01*
X122873000Y-101127000D01*
X122873000Y-103573000D01*
X110527000Y-103573000D01*
X110527000Y-99800000D01*
X110517333Y-99751399D01*
X110489803Y-99710197D01*
X110448601Y-99682667D01*
X110400000Y-99673000D01*
X107827000Y-99673000D01*
X107827000Y-96327000D01*
X110200000Y-96327000D01*
X110248601Y-96317333D01*
X110289803Y-96289803D01*
X110317333Y-96248601D01*
X110327000Y-96200000D01*
X110327000Y-94457031D01*
X111184374Y-93694921D01*
X111214276Y-93655407D01*
X111227000Y-93600000D01*
X111227000Y-91400000D01*
X111217333Y-91351399D01*
X111189803Y-91310197D01*
X111148601Y-91282667D01*
X111100000Y-91273000D01*
X109600000Y-91273000D01*
X109551399Y-91282667D01*
X109510197Y-91310197D01*
X109482667Y-91351399D01*
X109473000Y-91400000D01*
X109473000Y-91873000D01*
X106400000Y-91873000D01*
X106351399Y-91882667D01*
X106310197Y-91910197D01*
X105247394Y-92973000D01*
X102127000Y-92973000D01*
X102127000Y-80127000D01*
X106170810Y-80127000D01*
X106283393Y-80202225D01*
X106283393Y-80202225D01*
G37*
X106283393Y-80202225D02*
X106450000Y-80235365D01*
X106573000Y-80235365D01*
X106573000Y-81449119D01*
X106570600Y-81454913D01*
X106570600Y-81540467D01*
X106558758Y-81600000D01*
X106570600Y-81659533D01*
X106570600Y-81673000D01*
X105000000Y-81673000D01*
X104951399Y-81682667D01*
X104910197Y-81710197D01*
X104882667Y-81751399D01*
X104873000Y-81800000D01*
X104873000Y-85200000D01*
X104882667Y-85248601D01*
X104910197Y-85289803D01*
X104951399Y-85317333D01*
X105000000Y-85327000D01*
X106773000Y-85327000D01*
X106773000Y-87200000D01*
X106782667Y-87248601D01*
X106815041Y-87294398D01*
X107815041Y-88194398D01*
X107857633Y-88219725D01*
X107900000Y-88227000D01*
X111100000Y-88227000D01*
X111148601Y-88217333D01*
X111189803Y-88189803D01*
X111217333Y-88148601D01*
X111227000Y-88100000D01*
X111227000Y-86227000D01*
X114300000Y-86227000D01*
X114340161Y-86220483D01*
X116090457Y-85637051D01*
X116275200Y-85673799D01*
X116275204Y-85673799D01*
X116346799Y-85688040D01*
X116418394Y-85673799D01*
X118553948Y-85673799D01*
X118625543Y-85688040D01*
X118697138Y-85673799D01*
X118697142Y-85673799D01*
X118909204Y-85631617D01*
X118916114Y-85627000D01*
X118949119Y-85627000D01*
X118954913Y-85629400D01*
X119245087Y-85629400D01*
X119250881Y-85627000D01*
X119366809Y-85627000D01*
X119364051Y-85684917D01*
X119326201Y-85875201D01*
X119326201Y-85875204D01*
X119311960Y-85946799D01*
X119326201Y-86018394D01*
X119326201Y-86479759D01*
X119281133Y-87426201D01*
X117018393Y-87426201D01*
X116946798Y-87411960D01*
X116875203Y-87426201D01*
X116875200Y-87426201D01*
X116663138Y-87468383D01*
X116656228Y-87473000D01*
X116000000Y-87473000D01*
X115951399Y-87482667D01*
X115912414Y-87508034D01*
X113812414Y-89508034D01*
X113783887Y-89548553D01*
X113773000Y-89600000D01*
X113773000Y-91573000D01*
X111900000Y-91573000D01*
X111851399Y-91582667D01*
X111810197Y-91610197D01*
X111782667Y-91651399D01*
X111773000Y-91700000D01*
X111773000Y-96500000D01*
X111782667Y-96548601D01*
X111815626Y-96594921D01*
X112715626Y-97394921D01*
X112758373Y-97419984D01*
X112800000Y-97427000D01*
X120500000Y-97427000D01*
X120548601Y-97417333D01*
X120589803Y-97389803D01*
X120617333Y-97348601D01*
X120627000Y-97300000D01*
X120627000Y-94827000D01*
X122873000Y-94827000D01*
X122873000Y-96873000D01*
X122000000Y-96873000D01*
X121951399Y-96882667D01*
X121910197Y-96910197D01*
X121882667Y-96951399D01*
X121873000Y-97000000D01*
X121873000Y-101000000D01*
X121882667Y-101048601D01*
X121910197Y-101089803D01*
X121951399Y-101117333D01*
X122000000Y-101127000D01*
X122873000Y-101127000D01*
X122873000Y-103573000D01*
X110527000Y-103573000D01*
X110527000Y-99800000D01*
X110517333Y-99751399D01*
X110489803Y-99710197D01*
X110448601Y-99682667D01*
X110400000Y-99673000D01*
X107827000Y-99673000D01*
X107827000Y-96327000D01*
X110200000Y-96327000D01*
X110248601Y-96317333D01*
X110289803Y-96289803D01*
X110317333Y-96248601D01*
X110327000Y-96200000D01*
X110327000Y-94457031D01*
X111184374Y-93694921D01*
X111214276Y-93655407D01*
X111227000Y-93600000D01*
X111227000Y-91400000D01*
X111217333Y-91351399D01*
X111189803Y-91310197D01*
X111148601Y-91282667D01*
X111100000Y-91273000D01*
X109600000Y-91273000D01*
X109551399Y-91282667D01*
X109510197Y-91310197D01*
X109482667Y-91351399D01*
X109473000Y-91400000D01*
X109473000Y-91873000D01*
X106400000Y-91873000D01*
X106351399Y-91882667D01*
X106310197Y-91910197D01*
X105247394Y-92973000D01*
X102127000Y-92973000D01*
X102127000Y-80127000D01*
X106170810Y-80127000D01*
X106283393Y-80202225D01*
G04 #@! TD*
M02*
