M48
;DRILL file {KiCad (5.0.0-3-g5ebb6b6)} date Tuesday, 25 September 2018 at 10:11:29 PM
;FORMAT={-:-/ absolute / inch / decimal}
FMAT,2
INCH,TZ
T1C0.0118
T2C0.0197
T3C0.0394
T4C0.0433
T5C0.0591
T6C0.1260
%
G90
G05
M72
T1
X4.063Y-2.9882
X4.1732Y-2.9882
X4.2008Y-2.0492
X4.2165Y-2.3228
X4.2244Y-3.2126
X4.2244Y-3.2441
X4.2951Y-3.2106
X4.3028Y-3.3839
X4.3091Y-3.1201
X4.3268Y-2.9429
X4.3484Y-3.628
X4.3484Y-3.6614
X4.374Y-2.815
X4.374Y-2.6437
X4.392Y-3.0278
X4.4016Y-3.5079
X4.4035Y-3.1417
X4.4094Y-2.6437
X4.4291Y-3.5079
X4.4291Y-3.5354
X4.439Y-3.2638
X4.439Y-3.3425
X4.4567Y-3.5079
X4.4606Y-3.437
X4.4803Y-2.4764
X4.4803Y-2.5039
X4.5079Y-2.4921
X4.5079Y-3.4094
X4.5079Y-3.437
X4.5079Y-3.4646
X4.5197Y-3.2224
X4.5906Y-3.0276
X4.5984Y-3.3126
X4.6195Y-3.5815
X4.6299Y-3.2854
X4.6614Y-3.5669
X4.6713Y-2.4668
X4.689Y-3.3425
X4.6949Y-3.2657
X4.7205Y-2.9685
X4.7224Y-2.4587
X4.7654Y-3.5331
X4.7953Y-3.2636
X4.8012Y-2.3976
X4.815Y-3.565
X4.8189Y-2.5039
X4.8425Y-3.2717
X4.8661Y-2.7815
X4.8819Y-3.1181
X4.8898Y-2.3583
X4.8937Y-2.2008
X4.8976Y-3.565
X4.9429Y-3.2953
X4.9882Y-3.4016
X5.061Y-3.1339
X5.0669Y-2.7362
X5.0945Y-2.1811
X5.1299Y-3.8228
X5.1772Y-2.4409
X5.1929Y-3.4409
X5.2008Y-3.7953
X5.2283Y-2.4449
X5.2283Y-2.4921
X5.2283Y-3.2047
X5.252Y-3.8425
X5.2795Y-3.8425
X5.2953Y-3.0866
X5.2953Y-3.4409
X5.4548Y-3.8444
X5.5512Y-2.1772
X5.5512Y-2.2047
X5.5512Y-2.5669
X5.5512Y-2.5945
X5.5748Y-3.7559
X5.5787Y-2.1772
X5.5787Y-2.2047
X5.5787Y-2.5669
X5.5787Y-2.5945
X5.5787Y-3.8425
X5.5906Y-3.122
X5.5945Y-3.6575
X5.6142Y-3.8425
X5.6496Y-3.8425
X5.685Y-3.8425
X5.7283Y-3.2402
X5.7539Y-3.9075
X5.7904Y-3.4695
X5.7933Y-3.6555
X5.8248Y-3.9311
X5.8425Y-3.7441
X5.874Y-3.122
X5.9016Y-3.7087
X6.2519Y-2.4841
X6.2795Y-2.4449
X6.2953Y-2.5709
X6.2953Y-2.6024
X6.2953Y-2.6339
X6.2953Y-3.3937
X6.3031Y-2.5236
X6.3071Y-2.3937
X6.3425Y-3.3937
X6.4252Y-3.7913
X6.4252Y-3.8189
X6.4567Y-2.3051
X6.4843Y-3.376
X6.4862Y-3.4055
X6.6297Y-3.4571
X6.6693Y-3.5984
T3
X6.3484Y-2.8957
X6.3484Y-3.0728
X6.6043Y-2.8957
X6.6043Y-3.0728
X4.7854Y-3.7697
X4.7854Y-4.0256
X4.9626Y-3.7697
X4.9626Y-4.0256
T4
X4.74Y-2.1
X4.84Y-2.1
X4.94Y-2.1
X5.04Y-2.1
X5.14Y-2.1
X5.24Y-2.1
X5.34Y-2.1
X5.44Y-2.1
X5.54Y-2.1
X5.64Y-2.1
X6.6063Y-2.2535
X6.6063Y-2.3535
X6.6063Y-2.4535
X5.1Y-4.
X5.2Y-4.
X5.3Y-4.
X5.4Y-4.
X5.5Y-4.
X5.6Y-4.
X5.7Y-4.
X5.8Y-4.
X5.8Y-2.1
X5.9Y-2.1
X6.Y-2.1
X6.1Y-2.1
X6.2Y-2.1
X6.3Y-2.1
X6.4Y-2.1
X6.5Y-2.1
X4.1Y-2.48
X4.1Y-2.58
X4.2Y-2.48
X4.2Y-2.58
X4.3Y-2.48
X4.3Y-2.58
X4.5748Y-2.3441
X4.5748Y-2.4441
X4.5748Y-2.5441
X4.5748Y-2.6441
X5.1435Y-3.305
X5.1435Y-3.605
X5.2435Y-3.305
X5.2435Y-3.605
X5.3435Y-3.305
X5.3435Y-3.605
X5.4435Y-3.305
X5.4435Y-3.605
X5.5435Y-3.305
X5.5435Y-3.605
X5.6435Y-3.305
X5.6435Y-3.605
X5.7435Y-3.305
X5.7435Y-3.605
X5.8435Y-3.305
X5.8435Y-3.605
X5.9435Y-3.305
X5.9435Y-3.605
X6.0435Y-3.305
X6.0435Y-3.605
X6.1435Y-3.305
X6.1435Y-3.605
X6.2435Y-3.305
X6.2435Y-3.605
X6.3435Y-3.305
X6.3435Y-3.605
X6.4435Y-3.305
X6.4435Y-3.605
X6.Y-4.
X6.1Y-4.
X6.2Y-4.
X6.3Y-4.
X6.4Y-4.
X6.5Y-4.
X4.1Y-2.14
X4.1Y-2.24
X4.2Y-2.14
X4.2Y-2.24
X4.3Y-2.14
X4.3Y-2.24
X4.4575Y-3.7535
X4.5575Y-3.7535
X4.6575Y-3.7535
X4.1Y-2.7535
X4.1Y-2.8535
X4.2Y-2.7535
X4.2Y-2.8535
T5
X4.0866Y-3.5748
X4.0866Y-4.0079
T6
X4.55Y-4.
X6.6Y-2.7
X6.6Y-3.8
T2
X4.0925Y-3.1787G85X4.065Y-3.1787
G05
X4.0925Y-3.4386G85X4.065Y-3.4386
G05
T0
M30
